<?xml version="1.0" encoding="utf-8"?>
<!-- Generator: Adobe Illustrator 27.5.0, SVG Export Plug-In . SVG Version: 6.00 Build 0)  -->
<svg version="1.1" id="_x2018_лой_x5F_1" xmlns="http://www.w3.org/2000/svg" xmlns:xlink="http://www.w3.org/1999/xlink"
	 x="0px" y="0px" viewBox="0 0 3200 2000" style="enable-background:new 0 0 3200 2000;" xml:space="preserve">
<rect style="fill:#FFFFFF;" width="3200" height="2000"/>
<g>
	<path style="fill:#EBF3FA;" d="M404.797,1822.647c0,0-317.969-296.311-29.929-676.984
		c242.494-320.48-13.67-597.027,142.025-819.349c254.386-363.243,821.612-267.16,1135.19-3.082
		c237.795,200.258,453.588-110.345,835.911,32.326c446,166.433,43.41,699.669,305.657,780.335
		c266.288,81.909,226.266,461.151-14.181,692.717L404.797,1822.647z"/>
	<g>
		
			<ellipse transform="matrix(0.7071 -0.7071 0.7071 0.7071 -300.3248 1633.8999)" style="fill:#FF905F;" cx="1822.129" cy="1179.474" rx="469.877" ry="469.877"/>
		<circle style="fill:#FFC6B0;" cx="1822.129" cy="1179.474" r="429.588"/>
		
			<ellipse transform="matrix(0.7071 -0.7071 0.7071 0.7071 -300.3247 1633.8997)" style="fill:#F78248;" cx="1822.129" cy="1179.474" rx="401.471" ry="401.471"/>
		<path style="fill:#EA7147;" d="M1586.956,1059.972c-11.902-70.827,33.074-128.997,102.338-147.987
			c94.542-25.921,149.757,46.771,161.659,117.598c11.902,70.826-35.243,148.296-119.594,149.571
			C1659.548,1180.239,1598.858,1130.798,1586.956,1059.972z"/>
		<path style="fill:#FFA076;" d="M1652.473,1004.826c-4.189-24.931,11.643-45.406,36.022-52.09
			c33.278-9.124,52.713,16.463,56.902,41.393c4.189,24.931-12.405,52.199-42.096,52.648
			C1678.024,1047.159,1656.662,1029.756,1652.473,1004.826z"/>
		<path style="fill:#FFA076;" d="M1766.861,1264.003c2.484-18.3,13.356-29.775,25.709-29.979
			c16.861-0.278,21.246,21.295,18.762,39.595c-2.485,18.299-14.907,34.41-28.592,29.25
			C1771.09,1298.477,1764.376,1282.303,1766.861,1264.003z"/>
		<path style="fill:#FFA076;" d="M1862.548,1245.389c-5.759-23.251,2.141-42.357,17.31-48.605
			c20.705-8.528,36.533,15.327,42.293,38.578c5.759,23.252-1.82,48.695-21.224,49.129
			C1884.409,1284.86,1868.307,1268.64,1862.548,1245.389z"/>
		<path style="fill:#FFA076;" d="M1973.384,1095.45c20.985,11.55,29.657,30.318,23.951,45.699
			c-7.788,20.995-36.052,16.431-57.036,4.88c-20.985-11.55-34.529-34.384-21.68-48.929
			C1929.558,1084.718,1952.399,1083.899,1973.384,1095.45z"/>
		<path style="fill:#FFA076;" d="M2040.824,1217.187c20.985,11.55,29.657,30.318,23.951,45.699
			c-7.789,20.994-36.052,16.431-57.037,4.88c-20.984-11.55-34.527-34.384-21.679-48.929
			C1996.998,1206.454,2019.84,1205.636,2040.824,1217.187z"/>
		<path style="fill:#F78248;" d="M1601.458,755.154c-2.712-16.143,8.424-30.223,24.317-34.141
			c18.258-4.501,31.429,8.175,34.142,24.317c2.713,16.143-8.442,30.148-24.317,34.142
			C1619.755,783.456,1604.171,771.297,1601.458,755.154z"/>
		<path style="fill:#EA7147;" d="M1614.627,752.941c-1.491-8.87,4.807-15.982,13.361-18.76c8.689-2.821,17.27,4.492,18.76,13.362
			c1.491,8.87-4.727,16.243-13.361,18.76C1624.706,768.833,1616.117,761.812,1614.627,752.941z"/>
		<path style="fill:#F78248;" d="M1478.592,850.983c-1.743-10.374,5.414-19.423,15.627-21.941
			c11.733-2.893,20.198,5.253,21.941,15.628c1.743,10.374-5.426,19.375-15.627,21.941
			C1490.35,869.172,1480.335,861.357,1478.592,850.983z"/>
		<path style="fill:#EA7147;" d="M1487.055,849.561c-0.958-5.701,3.089-10.271,8.587-12.056c5.584-1.813,11.098,2.887,12.056,8.587
			c0.958,5.701-3.037,10.438-8.587,12.056C1493.532,859.774,1488.012,855.261,1487.055,849.561z"/>
		<path style="fill:#F78248;" d="M1417.199,921.646c-2.34-13.922,7.265-26.065,20.972-29.445
			c15.746-3.882,27.105,7.05,29.445,20.973c2.339,13.922-7.281,26.001-20.973,29.445
			C1432.979,946.056,1419.538,935.569,1417.199,921.646z"/>
		<path style="fill:#EA7147;" d="M1428.556,919.738c-1.286-7.65,4.146-13.784,11.524-16.18c7.494-2.433,14.894,3.874,16.179,11.524
			c1.286,7.65-4.076,14.008-11.523,16.179C1437.249,933.445,1429.841,927.388,1428.556,919.738z"/>
		<path style="fill:#F78248;" d="M1809.092,705.206c-2.713-16.143,8.424-30.223,24.317-34.141
			c18.257-4.5,31.429,8.175,34.141,24.318c2.713,16.143-8.442,30.148-24.317,34.141
			C1827.388,733.509,1811.804,721.349,1809.092,705.206z"/>
		<path style="fill:#EA7147;" d="M1822.26,702.994c-1.49-8.871,4.807-15.982,13.362-18.76c8.688-2.821,17.269,4.492,18.76,13.362
			c1.49,8.87-4.728,16.242-13.362,18.76C1832.34,718.886,1823.75,711.864,1822.26,702.994z"/>
		<path style="fill:#F78248;" d="M1735.492,711.911c-2.245-13.357,6.971-25.008,20.121-28.249
			c15.106-3.724,26.005,6.764,28.25,20.121c2.244,13.357-6.986,24.946-20.122,28.25
			C1750.631,735.33,1737.736,725.269,1735.492,711.911z"/>
		<path style="fill:#EA7147;" d="M1746.388,710.08c-1.233-7.339,3.978-13.224,11.057-15.522c7.189-2.335,14.289,3.717,15.522,11.056
			s-3.911,13.439-11.057,15.522C1754.729,723.231,1747.621,717.42,1746.388,710.08z"/>
		<path style="fill:#F78248;" d="M1337.721,1160.89c-2.245-13.357,6.97-25.008,20.121-28.25c15.107-3.724,26.005,6.765,28.25,20.121
			c2.245,13.357-6.985,24.946-20.121,28.25C1352.86,1184.309,1339.966,1174.247,1337.721,1160.89z"/>
		<path style="fill:#EA7147;" d="M1348.617,1159.059c-1.233-7.34,3.978-13.225,11.056-15.522c7.19-2.335,14.29,3.716,15.523,11.056
			c1.233,7.34-3.911,13.439-11.057,15.523C1356.958,1172.209,1349.851,1166.398,1348.617,1159.059z"/>
		<path style="fill:#F78248;" d="M1921.237,736.248c-2.244-13.352,6.968-24.997,20.112-28.238
			c15.102-3.723,25.995,6.761,28.238,20.113c2.244,13.352-6.982,24.936-20.113,28.238
			C1936.37,759.658,1923.48,749.601,1921.237,736.248z"/>
		<path style="fill:#EA7147;" d="M1932.129,734.419c-1.233-7.337,3.976-13.219,11.052-15.517
			c7.187-2.333,14.283,3.715,15.517,11.052c1.232,7.336-3.91,13.434-11.052,15.517
			C1940.466,747.563,1933.361,741.755,1932.129,734.419z"/>
		<path style="fill:#F78248;" d="M2066.217,790.281c-2.713-16.143,8.424-30.223,24.317-34.141
			c18.257-4.501,31.429,8.175,34.141,24.317c2.713,16.143-8.442,30.149-24.317,34.142
			C2084.513,818.583,2068.93,806.424,2066.217,790.281z"/>
		<path style="fill:#EA7147;" d="M2079.385,788.068c-1.49-8.87,4.807-15.982,13.362-18.76c8.688-2.822,17.269,4.492,18.76,13.362
			c1.49,8.87-4.728,16.243-13.362,18.76C2089.465,803.96,2080.875,796.938,2079.385,788.068z"/>
		<path style="fill:#F78248;" d="M2104.679,840.313c-2.102-12.506,6.526-23.415,18.84-26.451c14.145-3.487,24.349,6.333,26.45,18.84
			c2.102,12.506-6.54,23.357-18.84,26.451C2118.854,862.24,2106.78,852.819,2104.679,840.313z"/>
		<path style="fill:#EA7147;" d="M2114.881,838.599c-1.155-6.872,3.725-12.382,10.353-14.534c6.731-2.186,13.379,3.48,14.534,10.352
			c1.154,6.872-3.662,12.583-10.353,14.534C2122.69,850.911,2116.035,845.471,2114.881,838.599z"/>
		<path style="fill:#EA7147;" d="M1551.482,778.544c-1.158-16.328,8.175-31.428,24.317-34.141
			c16.144-2.713,31.429,8.174,34.142,24.317c2.713,16.143-7.928,32.404-24.317,34.142
			C1569.346,804.588,1552.405,791.551,1551.482,778.544z"/>
		<path style="fill:#F78248;" d="M1562.888,776.628c-4.042-9.126,4.985-19.165,14.829-20.819s19.165,4.985,20.819,14.829
			c1.654,9.843-4.985,19.164-14.829,20.818C1573.863,793.11,1566.522,784.832,1562.888,776.628z"/>
		<path style="fill:#EA7147;" d="M1705.59,731.969c-0.797-11.229,5.621-21.614,16.724-23.479
			c11.102-1.866,21.613,5.622,23.479,16.724c1.865,11.102-5.452,22.285-16.724,23.479
			C1717.874,749.879,1706.224,740.914,1705.59,731.969z"/>
		<path style="fill:#F78248;" d="M1713.434,730.651c-2.78-6.277,3.428-13.18,10.197-14.318c6.771-1.138,13.181,3.428,14.318,10.198
			c1.137,6.769-3.429,13.18-10.198,14.317C1720.981,741.986,1715.933,736.293,1713.434,730.651z"/>
		<path style="fill:#EA7147;" d="M1966.89,742.567c-1.014-14.294,7.157-27.514,21.289-29.889
			c14.132-2.375,27.514,7.156,29.889,21.289c2.374,14.132-6.94,28.367-21.289,29.889
			C1982.528,765.367,1967.697,753.953,1966.89,742.567z"/>
		<path style="fill:#F78248;" d="M1976.875,740.89c-3.539-7.99,4.363-16.777,12.981-18.225c8.618-1.448,16.777,4.364,18.226,12.981
			c1.448,8.618-4.364,16.778-12.981,18.226C1986.483,755.319,1980.057,748.072,1976.875,740.89z"/>
		<path style="fill:#EA7147;" d="M1359.425,1017.885c-0.938-13.227,6.622-25.458,19.698-27.655
			c13.076-2.197,25.458,6.622,27.655,19.698c2.197,13.076-6.422,26.247-19.698,27.654
			C1373.895,1038.98,1360.172,1028.42,1359.425,1017.885z"/>
		<path style="fill:#F78248;" d="M1368.664,1016.332c-3.274-7.392,4.038-15.523,12.011-16.864
			c7.974-1.34,15.524,4.038,16.864,12.011c1.34,7.974-4.038,15.524-12.012,16.864
			C1377.554,1029.684,1371.607,1022.977,1368.664,1016.332z"/>
		<path style="fill:#FFC6B0;" d="M1498.416,817.517c-6.49-18.165,8.174-31.429,24.317-34.142
			c16.143-2.712,29.527,8.378,34.141,24.318c4.552,15.724-8.386,29.828-26.327,32.843
			C1514.405,843.249,1503.923,832.932,1498.416,817.517z"/>
		<path style="fill:#F78248;" d="M1513.064,815.055c-1.353-8.053,4.654-13.748,12.131-17.031c7.672-3.37,15.114,0.725,17.03,12.13
			c1.354,8.053-2.725,15.45-12.13,17.031C1522.043,828.539,1514.418,823.108,1513.064,815.055z"/>
		<path style="fill:#FFC6B0;" d="M1431.602,878.231c-6.49-18.165,8.175-31.428,24.317-34.141
			c16.143-2.713,29.527,8.379,34.141,24.317c4.552,15.724-8.386,29.829-26.327,32.843
			C1447.591,903.963,1437.109,893.646,1431.602,878.231z"/>
		<path style="fill:#F78248;" d="M1446.25,875.769c-1.353-8.053,4.654-13.747,12.131-17.031c7.672-3.37,15.114,0.725,17.03,12.131
			c1.354,8.052-2.724,15.45-12.13,17.03C1455.229,889.253,1447.604,883.822,1446.25,875.769z"/>
		<path style="fill:#FFC6B0;" d="M1865.323,719.545c-6.489-18.165,8.175-31.429,24.317-34.141
			c16.144-2.713,29.527,8.378,34.142,24.317c4.552,15.724-8.386,29.829-26.327,32.843
			C1881.313,745.278,1870.831,734.96,1865.323,719.545z"/>
		<path style="fill:#F78248;" d="M1879.973,717.083c-1.354-8.052,4.653-13.747,12.13-17.031c7.673-3.37,15.114,0.725,17.031,12.13
			c1.353,8.053-2.725,15.45-12.131,17.031C1888.95,730.567,1881.325,725.136,1879.973,717.083z"/>
		<path style="fill:#FFC6B0;" d="M1771.448,721.6c-5.402-15.121,6.805-26.161,20.242-28.419s24.579,6.974,28.42,20.242
			c3.789,13.088-6.98,24.83-21.915,27.339C1784.758,743.019,1776.033,734.431,1771.448,721.6z"/>
		<path style="fill:#F78248;" d="M1783.643,719.55c-1.127-6.703,3.874-11.443,10.097-14.176c6.387-2.805,12.581,0.603,14.177,10.097
			c1.127,6.703-2.268,12.861-10.098,14.177C1791.115,730.774,1784.769,726.253,1783.643,719.55z"/>
		<path style="fill:#FFC6B0;" d="M1648.003,726.828c-6.49-18.165,8.174-31.429,24.317-34.142
			c16.143-2.712,29.527,8.379,34.141,24.318c4.553,15.724-8.385,29.829-26.326,32.843
			C1663.992,752.56,1653.51,742.243,1648.003,726.828z"/>
		<path style="fill:#F78248;" d="M1662.651,724.366c-1.354-8.053,4.654-13.747,12.13-17.031c7.673-3.37,15.115,0.725,17.031,12.13
			c1.354,8.053-2.725,15.45-12.131,17.031C1671.63,737.85,1664.005,732.419,1662.651,724.366z"/>
		<path style="fill:#F78248;" d="M2049.287,1597.969c2.713,16.143-8.424,30.223-24.318,34.141
			c-18.257,4.501-31.428-8.174-34.141-24.317c-2.713-16.143,8.442-30.148,24.317-34.141
			C2030.99,1569.666,2046.574,1581.825,2049.287,1597.969z"/>
		<path style="fill:#EA7147;" d="M2036.118,1600.182c1.491,8.87-4.807,15.981-13.362,18.76c-8.688,2.821-17.269-4.492-18.76-13.362
			c-1.49-8.87,4.727-16.242,13.362-18.76C2026.039,1584.289,2034.628,1591.312,2036.118,1600.182z"/>
		<path style="fill:#F78248;" d="M1841.653,1647.916c2.713,16.143-8.424,30.224-24.317,34.142
			c-18.257,4.501-31.429-8.175-34.142-24.317c-2.712-16.144,8.443-30.148,24.318-34.142
			C1823.357,1619.613,1838.94,1631.773,1841.653,1647.916z"/>
		<path style="fill:#EA7147;" d="M1828.485,1650.129c1.49,8.87-4.808,15.982-13.362,18.76c-8.688,2.822-17.27-4.491-18.76-13.361
			c-1.49-8.871,4.727-16.243,13.361-18.76C1818.405,1634.236,1826.995,1641.259,1828.485,1650.129z"/>
		<path style="fill:#F78248;" d="M1915.253,1641.211c2.245,13.357-6.971,25.008-20.121,28.25
			c-15.106,3.725-26.005-6.764-28.25-20.121c-2.244-13.357,6.986-24.946,20.121-28.25
			C1900.114,1617.793,1913.008,1627.854,1915.253,1641.211z"/>
		<path style="fill:#EA7147;" d="M1904.357,1643.042c1.232,7.34-3.979,13.225-11.057,15.522
			c-7.189,2.335-14.289-3.716-15.522-11.056s3.911-13.439,11.056-15.522C1896.017,1629.893,1903.123,1635.703,1904.357,1643.042z"/>
		<path style="fill:#F78248;" d="M1729.508,1616.874c2.244,13.352-6.968,24.997-20.113,28.238
			c-15.101,3.723-25.994-6.762-28.238-20.113c-2.243-13.352,6.983-24.936,20.113-28.238
			C1714.375,1593.465,1727.264,1603.522,1729.508,1616.874z"/>
		<path style="fill:#EA7147;" d="M1718.616,1618.704c1.233,7.337-3.976,13.219-11.052,15.517
			c-7.187,2.333-14.283-3.716-15.517-11.052c-1.232-7.337,3.91-13.435,11.052-15.517
			C1710.279,1605.56,1717.384,1611.367,1718.616,1618.704z"/>
		<path style="fill:#EA7147;" d="M2099.263,1574.578c1.158,16.328-8.175,31.429-24.318,34.142
			c-16.143,2.712-31.428-8.175-34.141-24.318c-2.713-16.143,7.928-32.403,24.317-34.141
			C2081.399,1548.535,2098.34,1561.572,2099.263,1574.578z"/>
		<path style="fill:#F78248;" d="M2087.856,1576.495c4.043,9.126-4.984,19.164-14.828,20.818s-19.165-4.984-20.819-14.828
			s4.985-19.165,14.829-20.819S2084.223,1568.291,2087.856,1576.495z"/>
		<path style="fill:#EA7147;" d="M1945.155,1621.153c0.797,11.229-5.622,21.614-16.724,23.479
			c-11.102,1.866-21.613-5.621-23.479-16.724c-1.865-11.102,5.452-22.284,16.724-23.479
			C1932.871,1603.243,1944.521,1612.209,1945.155,1621.153z"/>
		<path style="fill:#F78248;" d="M1937.312,1622.472c2.78,6.276-3.429,13.18-10.198,14.317s-13.18-3.428-14.317-10.197
			s3.429-13.18,10.198-14.317S1934.813,1616.83,1937.312,1622.472z"/>
		<path style="fill:#EA7147;" d="M1683.855,1610.555c1.014,14.295-7.157,27.514-21.289,29.889s-27.514-7.156-29.889-21.288
			s6.94-28.367,21.289-29.889C1668.217,1587.756,1683.047,1599.169,1683.855,1610.555z"/>
		<path style="fill:#F78248;" d="M1673.87,1612.233c3.539,7.989-4.364,16.777-12.981,18.226s-16.777-4.364-18.226-12.981
			c-1.448-8.618,4.364-16.777,12.981-18.226S1670.688,1605.051,1673.87,1612.233z"/>
		<path style="fill:#FFC6B0;" d="M2152.329,1535.605c6.49,18.165-8.175,31.429-24.317,34.142s-29.527-8.379-34.142-24.317
			c-4.552-15.725,8.386-29.829,26.327-32.844C2136.34,1509.873,2146.822,1520.19,2152.329,1535.605z"/>
		<path style="fill:#F78248;" d="M2137.681,1538.067c1.353,8.053-4.654,13.747-12.131,17.03c-7.672,3.37-15.114-0.725-17.03-12.13
			c-1.354-8.053,2.724-15.45,12.13-17.031C2128.702,1524.584,2136.327,1530.015,2137.681,1538.067z"/>
		<path style="fill:#FFC6B0;" d="M1785.422,1633.577c6.489,18.165-8.175,31.429-24.317,34.142
			c-16.144,2.713-29.527-8.379-34.142-24.318c-4.552-15.724,8.386-29.828,26.326-32.843
			C1769.433,1607.845,1779.914,1618.162,1785.422,1633.577z"/>
		<path style="fill:#F78248;" d="M1770.772,1636.039c1.354,8.053-4.653,13.747-12.13,17.03c-7.673,3.37-15.114-0.725-17.031-12.13
			c-1.354-8.053,2.725-15.45,12.131-17.031C1761.795,1622.555,1769.42,1627.986,1770.772,1636.039z"/>
		<path style="fill:#FFC6B0;" d="M1879.297,1631.523c5.402,15.12-6.805,26.161-20.242,28.419s-24.579-6.975-28.42-20.242
			c-3.789-13.089,6.98-24.829,21.915-27.339C1865.987,1610.104,1874.712,1618.691,1879.297,1631.523z"/>
		<path style="fill:#F78248;" d="M1867.103,1633.572c1.127,6.703-3.874,11.443-10.097,14.177
			c-6.387,2.805-12.582-0.604-14.177-10.098c-1.127-6.703,2.268-12.861,10.097-14.177
			C1859.629,1622.348,1865.977,1626.869,1867.103,1633.572z"/>
		<path style="fill:#FFC6B0;" d="M2002.742,1626.295c6.49,18.164-8.175,31.428-24.317,34.141s-29.527-8.378-34.142-24.317
			c-4.552-15.724,8.386-29.828,26.327-32.844C1986.753,1600.563,1997.235,1610.88,2002.742,1626.295z"/>
		<path style="fill:#F78248;" d="M1988.094,1628.756c1.354,8.053-4.654,13.748-12.131,17.031
			c-7.672,3.369-15.113-0.725-17.03-12.131c-1.354-8.053,2.724-15.45,12.13-17.03
			C1979.115,1615.272,1986.74,1620.703,1988.094,1628.756z"/>
		<path style="fill:#F78248;" d="M2304.77,1140.879c15.844,4.113,24.15,20.027,21.239,36.136
			c-3.344,18.504-20.292,25.354-36.136,21.24c-15.844-4.114-24.076-20.015-21.24-36.137
			C2271.463,1146.027,2288.925,1136.765,2304.77,1140.879z"/>
		<path style="fill:#EA7147;" d="M2301.414,1153.803c8.705,2.261,12.627,10.913,11.67,19.856
			c-0.971,9.084-11.149,13.932-19.855,11.671s-12.898-10.945-11.671-19.856C2282.791,1156.517,2292.708,1151.543,2301.414,1153.803z
			"/>
		<path style="fill:#F78248;" d="M2265.604,1350.813c15.844,4.113,24.151,20.028,21.239,36.137
			c-3.344,18.504-20.292,25.354-36.136,21.239c-15.844-4.113-24.075-20.015-21.24-36.136
			C2232.298,1355.961,2249.76,1346.699,2265.604,1350.813z"/>
		<path style="fill:#EA7147;" d="M2262.249,1363.737c8.706,2.261,12.627,10.912,11.671,19.856
			c-0.972,9.084-11.15,13.931-19.856,11.671c-8.706-2.261-12.897-10.946-11.671-19.856
			C2243.626,1366.451,2253.543,1361.477,2262.249,1363.737z"/>
		<path style="fill:#F78248;" d="M2289.529,1280.888c13.109,3.404,19.983,16.572,17.574,29.901
			c-2.768,15.311-16.791,20.978-29.9,17.574c-13.11-3.404-19.921-16.561-17.574-29.9
			C2261.97,1285.148,2276.419,1277.484,2289.529,1280.888z"/>
		<path style="fill:#EA7147;" d="M2286.752,1291.582c7.204,1.871,10.448,9.029,9.657,16.43c-0.804,7.517-9.226,11.527-16.43,9.657
			s-10.673-9.057-9.657-16.43C2271.343,1293.828,2279.549,1289.712,2286.752,1291.582z"/>
		<path style="fill:#F78248;" d="M2191.485,1440.516c13.104,3.402,19.976,16.565,17.567,29.889
			c-2.766,15.305-16.783,20.97-29.888,17.567s-19.913-16.554-17.567-29.888C2163.938,1444.774,2178.381,1437.113,2191.485,1440.516z
			"/>
		<path style="fill:#EA7147;" d="M2188.711,1451.206c7.2,1.869,10.443,9.025,9.652,16.423c-0.804,7.514-9.223,11.522-16.423,9.653
			c-7.201-1.87-10.668-9.054-9.653-16.423C2173.307,1453.451,2181.51,1449.337,2188.711,1451.206z"/>
		<path style="fill:#EA7147;" d="M2303.818,1085.708c15.378,5.608,25.353,20.292,21.239,36.137
			c-4.113,15.844-20.292,25.353-36.136,21.239c-15.845-4.113-26.345-20.465-21.24-36.136
			C2272.751,1091.384,2291.568,1081.241,2303.818,1085.708z"/>
		<path style="fill:#F78248;" d="M2300.911,1096.902c9.981,0.036,15.46,12.374,12.952,22.035
			c-2.509,9.662-12.374,15.461-22.035,12.952c-9.662-2.509-15.461-12.374-12.952-22.035S2291.938,1096.871,2300.911,1096.902z"/>
		<path style="fill:#EA7147;" d="M2283.426,1245.402c10.576,3.857,17.436,13.956,14.606,24.852
			c-2.829,10.896-13.955,17.437-24.852,14.607c-10.896-2.829-18.117-14.074-14.606-24.852
			C2262.061,1249.306,2275.001,1242.33,2283.426,1245.402z"/>
		<path style="fill:#F78248;" d="M2281.427,1253.102c6.864,0.024,10.632,8.51,8.907,15.154c-1.726,6.645-8.51,10.632-15.154,8.907
			c-6.645-1.726-10.632-8.51-8.907-15.154C2267.998,1255.364,2275.256,1253.079,2281.427,1253.102z"/>
		<path style="fill:#EA7147;" d="M2167.081,1479.612c13.463,4.909,22.194,17.765,18.594,31.636
			c-3.601,13.87-17.765,22.194-31.635,18.594c-13.871-3.602-23.063-17.916-18.595-31.635
			C2139.884,1484.581,2156.356,1475.701,2167.081,1479.612z"/>
		<path style="fill:#F78248;" d="M2164.536,1489.412c8.738,0.031,13.534,10.833,11.339,19.291
			c-2.196,8.458-10.833,13.534-19.291,11.338c-8.457-2.195-13.534-10.832-11.338-19.29
			C2147.441,1492.293,2156.682,1489.385,2164.536,1489.412z"/>
		<path style="fill:#FFC6B0;" d="M2289.904,1021.354c19.231,1.491,25.353,20.293,21.239,36.137s-19.702,23.534-36.136,21.24
			c-16.213-2.264-23.807-19.832-19.235-37.441C2259.886,1025.446,2273.584,1020.09,2289.904,1021.354z"/>
		<path style="fill:#F78248;" d="M2286.171,1035.732c7.903,2.052,10.649,9.86,10.596,18.025c-0.056,8.38-6.832,13.502-18.026,10.596
			c-7.903-2.052-12.992-8.794-10.595-18.026C2270.197,1038.424,2278.268,1033.681,2286.171,1035.732z"/>
		<path style="fill:#FFC6B0;" d="M2229.559,1396.292c19.232,1.491,25.354,20.293,21.24,36.137s-19.702,23.534-36.136,21.239
			c-16.212-2.263-23.808-19.831-19.235-37.44C2199.541,1400.384,2213.238,1395.027,2229.559,1396.292z"/>
		<path style="fill:#F78248;" d="M2225.826,1410.67c7.904,2.052,10.649,9.86,10.596,18.026c-0.057,8.379-6.832,13.501-18.026,10.595
			c-7.903-2.052-12.992-8.794-10.595-18.026C2209.853,1413.361,2217.923,1408.618,2225.826,1410.67z"/>
		<path style="fill:#FFC6B0;" d="M2266.006,1309.757c16.009,1.241,21.104,16.892,17.681,30.08
			c-3.425,13.188-16.4,19.591-30.081,17.681c-13.494-1.885-19.816-16.509-16.011-31.166
			C2241.02,1313.163,2252.421,1308.704,2266.006,1309.757z"/>
		<path style="fill:#F78248;" d="M2262.898,1321.725c6.579,1.709,8.865,8.209,8.82,15.006c-0.047,6.975-5.688,11.238-15.006,8.819
			c-6.578-1.708-10.814-7.321-8.819-15.005C2249.602,1323.966,2256.32,1320.017,2262.898,1321.725z"/>
		<path style="fill:#FFC6B0;" d="M2311.627,1194.932c19.231,1.49,25.354,20.292,21.24,36.136
			c-4.114,15.845-19.703,23.534-36.137,21.24c-16.212-2.264-23.807-19.832-19.234-37.44
			C2281.609,1199.023,2295.307,1193.666,2311.627,1194.932z"/>
		<path style="fill:#F78248;" d="M2307.895,1209.309c7.903,2.052,10.649,9.861,10.595,18.026
			c-0.056,8.38-6.831,13.501-18.026,10.595c-7.903-2.052-12.992-8.794-10.595-18.025
			C2291.92,1212,2299.99,1207.257,2307.895,1209.309z"/>
		<path style="fill:#F78248;" d="M1526.656,1553.745c-13.675,8.997-31.052,4.489-41.051-8.471
			c-11.486-14.888-5.205-32.055,8.47-41.052c13.675-8.996,30.992-4.442,41.052,8.471
			C1545.168,1525.582,1540.332,1544.748,1526.656,1553.745z"/>
		<path style="fill:#EA7147;" d="M1519.317,1542.59c-7.514,4.943-16.563,2.052-22.557-4.654c-6.088-6.812-2.86-17.613,4.654-22.558
			c7.514-4.943,16.769-2.229,22.557,4.654C1529.79,1526.953,1526.832,1537.646,1519.317,1542.59z"/>
		<path style="fill:#F78248;" d="M1397.16,1383.93c-13.675,8.997-31.052,4.49-41.051-8.47c-11.486-14.889-5.205-32.055,8.47-41.052
			c13.675-8.997,30.992-4.442,41.052,8.471C1415.672,1355.768,1410.835,1374.934,1397.16,1383.93z"/>
		<path style="fill:#EA7147;" d="M1389.821,1372.774c-7.514,4.944-16.563,2.052-22.557-4.654c-6.088-6.811-2.86-17.613,4.654-22.557
			s16.769-2.23,22.557,4.654C1400.294,1357.139,1397.335,1367.831,1389.821,1372.774z"/>
		<path style="fill:#F78248;" d="M1432.998,1448.563c-11.315,7.444-25.693,3.715-33.967-7.009
			c-9.504-12.318-4.306-26.523,7.009-33.968c11.315-7.444,25.644-3.676,33.967,7.009
			C1448.315,1425.261,1444.313,1441.119,1432.998,1448.563z"/>
		<path style="fill:#EA7147;" d="M1426.926,1439.333c-6.218,4.091-13.705,1.698-18.665-3.851
			c-5.038-5.637-2.367-14.574,3.851-18.665s13.875-1.846,18.665,3.852C1435.591,1426.395,1433.143,1435.242,1426.926,1439.333z"/>
		<path style="fill:#F78248;" d="M1380.303,1268.795c-11.311,7.441-25.684,3.714-33.954-7.006
			c-9.5-12.314-4.305-26.513,7.006-33.954c11.311-7.441,25.633-3.675,33.954,7.006
			C1395.613,1245.502,1391.613,1261.354,1380.303,1268.795z"/>
		<path style="fill:#EA7147;" d="M1374.232,1259.568c-6.215,4.089-13.699,1.697-18.657-3.85c-5.035-5.634-2.365-14.568,3.85-18.657
			c6.215-4.089,13.87-1.845,18.657,3.85C1382.895,1246.636,1380.447,1255.479,1374.232,1259.568z"/>
		<path style="fill:#EA7147;" d="M1568.227,1590.029c-14.472,7.65-32.055,5.205-41.051-8.47c-8.997-13.676-5.205-32.055,8.47-41.052
			c13.675-8.997,32.847-5.824,41.052,8.471C1584.846,1563.176,1579.754,1583.937,1568.227,1590.029z"/>
		<path style="fill:#F78248;" d="M1561.87,1580.367c-6.718,7.383-19.546,3.174-25.032-5.165c-5.486-8.339-3.174-19.546,5.165-25.032
			s19.546-3.174,25.033,5.165C1572.521,1563.674,1567.91,1573.731,1561.87,1580.367z"/>
		<path style="fill:#EA7147;" d="M1463.418,1467.828c-9.953,5.26-22.044,3.579-28.232-5.826c-6.188-9.404-3.58-22.044,5.825-28.231
			s22.589-4.005,28.232,5.825C1474.847,1449.359,1471.346,1463.637,1463.418,1467.828z"/>
		<path style="fill:#F78248;" d="M1459.046,1461.183c-4.621,5.077-13.442,2.183-17.215-3.552
			c-3.773-5.735-2.183-13.442,3.552-17.216c5.735-3.772,13.442-2.183,17.216,3.553
			C1466.371,1449.702,1463.2,1456.619,1459.046,1461.183z"/>
		<path style="fill:#EA7147;" d="M1367.659,1224.475c-12.669,6.697-28.062,4.557-35.938-7.415s-4.556-28.062,7.416-35.938
			c11.972-7.876,28.755-5.098,35.938,7.416C1382.208,1200.966,1377.75,1219.141,1367.659,1224.475z"/>
		<path style="fill:#F78248;" d="M1362.094,1216.017c-5.882,6.462-17.112,2.778-21.915-4.522c-4.803-7.3-2.778-17.111,4.521-21.914
			c7.3-4.803,17.112-2.778,21.915,4.521C1371.419,1201.402,1367.382,1210.207,1362.094,1216.017z"/>
		<path style="fill:#FFC6B0;" d="M1625.301,1622.854c-14.001,13.269-32.054,5.204-41.051-8.471s-4.251-30.396,8.47-41.052
			c12.55-10.51,30.676-4.365,40.675,10.833C1642.392,1597.84,1637.182,1611.594,1625.301,1622.854z"/>
		<path style="fill:#F78248;" d="M1617.137,1610.445c-6.821,4.488-14.456,1.29-20.478-4.226c-6.179-5.66-5.437-14.121,4.226-20.478
			c6.822-4.488,15.236-3.743,20.478,4.225C1625.85,1596.789,1623.958,1605.957,1617.137,1610.445z"/>
		<path style="fill:#FFC6B0;" d="M1387.585,1326.693c-14,13.27-32.054,5.205-41.051-8.47s-4.251-30.397,8.47-41.052
			c12.549-10.51,30.676-4.365,40.675,10.833C1404.676,1301.68,1399.467,1315.434,1387.585,1326.693z"/>
		<path style="fill:#F78248;" d="M1379.421,1314.284c-6.822,4.488-14.457,1.29-20.478-4.225c-6.179-5.66-5.437-14.121,4.226-20.479
			c6.821-4.487,15.235-3.742,20.478,4.226C1388.135,1300.628,1386.243,1309.797,1379.421,1314.284z"/>
		<path style="fill:#FFC6B0;" d="M1427.352,1411.755c-11.654,11.046-26.683,4.333-34.172-7.051
			c-7.489-11.383-3.539-25.303,7.051-34.171c10.446-8.749,25.535-3.635,33.858,9.017
			C1441.578,1390.934,1437.241,1402.382,1427.352,1411.755z"/>
		<path style="fill:#F78248;" d="M1420.555,1401.426c-5.678,3.735-12.034,1.073-17.046-3.518
			c-5.144-4.711-4.526-11.754,3.517-17.046c5.679-3.735,12.683-3.115,17.046,3.518
			C1427.809,1390.059,1426.233,1397.689,1420.555,1401.426z"/>
		<path style="fill:#FFC6B0;" d="M1481.955,1522.591c-14,13.27-32.054,5.205-41.051-8.47c-8.997-13.676-4.25-30.397,8.47-41.052
			c12.55-10.511,30.676-4.366,40.675,10.832C1499.046,1497.577,1493.836,1511.331,1481.955,1522.591z"/>
		<path style="fill:#F78248;" d="M1473.791,1510.182c-6.821,4.488-14.456,1.29-20.478-4.225c-6.179-5.66-5.437-14.121,4.226-20.479
			c6.822-4.488,15.236-3.742,20.478,4.226C1482.504,1496.525,1480.613,1505.693,1473.791,1510.182z"/>
		<path style="fill:#F78248;" d="M2250.346,970.905c16.068-3.122,30.427,7.653,34.748,23.441
			c4.963,18.138-7.373,31.626-23.441,34.749c-16.069,3.122-30.354-7.674-34.749-23.441
			C2222.517,989.916,2234.276,974.028,2250.346,970.905z"/>
		<path style="fill:#EA7147;" d="M2252.893,984.013c8.829-1.716,16.099,4.399,19.093,12.881c3.042,8.614-4.051,17.378-12.88,19.093
			c-8.83,1.716-16.357-4.313-19.094-12.881C2237.261,994.494,2244.063,985.729,2252.893,984.013z"/>
		<path style="fill:#EA7147;" d="M2225.691,921.541c16.293-1.573,31.626,7.373,34.748,23.442
			c3.123,16.068-7.372,31.626-23.441,34.749c-16.068,3.122-32.595-7.102-34.748-23.442
			C2200.11,940.06,2212.713,922.794,2225.691,921.541z"/>
		<path style="fill:#F78248;" d="M2227.897,932.894c9.021-4.273,19.285,4.496,21.188,14.294c1.904,9.798-4.495,19.285-14.294,21.189
			c-9.798,1.904-19.285-4.496-21.188-14.294C2211.699,944.285,2219.788,936.735,2227.897,932.894z"/>
		<path style="fill:#FFC6B0;" d="M2185.382,869.482c17.994-6.95,31.626,7.373,34.749,23.442c3.122,16.068-7.625,29.73-23.441,34.749
			c-15.604,4.95-30.032-7.625-33.503-25.483C2160.064,886.12,2170.112,875.38,2185.382,869.482z"/>
		<path style="fill:#F78248;" d="M2188.215,884.063c8.017-1.558,13.861,4.303,17.334,11.693c3.564,7.585-0.34,15.128-11.693,17.334
			c-8.016,1.558-15.515-2.331-17.333-11.693C2174.965,893.382,2180.199,885.621,2188.215,884.063z"/>
		<path style="fill:#FFC6B0;" d="M2162.804,826.839c13.677-5.282,24.038,5.604,26.411,17.817
			c2.373,12.213-5.795,22.597-17.817,26.412c-11.859,3.762-22.827-5.796-25.464-19.369
			C2143.56,839.486,2151.197,831.322,2162.804,826.839z"/>
		<path style="fill:#F78248;" d="M2164.957,837.922c6.092-1.184,10.535,3.27,13.175,8.888c2.709,5.765-0.259,11.498-8.888,13.175
			c-6.093,1.183-11.793-1.771-13.175-8.888C2154.885,845.005,2158.864,839.106,2164.957,837.922z"/>
		<path style="fill:#FFC6B0;" d="M1387.285,967.229c-6.49-18.165,8.174-31.429,24.317-34.141
			c16.143-2.713,29.527,8.378,34.141,24.317c4.552,15.724-8.386,29.829-26.327,32.843
			C1403.274,992.962,1392.792,982.644,1387.285,967.229z"/>
		<path style="fill:#F78248;" d="M1401.934,964.768c-1.353-8.053,4.654-13.748,12.13-17.031c7.672-3.37,15.114,0.725,17.031,12.13
			c1.354,8.052-2.725,15.45-12.13,17.031C1410.912,978.252,1403.287,972.82,1401.934,964.768z"/>
		<path style="fill:#EA7147;" d="M1341.369,1130.62c-5.148-12.22-1.931-26.234,9.74-32.526s26.234-1.932,32.526,9.74
			c6.292,11.672,2.375,26.917-9.74,32.525C1361.862,1145.931,1345.47,1140.353,1341.369,1130.62z"/>
		<path style="fill:#F78248;" d="M1349.615,1126.174c-5.481-5.943-1.178-15.997,5.939-19.834s15.997-1.178,19.834,5.939
			c3.836,7.117,1.177,15.997-5.939,19.834C1362.332,1135.95,1354.542,1131.518,1349.615,1126.174z"/>
		<path style="fill:#FFC6B0;" d="M1346.729,1080.505c-11.995-15.106-2.384-32.387,12.024-40.154
			c14.409-7.769,30.652-1.579,40.154,12.024c9.374,13.42,1.669,30.939-14.345,39.572
			C1370.154,1099.716,1356.907,1093.324,1346.729,1080.505z"/>
		<path style="fill:#F78248;" d="M1359.804,1073.456c-3.875-7.188-0.022-14.514,5.998-20.03c6.178-5.662,14.542-4.183,20.03,5.998
			c3.875,7.188,2.397,15.504-5.998,20.03C1372.646,1083.329,1363.679,1080.644,1359.804,1073.456z"/>
		<path style="fill:#FFC6B0;" d="M1729.736,1570.271c0,0,97.729,7.877,142.072-39.601c44.344-47.477,122.044-88.159,181.422-92.922
			s65.977-4.762,101.549-33.503c0,0,4.94,41.804-28.797,64.207c-33.738,22.402-153.866,100.507-153.866,100.507l-130.985,22.012
			L1729.736,1570.271z"/>
		<path style="fill:#FFC6B0;" d="M2002.104,1489.879c5.467,9.532-2.797,24.541-18.458,33.523s-32.789,8.536-38.257-0.995
			c-5.467-9.532,2.798-24.541,18.459-33.523S1996.637,1480.348,2002.104,1489.879z"/>
		<path style="fill:#EA7147;" d="M1920.265,1436.89c-0.61-3.633,1.84-7.073,5.474-7.684c3.633-0.611,7.073,1.84,7.684,5.473
			c0.61,3.634-1.84,7.073-5.473,7.685C1924.315,1442.974,1920.875,1440.523,1920.265,1436.89z"/>
		<path style="fill:#EA7147;" d="M2100.594,1406.587c-0.611-3.634,1.84-7.074,5.473-7.685s7.073,1.84,7.684,5.473
			c0.611,3.634-1.839,7.074-5.473,7.685C2104.645,1412.67,2101.204,1410.22,2100.594,1406.587z"/>
		<path style="fill:#EA7147;" d="M1619.295,1487.466c-0.609-3.633,1.841-7.073,5.474-7.684c3.634-0.61,7.073,1.84,7.685,5.473
			c0.61,3.634-1.84,7.074-5.474,7.685C1623.347,1493.55,1619.906,1491.1,1619.295,1487.466z"/>
		<path style="fill:#EA7147;" d="M1747.53,1537.98c-0.61-3.633,1.84-7.073,5.474-7.684c3.633-0.61,7.073,1.84,7.684,5.473
			c0.61,3.634-1.84,7.074-5.473,7.685C1751.581,1544.064,1748.141,1541.614,1747.53,1537.98z"/>
		<path style="fill:#EA7147;" d="M2171.287,1276.94c-0.61-3.634,1.84-7.073,5.474-7.685c3.634-0.61,7.073,1.84,7.685,5.474
			c0.609,3.633-1.841,7.073-5.474,7.684C2175.338,1283.023,2171.898,1280.573,2171.287,1276.94z"/>
		<path style="fill:#EA7147;" d="M1515.112,1387.207c-0.61-3.633,1.84-7.073,5.473-7.684c3.633-0.611,7.074,1.84,7.684,5.473
			c0.61,3.634-1.84,7.074-5.473,7.685S1515.723,1390.841,1515.112,1387.207z"/>
		<path style="fill:#EA7147;" d="M2170.817,1135.581c-0.61-3.634,1.84-7.073,5.473-7.685c3.634-0.61,7.074,1.84,7.685,5.474
			c0.61,3.633-1.84,7.073-5.473,7.684C2174.868,1141.664,2171.428,1139.214,2170.817,1135.581z"/>
		<path style="fill:#EA7147;" d="M1457.399,1255.467c-0.61-3.633,1.84-7.073,5.473-7.684s7.074,1.84,7.684,5.473
			c0.611,3.634-1.84,7.074-5.473,7.685S1458.01,1259.101,1457.399,1255.467z"/>
		<path style="fill:#EA7147;" d="M2124.768,998.601c-0.61-3.633,1.84-7.074,5.473-7.684c3.634-0.611,7.074,1.84,7.685,5.473
			s-1.84,7.073-5.473,7.685C2128.818,1004.685,2125.378,1002.233,2124.768,998.601z"/>
		<path style="fill:#EA7147;" d="M1453.986,1111.322c-0.611-3.634,1.839-7.073,5.473-7.685c3.633-0.61,7.074,1.84,7.685,5.474
			c0.61,3.633-1.84,7.073-5.474,7.684C1458.037,1117.406,1454.597,1114.955,1453.986,1111.322z"/>
		<path style="fill:#EA7147;" d="M2037.374,889.113c-0.61-3.633,1.84-7.073,5.474-7.684c3.633-0.61,7.073,1.84,7.684,5.473
			c0.611,3.633-1.84,7.074-5.473,7.684C2041.425,895.197,2037.984,892.747,2037.374,889.113z"/>
		<path style="fill:#EA7147;" d="M1502.054,979.071c-0.61-3.633,1.84-7.073,5.473-7.684c3.633-0.61,7.074,1.84,7.684,5.473
			s-1.84,7.074-5.473,7.684C1506.104,985.155,1502.664,982.705,1502.054,979.071z"/>
		<path style="fill:#EA7147;" d="M1930.185,829.747c-0.61-3.633,1.84-7.074,5.473-7.684c3.634-0.611,7.074,1.839,7.685,5.473
			c0.61,3.633-1.84,7.073-5.473,7.684C1934.235,835.831,1930.795,833.38,1930.185,829.747z"/>
		<path style="fill:#EA7147;" d="M1578.886,888.781c-0.611-3.633,1.839-7.074,5.473-7.684c3.633-0.61,7.073,1.84,7.684,5.473
			c0.611,3.633-1.839,7.074-5.473,7.684C1582.937,894.865,1579.497,892.414,1578.886,888.781z"/>
		<path style="fill:#EA7147;" d="M1760.981,811.424c-0.61-3.633,1.84-7.074,5.473-7.684c3.634-0.611,7.074,1.84,7.685,5.473
			s-1.84,7.073-5.474,7.684C1765.032,817.507,1761.592,815.057,1760.981,811.424z"/>
	</g>
	<g>
		<g>
			<path style="fill:#AEC3FF;" d="M2237.785,483.854c-15.25,17.451-30.791,25.571-44.912,32.95
				c-3.001,1.568-5.834,3.049-8.647,4.605c-20.056,11.09-49.169,42.703-49.46,43.022l-3.061-2.901
				c1.222-1.332,30.177-32.768,51.176-44.38c2.879-1.592,5.743-3.089,8.776-4.674c18.852-9.851,38.35-20.038,57.093-50.91
				c8.078-13.301,11.155-23.834,14.13-34.019c5.238-17.928,10.185-34.866,39.685-63.442l0,0
				c-28.182,27.306-31.874,45.431-36.86,62.502c-3.091,10.578-4.538,22.714-13.065,36.76
				C2247.759,471.4,2242.788,478.129,2237.785,483.854z"/>
		</g>
		<g>
			<path style="fill:#AEC3FF;" d="M2102.868,636.454c-16.057,16.389-50.772,32.847-62.032,20.931
				c-11.262-11.916,5.197-47.694,21.253-64.083c16.056-16.389,33.879-15.604,45.14-3.688
				C2118.489,601.53,2118.924,620.065,2102.868,636.454z"/>
			<polygon style="fill:#AEC3FF;" points="2135.378,551.143 2146.067,560.483 2100.495,607.002 2090.753,596.693 			"/>
			<path style="fill:#AEC3FF;" d="M2095.355,628.906c-10.184,10.394-32.202,20.833-39.345,13.276
				c-7.142-7.558,3.297-30.25,13.48-40.644c10.183-10.395,21.487-9.897,28.63-2.339
				C2105.264,606.755,2105.538,618.511,2095.355,628.906z"/>
		</g>
	</g>
	<g>
		<g>
			<path style="fill:#AEC3FF;" d="M2440.241,486.651c-15.565,10.232-29.347,13.176-41.87,15.851
				c-2.66,0.569-5.173,1.106-7.688,1.705c-17.916,4.272-47.264,22.488-47.559,22.672l-1.745-2.905
				c1.232-0.768,30.42-18.881,49.179-23.354c2.572-0.613,5.113-1.156,7.803-1.73c16.719-3.572,34.009-7.265,55.167-27.138
				c9.117-8.561,13.767-16.056,18.262-23.303c7.915-12.756,15.39-24.808,44.384-40.589l0,0
				c-27.699,15.08-34.459,28.321-41.994,40.468c-4.67,7.526-8.402,16.613-18.028,25.654
				C2450.645,479.154,2445.348,483.294,2440.241,486.651z"/>
		</g>
		<g>
			<path style="fill:#AEC3FF;" d="M2302.926,575.788c-15.96,9.236-46.385,14.51-52.541,2.86
				c-6.155-11.651,14.289-35.815,30.249-45.051c15.96-9.236,29.593-4.792,35.749,6.858
				C2322.538,552.105,2318.886,566.551,2302.926,575.788z"/>
			<polygon style="fill:#AEC3FF;" points="2346.459,516.721 2352.727,526.254 2307.426,552.47 2302.101,542.391 			"/>
			<path style="fill:#AEC3FF;" d="M2298.732,568.326c-10.123,5.858-29.42,9.204-33.324,1.814
				c-3.904-7.389,9.063-22.715,19.186-28.573c10.122-5.858,18.77-3.04,22.674,4.35
				C2311.172,553.305,2308.855,562.468,2298.732,568.326z"/>
		</g>
	</g>
	<g>
		<g>
			<path style="fill:#AEC3FF;" d="M932.224,321.077c18.265,12.007,34.438,15.462,49.135,18.601c3.122,0.667,6.07,1.297,9.021,2.001
				c21.026,5.014,55.465,26.39,55.811,26.605l2.049-3.409c-1.447-0.902-35.698-22.157-57.713-27.407
				c-3.018-0.72-6-1.357-9.156-2.031c-19.619-4.191-39.91-8.525-64.739-31.846c-10.699-10.047-16.155-18.842-21.43-27.346
				c-9.288-14.969-18.06-29.112-52.085-47.631l0,0c32.506,17.697,40.438,33.235,49.28,47.49c5.479,8.832,9.86,19.496,21.156,30.105
				C920.015,312.278,926.231,317.138,932.224,321.077z"/>
		</g>
		<g>
			<path style="fill:#AEC3FF;" d="M1093.364,425.679c18.729,10.839,54.433,17.028,61.657,3.356
				c7.224-13.672-16.768-42.028-35.497-52.867c-18.729-10.839-34.727-5.625-41.951,8.047
				C1070.349,397.888,1074.634,414.84,1093.364,425.679z"/>
			<polygon style="fill:#AEC3FF;" points="1042.277,356.363 1034.922,367.551 1088.083,398.315 1094.332,386.488 			"/>
			<path style="fill:#AEC3FF;" d="M1098.285,416.922c11.879,6.875,34.524,10.8,39.106,2.129s-10.635-26.657-22.514-33.531
				c-11.879-6.874-22.026-3.567-26.608,5.105C1083.688,399.296,1086.406,410.048,1098.285,416.922z"/>
		</g>
	</g>
	<g>
		<g>
			<path style="fill:#AEC3FF;" d="M1186.882,319.389c24.438,16.167,46.105,20.86,65.793,25.125
				c4.183,0.907,8.133,1.763,12.084,2.717c28.167,6.802,74.249,35.59,74.712,35.881l2.759-4.563
				c-1.936-1.214-47.768-29.839-77.259-36.962c-4.043-0.976-8.037-1.842-12.266-2.758c-26.284-5.694-53.467-11.582-86.66-42.94
				c-14.303-13.51-21.583-25.32-28.622-36.741c-12.393-20.103-24.096-39.095-69.635-64.051l0,0
				c43.505,23.848,54.079,44.708,65.877,63.851c7.311,11.861,13.141,26.172,28.244,40.438
				C1170.551,307.547,1178.865,314.085,1186.882,319.389z"/>
		</g>
		<g>
			<path style="fill:#AEC3FF;" d="M1402.487,460.233c25.064,14.602,72.902,23.037,82.639,4.738
				c9.736-18.3-22.314-56.405-47.379-71.007c-25.064-14.602-46.53-7.674-56.267,10.626
				C1371.743,422.889,1377.422,445.631,1402.487,460.233z"/>
			<polygon style="fill:#AEC3FF;" points="1334.273,367.117 1324.371,382.086 1395.514,423.532 1403.937,407.701 			"/>
			<path style="fill:#AEC3FF;" d="M1409.118,448.514c15.897,9.261,46.239,14.611,52.414,3.005
				c6.175-11.606-14.153-35.775-30.05-45.036s-29.512-4.867-35.688,6.739C1389.618,424.829,1393.221,439.253,1409.118,448.514z"/>
		</g>
	</g>
	<g>
		<g>
			<path style="fill:#AEC3FF;" d="M845.483,515.586c-15.445-3.439-29.595-9.045-42.129-16.805
				c-26.649-16.496-44.642-42.156-49.364-70.402c-4.181-25.003-11.902-65.514-35.528-93.326
				c-25.773-30.337-66.215-48.807-117.488-44.389l0,0c54.482-4.696,96.234,9.552,124.096,42.346
				c25.135,29.587,33.844,67.712,38.21,93.815c4.276,25.571,20.69,48.879,45.032,63.947c37.068,22.947,89.757,25.723,148.356,7.82
				c35.108-10.728,92.744-18.039,167.95,8.044c43.035,14.926,73.535,31.299,76.881,33.535L1272.151,578l-4.136,8.461l-70.027-30.869
				l-5.672-0.238c-0.293-0.2-32.299-19.572-76.032-34.704c-40.123-13.882-95.472-27.526-156.559-8.86
				C917.97,524.548,878.602,522.958,845.483,515.586z"/>
		</g>
		<g>
			<path style="fill:#95B3EF;" d="M1322.397,683.014c42.685,22.6,122.838,33.404,137.801,2.303
				c14.963-31.102-40.931-92.331-83.616-114.931c-42.684-22.601-77.928-9.626-92.891,21.476
				C1268.729,622.963,1279.713,660.414,1322.397,683.014z"/>
			<polygon style="fill:#95B3EF;" points="1202.627,532.708 1187.164,558.279 1308.318,622.427 1321.263,595.523 			"/>
			<path style="fill:#AFCDFB;" d="M1327.447,634.947c14.298,7.57,41.147,11.189,46.159,0.772
				c5.012-10.418-13.711-30.928-28.008-38.498c-14.298-7.57-26.104-3.224-31.116,7.194
				C1309.471,614.832,1313.15,627.377,1327.447,634.947z"/>
		</g>
	</g>
	<g>
		<g>
			<path style="fill:#AEC3FF;" d="M2533.464,730.075c7.57-1.344,14.571-3.796,20.849-7.356c13.346-7.57,22.75-19.901,25.799-33.833
				c2.699-12.332,7.532-32.29,19.721-45.558c13.297-14.472,33.373-22.696,58.074-19.285l0,0
				c-26.248-3.625-46.844,2.469-61.218,18.113c-12.967,14.115-18.214,32.863-21.032,45.738
				c-2.76,12.611-11.336,23.811-23.526,30.725c-18.564,10.53-44.146,10.662-72.029,0.373c-16.706-6.166-44.409-11.166-81.521,0.02
				c-21.236,6.401-36.443,13.819-38.123,14.851l-35.226,17.133l1.773,4.305l34.733-13.688l2.752,0.016
				c0.148-0.092,16.165-8.965,37.745-15.453c19.798-5.951,46.961-11.423,76.028-0.695
				C2498.132,732.813,2517.232,732.956,2533.464,730.075z"/>
		</g>
		<g>
			<path style="fill:#8FB2FF;" d="M2298.07,802.016c-21.273,10.225-60.367,13.698-66.771-2.12
				c-6.403-15.817,22.309-44.935,43.583-55.159c21.273-10.225,37.984-2.939,44.387,12.878
				C2325.673,773.432,2319.344,791.791,2298.07,802.016z"/>
			<polygon style="fill:#8FB2FF;" points="2360.111,730.125 2366.906,743.205 2306.522,772.227 2300.983,758.544 			"/>
			<path style="fill:#AFCDFB;" d="M2296.924,777.998c-7.126,3.425-20.221,4.588-22.365-0.71
				c-2.146-5.298,7.473-15.052,14.599-18.477s12.724-0.984,14.868,4.314C2306.17,768.424,2304.05,774.573,2296.924,777.998z"/>
		</g>
	</g>
	<g>
		<g>
			<g>
				<path style="fill:#AEC3FF;" d="M2543.26,1627.004c-17.147-16.578-33.787-23.562-48.908-29.907
					c-3.212-1.349-6.245-2.622-9.266-3.976c-21.526-9.639-54.115-39.541-54.443-39.843l-2.887,3.24
					c1.368,1.261,33.781,30.995,56.319,41.088c3.09,1.384,6.157,2.672,9.404,4.034c20.186,8.473,41.062,17.233,62.953,47.272
					c9.434,12.941,13.5,23.478,17.432,33.665c6.923,17.934,13.459,34.875,46.184,61.63l0,0
					c-31.263-25.565-36.616-43.833-43.206-60.909c-4.084-10.581-6.617-22.902-16.578-36.568
					C2554.565,1638.912,2548.887,1632.441,2543.26,1627.004z"/>
			</g>
			<g>
				<path style="fill:#AEC3FF;" d="M2391.704,1482.176c-17.883-15.418-54.908-29.295-65.426-16.102
					c-10.518,13.194,9.455,48.462,27.337,63.881c17.883,15.419,36.093,13.072,46.611-0.121
					C2410.744,1516.641,2409.586,1497.595,2391.704,1482.176z"/>
				<polygon style="fill:#AEC3FF;" points="2432.421,1566.854 2442.575,1556.35 2391.817,1512.585 2382.719,1523.999 				"/>
				<path style="fill:#AEC3FF;" d="M2384.652,1490.566c-11.342-9.779-34.826-18.581-41.497-10.213s5.997,30.737,17.339,40.517
					c11.343,9.779,22.893,8.291,29.563-0.077S2395.994,1500.346,2384.652,1490.566z"/>
			</g>
		</g>
		<g>
			<g>
				<path style="fill:#AEC3FF;" d="M2744.106,1551.2c-14.982-5.419-27.034-5.129-37.983-4.865c-2.327,0.056-4.523,0.108-6.734,0.109
					c-15.756,0.007-43.791-9.314-44.072-9.409l-0.875,2.765c1.178,0.394,29.061,9.661,45.557,9.654
					c2.261-0.001,4.483-0.054,6.835-0.11c14.618-0.353,29.737-0.717,51.289,11.611c9.287,5.311,14.645,10.621,19.825,15.757
					c9.119,9.039,17.733,17.58,44.991,24.945l0,0c-26.042-7.04-34.297-16.712-42.979-25.32
					c-5.381-5.333-10.292-12.151-20.098-17.759C2754.252,1555.369,2749.021,1552.978,2744.106,1551.2z"/>
			</g>
			<g>
				<path style="fill:#AEC3FF;" d="M2612.152,1504.337c-15.114-4.512-41.475-2.853-44.279,8.063
					c-2.806,10.916,19.006,26.955,34.119,31.467s25.572-1.895,28.377-12.811C2633.175,1520.141,2627.266,1508.849,2612.152,1504.337
					z"/>
				<polygon style="fill:#AEC3FF;" points="2660.109,1544.824 2663.428,1535.647 2620.53,1522.841 2618.104,1532.284 				"/>
				<path style="fill:#AEC3FF;" d="M2610.146,1511.378c-9.586-2.861-26.305-1.81-28.084,5.114
					c-1.78,6.924,12.054,17.097,21.64,19.958s16.219-1.201,17.999-8.125C2623.48,1521.401,2619.732,1514.239,2610.146,1511.378z"/>
			</g>
		</g>
		<g>
			<g>
				<path style="fill:#AEC3FF;" d="M2680.663,1323.403c-25.939,1.228-43.892,9.211-60.205,16.465
					c-3.466,1.541-6.739,2.995-10.065,4.381c-23.704,9.877-71.729,13.406-72.212,13.44l0.414,4.707
					c2.021-0.145,49.78-3.659,74.601-13.999c3.402-1.418,6.712-2.89,10.215-4.447c21.778-9.684,44.301-19.699,84.453-14.645
					c17.301,2.177,28.688,6.813,39.699,11.298c19.385,7.891,37.695,15.349,83.325,9.364l0,0
					c-43.597,5.713-62.075-3.673-80.532-11.188c-11.437-4.656-23.097-11.841-41.364-14.14
					C2698.541,1323.325,2689.173,1323,2680.663,1323.403z"/>
			</g>
			<g>
				<path style="fill:#AEC3FF;" d="M2452.75,1335.513c-25.568,2.675-64.196,21.679-61.583,39.862
					c2.614,18.184,45.48,28.662,71.048,25.987c25.568-2.675,37.295-18.864,34.682-37.048
					C2494.282,1346.131,2478.318,1332.838,2452.75,1335.513z"/>
				<polygon style="fill:#AEC3FF;" points="2550.271,1366.408 2549.519,1350.52 2476.945,1358.112 2479.207,1373.843 				"/>
			</g>
		</g>
	</g>
	<g>
		<path style="fill:#F99746;" d="M2635.251,1040.621c18.117-60.833-16.636-125.066-77.471-143.185
			c-60.836-18.118-125.069,16.635-143.187,77.468c-16.327,54.821,10.291,112.388,60.229,136.495l-4.138,13.894l-35.914-10.696
			c-9.741-2.901-20.023,2.662-22.924,12.403c-2.901,9.741,2.66,20.026,12.401,22.928l35.914,10.695l-8.972,30.125
			c-2.901,9.741,2.665,20.024,12.406,22.925c9.741,2.901,20.023-2.661,22.925-12.402l8.972-30.125l35.023,10.431
			c9.741,2.901,20.023-2.664,22.925-12.406c2.901-9.74-2.661-20.022-12.403-22.924l-35.023-10.431l4.138-13.894
			C2565.146,1129.066,2618.924,1095.443,2635.251,1040.621z M2449.924,985.426c12.316-41.353,55.981-64.978,97.335-52.662
			c41.353,12.316,64.978,55.981,52.661,97.334c-12.316,41.355-55.981,64.98-97.334,52.664
			C2461.232,1070.447,2437.607,1026.782,2449.924,985.426z"/>
		<path style="fill:#F99746;" d="M2637.174,1024.017c-12.696-2.699-24.284-8.357-33.984-16.469
			c0.024,7.458-1.036,15.039-3.268,22.546c-1.652,5.547-3.87,10.773-6.57,15.631c8.383,5.115,17.431,9.158,26.959,12.006
			c2.416,0.715,4.882,1.368,7.372,1.936c3.032-6.016,5.584-12.376,7.568-19.045c1.615-5.412,2.798-10.848,3.6-16.271
			C2638.296,1024.251,2637.729,1024.14,2637.174,1024.017z"/>
		<path style="fill:#8FB2FF;" d="M2848.174,822.077c-2.896-3.994-7.358-6.669-12.277-7.409l-64.396-9.257
			c-4.869-0.703-9.726,0.53-13.67,3.488c-3.944,2.946-6.496,7.261-7.199,12.13c-1.442,10.059,5.547,19.415,15.618,20.869l12.562,1.8
			l-40.322,26.281c-16.135-17.813-37.387-30.09-61.375-35.169c-30.09-6.348-60.846-0.604-86.609,16.186
			c-17.282,11.254-30.928,26.577-39.964,44.537c2.417,0.542,4.833,1.183,7.236,1.898c9.738,2.897,18.799,6.977,27.095,12.043
			c6.102-11.057,14.866-20.512,25.751-27.6c17.517-11.415,38.423-15.31,58.873-10.996c2.133,0.444,4.253,0.986,6.312,1.602
			c17.924,5.337,32.839,16.493,43.095,32.247c11.415,17.517,15.322,38.423,11.008,58.873c-4.326,20.45-16.345,38.004-33.862,49.406
			c-17.035,11.106-37.276,15.101-57.196,11.341c-0.555-0.099-1.122-0.21-1.677-0.333c-12.696-2.699-24.284-8.357-33.984-16.469
			c-5.905-4.931-11.107-10.762-15.422-17.394c-8.369-12.844-12.696-27.514-12.709-42.479c-7.926-6.632-17.282-11.784-27.797-14.915
			c-2.602-0.776-5.227-1.405-7.84-1.911c-4.08,27.76,2.01,55.718,17.455,79.435c9.442,14.484,21.954,26.564,36.475,35.44
			c8.383,5.115,17.431,9.158,26.959,12.006c2.416,0.715,4.882,1.368,7.372,1.936c0.628,0.148,1.257,0.283,1.886,0.419
			c30.078,6.349,60.846,0.604,86.609-16.185c25.763-16.79,43.439-42.602,49.801-72.68c5.054-23.988,2.403-48.396-7.372-70.362
			l49.911-32.506l-2.588,15.112c-1.578,9.184,3.97,18.108,12.894,20.759c0.715,0.222,1.442,0.395,2.17,0.518
			c4.856,0.826,9.738-0.283,13.757-3.131c4.019-2.848,6.682-7.088,7.52-11.933l9.171-53.659
			C2852.267,831.149,2851.083,826.059,2848.174,822.077z"/>
	</g>
	<g>
		<path style="fill:#163560;" d="M979.481,1021.826c-3.821-7.367,83.343-33.898,84.724,38.814c0,0,163.28-4.015,85.317-95.023
			c-26.99-31.506-24.213-57.557-23.404-81.806c0.82-24.253-16.811-94.735-77.248-87.638c0,0-15.827-6.44-35.58,3.807
			C968.371,823.284,867.746,1048.642,979.481,1021.826z"/>
		<path style="fill:#FFB27D;" d="M1246.425,1092.301c0,0,10.628-16.18,19.194-16.497s24.428-4.759,23.16-1.586
			c-1.27,3.173-11.104,3.49-12.056,5.394c-0.952,1.903,14.594,4.759,19.035,5.076s14.911,0,14.594,2.221s-18.87,11.421-31.96,10.152
			c-13.09-1.27-29.271,3.807-29.271,3.807L1246.425,1092.301z"/>
		<path style="fill:#F9DDBF;" d="M1092.715,1097.536c0,0,5.777,11.44,16.256,24.584c12.63,15.818,32.103,34.092,56.554,37.699
			c11.678,1.723,23.099-0.79,33.597-5.454c0.028-0.009,0.038-0.009,0.038-0.009c29.695-13.183,52.023-43.496,52.023-43.496
			c5.234-14.276-3.331-23.956-3.331-23.956s-59.961,13.487-65.672,10.632s-39.022-98.822-46.951-110.88
			c-7.938-12.059-34.968-18.322-34.968-18.322L1092.715,1097.536z"/>
		<path style="fill:#F2CCAA;" d="M1108.971,1122.12c12.63,15.818,32.103,34.092,56.554,37.699
			c11.678,1.723,23.099-0.79,33.597-5.454c-1.161,0.152-30.818,3.817-42.639-17.331c-12.059-21.576-25.098-55.84-43.01-44.419
			C1105.745,1097.546,1106.087,1109.795,1108.971,1122.12z"/>
		<path style="fill:#2C4A7C;" d="M869.011,1744.785c0,0-18.296,16.697-14.727,28.561c3.57,11.864,20.081,19.773,22.313,34.273
			c2.231,14.501,11.157,22.41,19.189,22.41c8.033,0,38.295,0,38.295,0s5.913-10.204-8.367-13.279
			c-14.28-3.076-19.664-20.115-18.771-35.934c0.892-15.819-1.339-36.91-1.339-36.91l-30.345-7.031L869.011,1744.785z"/>
		<path style="fill:#2C4A7C;" d="M1023.871,1751.873c0,0-6.582,70.736,1.451,74.69l102.798-0.211c0,0,0-11.863-16.511-14.5
			c-16.512-2.637-45.518-12.304-50.427-33.834C1056.273,1756.487,1023.871,1751.873,1023.871,1751.873z"/>
		<path style="fill:#EBF3FA;" d="M1067.041,901.212c0,0,4.162,5.477,12.49,5.082c6.708-0.317,9.295-6.137,9.295-6.137
			S1076.504,897.195,1067.041,901.212z"/>
		<path style="fill:#F9DDBF;" d="M958.831,1049.824c0,0,0.229,28.609,1.76,54.526c1.019,17.18,2.599,33.179,5.064,38.87
			c6.186,14.276,13.163,16.599,13.163,16.599l53.975,13.229l18.978,4.645l59.847-17.874c0,0,27.259-76.084,16.313-118.913
			c-10.945-42.83-27.668-72.572-27.668-72.572s-36.215-12.074-112.422-4.054L958.831,1049.824z"/>
		<path style="fill:#F2CCAA;" d="M960.591,1086.975c1.019,17.179,2.599,50.555,5.064,56.246
			c6.186,14.276,13.163,16.599,13.163,16.599l53.975,13.229l23.442-6.891c0,0-80.618-34.481-71.947-101.81L960.591,1086.975z"/>
		<path style="fill:#ED7D2B;" d="M1107.811,1171.368c0,0,29.637,92.251,31.541,123.659c1.903,31.408-56.654,446.181-59.01,460.652
			c-2.221,13.643-19.16,22.339-19.16,22.339s-7.791,4.596-18.91,1.456c-15.428-4.356-20.304-9.572-20.304-9.572
			s-23.068-295.813-8.792-401.483c14.275-105.67,14.443-197.051,14.443-197.051H1107.811z"/>
		<path style="fill:#F99746;" d="M982.242,1168.617c0,0-45.209,60.659-49.423,101.664c-4.215,41.005-6.612,185.038-15.591,225.012
			c-8.978,39.975-41.969,116.901-41.969,241.582c0,0,3.429,7.146,14.017,10.953c3.386,1.218,7.923,2.398,12.327,3.408
			c8.732,2.002,17.691-2.266,21.676-10.289c22.304-44.907,93.351-189.743,96.993-219.808c2.578-21.277,25.01-162.093,73.942-244.721
			c11.748-19.837-7.209-98.726-7.209-98.726L982.242,1168.617z"/>
		<path style="fill:#233862;" d="M1112.545,1157.127c0,0-11.898,9.412-35.534,9.888c-28.232,0.568-98.19-7.197-98.19-7.197
			s-3.108,8.685-2.981,17.854c0,0,85.442,21.553,134.946,3.147C1110.785,1180.819,1117.17,1168.807,1112.545,1157.127z"/>
		<g>
			<path style="fill:#FFFFFF;" d="M1070.901,1176.764c0-8.04,5.779-14.581,12.882-14.581c7.104,0,12.883,6.541,12.883,14.581
				s-5.779,14.58-12.883,14.58C1076.68,1191.344,1070.901,1184.804,1070.901,1176.764z M1075.171,1176.764
				c0,5.686,3.864,10.311,8.612,10.311c4.75,0,8.613-4.625,8.613-10.311s-3.864-10.311-8.613-10.311
				C1079.035,1166.453,1075.171,1171.078,1075.171,1176.764z"/>
		</g>
		<path style="fill:#FFB27D;" d="M997.971,1228.058c0,0,5.184,12.081,11.74,13.866c6.556,1.785,11.517,7.773,13.896,9.529
			c2.38,1.755,6.644,2.267,5.467,4.145c-1.177,1.879-13.021-1.499-14.618-2.097c-1.597-0.599,9.488,11.146,13.112,14.786
			c3.624,3.639,11.771,8.851,9.782,11.276c-1.988,2.427-25.029-0.273-34.542-6.521c-4.757-3.124-6.964-13.062-10.306-20.132
			c-3.341-7.071-7.817-11.275-7.817-11.275L997.971,1228.058z"/>
		<path style="fill:#F9DDBF;" d="M987.84,964.28c0,0-29.477,1.981-45.234,20.89c-15.757,18.908-44.416,128.421-37.982,159.146
			c6.435,30.727,54.812,98.251,82.031,102.422c0,0,7.843-0.163,12.544-6.04c2.626-3.283,3.464-8.021,3.464-8.021
			s-9.42-47.981-23.847-72.858c-19.987-34.466,0.424-80.042,13.817-92.318C1006.028,1055.224,987.84,964.28,987.84,964.28z"/>
		<g>
			<path style="fill:#FFB27D;" d="M1025.148,969.11c-10.679-4.83-7.838-3.11-4.978-20.838c1.903-11.796,3.275-18.934,3.209-35.279
				l2.709,0.467l45.563,7.904c0,0-1.037,12.562-1.067,24.396c0,0.099-0.001,0.197-0.001,0.294
				c-0.056,10.278,3.085,20.547-2.202,24.897C1061.269,976.803,1039.075,975.409,1025.148,969.11z"/>
			<path style="fill:#E8945B;" d="M1071.652,921.364c0,0-1.037,12.562-1.068,24.396c-25.496-0.629-38.973-21.006-44.496-32.3
				L1071.652,921.364z"/>
			<path style="fill:#FFB27D;" d="M1080.166,935.339c0,0-60.324,0.995-60.365-36.581c-0.042-37.576-7.856-62.755,30.658-64.979
				c38.514-2.224,46.013,12.106,49.077,24.645C1102.601,870.962,1095.857,934.111,1080.166,935.339z"/>
			<path style="fill:#163560;" d="M1077.934,832.858c0,0-16.517,44.084-41.864,50.603c-25.348,6.518-36.343-0.273-36.343-0.273
				s19.443-15.445,23.478-42.407C1023.205,840.78,1065.475,811.876,1077.934,832.858z"/>
			<path style="fill:#163560;" d="M1073.84,836.437c0,0,12.248,4.579,17.289,13.511c4.929,8.735,9.129,20.304,8.154,34.497
				c0,0,12.444-29.964-1.541-46.914C1082.914,819.557,1073.84,836.437,1073.84,836.437z"/>
			<path style="fill:#FFFFFF;" d="M1068.381,913.033c0,0,1.043,4.428,12.059,3.746c0,0,9.249-0.572,8.966-5.439
				C1089.407,911.34,1080.438,907.877,1068.381,913.033z"/>
		</g>
	</g>
	<g>
		<path style="fill:#F9DDBF;" d="M809.54,900.867c0,0,90.593,125.94,70.6,176.833c-23.111,58.829-70.6,35.018-70.6,35.018V900.867z"
			/>
		<path style="fill:#2C4A7C;" d="M854.181,1826.668H733.996c-8.611-5.84,2.323-62.932,2.323-62.932s32.802-12.446,38.467,12.863
			c5.683,25.292,41.78,33.335,60.884,36.42C848.742,1815.146,852.873,1822.327,854.181,1826.668z"/>
		<path style="fill:#2C4A7C;" d="M675.935,1826.668H555.75c-8.611-5.84,2.323-62.932,2.323-62.932s32.802-12.446,38.467,12.863
			c5.682,25.292,41.78,33.335,60.884,36.42C670.497,1815.146,674.628,1822.327,675.935,1826.668z"/>
		<path style="fill:#AFCDFB;" d="M821.845,1244.231c0,0-5.402,67.397-11.751,148.413c-8.63,110.054-31.905,382.915-31.905,382.915
			s-15.259,13.02-49.058,5.897c0,0-28.77-94.133-37.373-201.571c-0.134-1.761-0.267-3.534-0.4-5.309
			c-8.003-109.373-20.447-339.683-20.447-339.683L821.845,1244.231z"/>
		<path style="fill:#95B3EF;" d="M823.688,1220.942c0,0-7.246,90.687-13.595,171.702l-118.336,187.241
			c-0.134-1.761-0.267-3.534-0.4-5.309c-8.003-109.373-20.447-339.683-20.447-339.683L823.688,1220.942z"/>
		<path style="fill:#AFCDFB;" d="M789.198,1220.942c0,0-85.826,213.636-113.262,294.617
			c-19.544,57.685-74.661,260.043-74.661,260.043s-23.968,7.295-44.111-6.805c0,0-20.506-206.744,20.914-265.04
			c21.976-30.928,5.461-321.505,94.562-323.992C761.742,1177.278,789.198,1220.942,789.198,1220.942z"/>
		<path style="fill:#FFB27D;" d="M750.861,906.005c-13.102,6.901-25.889,7.332-36.975,4.978
			c-10.141-2.133-18.849-6.609-25.05-10.573c-6.364-4.068-10.106-7.611-10.106-7.611s0.443-0.641,1.189-1.9
			c3.87-6.621,15.608-30.423,10.386-68.668c-0.07-0.501,3.718,0.21,9.442,1.562c17.03,4.033,51.266,13.743,52.781,14.174
			c0.035,0,0.058,0,0.058,0s0.42,8.043,1.83,22.462c0.117,1.271,0.245,2.6,0.385,3.975c0.175,1.69,0.35,3.485,0.56,5.327
			C756.946,884.721,750.861,906.005,750.861,906.005z"/>
		<path style="fill:#ED975D;" d="M754.417,860.428c-25.423,5.829-63.365-31.706-63.365-31.706c2.774-2.064,5.688-3.695,8.696-4.931
			c17.03,4.033,51.266,13.743,52.781,14.174c0.035,0,0.058,0,0.058,0S753.006,846.009,754.417,860.428z"/>
		<path style="fill:#F9DDBF;" d="M835.266,1184.961c-1.85,24.491-7.026,42.021-18.369,42.021c0,0-50.419,17.753-110.682,18.231
			c-11.778,0.085-28.468-2.212-42.298-4.529c-14.127-2.392-25.321-4.805-25.321-4.805c-12.119-2.796-25.492-10.279-23.695-24.099
			c0.946-7.356,1.637-16.796,2.104-27.734c0.032-0.701,0.064-1.403,0.096-2.115c1.329-32.008,1.116-76.102,1.276-118.314
			c0.117-25.928,0.372-51.132,1.244-72.392c0,0-11.896-83.511,1.308-97.213c15.478-16.031,65.471-20.729,66.343-20.878
			c0,0,39.522,21.357,68.276,5.221c0,0,41.927,9.757,53.993,22.514c4.167,4.39,20.782,31.349,21.239,60.954
			c0.451,29.664-0.257,62.227-0.691,78.206c-0.196,7.226-0.005,14.442,0.563,21.649c0.329,4.163,0.699,8.703,1.084,13.538
			c0.84,10.513,1.775,22.388,2.562,34.771c0.394,6.239,0.755,12.607,1.052,18.975
			C836.244,1148.615,836.52,1168.388,835.266,1184.961z"/>
		<g>
			<path style="fill:#FFB27D;" d="M763.054,835.934c0,0-10.454,3.752-23.782,5.544c-19.49,2.631-45.119,1.08-53.17-22.501
				c-13.561-39.692-30.884-63.49,9.023-79.698c21.363-8.677,35.03-9.137,44.312-5.825c8.065,2.857,12.82,8.567,16.42,14.214
				C763.607,759.816,779.196,828.985,763.054,835.934z"/>
			<path style="fill:#163560;" d="M758.88,723.696c9.014,2.19,13.07,16.39,4.489,22.294c-15.382,10.585-34.182,6.431-41.107,9.512
				c-9.925,4.409-11.708,21.057-11.887,26.34c-0.179,5.294-0.875,9.757-14.353,6.59c-2.208-0.517-3.8-0.365-4.894,0.292
				c-5.591,3.317,1.553,19.396,3.708,22.875c0,0,3.101,11.517-3.781,17.125c-0.833,0.669-14.353,6.579-46.934-43.281
				c-5.121-7.827-10.01-25.458-2.101-42.434c7.898-16.976,32.33-37.998,61.648-38.001
				C726.866,705.007,739.805,719.061,758.88,723.696z"/>
			<path style="fill:#FFFFFF;" d="M763.356,810.309c0,0,0.836,5.139-11.111,9.239c0,0-10.03,3.444-11.861-1.826
				C740.384,817.722,748.352,810.135,763.356,810.309z"/>
		</g>
		<path style="fill:#F2CCAA;" d="M734.264,1137.082c4.284,8.037-14.137,18.644-14.137,18.644s-50.92,24.21-103.122,28.32
			c0.032-0.701,0.064-1.403,0.096-2.115c1.329-32.008,1.116-76.102,1.276-118.314
			C618.377,1063.616,727.202,1123.831,734.264,1137.082z"/>
		<path style="fill:#ED975D;" d="M829.922,1098.03c-1.368-5.21-5.041-9.506-9.929-11.77c-6.227-2.883-15.052-6.751-19.072-7.481
			c-6.557-1.191-19.962-9.074-21.056-4.979c-1.093,4.096,9.461,8.842,9.514,13.355c0.053,4.514-29.642,15.562-28.852,20.244
			c0.79,4.682,9.255,15.158,20.762,12.361c11.506-2.797,40.086-9.496,46.682-11.348
			C831.466,1107.433,831.115,1102.575,829.922,1098.03z"/>
		<path style="fill:#FFB27D;" d="M806.94,1110.03c-1.604,2.623-9.37,11.739-14.727,12.685c-12.325,2.175-49.29,9.928-49.29,9.928
			s-3.126-23.334,2.988-25.1c6.126-1.765,14.068-15.328,18.115-17.711c3.063-1.815,15.518-5.647,23.485-6.328
			c1.084,1.223,1.853,2.445,1.866,3.655c0.013,1.16-1.941,2.761-4.854,4.563c-1.5,0.832-2.887,1.613-3.895,2.282
			c-1.21,0.794-1.878,1.437-1.563,1.803c1.487,1.777,6.467,1.121,12.076-0.58c5.623-1.689,18.323-9.493,22.029-4.815
			C815.288,1093.084,814.572,1097.547,806.94,1110.03z"/>
		<path style="fill:#F2CCAA;" d="M668.602,1009.175c0,0-0.708,79.451,77.311,98.366c0,0-101.508,5.237-104.029,3.981
			s-19.54-37.339-19.54-37.339L668.602,1009.175z"/>
		<path style="fill:#F9DDBF;" d="M623.227,891.887c0,0-24.811,17.028-36.223,71.413c-11.413,54.385-6.094,160.922,8.845,174.129
			c14.938,13.206,87.082,25.142,159.094-6.647c0,0-3.375-17.813-9.029-23.24c0,0-81.758-19.335-82.178-31.98
			c-0.565-17.006,8.953-65.115,3.82-92.129C662.423,956.419,623.227,891.887,623.227,891.887z"/>
		<path style="fill:#F2CCAA;" d="M821.512,1075.561c0,0,3.65-15.329,5.989-21.076c7.257-17.835-22.157-88.558-18.375-86.457
			c3.782,2.101,38.594,73.956,37.156,80.259C844.843,1054.59,833.182,1059.174,821.512,1075.561z"/>
	</g>
	<path style="fill:#2E3552;" d="M2857.59,1837.485H287.628c-2.229,0-4.053-1.824-4.053-4.054v-5.063
		c0-2.229,1.824-4.053,4.053-4.053H2857.59c2.229,0,4.053,1.824,4.053,4.053v5.063
		C2861.643,1835.661,2859.818,1837.485,2857.59,1837.485z"/>
</g>
</svg>
