<?xml version="1.0" encoding="utf-8"?>
<!-- Generator: Adobe Illustrator 27.5.0, SVG Export Plug-In . SVG Version: 6.00 Build 0)  -->
<svg version="1.1" xmlns="http://www.w3.org/2000/svg" xmlns:xlink="http://www.w3.org/1999/xlink" x="0px" y="0px"
	 viewBox="0 0 500 500" style="enable-background:new 0 0 500 500;" xml:space="preserve">
<g id="BACKGROUND">
	<rect style="fill:#FDFEFF;" width="500" height="500"/>
</g>
<g id="OBJECTS">
	<g>
		<g>
			<g>
				<defs>
					
						<ellipse id="SVGID_1_" transform="matrix(0.7071 -0.7071 0.7071 0.7071 -112.5651 257.2811)" cx="254.283" cy="264.519" rx="215.495" ry="215.495"/>
				</defs>
				<clipPath id="SVGID_00000179631713700561237190000012930008503968545686_">
					<use xlink:href="#SVGID_1_"  style="overflow:visible;"/>
				</clipPath>
				<g style="clip-path:url(#SVGID_00000179631713700561237190000012930008503968545686_);">
					<rect style="fill:#E1EAF5;" width="500" height="500"/>
					<g>
						<path style="fill:#B3DCF2;" d="M401.136,347.464c4.157,1.38,9.35,0.415,11.807-3.211c2.391-3.529,1.455-8.628-1.431-11.766
							c-2.886-3.138-7.283-4.529-11.543-4.678c-2.423-0.085-4.944,0.173-7.192-0.737c-1.52-0.615-2.788-1.721-3.925-2.902
							c-2.918-3.031-5.174-6.697-6.565-10.668c-1.927-5.501-2.386-11.872-6.448-16.052c-2.665-2.743-6.437-4.033-9.993-5.438
							c-3.557-1.405-7.243-3.189-9.228-6.458c-0.183,3.328,2.434,6.19,5.313,7.87c2.879,1.679,6.168,2.616,8.908,4.513
							c1.836,1.272,3.383,2.958,4.492,4.897c3.451,6.036,1.983,14.548,6.806,19.556c3.849,3.997,2.515,5.542,3.395,6.885
							c1.969,3.003,7.036,1.001,7.186,1.659c0,0-0.995,2.349-0.914,4.772c0.056,1.684,0.509,3.351,1.301,4.831
							C394.781,343.67,397.75,346.341,401.136,347.464z"/>
						<path style="fill:#B3DCF2;" d="M351.693,354.314c3.318,0.619,4.99,4.218,6.683,7.138c1.392,2.401,3.48,4.802,6.25,4.965
							c2.953,0.174,5.5-2.264,8.453-2.447c2.265-0.14,4.401,1.078,6.14,2.536c1.739,1.459,3.247,3.202,5.141,4.453
							c2.545,1.681,5.727,2.371,8.74,1.893c1.052-0.167,2.085-0.47,3.148-0.54c3.167-0.21,6.172,1.713,8.099,4.236
							c1.926,2.523,2.967,5.593,3.977,8.602c0.631,1.88,1.213,4.117,0.028,5.707c-0.913,1.225-2.568,1.598-4.089,1.743
							c-4.266,0.407-9.243-0.734-11.218-4.538c-1.466-2.824-0.951-6.54-3.008-8.968c-1.68-1.983-4.54-2.447-6.665-3.944
							c-1.289-0.908-2.292-2.188-3.628-3.024c-1.336-0.836-3.268-1.098-4.371,0.028c-1.445,1.476-0.411,3.997,1,5.506
							c2.435,2.604,5.844,4.349,7.589,7.457c0.816,1.454,1.223,3.144,2.263,4.447c1.909,2.392,5.31,2.81,8.083,4.104
							c3.595,1.677,6.364,5.249,6.62,9.208c0.256,3.959-2.29,8.06-6.097,9.174c-1.631,0.477-3.38,0.421-5.049,0.098
							c-3.53-0.684-7.061-2.891-8.028-6.354c-0.782-2.801,0.24-5.743,0.642-8.623c0.833-5.961-1.394-12.536-6.391-15.891
							c-1.796-1.205-4.112-2.286-4.459-4.421c-0.146-0.897,0.112-1.807,0.144-2.715c0.113-3.162-3.017-6.031-6.157-5.644
							c-0.856,0.105-1.678,0.411-2.535,0.51c-2.043,0.235-4.177-0.841-5.203-2.622c-1.484-2.576-0.926-6.465-3.488-7.973
							c-2.687-1.582-6.978,2.072-9.007,0.641C342.504,357.085,349.852,353.97,351.693,354.314z"/>
						<path style="fill:#B3DCF2;" d="M426.876,146.056c-6.227-1.357-9.994,1.955-11.262,2.087c-2.05,0.213-7.537-1.48-10.294-8.742
							c-1.171-3.084-1.009-6.026-1.801-8.67c0.225-0.528,0.555-1.014,0.82-1.527c0.816-1.576,1.174-3.388,1.121-5.156
							c-0.026-0.862-0.138-1.75-0.401-2.575c-0.259-0.811-0.895-1.512-1.484-2.109c-0.198-0.2-1.729-1.73-1.811-0.781
							c-0.033,0.386,0.431,0.909,0.622,1.211c0.342,0.54,0.531,1.017,0.734,1.634c0.858,2.607,0.53,4.575-0.917,6.62
							c0.016-0.2-0.569-0.685-0.702-0.815c-0.285-0.28-0.593-0.536-0.917-0.77c-0.677-0.487-1.424-0.871-2.197-1.183
							c-1.576-0.637-3.255-0.984-4.926-1.266c-3.373-0.57-7.07-1.192-9.306-3.782c0.111,1.701,1.37,3.153,2.857,3.987
							c1.487,0.834,3.194,1.166,4.859,1.534c1.665,0.368,3.365,0.803,4.749,1.8c2.305,1.661,3.313,4.536,4.382,7.168
							c1.286,3.164,2.977,8.243,5.072,10.941s4.977,3.336,8.087,4.747c0.457,1.083,0.026,4.694,3.11,8.333
							c2.075,2.448,4.872,3.281,8.08,3.317c3.209,0.035,6.21-2.143,7.337-5.147C434.913,150.991,430.286,146.798,426.876,146.056z"
							/>
						<path style="fill:#B3DCF2;" d="M335.952,186.583c0.792,2.644,0.63,5.586,1.801,8.67c2.757,7.262,8.244,8.955,10.294,8.742
							c1.269-0.132,5.035-3.444,11.262-2.087c3.41,0.743,8.038,4.935,5.815,10.857c-1.127,3.004-4.128,5.183-7.337,5.147
							c-3.209-0.035-6.005-0.869-8.08-3.317c-3.085-3.639-2.654-7.25-3.11-8.333c-3.11-1.411-5.992-2.049-8.087-4.747
							s-3.786-7.777-5.072-10.941c-1.07-2.632-2.077-5.507-4.383-7.168c-1.384-0.997-3.084-1.432-4.749-1.8s-3.372-0.7-4.859-1.534
							c-1.487-0.834-2.746-2.286-2.857-3.988c2.236,2.589,5.933,3.211,9.306,3.782c1.671,0.283,3.35,0.629,4.926,1.266
							c0.772,0.312,1.519,0.696,2.197,1.183c0.324,0.233,0.633,0.489,0.917,0.77c0.132,0.13,0.717,0.615,0.702,0.815
							c1.254-1.243,2.385-2.726,3.082-4.348c1.392-3.241,0.43-6.998,1.074-10.465c0.647-3.484,3.024-6.602,6.212-8.15
							c-5.693,8.6-2.332,13.035-3.291,17.867C341.359,180.594,339.178,183.851,335.952,186.583z"/>
						<path style="fill:#B3DCF2;" d="M106.651,254.97c-6.163,1.625-8.01,6.288-9.08,6.983c-1.728,1.122-7.385,2.111-13.144-3.101
							c-2.446-2.214-3.64-4.907-5.548-6.902c-0.039-0.572,0.033-1.155,0.036-1.733c0.01-1.775-0.496-3.551-1.347-5.101
							c-0.415-0.756-0.92-1.496-1.529-2.11c-0.599-0.605-1.485-0.939-2.281-1.202c-0.267-0.089-2.327-0.754-1.968,0.128
							c0.146,0.358,0.798,0.613,1.105,0.795c0.55,0.325,0.936,0.663,1.397,1.121c1.95,1.931,2.553,3.833,2.195,6.313
							c-0.077-0.185-0.819-0.351-0.996-0.407c-0.381-0.12-0.772-0.208-1.167-0.268c-0.825-0.125-1.664-0.127-2.494-0.054
							c-1.694,0.15-3.346,0.605-4.963,1.114c-3.263,1.027-6.838,2.155-10.007,0.866c0.873,1.465,2.655,2.185,4.359,2.251
							c1.704,0.066,3.375-0.415,5.025-0.845c1.65-0.43,3.362-0.816,5.048-0.558c2.809,0.43,5.013,2.532,7.164,4.389
							c2.585,2.233,6.401,5.986,9.495,7.435c3.093,1.449,5.949,0.706,9.361,0.548c0.899,0.757,2.159,4.169,6.561,6.005
							c2.962,1.236,5.831,0.706,8.705-0.723c2.874-1.428,4.555-4.733,4.192-7.922C116.054,255.708,110.026,254.08,106.651,254.97z"
							/>
						<path style="fill:#B3DCF2;" d="M237.323,88.924c-6.163,1.625-8.01,6.288-9.08,6.983c-1.728,1.122-7.385,2.111-13.144-3.101
							c-2.446-2.214-3.64-4.907-5.548-6.902c-0.039-0.572,0.033-1.155,0.036-1.733c0.01-1.775-0.496-3.551-1.347-5.101
							c-0.415-0.756-0.92-1.496-1.529-2.11c-0.599-0.604-1.485-0.939-2.281-1.202c-0.267-0.089-2.327-0.754-1.968,0.128
							c0.146,0.358,0.798,0.613,1.105,0.795c0.55,0.325,0.936,0.664,1.398,1.121c1.95,1.931,2.553,3.833,2.195,6.313
							c-0.077-0.185-0.818-0.351-0.996-0.407c-0.381-0.12-0.772-0.208-1.167-0.268c-0.825-0.125-1.664-0.127-2.494-0.054
							c-1.693,0.15-3.346,0.605-4.963,1.114c-3.263,1.027-6.838,2.155-10.007,0.866c0.873,1.465,2.655,2.185,4.359,2.251
							c1.704,0.066,3.375-0.415,5.025-0.845c1.65-0.43,3.362-0.816,5.048-0.558c2.809,0.43,5.014,2.532,7.164,4.389
							c2.585,2.233,6.401,5.987,9.495,7.435c3.093,1.449,5.949,0.706,9.361,0.548c0.899,0.757,2.159,4.169,6.561,6.005
							c2.962,1.235,5.831,0.706,8.705-0.723c2.874-1.428,4.555-4.733,4.192-7.922C246.726,89.662,240.697,88.034,237.323,88.924z"/>
						<path style="fill:#B3DCF2;" d="M178.876,415.757c-2.849-4.135-7.948-6.612-12.959-6.294c-0.642,0.041-1.295,0.123-1.921-0.025
							c-1.001-0.237-1.769-1.018-2.453-1.787c-1.896-2.132-3.649-4.482-6.086-5.965c-2.437-1.483-5.839-1.863-8.001-0.002
							c-2.692,2.316-2.185,6.646-3.922,9.743c-1.734,3.091-5.4,4.477-8.828,5.381c-2.866,0.756-5.884,1.344-8.779,0.703
							c-1.862-0.412-3.63-1.325-5.537-1.373c-1.907-0.048-4.083,1.267-3.977,3.171c2.34-1.338,5.272-1.06,7.858-0.304
							c2.587,0.756,5.058,1.949,7.722,2.358c5.871,0.902,12.134-2.591,14.453-8.059c0.815-1.922,1.291-4.183,2.994-5.391
							c0.967-0.686,2.121-0.847,3.264-0.645c-0.367,1.138,0.178,2.853,0.686,3.634c0.36,0.554,0.856,1.052,1.485,1.254
							c0.971,0.311,2.098-0.199,2.621-1.074c0.036-0.059,0.048-0.128,0.078-0.19c1.255,2.149,1.78,4.69,2.545,7.084
							c2.871,8.976,8.242,12.239,13.424,12.219c3.21-0.012,6.226-2.229,7.146-5.304C181.609,421.815,180.697,418.4,178.876,415.757z
							"/>
						<path style="fill:#B3DCF2;" d="M209.546,201.079c-2.849-4.135-7.948-6.612-12.959-6.294c-0.642,0.041-1.295,0.123-1.921-0.025
							c-1.001-0.237-1.769-1.018-2.453-1.787c-1.896-2.132-3.649-4.482-6.086-5.965c-2.437-1.483-5.839-1.863-8.001-0.002
							c-2.692,2.316-2.185,6.646-3.922,9.743c-1.734,3.091-5.401,4.477-8.828,5.381c-2.866,0.756-5.884,1.344-8.779,0.703
							c-1.862-0.412-3.63-1.325-5.537-1.373c-1.907-0.048-4.083,1.267-3.977,3.171c2.339-1.338,5.271-1.06,7.858-0.304
							c2.587,0.756,5.058,1.949,7.722,2.358c5.87,0.901,12.134-2.592,14.453-8.059c0.815-1.922,1.291-4.183,2.994-5.391
							c2.352-1.669,5.814-0.268,7.528,2.052c1.714,2.32-4.018,5.995,3.152,8.01c0,0-0.838,12.398,13.424,12.219
							c3.21-0.04,6.226-2.229,7.146-5.304C212.279,207.137,211.367,203.723,209.546,201.079z"/>
						<path style="fill:#B3DCF2;" d="M356.896,80.393c-2.963-1.858-6.907-2.034-10.024-0.448c-0.399,0.203-0.794,0.436-1.236,0.514
							c-0.705,0.125-1.413-0.163-2.062-0.466c-1.801-0.84-3.57-1.859-5.538-2.134c-1.968-0.276-4.248,0.42-5.117,2.207
							c-1.082,2.224,0.437,4.853,0.181,7.312c-0.256,2.455-2.218,4.354-4.16,5.878c-1.624,1.275-3.392,2.483-5.419,2.872
							c-1.305,0.25-2.687,0.155-3.919,0.65c-1.232,0.496-2.261,1.937-1.668,3.125c1.127-1.501,3.078-2.133,4.941-2.363
							s3.772-0.15,5.589-0.623c4.003-1.044,7.044-5.006,7.017-9.142c-0.009-1.454-0.329-3.031,0.427-4.273
							c1.044-1.716,3.644-1.776,5.38-0.765c1.736,1.011-0.915,4.943,4.226,4.252c0,0,2.886,8.159,11.956,4.109
							c2.041-0.912,3.366-3.144,3.106-5.364C360.315,83.512,358.79,81.58,356.896,80.393z"/>
						<path style="fill:#B3DCF2;" d="M67.535,281.961c2.775,1.922,2.828,5.89,3.179,9.247c0.289,2.76,1.211,5.805,3.673,7.087
							c2.623,1.367,5.945,0.184,8.714,1.225c2.124,0.799,3.575,2.783,4.565,4.825c0.99,2.042,1.654,4.25,2.87,6.166
							c1.635,2.575,4.257,4.506,7.201,5.302c1.029,0.278,2.095,0.424,3.094,0.795c2.976,1.104,4.932,4.088,5.658,7.178
							c0.726,3.09,0.42,6.317,0.111,9.476c-0.193,1.974-0.577,4.253-2.309,5.219c-1.334,0.744-2.998,0.408-4.444-0.081
							c-4.06-1.374-8.134-4.45-8.381-8.729c-0.183-3.177,1.807-6.357,0.923-9.414c-0.722-2.497-3.142-4.09-4.469-6.325
							c-0.805-1.355-1.197-2.934-2.074-4.243c-0.877-1.31-2.533-2.338-4-1.762c-1.923,0.756-2.01,3.479-1.339,5.433
							c1.157,3.371,3.554,6.359,3.875,9.909c0.15,1.661-0.17,3.369,0.247,4.984c0.764,2.963,3.696,4.736,5.698,7.051
							c2.595,3.001,3.66,7.393,2.275,11.11c-1.385,3.717-5.386,6.419-9.316,5.878c-1.684-0.232-3.257-0.998-4.647-1.975
							c-2.941-2.068-5.261-5.526-4.727-9.082c0.432-2.876,2.567-5.142,4.113-7.606c3.198-5.099,3.855-12.01,0.667-17.115
							c-1.145-1.834-2.817-3.768-2.261-5.858c0.234-0.878,0.841-1.603,1.242-2.419c1.396-2.839-0.286-6.737-3.31-7.668
							c-0.824-0.254-1.7-0.311-2.522-0.572c-1.96-0.621-3.468-2.476-3.676-4.521c-0.3-2.957,1.799-6.278,0.078-8.702
							c-1.805-2.542-7.215-0.963-8.481-3.099C58.016,280.733,65.995,280.895,67.535,281.961z"/>
						<path style="fill:#B3DCF2;" d="M439.529,322.296c0.752-0.471,1.524-1.063,1.739-1.924c0.155-0.618-0.009-1.268-0.206-1.874
							c-1.272-3.91-4.033-7.316-7.594-9.371c-0.255-0.147-0.528-0.292-0.823-0.296c-0.675-0.01-1.125,0.677-1.408,1.29
							c-1.569,3.399-2.187,7.23-1.768,10.949C430.152,327.127,436.076,324.457,439.529,322.296z"/>
						<path style="fill:#B3DCF2;" d="M90.219,385.508c1.252,2.731,25.833,5.96,26.646-1.935c0.656-6.369-16.565-16.748-20.16-15.705
							C90.852,369.567,88.522,381.805,90.219,385.508z"/>
						<path style="fill:#B3DCF2;" d="M440.849,210.044c0.591,0.661,1.306,1.322,2.191,1.388c0.635,0.048,1.248-0.224,1.812-0.521
							c3.638-1.917,6.527-5.214,7.949-9.072c0.102-0.277,0.198-0.57,0.152-0.861c-0.105-0.667-0.858-0.994-1.51-1.169
							c-3.615-0.97-7.496-0.93-11.091,0.113C434.499,201.621,438.134,207.007,440.849,210.044z"/>
						<path style="fill:#B3DCF2;" d="M191.794,184.097c0.591,0.661,1.306,1.322,2.191,1.388c0.635,0.048,1.248-0.224,1.812-0.521
							c3.638-1.917,6.527-5.214,7.949-9.072c0.102-0.277,0.198-0.57,0.152-0.861c-0.105-0.667-0.858-0.994-1.51-1.169
							c-3.615-0.97-7.496-0.93-11.091,0.113C185.445,175.674,189.079,181.06,191.794,184.097z"/>
						<path style="fill:#B3DCF2;" d="M177.979,449.258c0.591,0.661,1.306,1.322,2.191,1.388c0.635,0.048,1.248-0.224,1.812-0.521
							c3.638-1.917,6.527-5.214,7.949-9.072c0.102-0.277,0.198-0.57,0.152-0.862c-0.105-0.667-0.858-0.994-1.51-1.169
							c-3.615-0.97-7.496-0.93-11.091,0.113C171.629,440.835,175.264,446.221,177.979,449.258z"/>
					</g>
				</g>
			</g>
		</g>
		<g>
			<g>
				<g>
					<g>
						<g>
							<g>
								<g>
									<path style="fill:#6057D1;" d="M202.448,406.866c6.505,6.505,137.322,7.525,137.76-2.39
										c6.047-137.165,3.079-157.294,2.197-173.439c-0.344-6.299-60.774-9.149-71.504-9.149c-10.73,0-72.831-1.725-77.687,8.653
										C182.82,252.751,194.257,398.675,202.448,406.866z"/>
									<path style="fill:#6057D1;" d="M220.895,252.281l-28.859,114.576c-4.163,16.528-23.226,24.743-37.727,15.786
										c-5.861-3.62-10.013-9.431-9.523-18.697c1.525-28.827,25.174-116.456,25.174-116.456
										c4.199-9.791,20.093-20.72,30.085-21.236C212.506,225.612,217.6,238.889,220.895,252.281z"/>
									<g>
										<path style="fill:#2A2893;" d="M195.979,378.168c-0.379-0.012-0.538-5.807-0.489-15.167
											c0.05-9.36,0.308-22.284,0.763-36.553c0.231-7.246,0.491-14.143,0.762-20.399c0.146-3.125,0.284-6.092,0.413-8.869
											c0.072-1.385,0.142-2.722,0.209-4.006c0.036-0.641,0.07-1.27,0.105-1.884c0.018-0.307,0.035-0.611,0.052-0.911
											l0.026-0.448l0.016-0.138c-1.122-1.84-2.139-3.509-3.038-4.985c-0.932-1.548-1.722-2.889-2.352-3.995
											c-1.26-2.211-1.882-3.48-1.726-3.583c0.156-0.103,1.076,0.97,2.607,3.003c0.766,1.016,1.685,2.272,2.738,3.741
											c0.525,0.739,1.086,1.526,1.678,2.359c0.643,0.921,1.321,1.893,2.033,2.912c-0.025,2.447-0.053,5.127-0.083,8.006
											c-0.048,2.779-0.099,5.75-0.153,8.877c-0.128,6.261-0.308,13.16-0.54,20.406c-0.455,14.27-1.021,27.184-1.568,36.528
											C196.886,372.406,196.358,378.18,195.979,378.168z"/>
									</g>
								</g>
								<g>
									<path style="fill:#E78E75;" d="M267.953,241.798l2.552-0.479c-8.959,0-16.222-7.263-16.222-16.222v-34.834h34.09v34.834
										C288.373,234.057,276.912,241.798,267.953,241.798z"/>
									<g>
										<path style="fill:#E78E75;" d="M300.946,208.451H241.71c-12.704,0-23.003-10.299-23.003-23.003l-4.654-84.5
											c0-12.704,10.299-23.003,23.003-23.003H305.6c12.704,0,23.003,10.299,23.003,23.003l-4.654,84.5
											C323.949,198.152,313.65,208.451,300.946,208.451z"/>
										<g>
											<ellipse style="fill:#E78E75;" cx="327.575" cy="152.159" rx="12.633" ry="14.889"/>
											<ellipse style="fill:#E78E75;" cx="215.081" cy="152.159" rx="12.633" ry="14.889"/>
										</g>
										<path style="fill:#CE5F4D;" d="M216.38,143.198c0.375,0.993,0.35,16.886,0.35,16.886s-8.908-2.864-8.341-8.173
											C208.957,146.602,216.38,143.198,216.38,143.198z"/>
										<path style="fill:#CE5F4D;" d="M326.344,143.198c-0.375,0.993-0.35,16.886-0.35,16.886s8.908-2.864,8.341-8.173
											C333.768,146.602,326.344,143.198,326.344,143.198z"/>
										<path style="fill:#673033;" d="M296.28,176.707l-0.162,1.819c-0.722,8.096-7.505,14.301-15.633,14.301h-17.841
											c-8.128,0-14.911-6.205-15.633-14.301l-0.162-1.819c-0.503-5.647-13.465-9.976-19.135-9.976l-11.719-30.533l1.682,54.585
											c0,12.598,10.213,22.811,22.81,22.811h62.155c12.598,0,22.811-10.213,22.811-22.811l1.18-54.061l-7.532,30.325
											C313.431,167.048,296.784,171.06,296.28,176.707z"/>
										<path style="fill:#CE5F4D;" d="M279.715,153.984c0,0-6.911,6.771-11.656,6.508c-4.745-0.263-10.864-7.757-10.864-7.757
											s11.97-35.767,13.275-35.695C271.776,117.112,279.715,153.984,279.715,153.984z"/>
										<g>
											<path style="fill:#673033;" d="M278.534,173.809c-0.272,0.283-1.767-0.758-4.075-2.438
												c-2.31-1.66-5.477-3.966-9.359-5.443c-1.922-0.713-3.857-1.112-5.629-1.238c-1.773-0.119-3.381,0.004-4.702,0.281
												c-0.663,0.131-1.257,0.292-1.777,0.453c-0.522,0.159-0.967,0.322-1.339,0.456c-0.382,0.118-0.661,0.249-0.889,0.289
												c-0.223,0.048-0.37,0.039-0.428-0.036s-0.023-0.213,0.101-0.411c0.13-0.19,0.329-0.475,0.654-0.752
												c0.316-0.293,0.73-0.62,1.254-0.94c0.521-0.322,1.147-0.644,1.871-0.923c1.443-0.574,3.287-0.94,5.337-0.95
												c2.049-0.005,4.299,0.372,6.516,1.196c2.19,0.834,4.113,1.96,5.715,3.127c1.607,1.168,2.916,2.362,3.946,3.418
												C277.784,172.019,278.788,173.545,278.534,173.809z"/>
										</g>
										<path style="fill:#673033;" d="M260.387,109.29c1.987-0.513,4.147-1.171,5.27-2.889c1.199-1.836,0.741-4.441-0.722-6.074
											c-1.463-1.633-3.722-2.382-5.913-2.438c-2.192-0.055-4.349,0.51-6.447,1.147c-8.663,2.632-19.975,7.142-25.416,14.858
											c-2.467,3.498-0.396,6.206,3.603,5.712c4.292-0.53,8.463-3.979,12.542-5.472
											C248.868,112.098,254.657,110.769,260.387,109.29z"/>
										<path style="fill:#673033;" d="M282.1,104.956c-1.987-0.513-4.147-1.171-5.27-2.889c-1.199-1.835-0.741-4.441,0.722-6.074
											c1.463-1.633,3.721-2.382,5.913-2.438c2.192-0.055,4.349,0.51,6.447,1.147c8.663,2.632,19.975,7.142,25.416,14.858
											c2.466,3.498,0.396,6.206-3.603,5.712c-4.292-0.53-8.463-3.979-12.542-5.472
											C293.619,107.764,287.829,106.435,282.1,104.956z"/>
										<path style="fill:#673033;" d="M238.879,124.753c8.617,0.12,10.44,12.904,1.16,13.348
											C230.759,138.545,230.262,124.633,238.879,124.753z"/>
										<path style="fill:#673033;" d="M289.945,124.753c-8.617,0.12-10.44,12.904-1.16,13.348
											C298.066,138.545,298.563,124.633,289.945,124.753z"/>
										<ellipse style="fill:#DD7A64;" cx="239.475" cy="151.911" rx="10.922" ry="8.713"/>
										<ellipse style="fill:#DD7A64;" cx="304.02" cy="151.911" rx="10.922" ry="8.713"/>
										<path style="fill:#673033;" d="M257.195,152.734c0,0,3.824-0.347,8.385,7.077
											C265.58,159.811,263.123,159.939,257.195,152.734z"/>
										<path style="fill:#673033;" d="M279.715,153.984c0,0-3.762-0.768-9.116,6.106
											C270.599,160.09,273.026,160.489,279.715,153.984z"/>
										<path style="fill:#673033;" d="M225.408,91.736l17.375-8.684c0,0-13.563,14.667-12.581,15.593
											c1.583,1.493,41.128-19.072,41.128-19.072s-4.563,9.053-2.513,10.23c1.88,1.08,36.783-11.857,36.783-11.857l11.3,8.023
											c5.679,4.032,9.088,10.537,9.173,17.501l0.41,33.855l5.28,0.786l1.266-39.467c0.195-22.634-10.361-39.098-29.009-39.098
											l-61.94-0.369c-19.044,0-33.716,17.04-33.716,40.982l2.622,37.914l5.454-0.718l1.547-31.803
											C217.692,99.924,220.553,94.599,225.408,91.736z"/>
										<g>
											<path style="fill:#673033;" d="M292.281,144.847c0.038,0.366-0.621,0.803-1.802,1.018
												c-1.172,0.217-2.862,0.155-4.597-0.423c-1.734-0.582-3.122-1.548-3.927-2.426c-0.406-0.439-0.682-0.843-0.813-1.179
												c-0.135-0.333-0.142-0.578-0.015-0.718c0.264-0.286,0.97-0.078,1.944,0.305c0.977,0.387,2.245,0.926,3.683,1.41
												c1.44,0.477,2.777,0.81,3.791,1.088C291.552,144.201,292.242,144.46,292.281,144.847z"/>
										</g>
										<g>
											<path style="fill:#673033;" d="M245.635,141.441c0.163,0.339-0.255,0.93-1.121,1.561
												c-0.863,0.63-2.181,1.283-3.728,1.716c-1.548,0.432-3.014,0.557-4.078,0.465c-1.067-0.09-1.731-0.379-1.768-0.753
												c-0.058-0.769,2.281-1.561,5.105-2.361C242.875,141.289,245.286,140.753,245.635,141.441z"/>
										</g>
									</g>
								</g>
							</g>
							<g>
								<path style="fill:#E78E75;" d="M321.433,105.628c1.713,3.104,11.934-1.454,14.934,0.436
									c3.895,2.454,11.241,6.675,11.531,7.556c0,0-4.231,4.168-5.249,5.597c-3.944,5.534-11.823,26.925-2.964,30.095
									c5.077,1.817,6.853,4.924,10.283,7.905c4.285,3.723,9.67,7.213,10.236,7.333c1.015,0.216,25.678-18.704,25.248-20.261
									c-2.294-8.316-12.537-29.603-17.758-36.47c-3.236-4.257-16.843-8.4-30.296-12.365
									C332.016,93.867,319.329,101.815,321.433,105.628z"/>
								<path style="fill:#DD7A64;" d="M347.897,113.62c0,0-0.447,0.44-1.081,1.08c2.171-0.827,10.235-3.067,10.347-3.674
									c0.334-1.815-11.633-5.907-13.274-6.429c-6.352-2.018-12.334-2.465-18.665-0.161c-1.694,0.617-2.904-0.413-3.284-1.755
									c-0.721,1.085-0.967,2.115-0.508,2.947c1.713,3.104,11.934-1.454,14.934,0.436
									C340.261,108.519,347.608,112.739,347.897,113.62z"/>
								<g>
									<path style="fill:#673033;" d="M347.956,154.063c-0.012,0.043-0.333,0.133-0.976-0.061
										c-0.614-0.206-1.427-0.626-2.471-1.193c-1.042-0.569-2.308-1.294-3.784-2.157c-0.727-0.438-1.539-0.851-2.393-1.536
										c-0.833-0.665-1.56-1.576-2.097-2.633c-1.092-2.126-1.429-4.744-1.311-7.454c0.118-2.725,0.689-5.592,1.55-8.549
										c0.872-2.958,2.03-6.009,3.574-9.102c0.393-0.777,0.796-1.539,1.302-2.335c0.504-0.783,1.063-1.513,1.652-2.219
										c0.591-0.705,1.214-1.384,1.863-2.046c0.382-0.378,0.768-0.759,1.157-1.145c0.038-0.022-0.03-0.052-0.046-0.068
										l-0.223-0.154c-0.566-0.387-1.154-0.772-1.761-1.153c-1.21-0.763-2.462-1.52-3.734-2.285
										c-1.276-0.771-2.569-1.552-3.875-2.341l-0.492-0.304l-0.239-0.146c-0.037-0.015-0.073-0.032-0.107-0.053
										c-0.173-0.07-0.423-0.137-0.718-0.17c-0.595-0.066-1.309-0.03-2.03,0.041c-1.456,0.15-2.99,0.448-4.579,0.704
										c-1.609,0.23-3.214,0.558-5.205,0.307c-0.507-0.089-1.057-0.222-1.631-0.556c-0.572-0.313-1.14-0.959-1.346-1.62
										c-0.238-0.66-0.257-1.399-0.108-1.965c0.128-0.591,0.356-1.083,0.608-1.523c1.041-1.722,2.4-2.878,3.81-3.948
										c2.577-1.871,5.356-3.293,8.421-4.103c1.543-0.353,3.179-0.649,5.018-0.148c1.38,0.414,2.749,0.824,4.105,1.231
										c5.425,1.647,10.656,3.293,15.563,5.204c2.451,0.965,4.825,1.981,7.057,3.258c1.117,0.631,2.193,1.361,3.19,2.26
										c1.042,1.036,1.628,2.029,2.293,3.021c2.534,3.979,4.495,7.831,6.257,11.37c3.489,7.088,5.926,12.999,7.421,17.158
										c1.521,4.153,1.947,6.598,1.779,6.636c-0.201,0.052-0.96-2.243-2.773-6.238c-1.786-4-4.478-9.754-8.158-16.668
										c-1.85-3.442-3.91-7.227-6.428-10.998c-0.628-0.917-1.314-1.929-1.993-2.557c-0.795-0.684-1.741-1.318-2.78-1.878
										c-2.065-1.137-4.378-2.092-6.775-2.998c-4.81-1.8-10.014-3.384-15.426-4.988c-1.355-0.398-2.723-0.8-4.101-1.205
										c-0.962-0.279-2.305-0.125-3.579,0.193c-2.588,0.684-5.187,2.003-7.453,3.659c-1.238,0.917-2.411,2.001-3.066,3.103
										c-0.339,0.553-0.387,1.027-0.309,1.182c0.039,0.12,0.046,0.126,0.177,0.213c0.129,0.077,0.372,0.156,0.658,0.206
										c1.227,0.177,2.832-0.055,4.348-0.286c1.545-0.239,3.103-0.537,4.746-0.696c0.826-0.072,1.668-0.125,2.606-0.017
										c0.469,0.059,0.974,0.166,1.504,0.4l0.401,0.214l0.249,0.155l0.478,0.302c1.293,0.799,2.571,1.589,3.834,2.369
										c1.269,0.783,2.523,1.561,3.755,2.361c0.617,0.397,1.228,0.809,1.836,1.238c0.426,0.336,0.98,0.687,1.365,1.167
										c0.241,0.223,0.353,0.457,0.499,0.687l0.222,0.37l0.175,0.338l-1.018,0.87l-0.895,0.808l-0.954,0.91
										c-0.622,0.614-1.216,1.239-1.77,1.877c-1.134,1.275-1.97,2.571-2.738,4.053c-1.528,2.906-2.728,5.843-3.64,8.653
										c-0.905,2.814-1.531,5.529-1.732,8.052c-0.204,2.514,0.024,4.858,0.857,6.69c0.41,0.915,0.966,1.694,1.629,2.288
										c0.634,0.582,1.434,1.072,2.138,1.56c1.398,0.96,2.596,1.782,3.582,2.459c0.971,0.669,1.714,1.195,2.219,1.495
										C347.634,153.913,347.981,153.977,347.956,154.063z"/>
								</g>
								<g>
									<path style="fill:#673033;" d="M360.202,164.55c-0.158,0.339-1.83-0.041-4.309-1.199c-1.237-0.584-2.679-1.356-4.194-2.423
										c-0.759-0.529-1.532-1.145-2.287-1.891c-0.729-0.779-1.529-1.595-1.994-2.942c-0.072-0.175-0.108-0.286-0.144-0.395
										l-0.112-0.339l-0.219-0.672c-0.129-0.452-0.334-0.861-0.489-1.286c-0.341-0.832-0.715-1.616-1.124-2.328
										c-0.803-1.436-1.709-2.617-2.56-3.538c-1.708-1.852-3.13-2.643-3.008-3.002c0.089-0.366,1.976-0.174,4.297,1.547
										c1.149,0.851,2.371,2.083,3.424,3.658c0.535,0.782,1.015,1.654,1.439,2.584c0.195,0.471,0.438,0.939,0.595,1.44
										l0.257,0.751l0.128,0.38c0.043,0.132,0.087,0.263,0.121,0.321c0.181,0.613,0.765,1.324,1.324,1.946
										c0.59,0.63,1.237,1.218,1.89,1.752c1.298,1.077,2.57,1.985,3.637,2.757C359.019,163.212,360.367,164.202,360.202,164.55z"
										/>
								</g>
								<g>
									<path style="fill:#673033;" d="M358.675,110.762c0.048,0.404-0.992,0.826-2.586,1.486
										c-1.596,0.659-3.767,1.552-6.048,2.783c-2.294,1.202-4.256,2.489-5.613,3.47c-0.673,0.496-1.202,0.91-1.566,1.203
										c-0.367,0.283-0.606,0.468-0.801,0.411c-0.171-0.043-0.264-0.403-0.114-0.967c0.143-0.564,0.529-1.271,1.113-2.03
										c1.179-1.504,3.179-3.199,5.691-4.517c2.499-1.347,5.018-2.032,6.863-2.239
										C357.47,110.152,358.638,110.413,358.675,110.762z"/>
								</g>
							</g>
						</g>
						<g>
							<path style="fill:#6057D1;" d="M356.208,167.048l30.446-23.85c0,0,83.1,107.885,73.847,129.379
								c-11.341,26.345-43.132,20.645-59.148,10.063C379.008,267.875,356.208,167.048,356.208,167.048z"/>
							<path style="fill:#6057D1;" d="M309.638,224.737l145.107,22.481c0,0,8.718,38.087-19.476,44.286
								c-29.314,6.445-86.268-1.307-92.276,0L309.638,224.737z"/>
							<g>
								<path style="fill:#2A2893;" d="M341.147,390.946c-0.379-0.007-0.597-6.83-0.641-17.855
									c-0.044-11.025,0.084-26.253,0.396-43.069c0.165-7.31,0.322-14.318,0.469-20.818c0.207-6.664,0.398-12.803,0.566-18.207
									c1.466-1.17,2.866-2.288,4.196-3.349c1.212-0.954,2.359-1.857,3.437-2.705c2.156-1.687,4.033-3.133,5.585-4.303
									c3.105-2.34,4.91-3.574,5.047-3.409c0.137,0.165-1.409,1.712-4.283,4.331c-1.437,1.309-3.206,2.887-5.262,4.694
									c-1.962,1.709-4.178,3.639-6.61,5.758c-0.005,2.475-0.011,5.12-0.016,7.908c-0.024,2.966-0.049,6.084-0.076,9.331
									c-0.095,6.5-0.197,13.509-0.304,20.821c-0.312,16.817-0.748,32.039-1.202,43.055
									C341.997,384.143,341.527,390.953,341.147,390.946z"/>
							</g>
							<g>
								<path style="fill:#2A2893;" d="M419.759,241.798c-0.116,0.75-24.862-2.46-55.271-7.172
									c-30.408-4.711-54.966-9.139-54.85-9.889c0.116-0.751,24.862,2.46,55.271,7.172
									C395.318,236.62,419.875,241.048,419.759,241.798z"/>
							</g>
						</g>
					</g>
					<g>
						<path style="fill:#FAEAE8;" d="M254.283,220.35l14.674,21.449c0,0-6.576,4.644-22.269,15.576c0,0-18.061-31.938-13.955-34.292
							C236.839,220.727,250.656,216.319,254.283,220.35z"/>
						<path style="fill:#FAEAE8;" d="M288.373,221.015l-19.416,20.783c0,0,16.469,8.38,28.601,16.241
							c0,0,16.471-31.937,12.365-34.292C305.817,221.393,292,216.984,288.373,221.015z"/>
					</g>
				</g>
				<g>
					<g>
						<path style="fill:#314D64;" d="M340.208,404.475c-20.166,5.591-116.658,8.083-135.071,3.514L184.812,500H357.17
							L340.208,404.475z"/>
						<g>
							<path style="fill:#1E3544;" d="M282.132,478.935c-1.536,0.099-3.777,0.368-6.383,0.055c-1.293-0.168-2.659-0.531-3.903-1.24
								c-1.254-0.706-2.297-1.801-3.11-3.272c-0.832-1.446-1.435-3.259-2.084-5.093c-0.575-1.863-1.145-3.802-1.551-5.84
								c-0.877-4.058-1.285-8.027-1.522-11.654c-0.235-3.629-0.294-6.925-0.346-9.699c-0.082-5.551-0.196-9.018-0.589-9.036
								c-0.365-0.017-0.938,3.396-1.355,8.983c-0.197,2.794-0.342,6.138-0.242,9.868c0.103,3.727,0.445,7.852,1.364,12.11
								c0.427,2.134,1.045,4.178,1.689,6.132c0.724,1.926,1.387,3.793,2.454,5.518c0.524,0.856,1.144,1.659,1.862,2.348
								c0.728,0.682,1.53,1.23,2.355,1.645c1.664,0.818,3.345,1.107,4.82,1.167c2.969,0.082,5.218-0.518,6.737-0.941
								c1.517-0.455,2.311-0.837,2.271-1.017C284.557,478.78,283.677,478.81,282.132,478.935z"/>
							<path style="fill:#1E3544;" d="M269.928,444.306c2.606,0.88,5.186,0.031,6.626-1.273c1.495-1.306,2.006-2.889,2.085-3.906
								c0.078-1.043-0.165-1.582-0.334-1.577c-0.206-0.002-0.344,0.524-0.704,1.316c-0.355,0.782-1.02,1.858-2.226,2.621
								c-1.169,0.769-2.944,1.114-4.583,0.438c-1.628-0.631-2.98-2.371-2.964-4.375c-0.016-2.004,1.336-3.744,2.964-4.375
								c1.639-0.676,3.414-0.332,4.583,0.438c1.206,0.763,1.87,1.839,2.226,2.621c0.361,0.793,0.498,1.318,0.704,1.317
								c0.169,0.005,0.412-0.534,0.334-1.577c-0.078-1.017-0.59-2.601-2.085-3.906c-1.44-1.304-4.02-2.153-6.626-1.273
								c-1.283,0.421-2.52,1.263-3.407,2.456c-0.908,1.177-1.434,2.721-1.443,4.301c0.01,1.58,0.535,3.123,1.443,4.3
								C267.408,443.044,268.645,443.886,269.928,444.306z"/>
							<path style="fill:#1E3544;" d="M330.558,441.711c-6.825-9.392-9.521-18.629-10.323-18.39
								c-0.336,0.087-0.108,2.531,1.089,6.293c0.589,1.882,1.472,4.066,2.618,6.415c1.174,2.334,2.63,4.824,4.381,7.285
								c1.771,2.448,3.664,4.624,5.498,6.484c1.858,1.838,3.645,3.374,5.239,4.535c3.181,2.339,5.423,3.338,5.613,3.047
								C345.156,456.697,337.269,451.185,330.558,441.711z"/>
							<path style="fill:#1E3544;" d="M211.127,441.771c-8.469,8.284-15.583,14.783-15.091,15.392
								c0.456,0.577,8.435-5.036,17.011-13.423c8.597-8.367,14.405-16.204,13.839-16.675
								C226.29,426.558,219.617,433.509,211.127,441.771z"/>
							<path style="fill:#1E3544;" d="M274.778,480.935c-0.748-0.051-1.706,5.186-1.629,11.706c0.028,2.798,0.241,5.356,0.535,7.359
								h2.137c0.09-2.017,0.106-4.591,0.078-7.389C275.823,486.209,275.546,480.985,274.778,480.935z"/>
						</g>
					</g>
					<path style="fill:#FAEAE8;" d="M205.137,407.989l-6.329,14.85c0,0,61.582,5.505,68.588,6.005c0,0,3.238-19.479,3.809-17.978
						c0.571,1.501,4.198,17.978,4.198,17.978s68.14-8.007,70.853-8.007s-6.047-16.362-6.047-16.362L205.137,407.989z"/>
				</g>
			</g>
			<g>
				<g>
					<path style="fill:#E78E75;" d="M76.062,192.094c3.074,1.766,9.929,19.327,15.136,21.5c1.432,0.598,4.46,1.623,8.29,2.378
						c3.569,0.704,1.463,0.147,5.784-0.181c2.4-0.182,12.72-6.775,15.212-7.341c14.483-3.285,21.445-3.285,32.286,5.144
						c4.257,3.309,6.3,20.704,6.094,21.244c-0.369,0.97-33.754,12.809-34.83,11.604c-5.744-6.436-26.617-6.886-33.394-12.224
						c-4.201-3.309-8.13-7.506-13.092-20.624C74.865,206.504,72.285,189.925,76.062,192.094z"/>
					<path style="fill:#DD7A64;" d="M98.573,234.315c-9.133-5.361-17.315-22.449-17.718-35.169c-1.941-3.48-3.635-6.387-4.793-7.052
						c-3.776-2.169-1.197,14.41,1.486,21.5c4.963,13.118,8.892,17.314,13.092,20.624c6.777,5.339,27.649,5.788,33.394,12.225
						c0.133,0.15,0.766,0.097,1.769-0.109C118.698,239.892,105.785,238.548,98.573,234.315z"/>
					<path style="fill:#E78E75;" d="M152.769,213.594c-1.635-1.334-6.236-4.685-8.296-5.144
						c-17.21-3.834-16.354-18.188-22.092-18.188c-2.72,0-2.93,8.412,2.592,17.237c2.259,3.61-4.472,2.715-3.249,3.233
						c0.244,0.103,1.459-1.23,1.543-0.979c0.133,0.398,0.536,0.631,0.913,0.815c6.97,3.406,15.445,2.378,22.487,5.632
						c1.441,0.666,7.271,5.251,8.313,3.9C156.613,217.983,154.079,214.663,152.769,213.594z"/>
					<g>
						<g>
							<g>
								<path style="fill:#527BA0;" d="M193.89,76.47l8.71-33.39l-33.37-8.71l-2.47,9.46l11.63,4.12
									c-8.44,3.41-14.55,9.68-19.32,17.56c-11.33-7.6-24.96-12.03-39.62-12.03c-39.36,0-71.27,31.91-71.27,71.27
									s31.91,71.27,71.27,71.27s71.27-31.91,71.27-71.27c0-19.79-8.06-37.69-21.09-50.6c5.51-7.59,11.8-13.85,19.41-17.86
									L184.44,74L193.89,76.47z M182.22,124.75c0,34.67-28.1,62.77-62.77,62.77c-34.66,0-62.77-28.1-62.77-62.77
									c0-34.66,28.11-62.77,62.77-62.77C154.12,61.98,182.22,90.09,182.22,124.75z"/>
							</g>
							<g>
								
									<ellipse transform="matrix(0.235 -0.972 0.972 0.235 -29.6422 211.6442)" style="fill:#FFFFFF;" cx="119.641" cy="124.654" rx="62.768" ry="62.768"/>
							</g>
						</g>
						<g>
							<path style="fill:#67B4D6;" d="M136.385,87.42c-12.018-2.618-19.287,3.774-21.736,4.028
								c-3.956,0.411-14.546-2.856-19.867-16.872c-2.26-5.953-1.947-11.63-3.475-16.733c0.435-1.018,1.071-1.957,1.583-2.946
								c1.575-3.042,2.266-6.538,2.164-9.951c-0.05-1.664-0.267-3.378-0.774-4.969c-0.499-1.565-1.728-2.917-2.864-4.069
								c-0.381-0.387-3.337-3.34-3.494-1.508c-0.063,0.744,0.832,1.755,1.201,2.336c0.66,1.042,1.026,1.962,1.418,3.154
								c1.656,5.031,1.023,8.83-1.77,12.777c0.031-0.386-1.098-1.322-1.354-1.573c-0.55-0.541-1.145-1.035-1.771-1.485
								c-1.307-0.94-2.749-1.68-4.239-2.283c-3.042-1.23-6.283-1.899-9.507-2.444c-6.51-1.101-13.644-2.301-17.96-7.299
								c0.214,3.284,2.644,6.086,5.514,7.696c2.87,1.61,6.164,2.251,9.378,2.961c3.214,0.71,6.495,1.55,9.165,3.474
								c4.449,3.205,6.393,8.753,8.458,13.833c2.482,6.107,5.745,15.91,9.789,21.116c4.044,5.206,9.605,6.438,15.608,9.161
								c0.881,2.09,0.049,9.06,6.003,16.083c4.005,4.724,9.402,6.333,15.595,6.401c6.193,0.069,11.984-4.136,14.16-9.934
								C151.897,96.945,142.966,88.854,136.385,87.42z"/>
						</g>
						<g>
							<path style="fill:#67B4D6;" d="M138.875,162.025c8.1-0.542,15.168-3.731,18.631-11.073c3.372-7.146,0.2-16.217-5.981-21.139
								c-6.181-4.923-14.631-6.215-22.476-5.271c-4.462,0.537-9.005,1.729-13.381,0.704c-2.959-0.693-5.597-2.356-8.016-4.194
								c-6.21-4.718-11.388-10.787-15.07-17.662c-5.1-9.524-7.76-21.06-16.392-27.555c-5.663-4.261-12.94-5.548-19.854-7.105
								c-6.914-1.557-14.174-3.772-18.743-9.19c0.615,6.146,6.226,10.641,11.977,12.894c5.752,2.253,12.043,3.028,17.603,5.721
								c3.726,1.804,7.04,4.451,9.624,7.685c8.044,10.069,7.786,26.076,18.049,33.87c8.191,6.22,6.188,9.431,8.184,11.639
								c4.464,4.937,13.171-0.176,13.633,0.986C116.663,132.334,113.19,163.743,138.875,162.025z"/>
						</g>
						<g>
							<path style="fill:#9CD9EF;" d="M116.402,97.326c-0.129-4.122,10.937-8.97,20.392-6.106
								c9.455,2.863,10.753,20.381-0.697,23.434C121.774,118.473,116.623,104.395,116.402,97.326z"/>
						</g>
						<g>
							<path style="fill:#9CD9EF;" d="M128.685,154.184c12.901,8.355,23.073,0.86,25.182-2.317
								c3.486-5.249,3.522-14.759-6.133-21.121c-6.556-4.32-20.726-6.1-27.196,1.07
								C117.417,135.274,122.292,150.043,128.685,154.184z"/>
						</g>
						<g>
							<path style="fill:#265063;" d="M131.449,148.956c-0.45,0-0.858-0.306-0.97-0.762c-0.131-0.537,0.197-1.078,0.733-1.209
								c5.283-1.295,10.704-2.236,16.113-2.796c0.559-0.058,1.041,0.343,1.098,0.892c0.057,0.549-0.342,1.041-0.892,1.098
								c-5.319,0.551-10.649,1.476-15.843,2.749C131.608,148.947,131.528,148.956,131.449,148.956z"/>
						</g>
						<g>
							<path style="fill:#265063;" d="M126.934,108.611c-0.45,0-0.858-0.306-0.97-0.762c-0.131-0.537,0.197-1.078,0.733-1.209
								c3.517-0.862,7.125-1.488,10.726-1.861c0.554-0.059,1.041,0.343,1.098,0.892c0.057,0.549-0.342,1.041-0.892,1.098
								c-3.509,0.364-7.027,0.974-10.455,1.814C127.093,108.602,127.013,108.611,126.934,108.611z"/>
						</g>
						<g>
							<path style="fill:#67B4D6;" d="M69.201,144.824c3.31,4.589,9.213,6.475,14.81,7.304c4.136,0.613,8.862,0.623,11.883-2.266
								c2.481-2.373,3.113-6.076,3.193-9.508c0.095-4.062-0.41-8.198-2.049-11.915c-1.64-3.717-4.5-6.992-8.229-8.605
								c-2.787-1.206-5.889-1.439-8.925-1.51c-3.718-0.086-7.66,0.113-10.764,2.16C62.754,124.68,65.418,139.579,69.201,144.824z"/>
						</g>
						<g>
							<path style="fill:#9CD9EF;" d="M69.259,134.781c0.822,3.899,3.055,7.485,6.193,9.942c3.138,2.457,7.155,3.765,11.137,3.627
								c1.184-0.041,2.388-0.212,3.448-0.741c1.405-0.699,2.448-1.971,3.218-3.338c2.415-4.29,2.363-9.799,0.102-14.171
								c-2.262-4.372-6.596-7.55-11.392-8.661c-3.223-0.747-6.959-0.703-10.078,0.503c-2.507,0.969-2.643,4.149-2.886,6.468
								C68.779,130.531,68.818,132.689,69.259,134.781z"/>
						</g>
						<g>
							<path style="fill:#265063;" d="M130.206,139.489l2.031-2.587c0.341-0.434,0.265-1.063-0.169-1.404
								c-0.435-0.341-1.063-0.265-1.404,0.169l-2.07,2.637l-2.934-2.157c-0.445-0.328-1.072-0.232-1.398,0.213
								c-0.327,0.445-0.231,1.071,0.213,1.398l2.883,2.12l-2.306,2.937c-0.341,0.435-0.265,1.063,0.169,1.404
								c0.183,0.144,0.401,0.213,0.617,0.213c0.296,0,0.59-0.131,0.787-0.382l2.345-2.987l2.826,2.077
								c0.178,0.131,0.386,0.194,0.591,0.194c0.308,0,0.611-0.141,0.807-0.408c0.327-0.445,0.232-1.071-0.213-1.398L130.206,139.489
								z"/>
							<path style="fill:#265063;" d="M148.854,139.362l-2.775-2.04l2.031-2.587c0.341-0.435,0.265-1.063-0.169-1.404
								c-0.435-0.341-1.063-0.265-1.404,0.169l-2.07,2.637l-2.935-2.157c-0.445-0.329-1.071-0.232-1.398,0.213
								c-0.327,0.445-0.231,1.071,0.213,1.398l2.884,2.12l-2.306,2.937c-0.341,0.435-0.265,1.063,0.169,1.404
								c0.183,0.144,0.401,0.213,0.617,0.213c0.296,0,0.59-0.131,0.787-0.382l2.345-2.987l2.826,2.077
								c0.178,0.131,0.386,0.194,0.591,0.194c0.308,0,0.611-0.141,0.807-0.408C149.394,140.315,149.298,139.689,148.854,139.362z"/>
							<path style="fill:#265063;" d="M126.965,103.122c0.178,0.131,0.386,0.194,0.591,0.194c0.308,0,0.611-0.141,0.807-0.408
								c0.327-0.445,0.231-1.071-0.213-1.398l-1.559-1.146l1.131-1.441c0.341-0.434,0.265-1.063-0.169-1.404
								c-0.436-0.34-1.063-0.267-1.404,0.17l-1.17,1.491l-1.682-1.236c-0.445-0.328-1.071-0.231-1.398,0.213
								c-0.327,0.445-0.231,1.071,0.213,1.398l1.631,1.199l-1.313,1.673c-0.341,0.434-0.265,1.063,0.169,1.404
								c0.184,0.144,0.401,0.213,0.617,0.213c0.296,0,0.59-0.131,0.787-0.383l1.352-1.723L126.965,103.122z"/>
							<path style="fill:#265063;" d="M137.111,98.929l1.131-1.441c0.341-0.435,0.265-1.063-0.169-1.404
								c-0.435-0.34-1.063-0.266-1.404,0.169l-1.17,1.491l-1.682-1.237c-0.445-0.327-1.072-0.231-1.398,0.213
								c-0.327,0.445-0.232,1.071,0.213,1.398l1.631,1.199l-1.313,1.673c-0.341,0.435-0.265,1.063,0.169,1.404
								c0.183,0.144,0.401,0.213,0.617,0.213c0.296,0,0.59-0.131,0.787-0.382l1.352-1.723l1.609,1.183
								c0.178,0.131,0.386,0.194,0.591,0.194c0.308,0,0.611-0.141,0.807-0.408c0.327-0.445,0.232-1.071-0.213-1.398L137.111,98.929z
								"/>
							<path style="fill:#265063;" d="M77.404,134.174c0.195,0.27,0.5,0.413,0.81,0.413c0.204,0,0.409-0.062,0.586-0.191
								c0.447-0.324,0.546-0.95,0.222-1.396l-1.137-1.566l1.516-1.029c0.457-0.311,0.576-0.932,0.266-1.389
								c-0.311-0.457-0.933-0.576-1.389-0.266l-1.568,1.064l-1.226-1.689c-0.324-0.447-0.95-0.546-1.396-0.222
								c-0.447,0.324-0.546,0.95-0.222,1.397l1.189,1.638l-1.76,1.194c-0.457,0.311-0.576,0.932-0.266,1.389
								c0.194,0.285,0.508,0.439,0.829,0.439c0.193,0,0.389-0.056,0.561-0.172l1.812-1.23L77.404,134.174z"/>
							<path style="fill:#265063;" d="M91.006,131.721c-2.633-0.548-5.267-1.237-7.828-2.047c-0.528-0.166-1.088,0.125-1.255,0.652
								c-0.167,0.526,0.125,1.088,0.652,1.255c2.625,0.831,5.324,1.537,8.024,2.098c0.069,0.014,0.137,0.021,0.205,0.021
								c0.464,0,0.88-0.324,0.978-0.796C91.894,132.363,91.547,131.833,91.006,131.721z"/>
							<path style="fill:#265063;" d="M90.123,136.16c-1.36,0.06-2.724,0.158-4.087,0.284c-0.013,0.001-0.026-0.003-0.039-0.002
								l-0.105,0.014c-1.685,0.158-3.365,0.361-5.028,0.617c-1.719,0.265-3.534,0.6-5.165,1.52c-0.481,0.271-0.65,0.882-0.379,1.363
								c0.184,0.326,0.523,0.508,0.872,0.508c0.166,0,0.335-0.042,0.491-0.129c0.7-0.395,1.476-0.66,2.276-0.861
								c0.335,1.41,1.126,3.827,2.788,5.043c0.67,0.491,1.433,0.742,2.234,0.742c0.211,0,0.426-0.018,0.642-0.053
								c1.072-0.175,1.917-0.731,2.444-1.608c0.947-1.576,0.661-3.859,0.345-5.265c0.934-0.073,1.868-0.135,2.799-0.176
								c0.552-0.024,0.979-0.491,0.955-1.043C91.141,136.563,90.671,136.132,90.123,136.16z M85.351,142.57
								c-0.223,0.372-0.557,0.583-1.051,0.664c-0.515,0.085-0.949-0.021-1.37-0.328c-1.038-0.758-1.68-2.53-1.995-3.778l4.467-0.59
								C85.683,139.708,85.949,141.575,85.351,142.57z"/>
						</g>
					</g>
					<path style="fill:#E78E75;" d="M92.602,228.954c0,0-15.65-30.479-11.625-35.635C85,188.163,89.38,207.265,94.553,215.3
						c1.977,3.072,8.857,10.678,8.857,10.678s-8.569-8.791-8.857-10.678s-3.653-25.577-0.203-26.048
						c3.449-0.472,10.486,25.902,12.085,26.54c1.599,0.638,13.016,7.671,13.016,7.671"/>
					<g>
						<path style="fill:#673033;" d="M114.205,223.428c-0.148,0.131-0.967-0.521-2.347-1.77c-0.708-0.646-1.541-1.407-2.49-2.274
							c-0.482-0.441-1.003-0.903-1.556-1.377c-0.542-0.452-1.176-0.987-1.704-1.266l-0.22-0.119c-0.044-0.08-0.13-0.105-0.193-0.16
							c-0.149-0.081-0.26-0.215-0.364-0.361c-0.205-0.262-0.269-0.418-0.408-0.637c-0.212-0.389-0.403-0.779-0.586-1.172
							c-0.36-0.786-0.7-1.597-1.041-2.437c-0.677-1.678-1.354-3.465-2.058-5.338c-1.418-3.731-2.888-7.862-4.731-11.94
							c-0.409-0.897-0.842-1.765-1.304-2.548c-0.227-0.392-0.473-0.764-0.708-1.049c-0.059-0.081-0.118-0.153-0.169-0.195
							c0,0,0.022,0.014,0.014,0.007l-0.007-0.009c-0.006,0-0.019-0.007-0.028,0.004c0.017-0.025-0.088,0.167-0.14,0.336
							c-0.056,0.184-0.122,0.359-0.162,0.572c-0.189,0.816-0.277,1.727-0.33,2.619c-0.087,1.801-0.04,3.576,0.055,5.257
							c0.194,3.368,0.551,6.378,0.89,8.879c0.346,2.502,0.696,4.495,0.945,5.867c0.249,1.37,0.407,2.122,0.246,2.193
							c-0.149,0.066-0.62-0.59-1.17-1.919c-0.548-1.325-1.178-3.305-1.769-5.814c-0.585-2.511-1.154-5.549-1.516-9.017
							c-0.179-1.735-0.3-3.578-0.263-5.546c0.033-0.989,0.093-2.004,0.32-3.102c0.046-0.269,0.137-0.561,0.225-0.849
							c0.108-0.292,0.182-0.579,0.47-1.009c0.473-0.867,1.384-1.4,2.339-1.354c0.216,0.067,0.446,0.099,0.653,0.197l0.618,0.303
							c0.195,0.112,0.381,0.319,0.557,0.482c0.131,0.122,0.228,0.238,0.317,0.353c0.391,0.467,0.687,0.925,0.963,1.387
							c0.553,0.923,1.017,1.856,1.451,2.804c1.934,4.285,3.329,8.442,4.634,12.234c0.638,1.886,1.248,3.686,1.822,5.383
							c0.291,0.838,0.577,1.645,0.867,2.401c0.147,0.375,0.295,0.732,0.445,1.063c0.068,0.125,0.164,0.339,0.203,0.388
							c0.008,0.038,0.053,0.083,0.095,0.11c0.903,0.559,1.406,1.145,1.971,1.688c0.534,0.55,1.018,1.077,1.456,1.58
							c0.88,1.003,1.601,1.892,2.173,2.635C113.81,222.396,114.351,223.298,114.205,223.428z"/>
					</g>
					<g>
						<path style="fill:#673033;" d="M104.221,226.804c-0.134,0.133-1.07-0.546-2.614-1.93c-1.533-1.404-3.715-3.434-6.143-6.335
							c-1.258-1.501-2.26-3.394-3.214-5.35c-0.964-1.977-1.891-4.112-2.859-6.347c-0.968-2.234-1.963-4.579-3.079-6.933
							c-0.561-1.172-1.153-2.35-1.814-3.462c-0.334-0.547-0.68-1.094-1.055-1.553c-0.353-0.462-0.803-0.889-1.037-0.975
							c-0.103-0.008-0.069-0.03-0.077-0.03l-0.002,0l-0.015,0.466l-0.018,0.97c-0.004,0.646-0.002,1.289,0.011,1.927
							c0.024,1.276,0.077,2.533,0.166,3.763c0.173,2.461,0.463,4.818,0.876,7.026c0.418,2.205,0.928,4.275,1.605,6.125
							c0.644,1.85,1.466,3.522,2.253,5.035c1.595,3.019,3.062,5.39,4.042,7.046c0.984,1.656,1.502,2.595,1.356,2.709
							c-0.143,0.112-0.943-0.62-2.2-2.107c-1.254-1.489-2.979-3.721-4.843-6.711c-0.92-1.5-1.888-3.198-2.688-5.172
							c-0.824-1.954-1.451-4.123-1.964-6.427c-0.507-2.307-0.87-4.76-1.093-7.315c-0.114-1.278-0.187-2.581-0.226-3.908
							c-0.021-0.663-0.028-1.332-0.029-2.007l0.012-1.019l0.015-0.55l0.044-0.984l0.777-0.822c0.322-0.194,0.599-0.478,0.96-0.6
							c0.712-0.313,1.546-0.181,2.152,0.07c1.057,0.507,1.564,1.169,2.072,1.778c0.498,0.621,0.886,1.246,1.261,1.869
							c0.729,1.248,1.335,2.491,1.901,3.717c1.122,2.454,2.074,4.84,2.979,7.102c0.904,2.262,1.744,4.408,2.591,6.368
							c0.855,1.973,1.664,3.723,2.69,5.126c2.114,2.906,4.095,5.166,5.37,6.774C103.679,225.739,104.356,226.67,104.221,226.804z"/>
					</g>
					<path style="fill:#E78E75;" d="M114.819,224.737c0,0-4.511-8.518-4.968-10.869c-1.926-9.91-3.995-23.605-2.428-23.605
						c1.567,0,6.183,0.655,8.16,11.462c1.708,9.335,8.451,15.683,8.451,15.683s17.852,2.529,20.713,2.935"/>
					<g>
						<path style="fill:#673033;" d="M144.746,220.343c-0.035,0.196-1.475,0.225-4.108,0.399c-2.787,0.158-6.667,0.378-11.393,0.646
							c-0.309-0.193-0.621-0.387-0.936-0.583c-0.22-0.145-0.442-0.292-0.665-0.44c-0.442-0.301-0.887-0.615-1.329-0.947
							c-0.891-0.655-1.773-1.384-2.665-2.156c-1.766-1.563-3.52-3.377-5.091-5.514c-1.562-2.135-2.948-4.614-3.774-7.434
							c-0.2-0.704-0.334-1.437-0.501-2.164c-0.127-0.663-0.254-1.331-0.383-2.003c-0.312-1.302-0.642-2.626-1.175-3.838
							c-0.553-1.321-1.276-2.515-2.177-3.382c-0.462-0.41-0.952-0.756-1.478-0.979c-0.264-0.107-0.533-0.195-0.808-0.25
							l-0.104-0.018c-0.013-0.003-0.01-0.004-0.01-0.004l-0.005-0.002l-0.012-0.004c-0.009,0-0.013,0.008-0.018,0.015
							c0,0-0.002,0.002-0.004,0.013l-0.042,0.207l-0.069,0.474c-0.081,0.65-0.121,1.335-0.138,2.015
							c-0.039,1.363,0.004,2.723,0.076,4.046c0.322,5.301,1.172,10.072,2.37,13.867c0.282,0.946,0.664,1.835,1.022,2.687
							c0.347,0.848,0.675,1.65,0.983,2.404c0.607,1.504,1.117,2.808,1.517,3.881c0.801,2.147,1.164,3.377,0.992,3.458
							c-0.172,0.081-0.863-0.995-1.968-3.019c-0.553-1.012-1.209-2.26-1.956-3.718c-0.372-0.734-0.768-1.515-1.186-2.341
							c-0.419-0.824-0.869-1.703-1.237-2.704c-1.511-3.944-2.586-8.83-3.064-14.338c-0.111-1.381-0.188-2.799-0.174-4.273
							c0.006-0.738,0.034-1.487,0.119-2.276l0.079-0.604l0.061-0.33c0.028-0.17,0.075-0.345,0.134-0.511
							c0.182-0.684,0.532-1.337,1.189-1.536c0.278-0.154,0.616-0.189,0.983-0.154c0.18,0.01,0.359,0.01,0.541,0.034l0.436,0.071
							c0.455,0.086,0.901,0.223,1.333,0.396c0.862,0.355,1.626,0.885,2.3,1.486c1.31,1.243,2.193,2.765,2.849,4.318
							c0.627,1.438,0.985,2.9,1.32,4.337c0.131,0.712,0.261,1.42,0.39,2.123c0.144,0.626,0.247,1.256,0.413,1.869
							c0.687,2.452,1.877,4.696,3.262,6.686c1.392,1.992,2.979,3.741,4.59,5.277c0.815,0.759,1.621,1.484,2.436,2.141
							c0.404,0.334,0.81,0.649,1.212,0.953c0.202,0.149,0.403,0.297,0.601,0.443l0.257,0.184l0.074,0.059
							c1.057,0.006,2.068,0.012,3.028,0.017c1.055,0.018,2.053,0.034,2.992,0.05c1.871,0.046,3.488,0.12,4.813,0.217
							C143.294,219.769,144.784,220.135,144.746,220.343z"/>
					</g>
					<g>
						<path style="fill:#673033;" d="M76.062,192.094c-0.031,0.113-0.399-0.047-0.739,0.11c-0.149,0.087-0.277,0.281-0.378,0.617
							c-0.085,0.345-0.142,0.775-0.161,1.277c-0.056,2.022,0.325,5.052,1.059,8.723c0.371,1.836,0.832,3.84,1.422,5.953
							c0.295,1.056,0.623,2.14,1.005,3.225c0.37,1.068,0.859,2.188,1.32,3.342c0.962,2.287,2.022,4.661,3.267,7.021
							c1.242,2.36,2.682,4.701,4.46,6.803c0.888,1.053,1.845,2.012,2.864,2.898c0.499,0.429,1.055,0.904,1.542,1.258
							c0.47,0.363,1.021,0.673,1.574,0.966c2.256,1.153,4.76,1.897,7.13,2.574c4.781,1.313,9.223,2.3,12.89,3.444
							c3.672,1.115,6.593,2.386,8.402,3.652c1.837,1.25,2.451,2.393,2.318,2.484c-0.163,0.144-0.993-0.678-2.859-1.561
							c-1.849-0.906-4.713-1.845-8.371-2.699c-3.654-0.883-8.089-1.661-13.027-2.87c-2.465-0.637-5.071-1.329-7.709-2.625
							c-0.656-0.338-1.318-0.697-1.955-1.174c-0.639-0.461-1.15-0.895-1.724-1.381c-1.116-0.957-2.191-2.026-3.171-3.188
							c-1.966-2.326-3.485-4.852-4.752-7.338c-1.271-2.491-2.31-4.957-3.229-7.323c-0.437-1.19-0.895-2.33-1.263-3.524
							c-0.366-1.173-0.661-2.313-0.918-3.42c-0.513-2.214-0.874-4.29-1.131-6.198c-0.502-3.815-0.607-6.961-0.204-9.17
							c0.109-0.552,0.261-1.047,0.47-1.465c0.215-0.415,0.586-0.782,0.983-0.836c0.199-0.037,0.352,0,0.474,0.051
							c0.13,0.033,0.207,0.101,0.27,0.154C76.042,191.982,76.085,192.053,76.062,192.094z"/>
					</g>
				</g>
				<g>
					<path style="fill:#6057D1;" d="M124.034,246.443l36.692-12.224c0,0,41.989,129.544,26.048,146.676
						c-19.539,20.998-47.562,4.941-59.088-10.41C111.605,349.066,124.034,246.443,124.034,246.443z"/>
					<g>
						<path style="fill:#2A2893;" d="M127.686,370.484c0.189-0.149,2.034,2.335,6.142,6.015c2.064,1.82,4.68,3.959,7.986,6.027
							c3.291,2.07,7.245,4.154,11.891,5.597c4.617,1.438,9.994,2.258,15.547,1.301c5.545-0.91,11.069-3.801,15.528-8.325
							c0.557-0.563,1.159-1.144,1.532-1.677c0.408-0.574,0.751-1.232,1.044-1.938c0.574-1.42,0.933-3.006,1.195-4.632
							c0.482-3.276,0.563-6.737,0.445-10.259c-0.241-7.053-1.168-14.372-2.353-21.823c-2.42-14.908-5.651-28.982-8.739-41.732
							c-3.115-12.749-6.174-24.174-8.793-33.755c-2.654-9.548-4.805-17.286-6.303-22.674c-1.485-5.357-2.262-8.335-2.081-8.394
							c0.18-0.058,1.302,2.812,3.104,8.077c1.8,5.266,4.281,12.926,7.149,22.453c2.863,9.529,6.122,20.923,9.382,33.678
							c3.234,12.759,6.553,26.867,8.996,41.91c1.196,7.524,2.12,14.931,2.331,22.181c0.101,3.623,0.003,7.214-0.543,10.746
							c-0.3,1.764-0.702,3.518-1.405,5.215c-0.36,0.846-0.797,1.677-1.36,2.452c-0.606,0.819-1.217,1.368-1.818,1.97
							c-2.424,2.378-5.131,4.38-8.016,5.863c-2.881,1.489-5.927,2.449-8.928,2.911c-6.035,0.932-11.727-0.081-16.515-1.703
							c-4.821-1.632-8.833-3.912-12.134-6.162c-3.314-2.249-5.886-4.558-7.875-6.533c-1.98-1.991-3.364-3.677-4.232-4.869
							C127.998,371.212,127.615,370.536,127.686,370.484z"/>
					</g>
				</g>
			</g>
		</g>
	</g>
</g>
</svg>
