<?xml version="1.0" encoding="utf-8"?>
<!-- Generator: Adobe Illustrator 27.5.0, SVG Export Plug-In . SVG Version: 6.00 Build 0)  -->
<svg version="1.1" xmlns="http://www.w3.org/2000/svg" xmlns:xlink="http://www.w3.org/1999/xlink" x="0px" y="0px"
	 viewBox="0 0 500 500" style="enable-background:new 0 0 500 500;" xml:space="preserve">
<g id="Floor">
	<path id="Floor_00000091697676012063699270000014920236226320296592_" style="fill:#FAFAFA;" d="M84.592,248.027
		c-91.349,52.741-91.347,138.251,0.005,190.991c91.352,52.741,239.461,52.741,330.811,0c91.349-52.741,91.347-138.251-0.005-190.991
		C324.051,195.286,175.942,195.286,84.592,248.027z"/>
</g>
<g id="Plants">
	<g id="Plants_00000177455468724703541850000014025951273889432233_">
		<g id="XMLID_00000178201570856674604440000004002472901560858781_">
			<path id="XMLID_00000148633943928229965240000009637547502247823791_" style="fill:#BA68C8;" d="M435.27,369.898
				c0,0-9.986-35.381-0.974-72.035c5.037-20.488,16.979-30.998,24.812-32.711c8.78-1.92,18.665,5.526,12.179,19.372
				c-6.164,13.156-20.096,19.719-25.121,52.862c-3.313,21.85-0.946,35.809-0.946,35.809L435.27,369.898z"/>
			<path id="XMLID_00000170254542038920285960000015379066357237728691_" style="opacity:0.5;fill:#FFFFFF;" d="M435.27,369.898
				c0,0-9.986-35.381-0.974-72.035c5.037-20.488,16.979-30.998,24.812-32.711c8.78-1.92,18.665,5.526,12.179,19.372
				c-6.164,13.156-20.096,19.719-25.121,52.862c-3.313,21.85-0.946,35.809-0.946,35.809L435.27,369.898z"/>
			<g id="XMLID_00000066492930718137986190000011474103185397196213_">
				<path style="fill:#FFFFFF;" d="M439.806,360.189c0.303-0.062,0.496-0.357,0.434-0.659c-8.058-39.02,7.403-74.023,20.955-86.414
					c0.227-0.209,0.244-0.562,0.035-0.79c-0.211-0.229-0.562-0.243-0.79-0.035c-13.746,12.571-29.44,48.017-21.293,87.466
					C439.209,360.058,439.503,360.251,439.806,360.189z"/>
			</g>
		</g>
		<g id="XMLID_00000047771769552636843630000008406731579263971758_">
			<path id="XMLID_00000018205147308652584930000009451943929041836164_" style="fill:#BA68C8;" d="M445.219,373.195
				c0.339-9.206,4.366-19.053,14.073-30.065c9.707-11.012,23.538-21.597,20.457-30.153c-3.081-8.556-14.592-5.539-22.312,0.118
				c-7.719,5.657-24.177,26.674-17.192,58.452L445.219,373.195z"/>
			<path id="XMLID_00000163048375911234672160000016199365579568113032_" style="opacity:0.65;fill:#FFFFFF;" d="M445.219,373.195
				c0.339-9.206,4.366-19.053,14.073-30.065c9.707-11.012,23.538-21.597,20.457-30.153c-3.081-8.556-14.592-5.539-22.312,0.118
				c-7.719,5.657-24.177,26.674-17.192,58.452L445.219,373.195z"/>
			<g id="XMLID_00000153663569435005131980000008359258985184755592_">
				<path style="fill:#FFFFFF;" d="M441.903,363.285c0.259-0.053,0.451-0.285,0.444-0.559
					c-0.452-19.338,19.177-45.616,29.005-50.335c0.279-0.133,0.396-0.467,0.262-0.745c-0.132-0.279-0.463-0.399-0.745-0.262
					c-10.306,4.948-30.109,31.269-29.639,51.367c0.007,0.309,0.262,0.553,0.571,0.546
					C441.836,363.297,441.869,363.292,441.903,363.285z"/>
			</g>
		</g>
	</g>
	<g id="Plants_00000049909282826180230120000002476501563587141279_">
		<g id="XMLID_00000054225528752412370730000013402921180596605599_">
			<path id="XMLID_00000119807793621935564630000014811088003974272659_" style="fill:#BA68C8;" d="M56.457,336.68
				c0,0,8.147-28.865,0.795-58.768c-4.11-16.714-13.852-25.289-20.242-26.686c-7.163-1.566-15.228,4.508-9.936,15.804
				c5.029,10.733,16.395,16.087,20.495,43.126c2.703,17.826,0.772,29.214,0.772,29.214L56.457,336.68z"/>
			<path id="XMLID_00000129884640808456935190000007464714993692899463_" style="opacity:0.5;fill:#FFFFFF;" d="M56.457,336.68
				c0,0,8.147-28.865,0.795-58.768c-4.11-16.714-13.852-25.289-20.242-26.686c-7.163-1.566-15.228,4.508-9.936,15.804
				c5.029,10.733,16.395,16.087,20.495,43.126c2.703,17.826,0.772,29.214,0.772,29.214L56.457,336.68z"/>
			<g id="XMLID_00000074399942107037491570000007239928632088893630_">
				<path style="fill:#FFFFFF;" d="M52.757,328.759c-0.247-0.051-0.405-0.291-0.354-0.538c6.574-31.834-6.039-60.39-17.095-70.499
					c-0.185-0.171-0.199-0.458-0.029-0.645c0.172-0.187,0.458-0.199,0.645-0.029c11.214,10.256,24.018,39.174,17.372,71.357
					C53.244,328.652,53.004,328.81,52.757,328.759z"/>
			</g>
		</g>
		<g id="XMLID_00000146476561255279500830000017934347248441150392_">
			<path id="XMLID_00000173841193163511528590000006151714222600003772_" style="fill:#BA68C8;" d="M48.341,339.369
				c-0.277-7.511-3.562-15.544-11.481-24.528c-7.919-8.984-19.203-17.619-16.689-24.599c2.514-6.98,11.905-4.519,18.202,0.096
				c6.297,4.615,19.724,21.762,14.026,47.686L48.341,339.369z"/>
			<path id="XMLID_00000051370793370198890290000013576784929032830629_" style="opacity:0.65;fill:#FFFFFF;" d="M48.341,339.369
				c-0.277-7.511-3.562-15.544-11.481-24.528c-7.919-8.984-19.203-17.619-16.689-24.599c2.514-6.98,11.905-4.519,18.202,0.096
				c6.297,4.615,19.724,21.762,14.026,47.686L48.341,339.369z"/>
			<g id="XMLID_00000147213390480559596830000008488196038969637017_">
				<path style="fill:#FFFFFF;" d="M51.046,331.285c-0.211-0.044-0.368-0.233-0.362-0.456c0.369-15.777-15.645-37.215-23.663-41.065
					c-0.228-0.108-0.323-0.381-0.213-0.608c0.107-0.228,0.378-0.326,0.608-0.213c8.408,4.036,24.564,25.51,24.18,41.907
					c-0.006,0.252-0.214,0.452-0.466,0.445C51.1,331.294,51.074,331.291,51.046,331.285z"/>
			</g>
		</g>
	</g>
</g>
<g id="Shadows">
	
		<ellipse id="Shadow_00000075867713137057201740000008388034616868972704_" style="fill:#E0E0E0;" cx="134.539" cy="368.09" rx="98.656" ry="56.959"/>
	
		<ellipse id="Shadow_00000081638828575325883080000004941831251471500688_" style="fill:#E0E0E0;" cx="388.532" cy="386.973" rx="68.556" ry="39.581"/>
	<path id="Shadow_00000155827921363321954440000014748863471748716203_" style="fill:#E0E0E0;" d="M164.348,463.362
		c-2.79,0-5.442-0.644-7.467-1.812l-6.64-3.834c-2.305-1.331-3.656-3.336-3.704-5.502c-0.052-2.217,1.255-4.299,3.586-5.71
		l39.263-23.787l10.372-4.702l73.115-43.954c1.744-1.008,3.732-3.694,5.329-5.854c0.375-0.508,0.734-0.992,1.072-1.433
		c1.802-2.349,4.358-4.489,7.594-6.361c6.221-3.596,14.068-5.659,21.529-5.659c5.242,0,9.805,1.034,13.196,2.992
		c3.773,2.179,5.853,5.398,5.854,9.063c0.001,4.975-3.808,10.031-10.449,13.87c-3.798,2.195-8.288,3.848-12.987,4.781
		c-3.087,0.613-7.434,1.94-9.77,3.287l-73.49,44.174l-7.152,6.53l-42.401,22.37C169.317,462.816,166.884,463.362,164.348,463.362
		L164.348,463.362z"/>
</g>
<g id="Microscope_00000106107382679070741270000017772897569218629261_">
	<g id="Microscope">
		<g id="XMLID_7446_">
			<path id="XMLID_7449_" style="fill:#EBEBEB;" d="M368.452,270.709v7.704L259.63,341.25c0,0,0-3.452,0-7.715
				c0-4.252,4.252-10.159,9.49-13.184l89.841-51.878c3.156-1.819,5.95-2.181,7.671-1.26
				C367.772,267.827,368.452,269.01,368.452,270.709z"/>
			<path id="XMLID_00000107548405134292462620000018121122032998867120_" style="opacity:0.15;" d="M368.452,270.709v7.704
				L259.63,341.25c0,0,0-3.452,0-7.715c0-4.252,4.252-10.159,9.49-13.184l89.841-51.878c3.156-1.819,5.95-2.181,7.671-1.26
				C367.772,267.827,368.452,269.01,368.452,270.709z"/>
			<path id="XMLID_7448_" style="fill:#E0E0E0;" d="M304.55,231.377l-0.132-0.077l-0.01-0.01c-1.721-0.987-4.559-0.646-7.77,1.205
				l-89.841,51.878c-5.238,3.024-9.49,8.932-9.49,13.184c0,4.263,0,7.715,0,7.715l62.323,35.978c0,0,0-3.452,0-7.715
				c0-4.252,4.252-10.159,9.49-13.184l89.841-51.878c3.156-1.819,5.95-2.181,7.671-1.26L304.55,231.377z"/>
			<path style="opacity:0.25;" d="M234.213,274.84c7.551-4.36,17.817-6.176,27.655-5.485l37.703-21.769l29.048,16.772
				l-37.684,21.757c1.203,5.683-1.963,11.615-9.519,15.977c-13.035,7.526-34.168,7.526-47.203,0
				C221.178,294.567,221.178,282.366,234.213,274.84z"/>
		</g>
		<g id="XMLID_7380_">
			<path id="XMLID_7401_" style="fill:#E0E0E0;" d="M335.592,247.485v12.843l-22.257,12.855c0,0,0-5.754,0-12.855
				c0-7.091,4.987-15.726,11.134-19.277c3.113-1.797,5.918-1.951,7.934-0.734C334.376,241.49,335.592,243.978,335.592,247.485z"/>
			<path id="XMLID_00000144302961824025747010000015596048329692010668_" style="opacity:0.6;fill:#FFFFFF;" d="M335.592,247.485
				v12.843l-22.257,12.855c0,0,0-5.754,0-12.855c0-7.091,4.987-15.726,11.134-19.277c3.113-1.797,5.918-1.951,7.934-0.734
				C334.376,241.49,335.592,243.978,335.592,247.485z"/>
			<path id="XMLID_7400_" style="fill:#E0E0E0;" d="M305.773,224.941l-0.175-0.109c-2.005-1.139-4.778-0.964-7.836,0.8
				c-6.148,3.551-11.134,12.176-11.134,19.277c0,7.101,0,12.855,0,12.855l26.706,15.419c0,0,0-5.754,0-12.855
				c0-7.091,4.987-15.726,11.134-19.277c2.948-1.698,5.622-1.928,7.605-0.92L305.773,224.941z"/>
			<path id="XMLID_7399_" style="opacity:0.25;" d="M324.463,252.339c1.641-0.947,2.972-0.179,2.972,1.716
				c0,1.896-1.33,4.2-2.972,5.148c-1.641,0.947-2.972,0.179-2.972-1.716C321.491,255.591,322.822,253.286,324.463,252.339z"/>
		</g>
		<g>
			<path style="fill:#EBEBEB;" d="M323.208,134.352l6.752-11.309c0,0-15.857-9.061-20.696-11.951l-8.047,11.12
				c10.823,10.039,21.039,34.428,16.509,62.199c-2.602,15.953-8.242,28.113-18.453,44.154l20.695,11.95
				c11.152-14.83,15.362-23.044,21.325-42.499C347.255,178.564,342.545,144.926,323.208,134.352z"/>
		</g>
		<g>
			<path style="fill:#E0E0E0;" d="M323.205,134.356c7.156,4.268,22.454,24.256,17.437,59.094
				c-2.304,15.999-11.713,30.52-20.677,47.071c0.545-0.412,1.097-0.782,1.669-1.107c3.108-1.8,5.918-1.949,7.929-0.737
				c0.85,0.508,2.056,1.186,2.841,1.641c0.83,0.479,1.332,1.031,1.714,1.615c12.658-17.69,19.828-39.157,21.049-56.868
				c2.501-36.29-14.26-55.484-25.209-62.017L323.205,134.356z"/>
		</g>
		<path style="fill:#EBEBEB;" d="M329.957,123.047c-9.237-5.333-18.364-5.107-18.364-5.107l-2.11,12.168
			c0,0,5.424-0.893,13.722,4.248L329.957,123.047z"/>
		<g>
			<g>
				<g id="XMLID_7432_">
					<g id="XMLID_7439_">
						<polygon id="XMLID_7445_" style="fill:#E0E0E0;" points="277.785,273.965 277.785,263.685 248.737,246.914 248.737,257.194 
													"/>
						<polygon id="XMLID_588_" style="opacity:0.15;" points="277.785,273.965 277.785,263.685 248.737,246.914 248.737,257.194 
													"/>
						<polygon id="XMLID_7442_" style="fill:#E0E0E0;" points="277.785,273.965 328.619,244.616 328.619,234.336 277.785,263.685 
													"/>
						<polygon id="XMLID_587_" style="opacity:0.15;" points="277.785,273.965 328.619,244.616 328.619,234.336 277.785,263.685 
													"/>
						<polygon id="XMLID_7441_" style="fill:#E0E0E0;" points="248.737,246.914 299.571,217.564 328.619,234.336 277.785,263.685 
													"/>
					</g>
				</g>
				<g>
					<path style="fill:#E0E0E0;" d="M224.447,267.878v-9.427c-0.005-4.934,3.246-9.868,9.767-13.633
						c13.035-7.526,34.168-7.526,47.203,0c6.517,3.763,9.769,8.694,9.767,13.625h0.003v9.435h-0.013
						c0.088,4.995-3.156,10.006-9.757,13.817c-13.035,7.525-34.168,7.525-47.203,0c-6.602-3.811-9.845-8.822-9.757-13.817H224.447z"
						/>
					<path style="opacity:0.15;" d="M224.447,267.878v-9.427c-0.005-4.934,3.246-9.868,9.767-13.633
						c13.035-7.526,34.168-7.526,47.203,0c6.517,3.763,9.769,8.694,9.767,13.625h0.003v9.435h-0.013
						c0.088,4.995-3.156,10.006-9.757,13.817c-13.035,7.525-34.168,7.525-47.203,0c-6.602-3.811-9.845-8.822-9.757-13.817H224.447z"
						/>
					<path style="fill:#E0E0E0;" d="M281.416,244.818c-13.035-7.526-34.168-7.526-47.203,0c-13.035,7.526-13.035,19.727,0,27.253
						c13.035,7.526,34.168,7.526,47.203,0C294.451,264.545,294.451,252.343,281.416,244.818z"/>
				</g>
			</g>
			<g>
				<path style="fill:#F0F0F0;" d="M232.792,257.931v-7.069c-0.004-3.7,2.434-7.4,7.324-10.223c9.775-5.643,25.622-5.643,35.397,0
					c4.887,2.822,7.325,6.52,7.324,10.217h0.002v7.075h-0.009c0.065,3.746-2.366,7.503-7.317,10.361
					c-9.775,5.643-25.622,5.643-35.397,0c-4.951-2.858-7.383-6.615-7.317-10.361H232.792z"/>
				<path style="fill:#FAFAFA;" d="M275.513,240.638c-9.775-5.643-25.623-5.643-35.397,0c-9.775,5.644-9.775,14.793,0,20.437
					c9.775,5.643,25.622,5.643,35.397,0C285.288,255.431,285.288,246.281,275.513,240.638z"/>
				<path style="fill:#E6E6E6;" d="M274.503,241.221c-9.217-5.321-24.16-5.321-33.377,0c-9.217,5.321-9.217,13.949,0,19.27
					c9.217,5.321,24.16,5.321,33.377,0C283.72,255.17,283.72,246.542,274.503,241.221z"/>
				<path style="fill:#F0F0F0;" d="M241.126,247.761c9.217-5.321,24.16-5.321,33.377,0c3.156,1.822,5.231,4.033,6.225,6.365
					c-0.994,2.332-3.069,4.543-6.225,6.365c-9.217,5.321-24.16,5.321-33.377,0c-3.157-1.822-5.231-4.033-6.225-6.365
					C235.895,251.794,237.97,249.584,241.126,247.761z"/>
			</g>
			<g>
				<g>
					<path style="fill:#E0E0E0;" d="M262.051,251.68c-2.34-1.351-6.133-1.351-8.472,0c-2.34,1.351-2.34,3.541,0,4.891
						c2.34,1.351,6.133,1.351,8.473,0C264.391,255.221,264.391,253.031,262.051,251.68z"/>
					<path style="fill:#E0E0E0;" d="M251.321,256.638c-0.725-0.419-1.9-0.419-2.625,0c-0.725,0.419-0.725,1.097,0,1.516
						c0.725,0.418,1.9,0.418,2.625,0C252.046,257.735,252.046,257.056,251.321,256.638z"/>
				</g>
				<path style="opacity:0.6;fill:#FFFFFF;" d="M253.706,252.958c0,0.645,0.92,1.169,2.054,1.169c1.135,0,2.054-0.523,2.054-1.169
					c0-0.645-0.919-1.168-2.054-1.168C254.626,251.789,253.706,252.313,253.706,252.958z"/>
				<path style="opacity:0.6;fill:#FFFFFF;" d="M248.925,257.026c0,0.2,0.284,0.361,0.635,0.361c0.351,0,0.636-0.162,0.636-0.361
					c0-0.2-0.284-0.361-0.636-0.361C249.21,256.665,248.925,256.827,248.925,257.026z"/>
			</g>
		</g>
		<g>
			<path id="XMLID_586_" style="fill:#E0E0E0;" d="M246.939,200.142l-0.004-26.09l-18.157,0.056l0.005,26.09l0.001,0
				c0.004,1.341,0.895,2.68,2.67,3.698c3.551,2.036,9.299,2.017,12.838-0.04C246.061,202.828,246.943,201.483,246.939,200.142z"/>
			<path style="fill:#E0E0E0;" d="M228.783,194.758c0.004,1.341,0.895,2.68,2.67,3.698c3.551,2.036,9.299,2.018,12.838-0.04
				c1.769-1.029,2.651-2.374,2.647-3.715v5.441c0.004,1.341-0.878,2.686-2.647,3.715c-3.539,2.057-9.287,2.076-12.838,0.04
				c-1.776-1.018-2.666-2.357-2.67-3.698l-0.001,0L228.783,194.758L228.783,194.758z"/>
			<path style="opacity:0.6;fill:#FFFFFF;" d="M228.783,194.758c0.004,1.341,0.895,2.68,2.67,3.698
				c3.551,2.036,9.299,2.018,12.838-0.04c1.769-1.029,2.651-2.374,2.647-3.715v5.441c0.004,1.341-0.878,2.686-2.647,3.715
				c-3.539,2.057-9.287,2.076-12.838,0.04c-1.776-1.018-2.666-2.357-2.67-3.698l-0.001,0L228.783,194.758L228.783,194.758z"/>
		</g>
		<g>
			<path id="XMLID_585_" style="fill:#E0E0E0;" d="M268.652,200.142l0.004-26.09l18.157,0.056l-0.005,26.09l-0.001,0
				c-0.004,1.341-0.895,2.68-2.67,3.698c-3.552,2.036-9.3,2.017-12.838-0.04C269.53,202.828,268.647,201.483,268.652,200.142z"/>
			<path style="fill:#E0E0E0;" d="M286.807,194.758c-0.004,1.341-0.895,2.68-2.67,3.698c-3.552,2.036-9.3,2.018-12.838-0.04
				c-1.769-1.029-2.651-2.374-2.647-3.715v5.441c-0.004,1.341,0.878,2.686,2.647,3.715c3.539,2.057,9.287,2.076,12.838,0.04
				c1.775-1.018,2.666-2.357,2.67-3.698l0.001,0v-5.441L286.807,194.758z"/>
			<path style="opacity:0.15;" d="M286.807,194.758c-0.004,1.341-0.895,2.68-2.67,3.698c-3.552,2.036-9.3,2.018-12.838-0.04
				c-1.769-1.029-2.651-2.374-2.647-3.715v5.441c-0.004,1.341,0.878,2.686,2.647,3.715c3.539,2.057,9.287,2.076,12.838,0.04
				c1.775-1.018,2.666-2.357,2.67-3.698l0.001,0v-5.441L286.807,194.758z"/>
		</g>
		<g>
			<path id="XMLID_584_" style="fill:#EBEBEB;" d="M266.897,211.643l-0.004-26.09l-18.157,0.056l0.005,26.091l0.001,0
				c0.004,1.341,0.895,2.68,2.67,3.698c3.551,2.035,9.299,2.018,12.838-0.04C266.019,214.329,266.901,212.984,266.897,211.643z"/>
			<path style="fill:#E0E0E0;" d="M248.741,206.259c0.004,1.341,0.895,2.68,2.67,3.698c3.551,2.035,9.299,2.017,12.838-0.04
				c1.769-1.029,2.651-2.374,2.647-3.715v5.441c0.004,1.341-0.878,2.686-2.647,3.715c-3.539,2.057-9.287,2.075-12.838,0.04
				c-1.775-1.018-2.666-2.356-2.67-3.698l-0.001,0v-5.441L248.741,206.259z"/>
		</g>
		<g>
			<g>
				<g>
					<path style="fill:#EBEBEB;" d="M226.953,151.333c-0.02-3.67,1.985-7.347,6.016-10.426c2.387-1.822,4.488-3.991,6.395-6.311
						l8.672-10.547c10.498-12.767,27.63-18.378,43.462-13.628c2.594,0.778,5.03,1.793,7.212,3.044
						c6.409,3.675,9.3,8.625,8.666,13.458l0.055,30.301c0.362,4.641-2.519,9.357-8.646,12.92l-21,12.132
						c-11.598,6.745-30.438,6.804-42.079,0.13c-5.801-3.325-8.719-7.694-8.753-12.075
						C226.919,165.919,226.977,155.722,226.953,151.333z"/>
					<polygon style="fill:#E0E0E0;" points="299.572,161.312 292.31,165.505 292.31,161.312 299.571,157.119 					"/>
					<path id="XMLID_577_" style="fill:#FAFAFA;" d="M286.38,152.847c-10.498,12.767-27.63,18.378-43.462,13.628
						c-2.594-0.778-5.03-1.793-7.212-3.044c-10.67-6.116-11.589-15.766-2.732-22.527c2.381-1.817,4.477-3.98,6.379-6.294
						l8.684-10.561c10.498-12.767,27.63-18.378,43.462-13.628c2.594,0.778,5.03,1.793,7.212,3.044
						c10.669,6.117,11.587,15.767,2.732,22.527c-2.381,1.817-4.477,3.98-6.379,6.293L286.38,152.847z"/>
					<path style="fill:#E0E0E0;" d="M235.706,178.772c11.642,6.674,30.482,6.615,42.079-0.13l21-12.132
						c5.799-3.372,8.691-7.777,8.677-12.174v3.634c0.014,4.397-2.877,8.802-8.677,12.174l-21,12.132
						c-11.598,6.745-30.438,6.804-42.079,0.13c-5.801-3.325-8.719-7.694-8.753-12.075v-3.634
						C226.986,171.078,229.905,175.447,235.706,178.772z"/>
				</g>
				<g>
					<g id="XMLID_00000135664906826380281430000003960829978138121391_">
						<path id="XMLID_00000082328271945378532250000000962887679324556734_" style="fill:#EBEBEB;" d="M307.477,125.583
							l-0.014-20.643l-59.513,0.184l0.015,20.645l0.003,0.001c0.013,4.396,2.933,8.783,8.752,12.12
							c11.64,6.672,30.48,6.613,42.079-0.13C304.599,134.387,307.49,129.979,307.477,125.583z"/>
						<path id="XMLID_00000070078973324661629210000003266136913865290625_" style="fill:#E0E0E0;" d="M247.95,105.124l59.513-0.184
							c0,0,0.025,0.196,0.038,4.592c0.014,4.396-2.875,8.802-8.678,12.174c-11.598,6.746-30.438,6.804-42.08,0.13
							c-5.819-3.337-8.739-7.724-8.752-12.12C247.978,105.321,247.95,105.124,247.95,105.124z"/>
						<path id="XMLID_00000082327502066277993730000010855265901249268612_" style="fill:#E0E0E0;" d="M256.631,92.951
							c11.598-6.746,30.438-6.804,42.08-0.13c11.638,6.673,11.674,17.551,0.075,24.294c-11.598,6.745-30.438,6.804-42.08,0.13
							C245.065,110.573,245.03,99.695,256.631,92.951z"/>
						<path id="XMLID_00000046329899644484433610000017029686992890324615_" style="opacity:0.5;fill:#FFFFFF;" d="M256.631,92.951
							c11.598-6.746,30.438-6.804,42.08-0.13c11.638,6.673,11.674,17.551,0.075,24.294c-11.598,6.745-30.438,6.804-42.08,0.13
							C245.065,110.573,245.03,99.695,256.631,92.951z"/>
					</g>
					<g id="XMLID_344_">
						<path id="XMLID_00000170967063808872837930000006884228094253162169_" style="fill:#EBEBEB;" d="M290.584,103.294
							l-0.006-36.959l-25.721,0.08l0.007,36.96l0.001,0c0.006,1.9,1.268,3.796,3.783,5.238c5.031,2.884,13.173,2.858,18.187-0.056
							C289.34,107.099,290.59,105.193,290.584,103.294z"/>
						<path id="XMLID_00000018203279158077917530000009197392733349423011_" style="fill:#E0E0E0;" d="M290.584,103.294
							l-0.006-36.959l-25.721,0.08l0.007,36.96l0.001,0c0.006,1.9,1.268,3.796,3.783,5.238c5.031,2.884,13.173,2.858,18.187-0.056
							C289.34,107.099,290.59,105.193,290.584,103.294z"/>
						<path id="XMLID_00000163771473105436500920000001331073889977663874_" style="fill:#E0E0E0;" d="M264.857,66.414l25.721-0.08
							c0,0,0.011,3.516,0.016,5.416c0.006,1.9-1.243,3.804-3.75,5.262c-5.013,2.915-13.155,2.941-18.187,0.056
							c-2.515-1.442-3.777-3.338-3.783-5.238C264.868,69.93,264.857,66.414,264.857,66.414z"/>
						<path id="XMLID_00000080180748116389130160000001072475773723248315_" style="fill:#F5F5F5;" d="M268.608,61.153
							c5.013-2.915,13.155-2.941,18.187-0.056c5.03,2.884,5.045,7.586,0.032,10.5c-5.013,2.915-13.155,2.941-18.187,0.056
							C263.61,68.769,263.594,64.068,268.608,61.153z"/>
						<path id="XMLID_00000168102360511792385350000007493109933639424943_" style="fill:#E0E0E0;" d="M271.165,62.619
							c3.606-2.099,9.463-2.115,13.081-0.042c3.619,2.075,3.629,5.457,0.024,7.553c-3.606,2.097-9.462,2.115-13.081,0.04
							C267.57,68.095,267.559,64.716,271.165,62.619z"/>
						<path style="fill:#F5F5F5;" d="M284.246,67.918c0.59,0.338,1.074,0.714,1.472,1.11c-0.393,0.393-0.869,0.766-1.448,1.103
							c-3.606,2.097-9.462,2.115-13.081,0.04c-0.59-0.338-1.073-0.713-1.471-1.109c0.393-0.392,0.868-0.765,1.447-1.102
							C274.771,65.861,280.628,65.844,284.246,67.918z"/>
						<path style="fill:#FFFFFF;" d="M280.625,68.428c-0.109,0.499,0.363,1.025,1.053,1.176c0.691,0.151,1.339-0.131,1.448-0.63
							c0.109-0.499-0.363-1.025-1.054-1.176C281.383,67.648,280.734,67.93,280.625,68.428z"/>
						<path style="fill:#FFFFFF;" d="M278.997,67.879c-0.059,0.27,0.112,0.536,0.382,0.595c0.27,0.059,0.536-0.112,0.595-0.382
							c0.059-0.27-0.112-0.536-0.382-0.595C279.323,67.438,279.056,67.609,278.997,67.879z"/>
					</g>
				</g>
			</g>
			<g id="XMLID_00000072995509788754810780000005068858514353388930_">
				<path id="XMLID_7307_" style="fill:#E0E0E0;" d="M314.755,110.238c-1.777-1.105-4.267-0.985-7.03,0.608
					c-1.505,0.865-2.93,2.082-4.195,3.515c-0.312,0.345-0.608,0.705-0.888,1.073c-0.008,0.016-0.025,0.032-0.048,0.056
					c-1.585,2.05-2.874,4.435-3.683,6.854c-0.608,1.817-0.944,3.658-0.944,5.396c0,3.034,1.041,5.188,2.73,6.237l3.251,1.882
					c-0.497-0.304-0.937-0.712-1.314-1.209c-0.897-1.185-1.417-2.89-1.417-5.027c0-6.221,4.371-13.787,9.759-16.901
					c1.866-1.073,3.611-1.473,5.092-1.273c0.689,0.081,1.313,0.296,1.874,0.641l0.008-0.009L314.755,110.238z"/>
				<path id="XMLID_341_" style="opacity:0.7;fill:#FFFFFF;" d="M314.755,110.238c-1.777-1.105-4.267-0.985-7.03,0.608
					c-1.505,0.865-2.93,2.082-4.195,3.515c-0.312,0.345-0.608,0.705-0.888,1.073c-0.008,0.016-0.025,0.032-0.048,0.056
					c-1.585,2.05-2.874,4.435-3.683,6.854c-0.608,1.817-0.944,3.658-0.944,5.396c0,3.034,1.041,5.188,2.73,6.237l3.251,1.882
					c-0.497-0.304-0.937-0.712-1.314-1.209c-0.897-1.185-1.417-2.89-1.417-5.027c0-6.221,4.371-13.787,9.759-16.901
					c1.866-1.073,3.611-1.473,5.092-1.273c0.689,0.081,1.313,0.296,1.874,0.641l0.008-0.009L314.755,110.238z"/>
				<path id="XMLID_7293_" style="fill:#E0E0E0;" d="M317.942,112.088c-0.561-0.345-1.186-0.561-1.874-0.641
					c-1.481-0.2-3.226,0.2-5.092,1.273c-5.388,3.115-9.759,10.68-9.759,16.901c0,2.138,0.52,3.843,1.417,5.027
					c0.377,0.497,0.817,0.905,1.314,1.209c0.048,0.032,0.104,0.064,0.16,0.088c0.777,0.448,1.681,0.664,2.682,0.633
					c1.265-0.032,2.69-0.465,4.188-1.33c5.388-3.106,9.76-10.672,9.76-16.892C320.736,115.29,319.671,113.12,317.942,112.088z"/>
				<path id="XMLID_7292_" style="opacity:0.25;" d="M310.977,119.45c2.171-1.254,3.931-0.238,3.931,2.27
					c0,2.507-1.76,5.555-3.931,6.808c-2.171,1.254-3.931,0.238-3.931-2.269C307.045,123.752,308.805,120.703,310.977,119.45z"/>
			</g>
		</g>
	</g>
</g>
<g id="Petri_00000021826435492965813720000017902807402047726488_">
	<g id="Petri">
		<g>
			<path style="fill:#BA68C8;" d="M221.111,341.94c-4.542-6.654-11.432-12.899-20.752-18.279
				c-36.35-20.988-95.288-20.988-131.64-0.001c-9.32,5.381-16.212,11.625-20.752,18.28h-6.512v18.952h0.063
				c-0.347,14.01,8.685,28.081,27.201,38.771c36.351,20.987,95.29,20.988,131.641,0c18.516-10.69,27.544-24.761,27.199-38.771h0.031
				V341.94H221.111z"/>
			<path style="opacity:0.4;fill:#FFFFFF;" d="M221.111,341.94c-4.542-6.654-11.432-12.899-20.752-18.279
				c-36.35-20.988-95.288-20.988-131.64-0.001c-9.32,5.381-16.212,11.625-20.752,18.28h-6.512v18.952h0.063
				c-0.347,14.01,8.685,28.081,27.201,38.771c36.351,20.987,95.29,20.988,131.641,0c18.516-10.69,27.544-24.761,27.199-38.771h0.031
				V341.94H221.111z"/>
			<path style="opacity:0.1;fill:#BA68C8;" d="M200.359,399.662c2.465-1.423,4.736-2.915,6.867-4.451
				c-0.967,0.475-26.991,13.143-58.089,16.228c-31.693,3.145-68.8-10.659-83.916-21.309c-15.117-10.651-20.634-26.508-20.634-34.347
				l-0.05-13.845h-3.082v18.952h0.063c-0.347,14.01,8.685,28.081,27.201,38.771C105.07,420.649,164.008,420.651,200.359,399.662z"/>
			<path style="fill:#BA68C8;" d="M68.718,379.941c-36.352-20.988-36.352-55.015,0-76.002c36.351-20.987,95.289-20.987,131.641,0
				c36.351,20.988,36.352,55.015,0,76.002C164.008,400.93,105.07,400.928,68.718,379.941z"/>
			<path style="opacity:0.7;fill:#FFFFFF;" d="M68.718,379.941c-36.352-20.988-36.352-55.015,0-76.002
				c36.351-20.987,95.289-20.987,131.641,0c36.351,20.988,36.352,55.015,0,76.002C164.008,400.93,105.07,400.928,68.718,379.941z"/>
			<path style="fill:#BA68C8;" d="M75.396,376.085c-32.664-18.858-32.664-49.433,0-68.291c32.663-18.858,85.621-18.858,118.286,0
				c32.663,18.858,32.663,49.434,0,68.292C161.019,394.944,108.06,394.944,75.396,376.085z"/>
			<path style="opacity:0.4;fill:#FFFFFF;" d="M75.396,376.085c-32.664-18.858-32.664-49.433,0-68.291
				c32.663-18.858,85.621-18.858,118.286,0c32.663,18.858,32.663,49.434,0,68.292C161.019,394.944,108.06,394.944,75.396,376.085z"
				/>
			<path style="opacity:0.1;fill:#BA68C8;" d="M164.29,318.514c-29.8-6.504-64.844-2.913-88.918,10.969
				c-11.454,6.601-18.831,14.755-22.229,23.297c-6.309-15.629,1.165-32.811,22.229-44.945c-10.485,6.892-13.009,19.22-5.437,17.862
				C77.604,324.339,116.628,301.818,164.29,318.514z"/>
			<path style="opacity:0.4;fill:#FFFFFF;" d="M193.682,329.481c-32.665-18.858-85.623-18.86-118.287-0.001
				c-11.518,6.651-18.886,14.767-22.281,23.303c3.395,8.536,10.763,16.653,22.281,23.303c32.665,18.858,85.623,18.858,118.287,0
				c11.518-6.649,18.886-14.765,22.28-23.302C212.568,344.246,205.2,336.13,193.682,329.481z"/>
			<path style="opacity:0.4;fill:#FFFFFF;" d="M193.682,329.481c-32.665-18.858-85.623-18.86-118.287-0.001
				c-11.518,6.651-18.886,14.767-22.281,23.303c3.395,8.536,10.763,16.653,22.281,23.303c32.665,18.858,85.623,18.858,118.287,0
				c11.518-6.649,18.886-14.765,22.28-23.302C212.568,344.246,205.2,336.13,193.682,329.481z"/>
			<path style="opacity:0.1;fill:#BA68C8;" d="M215.933,352.781c-0.389,1.068-0.874,2.039-1.455,3.106
				c-3.884-7.28-10.776-14.173-20.775-19.9c-32.712-18.93-85.618-18.93-118.331,0c-9.999,5.727-16.891,12.619-20.774,19.9
				c-0.581-1.067-1.067-2.038-1.455-3.106c3.398-8.542,10.775-16.696,22.229-23.297c32.713-18.832,85.619-18.832,118.331,0
				C205.158,336.085,212.536,344.239,215.933,352.781z"/>
			<path style="fill:#FFFFFF;" d="M193.682,376.087c-15.14,9.085-32.778,13.459-50.362,14.665
				c-17.607,1.046-35.563-0.596-52.404-6.381c-8.349-3.004-16.41-7.002-23.504-12.428c-7-5.417-13.228-12.478-15.908-21.163
				c-1.319-4.33-1.549-8.918-0.937-13.379c0.969-4.366,2.378-8.731,4.999-12.377c4.926-7.495,12.161-13.007,19.829-17.231
				c-7.472,4.559-14.389,10.384-18.825,17.864c-2.463,3.589-3.746,7.791-4.609,11.964c-0.51,4.257-0.229,8.591,1.084,12.679
				c2.666,8.193,8.725,14.888,15.59,20.031c6.953,5.156,14.886,8.926,23.084,11.754c16.375,5.915,34.084,7.828,51.505,7.059
				C160.61,388.035,178.102,384.329,193.682,376.087z"/>
		</g>
		<g>
			<path style="fill:#FFFFFF;" d="M83.872,352.27c0.493-0.941-0.274-2.101-1.861-2.457c-1.862-0.418-4.108,0.501-4.983,2.245
				c-0.345,0.688-0.249,1.554,0.777,1.956c0.689,0.27,1.605,0.25,2.41,0.129C81.863,353.895,83.378,353.211,83.872,352.27z
				 M80.662,360.221c-1.534,3.418,1.439,10.116,9.726,6.943c2.625-1.005,3.865-2.987,3.364-4.783
				C92.661,358.466,83.026,354.953,80.662,360.221z M182.727,337.245c-3.577-6.644-14.283-10.333-25.912-10.099
				c-8.239,0.166-17.105,1.384-25.292,0.835c-3.148-0.211-6.214-0.775-9.378-0.882c-11.178-0.378-21.995,2.622-28.736,7.687
				c-4.591,3.45-6.462,8.862-4.365,13.066c1.217,2.439,3.599,4.592,6.03,6.734c2.614,2.303,5.283,4.593,6.62,7.211
				c1.21,2.37,1.258,4.888,2.268,7.288c1.748,4.154,6.488,7.86,12.851,10.047c6.363,2.187,14.265,2.826,21.423,1.732
				c6.939-1.06,12.992-3.665,17.456-6.91c5.328-3.873,8.223-8.721,12.298-13.017c4.4-4.638,10.865-8.837,14.042-13.828
				C184.033,343.964,184.45,340.444,182.727,337.245z"/>
			<path style="opacity:0.1;fill:#BA68C8;" d="M157.917,370.783c-8.083,5.449-17.204,7.119-26.951,7.248
				c-9.525,0.127-18.926-3.315-23.021-12.829c-0.915-2.125-1.515-4.394-2.659-6.405c-1.808-3.177-5.071-4.711-7.941-6.974
				c-2.871-2.263-6.081-4.064-7.553-7.409c-0.52-1.18-0.791-2.446-0.259-5.214c-1.547,2.831-1.819,5.985-0.488,8.652
				c1.217,2.439,3.599,4.592,6.03,6.734c2.614,2.303,5.283,4.593,6.62,7.211c1.21,2.37,1.258,4.888,2.268,7.288
				c1.748,4.154,6.488,7.86,12.851,10.047c6.363,2.187,14.265,2.826,21.423,1.732c6.939-1.06,12.992-3.665,17.456-6.91
				c2.795-2.032,4.919-4.332,6.896-6.68C161.825,368.167,159.114,369.976,157.917,370.783z M82.596,353.111
				c-1.016,0.326-2.152,0.38-3.132-0.041c-0.72-0.309-1.383-1.019-1.234-1.789c0.058-0.298,0.231-0.562,0.425-0.795
				c0.059-0.071,0.127-0.132,0.19-0.199c-0.769,0.404-1.43,1.001-1.816,1.771c-0.345,0.688-0.249,1.554,0.777,1.956
				c0.689,0.27,1.605,0.25,2.41,0.129c1.363-0.204,2.626-0.712,3.305-1.412C83.22,352.875,82.914,353.008,82.596,353.111z
				 M86.931,365.562c-0.862-0.215-1.722-0.514-2.43-1.051c-1.366-1.035-1.983-2.834-1.974-4.547c0.004-0.686,0.132-1.418,0.48-1.991
				c-1.009,0.407-1.842,1.127-2.345,2.247c-1.534,3.418,1.439,10.116,9.726,6.943c1.257-0.481,2.186-1.19,2.769-1.991
				C91.284,366.101,88.989,366.074,86.931,365.562z"/>
		</g>
	</g>
</g>
<g id="Character">
	<g id="Character_00000113338479097655113410000007271085926177957783_">
		<g id="Arm_00000018935762824905476710000000655235605007970223_">
			<g id="Arm_00000030468925624669909590000013047694457789882774_">
				<path style="fill:#FFBDA7;" d="M288.233,209.518c0.559-1.267,0.965-1.385,0.965-1.385c-0.658-0.557-1.181-2.763,1.044-4.696
					c0,0-2.005-1.056,1.055-4.467c3.471-3.869,8.395-6.135,11.061-7.448c0.997-0.551,1.632-1.604,0.183-1.55
					c-1.94,0.072-3.963,0.669-5.863,0.047c-0.538-0.176-1.055-0.446-1.451-0.851c-0.396-0.405-0.587-0.958-0.651-1.521
					c-0.139-1.211,1.805-1.638,2.906-1.908c4.377-1.074,7.931-3.2,12.531-3.015c1.471,0.06,3.885,0.063,5.031-0.861
					c6.866-5.533,14.411-13.591,25.33-23.913c0,0,5.024-14.164,9.04-24.987c5.913-15.934,7.288-15.974,18.211-23.347l8.144,19.001
					c0,0-7,18.359-13.082,33.553c-3.334,8.33-4.679,10.495-11.219,14.69c-10.925,7.006-12.158,7.705-22.822,14.842
					c-6.474,4.332-7.56,7.092-8.889,8.725c-1.329,1.633-2.369,2.65-3.898,3.435c-3.827,1.965-7.011,2.503-10.38,4.114
					c-5.515,2.637-6.257,3.598-7.688,4.466c-2.132,1.294-3.343,1.174-4.203,0.186c-0.86-0.986,1.438-3.084,1.438-3.084
					s-2.591,1.859-4.011,1.984C289.241,211.686,287.674,210.784,288.233,209.518z"/>
				<g>
					<path style="fill:#F5F5F5;" d="M378.423,103.613c-14.853,2.504-21.879,11.129-24.867,17.652
						c-2.988,6.523-13.689,36.355-13.689,36.355l-15.287,15.134c0,0,4.799,0.654,7.745,4.995c2.945,4.341,3.884,9.201,3.884,9.201
						s11.309-7.294,16.634-10.471c4.98-2.972,6.846-5.601,9.748-11.906c2.901-6.305,14.012-34.749,14.012-34.749L378.423,103.613z"
						/>
				</g>
				<path style="fill:#F0997A;" d="M301.374,210.279c-1.327,0.841-1.629,0.904-2.887,1.859c-1.229,0.912-2.538,1.974-4.142,1.267
					c-0.382-0.185-0.712-0.423-0.973-0.8c-0.269-0.435-0.113-0.927,0.05-1.288c0.147-0.305,0.328-0.579,0.523-0.841
					c-0.498,0.277-1.014,0.533-1.466,0.772c-0.833,0.487-1.902,0.655-2.852,0.419c-0.48-0.109-0.973-0.304-1.344-0.716
					c-0.389-0.414-0.488-1.188-0.227-1.624c0.332-0.681,0.797-1.26,0.797-1.26c-0.417-0.446-0.511-1.01-0.508-1.533
					c0.013-0.557,0.174-1.094,0.413-1.577c0.412-0.833,0.864-1.221,1.199-1.518c-0.595-0.551-0.536-1.443-0.305-2.063
					c0.25-0.733,0.666-1.37,1.107-1.974c0.887-1.218,2.761-2.919,3.975-3.769c2.441-1.71,5.15-2.946,7.821-4.21
					c-2.636,1.34-5.262,2.726-7.667,4.427c-1.194,0.858-3.024,2.549-3.871,3.742c-0.423,0.592-0.815,1.217-1.035,1.891
					c-0.245,0.642-0.186,1.461,0.335,1.782l0,0c0.854,0.394,1.496,0.302,2.338-0.215c0.442-0.259,2.543-1.771,2.988-2.05
					c2.326-1.459,4.513-2.456,6.47-3.176c-1.926,0.793-4.375,2.184-6.317,3.482c-0.429,0.287-2.494,1.763-2.947,2.049
					c-0.854,0.561-1.519,0.706-2.599,0.326c-0.349,0.323-0.733,0.641-1.123,1.455c-0.214,0.445-0.348,0.926-0.354,1.406
					c-0.011,0.466,0.123,0.983,0.42,1.252l0.006,0.006l0,0c0.385,0.381,1.049,0.328,1.622,0.115
					c0.583-0.208,1.134-0.542,1.655-0.912c1.002-0.8,2.099-1.567,3.219-2.221c1.122-0.665,2.27-1.288,3.459-1.825l3.592-1.531
					l-3.541,1.64c-1.166,0.57-2.289,1.226-3.384,1.921c-1.106,0.696-2.123,1.453-3.131,2.306c-0.527,0.398-1.086,0.767-1.723,1.018
					c-0.489,0.201-1.147,0.306-1.709,0.049c0,0-0.508,0.616-0.767,1.172c-0.473,0.777,0.367,1.544,1.236,1.696
					c0.876,0.212,1.765,0.098,2.561-0.351c0.809-0.414,1.717-0.938,2.614-1.479c1.609-0.897,1.933-1.121,3.593-1.899
					c1.665-0.766,3.335-1.528,5.062-2.14c-1.697,0.687-3.33,1.52-4.956,2.356c-1.619,0.847-1.937,1.054-3.483,2.007
					c-0.536,0.514-1.056,1.094-1.377,1.744c-0.156,0.326-0.251,0.704-0.08,0.963c0.179,0.27,0.5,0.528,0.822,0.681
					c1.389,0.649,2.63-0.304,3.842-1.192c1.25-0.938,1.594-0.994,2.96-1.779c1.36-0.795,2.763-1.509,4.193-2.162
					C304.075,208.679,302.699,209.441,301.374,210.279z"/>
				<path style="fill:#F0997A;" d="M317.037,192.314c-1.936,3.056-7.266,3.478-10.784,2.637
					C310.225,197.042,314.711,197.18,317.037,192.314z"/>
			</g>
		</g>
		<g>
			<g>
				<path style="fill:#EBEBEB;" d="M351.189,168.244l-2.898,72.325c0,0,25.932-6.424,49.163-2.453
					c23.231,3.972,28.799,9.385,28.799,9.385l-15.003-118.647l-53.631,1.626C357.62,130.48,351.189,139.274,351.189,168.244z"/>
			</g>
		</g>
		<g id="Bottom_13_">
			<g id="XMLID_00000040569777727691696820000001706160710401455760_">
				<g>
					<path style="fill:#263238;" d="M421.568,387.759c0.244,5.256,1.191,7.958,3.555,10.792c2.364,2.835,6.847,4.238,11.009,3.147
						c4.162-1.091,8.489-4.132,9.458-8.54c0.969-4.409,0.062-8.691-0.917-12.106L421.568,387.759z"/>
				</g>
				<path style="fill:#FFBDA7;" d="M435.525,302.183c-3.01-14.267-6.361-20.654-7.002-23.899c0,0-4.422-33.7-6.43-62.386
					c-0.966-13.807-0.615-23.099-9.858-39.115l-53.742,12.893c-0.653,7.348-5.706,57.398-3.219,100.55
					c2.041,35.423,4.702,46.981,4.971,52.896c0.152,3.354,0.084,5.579-0.068,10.244c-0.061,1.887-0.223,3.438-1.348,4.624
					c-1.785,1.883-3.925,3.314-6.085,4.711c-4.184,2.705-6.1,4.152-10.886,5.816c-0.921,0.32-1.867,0.624-2.659,1.159
					c-0.792,0.535-1.423,1.354-1.426,2.255c-0.004,1.266,1.182,2.263,2.387,2.886c4.32,2.234,9.728,1.809,14.459,0.438
					c4.731-1.371,9.129-3.6,13.887-4.892c3.296-0.895,6.783-1.348,9.803-2.849c0.972-0.483,1.928-1.12,2.361-2.051
					c0.364-0.781,0.311-1.667,0.228-2.512c-0.362-3.696-0.762-4.865-0.667-8.589c0.09-3.532,0.651-10.07,0.949-13.605
					c0.251-2.978,4.12-24.319,3.53-37.517c-0.284-6.352,0.432-12.086,0.432-12.086l4.777-46.88
					c2.185,7.832,10.282,30.523,12.811,40.891c3.091,12.666,4.756,27.985,11.198,51.158c1.815,6.528,5.168,14.401,6,18.344
					c0.35,5.003,2.238,18.124,4.704,23.641c3.744,8.379,15.192,8.105,16.153,0.837c0.819-6.185-3.445-22.354-3.628-26.405
					C436.975,348.689,439.032,318.811,435.525,302.183z"/>
				<path style="fill:#37474F;" d="M438.849,357.444c0.921,5.219,1.714,9.172,2.319,12.199c1.735,5.156,2.408,7.647,3.384,10.991
					c1.6,5.477,1.288,10.386-0.431,13.316c-2.557,4.359-12.889,8.857-18.334,3.247c-4.438-4.574-4.258-6.76-4.247-13.566
					c0.004-2.135,0.011-4.063,0.004-5.882c-0.132-6.083-0.239-7.268-1.261-11.124c-0.585-2.207-0.039-5.563-0.51-7.906
					c-0.51-2.543-0.729-3.649,0.155-4.051c0,0,0.454,3.259,1.021,5.607c0.521,2.16,0.93,4.342,1.424,6.507
					c0.607,2.662,1.115,5.337,1.957,7.949c0.094,0.29,0.253,0.631,0.581,0.669c0.403,0.047,0.651-0.404,0.674-0.775
					c0.029-0.454,0.051-0.876,0.422-1.194c0.412-0.353,0.967-0.608,1.481-0.81c1.038-0.408,2.16-0.606,3.27-0.775
					c1.602-0.244,3.244-0.448,4.842-0.187c0.479,0.079,0.939,0.215,1.318,0.503c0.348,0.264,0.47,0.644,0.77,0.938
					c0.231,0.227,0.652,0.346,0.903,0.138c0.136-0.113,0.183-0.289,0.212-0.456c0.108-0.607,0.084-1.227,0.059-1.841
					c-0.136-3.412-0.391-6.753-0.878-10.141c-0.378-2.63-0.94-5.398-0.826-8.06C437.158,352.74,438.608,354.621,438.849,357.444z"/>
				<g>
					<path id="XMLID_384_" style="fill:#263238;" d="M383.963,366.505l-54.804,10.758c-0.426,0.936-0.395,2.506,0.431,3.446
						c2.003,2.281,8.743,5.352,17.088,4.433c8.344-0.919,12.883-4.232,15.965-6.318c2.205-1.492,3.211-2.048,5.161-2.835
						c1.982-0.8,4.91-0.837,7.025-1.104c1.764-0.222,3.816-0.938,5.52-1.415c1.222-0.343,2.68-1.024,3.683-1.783
						c0,0,0.351-1.733,0.248-2.808C384.214,368.19,384.09,367.187,383.963,366.505z"/>
					<path id="XMLID_00000056422445544241583550000005002853657070523835_" style="fill:#37474F;" d="M371.354,361.687
						c1.713-1.813,4.009-2.74,6.318-3.706c1.96-0.821,2.498-1.58,2.56-3.618c0.005-0.17,1.596-0.062,1.858,0.183
						c0.458,0.429,0.611,0.917,0.685,1.758c0.135,1.528,0.336,2.24,0.611,3.826c0.609,3.51,1.484,4.619,0.894,8.75
						c-2.447,2.939-10.051,4.348-14.088,4.833c-6.347,0.762-11.464,5.764-16.247,7.255c-8.781,2.736-17.387,1.266-20.717-0.312
						c-3.859-1.829-6.025-4.846-2.855-7.029c1.938-1.334,12.928-6.65,14.898-7.662c1.569-0.806,3.066-1.744,4.602-2.607
						c0.259-0.146,0.525-0.294,0.824-0.346c0.351-0.061,0.711,0.017,1.057,0.099c1.925,0.453,3.821,1.03,5.609,1.823
						c0.625,0.277,1.292,0.64,1.487,1.249c0.336,1.05-1.889,2.896-0.544,3.237c1.21,0.307,3.285-1.173,4.243-1.657
						c3.152-1.589,6.36-3.386,8.685-5.947C371.274,361.772,371.314,361.729,371.354,361.687z"/>
				</g>
			</g>
			<path style="fill:#455A64;" d="M358.594,174.186l-0.563,5.339c-5.182,29.496-5.659,68.579-5.108,80.454
				c1.624,35.013,6.246,96.757,6.246,96.757s1.435,3.431,11.632,4.227c7.853,0.612,12.412-1.992,12.412-1.992
				s3.64-41.854,4.216-51.968c0.33-5.777-0.128-10.472-0.283-12.97c-0.39-6.27-0.47-9.921,0.197-16.172l2.747-29.9
				c0,0,10.16,41.413,11.138,46.452c4.907,25.277,16.777,72.15,16.777,72.15s8.295,2.132,15.764,0.846
				c7.469-1.286,9.153-3.861,9.153-3.861s-4.62-52.707-5.787-62.925c-1.561-13.659-3.01-20.013-4.071-25.608
				c-1.248-6.578-1.848-31.382-2.696-45.812c-0.578-9.847-0.982-17.32-2.205-24.546c-2.556-15.105-10.073-24.206-12.926-29.771
				l-0.445-2.976C406.362,178.506,374.385,182.625,358.594,174.186z"/>
			<path style="fill:#37474F;" d="M390.09,247.96l-7.96-28.218c0,0-10.333-1.931-15.415-7.386c0,0,1.144,6.892,11.855,10.409
				l7.521,24.654l1.408,28.98L390.09,247.96z"/>
		</g>
		<g id="Top_00000015342651476116512400000002413261708138825142_">
			<g>
				<g id="Chest_00000080165269575912509160000005422469922165635982_">
					<path id="XMLID_00000046317181446498941340000009385830804927131036_" style="fill:#BA68C8;" d="M402.078,102.589l14.019,3.74
						c2.789,0.943-0.358,17.416,0.421,36.263c0.8,19.355,6.294,50.622,6.294,50.622s-13.117,5.488-36.647,5.096
						c-23.238-0.387-30.171-7.636-30.171-7.636l3.119-22.853l-0.291-17.321c0,0-6.875-9.659-2.237-21.148
						c4.59-11.369,21.837-25.739,21.837-25.739l4.969-0.746L402.078,102.589z"/>
					<path style="opacity:0.15;" d="M403.49,148.478c0,0-4.374,7.209-13.738,6.77c-8.565-0.402-12.355-7.491-12.355-7.491
						s1.612,9.7,13.238,9.917C402.243,157.891,403.49,148.478,403.49,148.478z"/>
				</g>
				<path style="fill:#E0E0E0;" d="M385.014,102.589c-5.791,4.833-13.461,11.088-18.803,18.075
					c-10.802,14.13-14.095,26.002-14.95,42.43c-0.171-24.538-1.021-35.455,21.733-56.395c5.121-4.713,12.045-8.729,12.045-8.729
					L385.014,102.589z"/>
			</g>
			<g>
				<path style="fill:#F0F0F0;" d="M409.139,248.43c-4.064-0.001-7.221-0.29-8.384-0.414c-0.255-7.489-3.264-96.407-2.706-112.163
					c0.374-10.565,3.148-20.658,5.174-28.028c0.919-3.34,1.685-6.127,2.045-8.253c0.844,1.15,2.258,2.792,4.071,3.845
					c2.648,1.539,10.528,4.233,12.105,4.766c0.588,1.674,3.804,11.498,3.035,23.863c-0.342,5.508-1.48,10.787-2.583,15.893
					c-1.927,8.932-3.747,17.368-1.031,25.687c0.791,2.422,1.552,4.631,2.283,6.753c4.707,13.661,8.111,23.543,10.264,63.136
					c-7.349,4.055-17.23,4.914-24.272,4.914C409.14,248.43,409.14,248.43,409.139,248.43z"/>
				<path style="fill:#EBEBEB;" d="M405.594,100.913c0.872,1.03,2.047,2.185,3.456,3.003c2.567,1.491,9.885,4.023,11.944,4.722
					c0.755,2.224,3.642,11.625,2.913,23.374c-0.339,5.464-1.474,10.722-2.571,15.807c-1.944,9.009-3.781,17.519-1.016,25.986
					c0.793,2.428,1.552,4.631,2.286,6.761c4.677,13.576,8.064,23.406,10.215,62.619c-7.209,3.85-16.808,4.671-23.682,4.671
					c-3.557,0-6.412-0.223-7.827-0.36c-0.349-10.264-3.235-96.177-2.689-111.622c0.371-10.497,3.135-20.553,5.154-27.895
					C404.53,105.238,405.182,102.866,405.594,100.913 M404.892,97.971c-0.428,6.074-6.83,21.285-7.416,37.863
					c-0.587,16.578,2.723,112.697,2.723,112.697s3.696,0.473,8.94,0.473c7.222,0,17.38-0.897,24.867-5.162
					c-2.492-46.18-6.72-52.403-12.594-70.393c-4.209-12.889,2.701-26.202,3.642-41.365c0.858-13.82-3.162-24.354-3.162-24.354
					s-9.396-3.14-12.264-4.806S404.892,97.971,404.892,97.971L404.892,97.971z"/>
			</g>
			<g>
				<path style="fill:#263238;" d="M404.164,91.574c2.258-3.379,6.714-9.714,10.226-16.505c3.512-6.79,3.763-16.633-2.773-18.543
					c-0.62-7.683-10.888-17.253-29.324-13.446c-18.08,3.734-16.817,17.724-15.529,21.843c1.288,4.12,5.507,8.113,5.507,8.113
					L404.164,91.574z"/>
				<path style="fill:#FFBDA7;" d="M369.872,68.398c-0.278-6.81,2.001-10.86,3.729-12.154c3.578-2.68,6.529-2.131,11.075,1.766
					c3.455-3.328,9.451-3.83,12.469-1.027c1.804,1.676,3.566,5.13,3.14,7.07c-1.867,7.549,0.408,9.493,2.248,10.412
					c-1.306,4.107,0.88,4.593,1.804,2.476c1.272-2.912,5.336-3.748,7.868-0.622c2.533,3.127,0.505,8.643-2.45,10.81
					c-2.791,2.046-5.381,0.673-5.569-0.034c-0.049,1.652,0,16.24,0,16.24c-0.016,0.025-10.106,8.947-23.124,12.674
					c-0.415-5.315-0.03-7.642,2.468-11.771l-0.005-7.02c-3.74-0.038-5.534-0.739-7.857-1.815c-3.893-1.804-7.049-5.737-7.028-18.953
					C368.646,72.603,370.051,70.456,369.872,68.398z"/>
				<g id="XMLID_00000066475514870000775710000008633517738753156014_">
					<path id="XMLID_819_" style="fill:#263238;" d="M373.165,65.518l4.777-0.922c-0.206-1.339-1.444-2.218-2.763-1.963
						C373.861,62.887,372.959,64.179,373.165,65.518z"/>
				</g>
				<g id="XMLID_00000005232455534723072100000011089875775660458687_">
					<path id="XMLID_00000037677823784417661850000002010251561795523731_" style="fill:#263238;" d="M394.555,65.928l-4.552-1.718
						c0.431-1.285,1.799-1.941,3.056-1.467C394.315,63.217,394.985,64.644,394.555,65.928z"/>
				</g>
				<g id="XMLID_00000064331368298810843680000010669175272053636778_">
					<path id="XMLID_00000172421163182461321260000003633108200390859191_" style="fill:#B16668;" d="M389.094,82.982l-6.802,2.115
						c0.517,1.916,2.46,2.994,4.339,2.41C388.508,86.922,389.612,84.896,389.094,82.982z"/>
					<path style="fill:#FFA8A7;" d="M385.069,87.612c0.078-1.744,1.541-3.107,3.291-3.051c0.268,0.009,0.522,0.06,0.769,0.13
						c-0.266,1.288-1.185,2.407-2.498,2.816C386.103,87.671,385.574,87.692,385.069,87.612z"/>
				</g>
				<polygon id="XMLID_00000096026093324559405140000002031029434226752407_" style="fill:#F0997A;" points="384.118,68.602 
					382.729,81.536 376.315,79.585 				"/>
				<path id="XMLID_00000072274406306344982140000011343328394657010575_" style="fill:#F0997A;" d="M383.525,97.219
					c4.672-0.156,15.207-2.7,17.771-8.837c0,0-0.46,4.408-6.258,7.706c-4.571,2.6-11.512,3.236-11.512,3.236L383.525,97.219z"/>
				<g>
					<path style="fill:#263238;" d="M388.535,70.778c0.062,1.138,1.035,2.011,2.173,1.949c1.138-0.062,2.011-1.035,1.949-2.173
						c-0.062-1.138-1.035-2.011-2.173-1.949C389.346,68.667,388.473,69.64,388.535,70.778z"/>
					<path style="fill:#263238;" d="M373.685,71.056c0.216,1.119,1.298,1.852,2.417,1.636c1.119-0.216,1.852-1.298,1.636-2.417
						c-0.216-1.119-1.298-1.852-2.417-1.636C374.202,68.855,373.469,69.937,373.685,71.056z"/>
				</g>
			</g>
			<path style="fill:#E0E0E0;" d="M413.486,104.625c-2.311-1.027-4.929-3.922-6.292-5.538c-1.456-1.726-2.13-3.125-3.026-3.118
				l0.006,3.141c0,0-7.116,16.827-7.082,31.441l0,0c-0.169,10.009,0.414,22.694,0.414,22.694
				c3.013-7.081,10.481-19.647,10.481-19.647l-3.824-9.168C406.576,115.374,411.813,109.458,413.486,104.625z"/>
			<g>
				<path style="fill:#F5F5F5;" d="M440.89,130.947c-5.01-14.022-4.823-18.376-19-23.218c-9.702,11.852-3.221,32.837-3.221,32.837
					l9.138,25.825l24.598,5.521C451.431,163.536,446.824,147.556,440.89,130.947z"/>
			</g>
		</g>
		<g id="Syringe_2_">
			<path id="XMLID_00000155839728108554441250000006400498516941036440_" style="fill:#BA68C8;" d="M235.747,259.676
				c1.849,9.975,11.1,20.807,20.663,24.193c4.782,1.693,8.736,1.204,11.263-0.954l0,0l109.01-93.106l-0.04-0.047
				c2.139-2.226,3.034-5.831,2.179-10.446c-1.849-9.975-11.099-20.806-20.662-24.193c-4.425-1.567-8.125-1.246-10.658,0.518
				l-0.04-0.047l-109.01,93.106C235.924,250.86,234.822,254.689,235.747,259.676z"/>
			<path id="XMLID_844_" style="opacity:0.7;fill:#FFFFFF;" d="M235.747,259.676c1.849,9.975,11.1,20.807,20.663,24.193
				c4.782,1.693,8.736,1.204,11.263-0.954l0,0l109.01-93.106l-0.04-0.047c2.139-2.226,3.034-5.831,2.179-10.446
				c-1.849-9.975-11.099-20.806-20.662-24.193c-4.425-1.567-8.125-1.246-10.658,0.518l-0.04-0.047l-109.01,93.106
				C235.924,250.86,234.822,254.689,235.747,259.676z"/>
			<path id="XMLID_843_" style="fill:#BA68C8;" d="M270.377,271.94c1.849,9.975-4.405,15.316-13.968,11.93
				c-9.563-3.386-18.814-14.218-20.663-24.193c-1.849-9.975,4.405-15.316,13.968-11.93
				C259.277,251.133,268.528,261.965,270.377,271.94z"/>
			<path id="XMLID_842_" style="opacity:0.8;fill:#FFFFFF;" d="M270.377,271.94c1.849,9.975-4.405,15.316-13.968,11.93
				c-9.563-3.386-18.814-14.218-20.663-24.193c-1.849-9.975,4.405-15.316,13.968-11.93
				C259.277,251.133,268.528,261.965,270.377,271.94z"/>
			<path id="XMLID_839_" style="fill:#BA68C8;" d="M458.688,111.105c1.849,9.975-4.405,15.316-13.968,11.93
				c-9.563-3.387-18.814-14.218-20.663-24.193c-1.849-9.975,4.405-15.316,13.968-11.93
				C447.588,90.298,456.839,101.13,458.688,111.105z"/>
			<path id="XMLID_827_" style="opacity:0.7;fill:#FFFFFF;" d="M458.688,111.105c1.849,9.975-4.405,15.316-13.968,11.93
				c-9.563-3.387-18.814-14.218-20.663-24.193c-1.849-9.975,4.405-15.316,13.968-11.93
				C447.588,90.298,456.839,101.13,458.688,111.105z"/>
			<path id="XMLID_825_" style="opacity:0.2;fill:#BA68C8;" d="M431.749,113.688c3.698,4.247,8.294,7.69,12.971,9.346
				c9.563,3.386,15.817-1.955,13.968-11.93c-0.904-4.879-3.586-9.957-7.201-14.274L431.749,113.688z"/>
			<path id="XMLID_00000058563915219444220540000004874805278756385961_" style="fill:#BA68C8;" d="M456.666,112.831
				c1.849,9.975-4.405,15.316-13.968,11.93c-9.563-3.386-18.814-14.218-20.663-24.193c-1.849-9.975,4.405-15.316,13.968-11.93
				C445.566,92.025,454.817,102.856,456.666,112.831z"/>
			<path id="XMLID_807_" style="opacity:0.8;fill:#FFFFFF;" d="M456.666,112.831c1.849,9.975-4.405,15.316-13.968,11.93
				c-9.563-3.386-18.814-14.218-20.663-24.193c-1.849-9.975,4.405-15.316,13.968-11.93
				C445.566,92.025,454.817,102.856,456.666,112.831z"/>
			<path id="XMLID_801_" style="fill:#BA68C8;" d="M357.429,166.863c-0.99,0.68-1.462,2.001-1.13,3.796
				c0.616,3.325,3.7,6.936,6.888,8.064c1.594,0.564,2.912,0.401,3.755-0.318l0,0l77.279-66.003l0,0
				c0.842-0.72,1.209-1.996,0.901-3.658c-0.616-3.325-3.7-6.935-6.888-8.064c-1.72-0.609-3.099-0.349-3.926,0.522L357.429,166.863z"
				/>
			<path id="XMLID_00000155839368657960766280000016376079477543065277_" style="opacity:0.7;fill:#FFFFFF;" d="M357.429,166.863
				c-0.99,0.68-1.462,2.001-1.13,3.796c0.616,3.325,3.7,6.936,6.888,8.064c1.594,0.564,2.912,0.401,3.755-0.318l0,0l77.279-66.003
				l0,0c0.842-0.72,1.209-1.996,0.901-3.658c-0.616-3.325-3.7-6.935-6.888-8.064c-1.72-0.609-3.099-0.349-3.926,0.522
				L357.429,166.863z"/>
			<g id="XMLID_735_" style="opacity:0.3;">
				<g>
					<path id="XMLID_00000129196738928733701360000005663506141810160557_" style="fill:#FFFFFF;" d="M356.208,169.85
						c0.014,0.259,0.039,0.525,0.092,0.808c0.052,0.28,0.145,0.563,0.23,0.845l82.504-70.464c-0.265-0.128-0.53-0.265-0.799-0.36
						c-0.271-0.096-0.531-0.163-0.784-0.217L356.208,169.85z"/>
					<path id="XMLID_00000157995569451384517270000013956273347783447942_" style="fill:#FFFFFF;" d="M357.058,172.867
						c0.321,0.67,0.72,1.319,1.181,1.94l83.79-71.563l0,0c-0.258-0.263-0.525-0.511-0.799-0.746c-0.034-0.03-0.07-0.058-0.105-0.087
						c-0.269-0.226-0.544-0.441-0.827-0.637l0,0L357.058,172.867z"/>
				</g>
			</g>
			<path id="XMLID_707_" style="opacity:0.2;fill:#BA68C8;" d="M442.484,108.732c-0.592,1.672-5.128,5.116-9.756,9.069
				c-2.388,2.039-63.949,54.617-70.713,60.394c0.386,0.21,0.778,0.388,1.171,0.527c1.594,0.564,2.912,0.401,3.755-0.318l0,0
				l77.279-66.003c0.842-0.72,1.209-1.996,0.901-3.658c-0.616-3.325-3.7-6.935-6.888-8.064c-0.127-0.045-0.248-0.076-0.371-0.111
				c-0.886-0.16-1.466-0.217-1.466-0.217C439.077,101.042,443.356,106.27,442.484,108.732z"/>
			<path id="XMLID_00000021839976464640797950000003558856745382541470_" style="opacity:0.15;fill:#BA68C8;" d="M356.299,170.658
				c0.616,3.325,3.7,6.936,6.888,8.064c1.594,0.564,2.912,0.401,3.755-0.318l0,0l8.736-7.462c-2.39-4.315-5.82-8.336-9.705-11.377
				l-8.544,7.297C356.439,167.543,355.967,168.864,356.299,170.658z"/>
			<g id="XMLID_681_" style="opacity:0.3;">
				<g>
					<path id="XMLID_00000043429501392398966060000010144167502292100253_" style="fill:#FFFFFF;" d="M356.208,169.85
						c0.014,0.259,0.039,0.525,0.092,0.808c0.052,0.28,0.145,0.563,0.23,0.845l11.704-9.996c-0.363-0.336-0.729-0.667-1.103-0.986
						L356.208,169.85z"/>
					<path id="XMLID_00000057137239900977349100000005327737839274876547_" style="fill:#FFFFFF;" d="M370.778,164.098
						c-0.5-0.559-1.014-1.104-1.543-1.631l-12.177,10.4c0.321,0.67,0.72,1.319,1.181,1.94L370.778,164.098z"/>
				</g>
			</g>
			<path id="XMLID_649_" style="opacity:0.05;" d="M362.016,178.195c0.386,0.21,0.778,0.388,1.171,0.527
				c1.594,0.564,2.912,0.401,3.755-0.318l0,0l8.736-7.462c-0.543-0.981-1.147-1.944-1.791-2.887
				C370.527,170.925,366.127,174.683,362.016,178.195z"/>
			<path id="XMLID_616_" style="fill:#BA68C8;" d="M343.461,178.792c-0.99,0.68-1.462,2.001-1.129,3.796
				c0.616,3.325,3.7,6.936,6.887,8.064c1.594,0.564,2.912,0.402,3.755-0.318l0,0l13.968-11.929l0,0
				c0.842-0.72,1.209-1.996,0.901-3.658c-0.616-3.325-3.7-6.935-6.887-8.064c-1.721-0.609-3.099-0.35-3.926,0.522L343.461,178.792z"
				/>
			<path id="XMLID_598_" style="opacity:0.5;fill:#FFFFFF;" d="M343.461,178.792c-0.99,0.68-1.462,2.001-1.129,3.796
				c0.616,3.325,3.7,6.936,6.887,8.064c1.594,0.564,2.912,0.402,3.755-0.318l0,0l13.968-11.929l0,0
				c0.842-0.72,1.209-1.996,0.901-3.658c-0.616-3.325-3.7-6.935-6.887-8.064c-1.721-0.609-3.099-0.35-3.926,0.522L343.461,178.792z"
				/>
			<path id="XMLID_524_" style="opacity:0.05;" d="M343.461,178.792c-0.99,0.68-1.462,2.001-1.129,3.796
				c0.616,3.325,3.7,6.936,6.887,8.064c1.594,0.564,2.912,0.402,3.755-0.318l0,0l13.968-11.929l0,0
				c0.842-0.72,1.209-1.996,0.901-3.658c-0.616-3.325-3.7-6.935-6.887-8.064c-1.721-0.609-3.099-0.35-3.926,0.522L343.461,178.792z"
				/>
			<g id="XMLID_521_" style="opacity:0.3;">
				<path id="XMLID_00000182524344582600468190000017611533843670934168_" style="fill:#FFFFFF;" d="M361.754,167.041
					c-0.266-0.129-0.53-0.265-0.799-0.36c-0.271-0.096-0.53-0.163-0.784-0.217l-13.262,11.327l0.952,1.115L361.754,167.041z"/>
				<path id="XMLID_522_" style="fill:#FFFFFF;" d="M363.018,167.776l-13.542,11.565l1.456,1.705l13.816-11.8
					C364.208,168.694,363.63,168.198,363.018,167.776z"/>
			</g>
			<path id="XMLID_520_" style="opacity:0.1;" d="M367.843,174.746c-0.076-0.41-0.191-0.825-0.338-1.239
				c-5.827,4.977-13.577,11.596-16.333,13.95c0.386,0.21,0.778,0.388,1.171,0.528c1.594,0.564,2.912,0.401,3.755-0.318l10.844-9.261
				l0-0.001C367.784,177.684,368.151,176.408,367.843,174.746z"/>
			<path id="XMLID_519_" style="fill:#263238;" d="M350.893,199.682c7.969,2.822,13.183-1.626,11.645-9.936
				c-1.538-8.309-9.247-17.335-17.219-20.16c-7.972-2.825-13.185,1.624-11.645,9.936
				C335.215,187.834,342.924,196.861,350.893,199.682z"/>
			<path id="XMLID_515_" style="fill:#37474F;" d="M349.646,200.747c7.969,2.822,13.183-1.627,11.645-9.936
				c-1.538-8.309-9.247-17.335-17.219-20.16c-7.972-2.825-13.185,1.624-11.645,9.936
				C333.968,188.899,341.677,197.926,349.646,200.747z"/>
			<path id="XMLID_514_" style="fill:#FFFFFF;" d="M240.888,251.554c-1.937,1.652-2.684,4.696-1.784,8.742
				c1.801,8.09,9.511,17.116,17.219,20.16c3.854,1.522,6.979,1.262,8.916-0.391l0,0l92.714-79.188l0,0
				c2.108-1.798,3.027-4.987,2.257-9.143c-1.538-8.309-9.247-17.335-17.219-20.16c-3.986-1.413-7.283-1.007-9.39,0.792
				L240.888,251.554z"/>
			<path id="XMLID_513_" style="fill:#BA68C8;" d="M270.377,271.94c-1.848-9.975-11.1-20.807-20.662-24.193
				c-1.175-0.416-2.298-0.697-3.364-0.857l-5.462,4.664c-1.937,1.652-2.684,4.696-1.784,8.742c1.801,8.09,9.511,17.116,17.219,20.16
				c3.854,1.522,6.979,1.262,8.916-0.391l5.459-4.662C270.707,274.323,270.604,273.168,270.377,271.94z"/>
			<path id="XMLID_00000083069867162700142230000016954223184693578169_" style="opacity:0.2;fill:#FFFFFF;" d="M270.377,271.94
				c-1.848-9.975-11.1-20.807-20.662-24.193c-1.175-0.416-2.298-0.697-3.364-0.857l-5.462,4.664
				c-1.937,1.652-2.684,4.696-1.784,8.742c1.801,8.09,9.511,17.116,17.219,20.16c3.854,1.522,6.979,1.262,8.916-0.391l5.459-4.662
				C270.707,274.323,270.604,273.168,270.377,271.94z"/>
			<path id="XMLID_00000115494562979873414610000016385525709591635376_" style="fill:#455A64;" d="M348.647,201.601
				c3.984,1.411,7.28,1.004,9.387-0.793c2.108-1.798,3.027-4.988,2.258-9.143c-1.538-8.309-9.247-17.335-17.219-20.16
				c-3.986-1.412-7.282-1.006-9.389,0.791c-2.107,1.798-3.026,4.988-2.255,9.144c0.77,4.156-0.327,11.402,2.789,15.051
				C337.333,200.139,344.662,200.19,348.647,201.601z"/>
			<path id="XMLID_00000153691328678730258250000000017138191979293575_" style="opacity:0.2;" d="M355.67,195.851
				c-3.252,1.92-7.741-0.465-13.182,0.551c-5.268,0.984-7.821,0.31-9.331-1.617c0.286,0.624,0.63,1.202,1.06,1.707
				c3.116,3.648,10.445,3.699,14.43,5.109c3.984,1.411,7.28,1.004,9.387-0.793c2.108-1.798,3.027-4.987,2.258-9.143
				c-1.538-8.309-9.192-17.356-17.286-20.184C359.595,181.395,359.089,193.833,355.67,195.851z"/>
			<path id="XMLID_500_" style="opacity:0.5;fill:#BA68C8;" d="M348.647,201.601c3.984,1.411,7.28,1.004,9.387-0.793
				c2.108-1.798,3.027-4.988,2.258-9.143c-1.538-8.309-9.247-17.335-17.219-20.16c-3.986-1.412-7.282-1.006-9.389,0.791
				c-2.107,1.798-3.026,4.988-2.255,9.144c0.77,4.156-0.327,11.402,2.789,15.051C337.333,200.139,344.662,200.19,348.647,201.601z"
				/>
			<path id="XMLID_00000087407718756209681920000014001173686628329123_" style="opacity:0.3;fill:#FFFFFF;" d="M345.667,172.766
				c-0.883-0.466-1.777-0.873-2.675-1.192c-1.131-0.401-2.198-0.639-3.207-0.757l-97.502,83.279l3.443,4.031L345.667,172.766z"/>
			<path id="XMLID_493_" style="opacity:0.3;fill:#FFFFFF;" d="M350.207,175.828c-0.756-0.629-1.538-1.202-2.333-1.736
				l-98.951,84.516l1.841,2.156L350.207,175.828z"/>
			<path id="XMLID_465_" style="opacity:0.1;" d="M345.829,172.842c10.91,8.002,9.586,19.687,5.049,23.562
				c-4.633,3.956-75.441,64.436-88.037,75.194l-2.057,9.844c1.817,0.047,3.338-0.425,4.454-1.377l92.714-79.188
				c2.108-1.798,3.027-4.987,2.257-9.143C358.857,184.426,352.764,176.51,345.829,172.842z"/>
			<path id="XMLID_464_" style="fill:#BA68C8;" d="M256.323,280.456c7.708,3.045,12.499-1.042,10.7-9.129
				c-1.799-8.086-9.508-17.113-17.219-20.16c-7.711-3.048-12.501,1.04-10.7,9.129C240.906,268.385,248.615,277.411,256.323,280.456z
				"/>
			<path id="XMLID_462_" style="opacity:0.3;fill:#FFFFFF;" d="M256.323,280.456c7.708,3.045,12.499-1.042,10.7-9.129
				c-1.799-8.086-9.508-17.113-17.219-20.16c-7.711-3.048-12.501,1.04-10.7,9.129C240.906,268.385,248.615,277.411,256.323,280.456z
				"/>
			<path id="XMLID_461_" style="fill:#BA68C8;" d="M236.445,265.208c-1.264,1.08-1.814,2.994-1.352,5.487
				c0.924,4.988,5.55,10.403,10.331,12.097c2.39,0.846,4.368,0.602,5.632-0.477l0,0l9.312-7.953l0,0
				c1.264-1.079,1.814-2.994,1.352-5.488c-0.924-4.987-5.55-10.403-10.331-12.096c-2.391-0.847-4.368-0.602-5.632,0.477l0,0
				L236.445,265.208L236.445,265.208z"/>
			<path id="XMLID_459_" style="opacity:0.7;fill:#FFFFFF;" d="M236.445,265.208c-1.264,1.08-1.814,2.994-1.352,5.487
				c0.924,4.988,5.55,10.403,10.331,12.097c2.39,0.846,4.368,0.602,5.632-0.477l0,0l9.312-7.953l0,0
				c1.264-1.079,1.814-2.994,1.352-5.488c-0.924-4.987-5.55-10.403-10.331-12.096c-2.391-0.847-4.368-0.602-5.632,0.477l0,0
				L236.445,265.208L236.445,265.208z"/>
			<path id="XMLID_00000063612335009653786410000000727581517618301338_" style="opacity:0.4;fill:#FFFFFF;" d="M252.02,257.062
				c-0.211-0.089-0.419-0.209-0.632-0.284c-0.664-0.235-1.293-0.378-1.887-0.451L236.186,267.7l1.425,1.668L252.02,257.062z"/>
			<path id="XMLID_455_" style="opacity:0.4;fill:#FFFFFF;" d="M254.724,258.575c-0.459-0.329-0.928-0.63-1.404-0.898
				l-14.042,11.993l1.036,1.213L254.724,258.575z"/>
			<path id="XMLID_451_" style="opacity:0.2;fill:#BA68C8;" d="M258.006,271.056c-1.324,1.131-2.343,2.001-7.251,6.193l-3.689,5.963
				c1.653,0.257,3.029-0.077,3.99-0.897l9.312-7.953c1.264-1.079,1.814-2.994,1.352-5.488c-0.924-4.987-5.55-10.403-10.331-12.096
				c-0.664-0.235-1.293-0.378-1.887-0.451C257.218,259.115,260.853,268.625,258.006,271.056z"/>
			<path id="XMLID_410_" style="fill:#BA68C8;" d="M245.424,282.792c4.782,1.693,7.909-0.978,6.984-5.965
				c-0.924-4.988-5.549-10.403-10.331-12.097c-4.781-1.693-7.908,0.977-6.984,5.965
				C236.016,275.683,240.642,281.099,245.424,282.792z"/>
			<path id="XMLID_00000035498556507477322990000005777837763362894208_" style="opacity:0.8;fill:#FFFFFF;" d="M245.424,282.792
				c4.782,1.693,7.909-0.978,6.984-5.965c-0.924-4.988-5.549-10.403-10.331-12.097c-4.781-1.693-7.908,0.977-6.984,5.965
				C236.016,275.683,240.642,281.099,245.424,282.792z"/>
			<path id="XMLID_395_" style="fill:#BA68C8;" d="M230.357,280.27c0.436,2.351,2.616,4.904,4.87,5.703
				c1.129,0.4,2.062,0.283,2.658-0.228l0,0l9.307-7.949c0.597-0.508,0.857-1.411,0.639-2.588c-0.436-2.351-2.616-4.904-4.87-5.702
				c-1.127-0.4-2.059-0.284-2.655,0.225l0,0l-9.309,7.95l0.001,0.001C230.4,278.189,230.139,279.092,230.357,280.27z"/>
			<path id="XMLID_00000108991428335919728750000004109241251131793330_" style="opacity:0.7;fill:#FFFFFF;" d="M230.357,280.27
				c0.436,2.351,2.616,4.904,4.87,5.703c1.129,0.4,2.062,0.283,2.658-0.228l0,0l9.307-7.949c0.597-0.508,0.857-1.411,0.639-2.588
				c-0.436-2.351-2.616-4.904-4.87-5.702c-1.127-0.4-2.059-0.284-2.655,0.225l0,0l-9.309,7.95l0.001,0.001
				C230.4,278.189,230.139,279.092,230.357,280.27z"/>
			<path id="XMLID_392_" style="opacity:0.4;fill:#FFFFFF;" d="M244.359,270.241c-0.454-0.306-0.922-0.567-1.398-0.736
				c-0.106-0.037-0.2-0.048-0.302-0.077l-10.235,8.741l1.118,1.31L244.359,270.241z"/>
			<path id="XMLID_389_" style="opacity:0.4;fill:#FFFFFF;" d="M246.078,271.773c-0.274-0.321-0.575-0.613-0.887-0.889l-10.34,8.831
				l0.813,0.952L246.078,271.773z"/>
			<path id="XMLID_387_" style="opacity:0.2;fill:#BA68C8;" d="M241.727,269.286c1.913,0.311,3.908,2.485,4.169,4.596
				c0.265,2.134-0.844,2.862-2.452,4.236c-1.607,1.373-4.098,3.5-7.251,6.193l-0.237,1.847c0.8,0.134,1.467-0.017,1.929-0.413l0,0
				l9.307-7.949c0.597-0.508,0.857-1.411,0.639-2.588c-0.436-2.351-2.616-4.904-4.87-5.702
				C242.512,269.346,242.105,269.289,241.727,269.286z"/>
			<path id="XMLID_386_" style="fill:#BA68C8;" d="M235.227,285.972c2.254,0.798,3.728-0.461,3.292-2.812
				c-0.436-2.351-2.616-4.904-4.87-5.703c-2.254-0.798-3.728,0.461-3.292,2.812C230.793,282.621,232.973,285.174,235.227,285.972z"
				/>
			<path id="XMLID_383_" style="opacity:0.8;fill:#FFFFFF;" d="M235.227,285.972c2.254,0.798,3.728-0.461,3.292-2.812
				c-0.436-2.351-2.616-4.904-4.87-5.703c-2.254-0.798-3.728,0.461-3.292,2.812C230.793,282.621,232.973,285.174,235.227,285.972z"
				/>
			<path id="XMLID_382_" style="fill:#455A64;" d="M234.421,282.648c-12.689,11.111-57.8,48.917-70.41,59.431
				c-0.63,0.526-0.806,0.323-0.187-0.219c12.356-10.809,56.733-49.481,69.69-60.274
				C234.008,281.555,234.494,282.137,234.421,282.648z"/>
			<path id="XMLID_359_" style="opacity:0.5;fill:#FFFFFF;" d="M238.96,259.486c-0.649-7.46,4.714-9.268,11.42-6.817
				c6.552,2.394,13.811,11.143,15.385,14.848c-2.95-6.936-9.447-13.775-15.96-16.35C242.359,248.224,237.656,251.945,238.96,259.486
				z"/>
			<path id="XMLID_358_" style="opacity:0.2;fill:#BA68C8;" d="M360.93,156.332c8.514,4.3,16.225,13.971,17.895,22.982
				c0.85,4.613-0.046,8.228-2.184,10.448l0.042,0.05l-109.014,93.11c2.531-2.162,3.638-5.992,2.707-10.981l100.725-86.031
				C376.373,181.408,375.887,169.12,360.93,156.332z"/>
			<path id="XMLID_357_" style="opacity:0.3;fill:#FFFFFF;" d="M266.581,262.417c-3.984-6.596-10.35-12.362-16.867-14.67
				c-9.563-3.386-15.816,1.955-13.968,11.93c0.161,0.87,0.397,1.746,0.666,2.624c-1.284-5.056-0.445-11.902,5.392-13.859
				C247.731,246.452,258.397,250.817,266.581,262.417z"/>
			<path id="XMLID_356_" style="opacity:0.4;fill:#FFFFFF;" d="M238.447,248.706l109.013-93.11l0.042,0.049
				c2.528-1.764,6.229-2.093,10.661-0.522c0.198,0.071,0.395,0.161,0.601,0.242c-7.804-2.022-10.801,1.946-16.46,6.779
				l-99.107,84.649C241.314,246.977,239.698,247.637,238.447,248.706z"/>
			<path id="XMLID_355_" style="opacity:0.3;fill:#FFFFFF;" d="M235.092,270.695c0.028,0.148,0.088,0.299,0.122,0.448
				c-0.317-2.576,0.64-5.886,4.283-5.902c3.758-0.017,11.452,4.72,13.023,14.069c0.086-0.743,0.056-1.574-0.113-2.484
				c-0.924-4.987-5.55-10.403-10.331-12.097C237.295,263.037,234.168,265.708,235.092,270.695z"/>
			<path id="XMLID_291_" style="opacity:0.3;fill:#FFFFFF;" d="M230.357,280.27c0.089,0.481,0.267,0.97,0.488,1.451
				c-0.419-1.491-0.204-3.494,1.308-3.869c1.3-0.322,4.945,0.887,6.405,5.726c-0.013-0.139-0.011-0.27-0.038-0.418
				c-0.436-2.351-2.616-4.904-4.87-5.703C231.395,276.66,229.921,277.918,230.357,280.27z"/>
			<path id="XMLID_286_" style="opacity:0.4;fill:#FFFFFF;" d="M422.036,100.568c0.137,0.74,0.327,1.486,0.543,2.232
				c-3.921-14.314,9.308-16.994,19.71-9.344c10.606,7.799,14.708,20.178,14.604,24.313c0.169-1.479,0.108-3.13-0.227-4.938
				c-1.849-9.975-11.1-20.806-20.663-24.193C426.441,85.252,420.187,90.593,422.036,100.568z"/>
		</g>
		<g id="Arm_00000008828634741763518440000011893044617252228764_">
			<g>
				<path style="fill:#FFBDA7;" d="M428.999,167.35c-3.987,1.934-17.78,8.424-24.305,8.887c-4.459,0.317-7.316-3.395-10.142-6.271
					c-3.722-3.788-4.371-5.383-5.592-5.715c-0.479-0.13-1.114,0.999-1.229,1.324c-0.25,0.708-0.203,1.504-0.115,2.236
					c0.248,2.059,1.611,3.816,2.294,5.756c0.391,1.111-0.247,1.739-1.292,1.894c-0.656,0.098-1.295,0.119-1.953,0.064
					c-1.927-0.161-2.191-0.246-4.048-0.776c-2.32-0.661-4.568-1.697-6.91-2.372c-0.583-0.168-1.183-0.32-1.79-0.29
					c-0.607,0.03-1.229,0.269-1.595,0.753c-0.142,0.188-0.245,0.41-0.428,0.558c-0.194,0.157-0.451,0.207-0.695,0.261
					c-0.937,0.206-1.913,0.584-2.434,1.389c-0.544,0.841-0.415,2.056,0.295,2.764c0.408,0.407,0.992,0.678,1.206,1.213
					c0.182,0.454,0.041,0.966,0.073,1.454c0.066,1.022,0.86,1.823,1.35,2.722c0.511,0.937,0.702,2.019,1.193,2.966
					c0.712,1.372,1.996,2.353,3.326,3.14c4.034,2.389,7.063,3.03,11.622,3.861c3.196,0.582,6.49,0.848,9.752,0.783
					c2.076-0.042,4.15-0.176,6.218-0.353c7.706-0.655,17.139-2.865,25.198-5.293V167.35z"/>
				<g>
					<path style="fill:#F5F5F5;" d="M452.406,171.912l-24.598-5.521l-18.142,8.874c0,0,3.629,1.503,5.139,5.087
						c1.413,3.354,1.559,8.631,0.326,11.924c2.315-0.402,16.343-4.47,20.96-6.022c4.618-1.552,12.145-4.997,13.982-6.672
						C451.91,177.908,452.629,175.851,452.406,171.912z"/>
				</g>
			</g>
			<g>
				<path style="fill:#F0997A;" d="M373.539,184.14c1.19,0.727,2.371,1.391,3.635,1.917c1.238,0.58,2.543,1.01,3.81,1.602
					c-1.386-0.184-2.724-0.594-4.017-1.134C375.702,185.935,374.465,185.198,373.539,184.14z"/>
				<path style="fill:#F0997A;" d="M384.42,180.758c-2.162-0.609-4.287-1.582-6.335-2.502c-1.964-0.882-3.873-1.911-5.781-2.903
					c-0.023-0.012-0.05,0.044-0.032,0.058c1.849,1.46,3.867,2.564,6.024,3.51c1.986,0.87,4.013,1.346,6.103,1.881
					C384.419,180.807,384.439,180.763,384.42,180.758z"/>
				<path style="fill:#F0997A;" d="M383.949,185.113c-2.162-0.609-4.287-1.582-6.335-2.502c-0.787-0.354-1.662-0.794-3.001-1.454
					c-1.338-0.66-2.197-1.226-3.443-2.087c-0.191-0.132-0.381-0.272-0.601-0.343c-0.016,0.103,0.072,0.19,0.153,0.257
					c1.332,1.126,1.858,1.625,4.348,2.941c0.905,0.478,1.818,0.941,2.755,1.352c1.986,0.871,4.013,1.346,6.103,1.881
					C383.948,185.162,383.967,185.118,383.949,185.113z"/>
			</g>
		</g>
	</g>
</g>
<g id="Speech_Bubble">
	<g id="Speech_Bubble_00000006684559944343582950000002035078266677054379_">
		<g id="Speech_Bubble_00000142150804927894139900000013227746338120451755_">
			<path style="fill:#FFFFFF;" d="M236.538,148.239c0,56.248-45.756,102.004-102.004,102.004
				c-56.248,0-102.004-45.756-102.004-102.004S78.286,46.226,134.534,46.226C190.783,46.226,236.538,91.991,236.538,148.239z"/>
			<path style="fill:#37474F;" d="M134.534,40.494c-59.41,0-107.736,48.335-107.736,107.745c0,51.522,36.355,94.708,84.757,105.259
				l18.541,41.317c1.716,3.83,7.161,3.83,8.877,0l18.541-41.317c48.402-10.551,84.765-53.737,84.765-105.259
				C242.279,88.829,193.945,40.494,134.534,40.494z M134.534,250.243c-56.248,0-102.004-45.756-102.004-102.004
				S78.286,46.226,134.534,46.226c56.248,0,102.004,45.764,102.004,102.013S190.783,250.243,134.534,250.243z"/>
		</g>
		<g id="Egg_Fertilization">
			<g id="Egg_00000142177974367971317360000000942990290920000654_">
				<g>
					<path style="fill:#BA68C8;" d="M68.055,174.801c0.068,0.208,0.144,0.414,0.228,0.62c2.21,5.377,9.013,6.983,13.162,11.057
						c5.146,5.053,6.14,13.877,12.455,17.359c4.386,2.418,10.062,1.404,14.425,3.864c3.132,1.766,5.158,5.1,8.326,6.799
						c5.858,3.143,13.17-0.301,19.674,1.071c3.224,0.68,6.154,2.536,9.432,2.876c7.54,0.782,11.404-5.74,17.488-8.493
						c3.734-1.689,7.665-2.891,11.548-4.207c2.17-0.736,4.382-1.493,6.206-2.879c3.556-2.702,5.046-7.302,5.943-11.678
						c0.574-2.8,1.042-5.76,2.792-8.019c1.038-1.34,2.451-2.327,3.76-3.403c3.224-2.651,5.958-6.042,7.207-10.024
						c2.332-7.431-0.76-15.653,1.094-23.217c0.618-2.52,1.778-4.927,1.962-7.515c0.392-5.493-3.554-10.185-6.351-14.928
						c-2.221-3.767-3.927-8.005-4.704-12.32c-0.653-3.627-1.365-5.52-4.342-8.034c-4.482-3.785-11.367-5.332-15.167-9.618
						c-4.111-4.637-6.687-9.948-13.102-11.907c-6.138-1.875-12.967,0.444-19.105-1.431c-5.823-1.779-10.783-4.136-17-2.008
						c-4.105,1.406-6.359,4.729-9.931,6.781c-3.373,1.938-7.667,2.004-11.442,2.183c-4.764,0.227-10.021,0.82-13.22,4.356
						c-3.322,3.672-4.021,9.084-7.205,12.886c-3.92,4.681-11.157,8.095-12.314,14.467c-0.686,3.778,0.902,7.676,0.32,11.472
						c-0.835,5.444-5.945,9.644-6.244,15.143c-0.275,5.039,3.58,9.409,4.259,14.41C68.857,165.231,66.586,170.298,68.055,174.801z"
						/>
				</g>
				
					<ellipse transform="matrix(0.1994 -0.9799 0.9799 0.1994 -37.5493 250.5142)" style="fill:#FFFFFF;" cx="134.535" cy="148.237" rx="58.644" ry="58.644"/>
				<path style="fill:#BA68C8;" d="M177.172,120.529c-1.184-3.162-3.157-6.112-5.576-8.77
					c-14.621-16.064-37.203-18.174-56.822-11.658c-6.128,2.035-12.642,6.64-17.174,11.069
					c-10.447,10.211-15.096,22.521-15.624,36.183c-0.376,9.748,2.217,20.032,7.673,28.119c7.729,11.456,19.431,20.435,32.851,23.732
					c20.254,4.977,43.325-3.378,53.221-19.68c1.916-3.156,3.521-8.88,3.386-12.624c-0.158-4.375-2.042-8.47-3.615-12.556
					c-1.573-4.086-2.875-8.544-1.827-12.794c0.704-2.856,2.411-5.353,3.476-8.094C178.905,128.919,178.678,124.553,177.172,120.529z
					"/>
				<path style="opacity:0.6;fill:#FFFFFF;" d="M177.172,120.529c-1.184-3.162-3.157-6.112-5.576-8.77
					c-14.621-16.064-37.203-18.174-56.822-11.658c-6.128,2.035-12.642,6.64-17.174,11.069
					c-10.447,10.211-15.096,22.521-15.624,36.183c-0.376,9.748,2.217,20.032,7.673,28.119c7.729,11.456,19.431,20.435,32.851,23.732
					c20.254,4.977,43.325-3.378,53.221-19.68c1.916-3.156,3.521-8.88,3.386-12.624c-0.158-4.375-2.042-8.47-3.615-12.556
					c-1.573-4.086-2.875-8.544-1.827-12.794c0.704-2.856,2.411-5.353,3.476-8.094C178.905,128.919,178.678,124.553,177.172,120.529z
					"/>
				<path style="opacity:0.22;fill:#BA68C8;" d="M125.275,123.001c-1.133-3.352-3.992-6.945-7.117-8.164
					c-8.124-3.171-18.918,5.518-18.079,13.908c1.04,10.393,14.437,15.779,22.679,6.397
					C125.651,131.849,126.763,127.405,125.275,123.001z"/>
				<g style="opacity:0.22;">
					<path style="fill:#BA68C8;" d="M114.776,130.839c-1.412-1.359-3.167-1.607-4.676-0.299c-1.609,1.395-1.801,3.567,0.091,4.754
						c2.291,1.437,6.549,0.262,5.492-3.029C115.508,131.722,115.188,131.235,114.776,130.839z"/>
				</g>
				<g style="opacity:0.3;">
					<path style="fill:#BA68C8;" d="M171.402,123.514c-0.732,0.484-1.718,0.284-2.202-0.448c-0.484-0.732-0.284-1.718,0.448-2.202
						c0.732-0.484,1.718-0.284,2.202,0.448C172.335,122.044,172.134,123.03,171.402,123.514z"/>
					<path style="fill:#BA68C8;" d="M162.343,111.713c-0.732,0.484-1.718,0.284-2.202-0.448c-0.484-0.732-0.284-1.718,0.448-2.202
						c0.732-0.484,1.718-0.284,2.202,0.448C163.276,110.243,163.075,111.229,162.343,111.713z"/>
					<path style="fill:#BA68C8;" d="M148.183,104.737c-0.732,0.484-1.718,0.284-2.203-0.448c-0.484-0.732-0.284-1.718,0.448-2.202
						c0.732-0.484,1.718-0.284,2.202,0.448C149.115,103.266,148.915,104.252,148.183,104.737z"/>
					<path style="fill:#BA68C8;" d="M133.684,103.246c-0.732,0.484-1.718,0.284-2.202-0.448c-0.484-0.732-0.284-1.718,0.448-2.202
						c0.732-0.484,1.718-0.284,2.202,0.448C134.617,101.776,134.416,102.762,133.684,103.246z"/>
					<path style="fill:#BA68C8;" d="M120.092,106.005c-0.732,0.484-1.718,0.284-2.202-0.448c-0.484-0.732-0.284-1.718,0.448-2.202
						c0.732-0.484,1.718-0.284,2.202,0.448C121.025,104.535,120.824,105.521,120.092,106.005z"/>
					<path style="fill:#BA68C8;" d="M107.289,112.573c-0.732,0.484-1.718,0.284-2.202-0.448c-0.484-0.732-0.284-1.718,0.448-2.203
						c0.732-0.484,1.718-0.284,2.203,0.448C108.222,111.103,108.021,112.089,107.289,112.573z"/>
					<path style="fill:#BA68C8;" d="M97.957,121.176c-0.732,0.484-1.718,0.284-2.202-0.448c-0.484-0.732-0.284-1.718,0.448-2.202
						c0.732-0.484,1.718-0.284,2.202,0.448C98.889,119.705,98.688,120.691,97.957,121.176z"/>
					<path style="fill:#BA68C8;" d="M92.278,132.557c-0.732,0.485-1.718,0.284-2.202-0.448c-0.484-0.732-0.284-1.718,0.448-2.202
						c0.732-0.484,1.718-0.284,2.202,0.448C93.211,131.086,93.01,132.072,92.278,132.557z"/>
					<path style="fill:#BA68C8;" d="M88.883,146.616c-0.732,0.484-1.718,0.284-2.202-0.448c-0.484-0.732-0.284-1.718,0.448-2.202
						c0.732-0.484,1.718-0.284,2.202,0.448C89.816,145.145,89.615,146.131,88.883,146.616z"/>
					<path style="fill:#BA68C8;" d="M90.979,159.913c-0.732,0.484-1.718,0.284-2.202-0.448c-0.485-0.732-0.284-1.718,0.448-2.202
						c0.732-0.484,1.718-0.284,2.202,0.448C91.912,158.442,91.711,159.428,90.979,159.913z"/>
					<path style="fill:#BA68C8;" d="M96.424,175.126c-0.732,0.484-1.718,0.284-2.202-0.448c-0.484-0.732-0.284-1.718,0.448-2.203
						c0.732-0.484,1.718-0.284,2.203,0.448C97.356,173.655,97.156,174.641,96.424,175.126z"/>
					<path style="fill:#BA68C8;" d="M107.419,187.632c-0.732,0.484-1.718,0.284-2.202-0.448c-0.484-0.732-0.284-1.718,0.448-2.202
						c0.732-0.484,1.718-0.284,2.203,0.448C108.352,186.161,108.151,187.147,107.419,187.632z"/>
					<path style="fill:#BA68C8;" d="M120.192,193.92c-0.732,0.484-1.718,0.284-2.202-0.448c-0.484-0.732-0.284-1.718,0.448-2.202
						c0.732-0.484,1.718-0.284,2.203,0.448C121.125,192.45,120.924,193.436,120.192,193.92z"/>
					<path style="fill:#BA68C8;" d="M134.967,196.398c-0.732,0.484-1.718,0.284-2.202-0.448c-0.484-0.732-0.284-1.718,0.448-2.203
						c0.732-0.484,1.718-0.284,2.202,0.448C135.9,194.927,135.699,195.913,134.967,196.398z"/>
					<path style="fill:#BA68C8;" d="M149.855,193.203c-0.732,0.484-1.718,0.284-2.202-0.448c-0.485-0.732-0.284-1.718,0.448-2.202
						c0.732-0.484,1.718-0.284,2.202,0.448C150.787,191.732,150.587,192.719,149.855,193.203z"/>
					<path style="fill:#BA68C8;" d="M162.596,184.77c-0.732,0.484-1.718,0.284-2.202-0.448c-0.485-0.732-0.284-1.718,0.448-2.202
						c0.732-0.484,1.718-0.284,2.202,0.448C163.529,183.299,163.328,184.286,162.596,184.77z"/>
					<path style="fill:#BA68C8;" d="M168.223,135.393c-0.732,0.485-1.718,0.284-2.202-0.448c-0.484-0.732-0.284-1.718,0.448-2.202
						c0.732-0.484,1.718-0.284,2.202,0.448C169.156,133.923,168.955,134.909,168.223,135.393z"/>
					<path style="fill:#BA68C8;" d="M166.165,148.205c-0.732,0.484-1.718,0.284-2.203-0.448c-0.484-0.732-0.284-1.718,0.448-2.202
						c0.732-0.484,1.718-0.284,2.202,0.448C167.098,146.735,166.897,147.721,166.165,148.205z"/>
					<path style="fill:#BA68C8;" d="M168.863,160.737c-0.732,0.484-1.718,0.284-2.202-0.448c-0.484-0.732-0.284-1.718,0.448-2.202
						c0.732-0.484,1.718-0.284,2.202,0.448C169.795,159.266,169.595,160.252,168.863,160.737z"/>
					<path style="fill:#BA68C8;" d="M172.042,173.765c-0.732,0.484-1.718,0.284-2.202-0.448c-0.484-0.732-0.284-1.718,0.448-2.202
						c0.732-0.484,1.718-0.284,2.202,0.448C172.974,172.295,172.774,173.281,172.042,173.765z"/>
				</g>
			</g>
			<g>
				<path style="fill:#BA68C8;" d="M53.141,117.908H37.133c-2.991,9.586-4.603,19.774-4.603,30.331
					c0,8.422,1.033,16.606,2.966,24.44h17.645c10.917,0,19.767-8.85,19.767-19.768v-15.236
					C72.909,126.758,64.058,117.908,53.141,117.908z"/>
				<path style="opacity:0.8;fill:#FFFFFF;" d="M53.141,117.908H37.133c-2.991,9.586-4.603,19.774-4.603,30.331
					c0,8.422,1.033,16.606,2.966,24.44h17.645c10.917,0,19.767-8.85,19.767-19.768v-15.236
					C72.909,126.758,64.058,117.908,53.141,117.908z"/>
				<path style="opacity:0.2;fill:#BA68C8;" d="M65.88,146.662c-3.481,1.189-6.579,3.405-10.153,4.276
					c-4.077,0.994-8.341,0.148-12.504-0.384c-3.593-0.46-7.199-0.676-10.814-0.759c0.106,7.873,1.108,15.533,2.91,22.883h17.821
					c10.917,0,19.767-8.85,19.767-19.768v-6.465C70.742,145.705,68.108,145.901,65.88,146.662z"/>
				<path style="opacity:0.3;fill:#BA68C8;" d="M53.141,117.908H37.133c-1.6,5.127-2.798,10.429-3.573,15.865
					c11.501-0.922,20.752-3.393,28.347,2.253c5.105,3.794,11.001,8.724,11.001,1.65C72.909,126.758,64.058,117.908,53.141,117.908z"
					/>
				<path style="opacity:0.3;fill:#BA68C8;" d="M61.908,154.561c-7.776,5.779-17.288,3.054-29.171,2.191
					c0.443,5.44,1.317,10.759,2.583,15.926h17.821c10.917,0,19.767-8.85,19.767-19.768
					C72.909,145.836,67.012,150.767,61.908,154.561z"/>
				<path style="fill:#BA68C8;" d="M53.141,117.419H37.206c-0.104,0.326-0.209,0.651-0.31,0.978h16.245
					c10.63,0,19.279,8.649,19.279,19.279c0,1.649-0.325,2.648-0.967,2.969c-1.547,0.769-5.092-1.892-8.222-4.24l-1.032-0.772
					c-3.838-2.853-8.101-3.682-12.796-3.682c-3.068,0-6.321,0.354-9.757,0.729c-2,0.218-4.035,0.438-6.133,0.607
					c-0.049,0.329-0.093,0.66-0.139,0.991c2.186-0.171,4.301-0.399,6.378-0.626c8.842-0.963,15.824-1.722,21.865,2.766l1.028,0.77
					c3.116,2.338,6.086,4.567,8.188,4.567c0.383,0,0.737-0.074,1.058-0.234c1.015-0.507,1.508-1.764,1.508-3.843
					C73.397,126.506,64.31,117.419,53.141,117.419z"/>
				<path style="fill:#BA68C8;" d="M71.89,149.067c-2.083-1.039-5.561,1.567-9.242,4.331l-1.031,0.771
					c-6.041,4.49-13.024,3.729-21.865,2.766c-2.289-0.249-4.632-0.494-7.059-0.668c0.025,0.329,0.059,0.657,0.088,0.985
					c2.356,0.173,4.636,0.413,6.865,0.656c8.696,0.946,16.205,1.764,22.553-2.954l1.035-0.774c3.13-2.348,6.681-5.007,8.218-4.237
					c0.642,0.32,0.968,1.319,0.968,2.969c0,10.63-8.649,19.279-19.279,19.279H35.2c0.078,0.326,0.158,0.652,0.239,0.978h17.702
					c11.169,0,20.256-9.087,20.256-20.256C73.397,150.832,72.905,149.575,71.89,149.067z"/>
				<path style="fill:#BA68C8;" d="M53.141,117.419H37.293c-0.103,0.325-0.205,0.651-0.306,0.978h16.154
					c10.63,0,19.279,8.649,19.279,19.279v15.236c0,10.63-8.649,19.279-19.279,19.279H35.377c0.079,0.326,0.157,0.653,0.239,0.978
					h17.525c11.169,0,20.256-9.087,20.256-20.256v-15.236C73.397,126.506,64.31,117.419,53.141,117.419z"/>
				<path style="opacity:0.8;fill:#FFFFFF;" d="M48.169,122.33c-0.128,0.184-0.221,0.392-0.267,0.625
					c-0.256,1.296,1.106,2.311,2.341,2.779c2.633,0.998,5.496,0.989,8.083,2.253c1.796,0.878,3.353,2.141,4.867,3.426
					c1.19,1.01,5.788,3.865,5.37,0.107c-0.274-2.464-2.148-5.005-3.908-6.63c-3.733-3.445-9.245-4.855-14.193-3.793
					C49.6,121.283,48.643,121.647,48.169,122.33z"/>
				<path style="opacity:0.8;fill:#FFFFFF;" d="M44.573,123.974c0.349-0.804,0.119-1.785-0.669-2.228
					c-0.73-0.41-1.711-0.222-2.455,0.077c-0.583,0.234-1.088,0.778-1.076,1.406c0.017,0.856,0.927,1.412,1.765,1.588
					c0.456,0.096,0.935,0.129,1.384,0.006C43.971,124.7,44.387,124.401,44.573,123.974z"/>
				<path style="opacity:0.8;fill:#FFFFFF;" d="M36.027,121.743c-0.226,0.839-0.442,1.683-0.646,2.53
					C36.826,123.763,37.916,122.927,36.027,121.743z"/>
			</g>
			<g>
				<path style="fill:#455A64;" d="M154.166,151.495h82.315c0.034-1.082,0.057-2.166,0.057-3.256c0-0.986-0.018-1.969-0.046-2.949
					h-82.327C145.019,145.29,145.019,151.495,154.166,151.495z"/>
				<path style="fill:#263238;" d="M158.379,148.393c0,1.163-2.174,2.105-4.856,2.105s-4.856-0.943-4.856-2.105
					c0-1.163,2.174-2.105,4.856-2.105S158.379,147.23,158.379,148.393z"/>
			</g>
			<g>
				<path style="fill:#FFFFFF;" d="M136.441,148.372c0.344-0.097,0.701-0.155,1.058-0.111c0.339,0.041,0.663,0.142,0.976,0.276
					c0.656,0.279,1.265,0.651,1.936,0.895c0.652,0.237,1.349,0.359,2.041,0.262c0.59-0.083,1.128-0.361,1.63-0.67
					c0.526-0.324,1.041-0.69,1.624-0.908c0.579-0.216,1.175-0.176,1.753,0.02c0.611,0.208,1.171,0.538,1.763,0.792
					c0.654,0.281,1.341,0.41,2.053,0.373c0.83-0.043,1.609-0.303,2.345-0.676c0.369-0.187,0.734-0.394,1.13-0.52
					c0.421-0.134,0.934-0.208,1.35-0.03c0.016,0.007,0.023-0.029,0.009-0.036c-0.338-0.17-0.671-0.239-1.049-0.202
					c-0.363,0.036-0.71,0.156-1.044,0.299c-0.347,0.15-0.682,0.327-1.034,0.467c-0.329,0.131-0.673,0.223-1.023,0.278
					c-0.728,0.115-1.479,0.039-2.169-0.221c-0.623-0.235-1.2-0.572-1.813-0.829c-0.586-0.246-1.212-0.397-1.849-0.297
					c-0.573,0.089-1.093,0.371-1.58,0.672c-0.522,0.323-1.038,0.69-1.622,0.896c-0.677,0.24-1.397,0.178-2.074-0.028
					c-0.791-0.24-1.479-0.703-2.241-1.011c-0.706-0.286-1.621-0.49-2.314-0.065C136.103,148.119,136.199,148.441,136.441,148.372z"
					/>
				<g>
					<path style="fill:#EBEBEB;" d="M132.878,147.273l3.631,0.103c0.547,0.015,0.51,1.326-0.037,1.311l-3.631-0.103L132.878,147.273
						z"/>
				</g>
				<g>
					<path id="XMLID_00000163071753479683728250000011147949836186636966_" style="fill:#FFFFFF;" d="M132.952,150.138
						c-1.174-0.063-2.221-0.58-2.973-1.376c-0.227-0.241-0.363-0.568-0.353-0.926c0.01-0.357,0.164-0.677,0.405-0.904
						c0.796-0.752,1.871-1.209,3.046-1.206c0.038-0.001,0.076-0.001,0.114,0s0.076,0.003,0.113,0.006
						c1.165,0.092,2.066,1.083,2.033,2.265c-0.033,1.182-0.989,2.12-2.157,2.146c-0.038,0.001-0.076,0.001-0.114,0
						C133.027,150.143,132.989,150.141,132.952,150.138z"/>
				</g>
			</g>
		</g>
	</g>
</g>
<g id="Pregnancy_Test">
	<g id="Pregnancy_Test_00000097457932698253286720000001270162322950570939_">
		<g>
			<g>
				<path style="fill:#E6E6E6;" d="M320.348,352.08c-7.633-4.406-22.064-3.213-32.235,2.665c-3.021,1.746-5.321,3.709-6.865,5.721
					c-1.905,2.485-4.47,6.391-7.182,7.956l-73.197,39.993l-10.321,4.678v10.638l21.609,12.476l7.138-6.517l73.703-44.82
					c2.712-1.566,7.459-2.962,10.529-3.573c4.284-0.852,8.534-2.361,12.225-4.495c6.025-3.482,9.198-7.826,9.197-11.705
					c0-1.802,0.021-4.309,0.009-6.157C324.94,356.294,323.439,353.865,320.348,352.08z"/>
				<g>
					<path style="fill:#F5F5F5;" d="M191.928,413.162l9.202-4.171l73.239-40.014c2.369-1.367,4.571-4.344,6.34-6.735
						c0.365-0.493,0.713-0.963,1.041-1.391c1.53-1.996,3.84-3.918,6.68-5.559c5.676-3.281,13.141-5.24,19.967-5.24
						c4.695,0,8.719,0.89,11.637,2.575c2.809,1.622,4.293,3.821,4.294,6.361c0,3.775-3.323,7.95-8.892,11.168
						c-3.502,2.025-7.663,3.554-12.032,4.421c-3.237,0.644-7.974,2.059-10.722,3.646l-73.756,40.314l-6.853,6.256L191.928,413.162z"
						/>
					<path style="fill:#E0E0E0;" d="M308.396,350.684c4.584,0,8.499,0.861,11.32,2.49c2.602,1.502,3.978,3.513,3.978,5.814
						c0.001,3.547-3.205,7.517-8.575,10.621c-3.444,1.99-7.538,3.494-11.84,4.349c-3.288,0.653-8.105,2.096-10.889,3.704
						l-73.703,40.284l-0.133,0.073l-0.112,0.103l-6.455,5.893l-18.679-10.785l8.082-3.664l0.043-0.019l0.041-0.023l73.223-40.008
						c2.47-1.426,4.716-4.462,6.521-6.901c0.362-0.489,0.707-0.956,1.032-1.38c1.481-1.931,3.726-3.797,6.495-5.396
						C294.329,352.611,301.676,350.684,308.396,350.684 M308.396,349.421c-6.723,0-14.252,1.838-20.284,5.325
						c-3.021,1.746-5.321,3.709-6.865,5.721c-1.906,2.484-4.47,6.391-7.182,7.956l-73.197,39.993l-10.321,4.678l21.609,12.476
						l7.138-6.517l73.703-40.284c2.711-1.566,7.458-2.963,10.529-3.573c4.284-0.851,8.534-2.361,12.225-4.494
						c10.171-5.879,12.229-14.216,4.597-18.623C317.242,350.287,313.009,349.421,308.396,349.421L308.396,349.421z"/>
				</g>
				<path style="fill:#EBEBEB;" d="M292.057,368.431c-4.093-2.363-2.989-6.834,2.465-9.986c5.454-3.152,13.193-3.792,17.286-1.429
					c4.092,2.363,2.989,6.834-2.465,9.986C303.889,370.155,296.15,370.794,292.057,368.431z"/>
				<polygon style="opacity:0.1;" points="219.294,419.054 219.294,429.692 212.156,436.209 212.156,425.571 				"/>
			</g>
			<g>
				<path style="fill:#E0E0E0;" d="M237.72,397.778c2.544,1.469,6.805,1.391,9.516-0.176l3.997-2.307
					c2.712-1.566,2.848-4.026,0.304-5.495c-2.544-1.469-6.805-1.39-9.517,0.175l-3.996,2.307
					C235.312,393.849,235.176,396.309,237.72,397.778z"/>
				<path style="fill:#FAFAFA;" d="M251.537,391.546c-2.544-1.469-6.805-1.39-9.517,0.176l-3.995,2.307
					c-1,0.577-1.644,1.276-1.938,2.001c0.254,0.645,0.78,1.254,1.633,1.747c2.545,1.469,6.805,1.391,9.517-0.176l3.996-2.307
					c1-0.577,1.643-1.276,1.937-2.002C252.916,392.648,252.391,392.039,251.537,391.546z"/>
				<g>
					<path style="fill:#BA68C8;" d="M243.679,391.022c-0.465,0.148-0.908,0.327-1.322,0.539l7.673,4.429l1.129-0.651
						L243.679,391.022z"/>
					<path style="fill:#BA68C8;" d="M246.41,397.997c0.284-0.122,0.568-0.246,0.827-0.395l0.373-0.215l-7.702-4.446l-1.128,0.652
						L246.41,397.997z"/>
				</g>
			</g>
		</g>
		<g>
			<path style="fill:#BA68C8;" d="M212.156,425.571l-21.609-12.476l-39.136,23.71c-1.622,0.983-2.418,2.26-2.389,3.525
				c0.028,1.242-0.029,9.373,0,10.638c0.028,1.241,0.85,2.472,2.461,3.402l6.641,3.834c3.255,1.879,8.587,1.981,11.91,0.227
				l42.121-22.222V425.571z"/>
			<path style="opacity:0.1;" d="M212.156,425.571l-21.609-12.476l-39.136,23.71c-1.622,0.983-2.418,2.26-2.389,3.525
				c0.028,1.242-0.029,9.373,0,10.638c0.028,1.241,0.85,2.472,2.461,3.402l6.641,3.834c3.255,1.879,8.587,1.981,11.91,0.227
				l42.121-22.222V425.571z"/>
			<path style="opacity:0.1;" d="M164.018,429.167v30.51c2.167,0.046,4.347-0.364,6.018-1.246l42.121-22.222v-10.638l-21.609-12.476
				L164.018,429.167z"/>
			<path style="fill:#BA68C8;" d="M170.036,447.793c-3.324,1.754-8.656,1.652-11.91-0.227l-6.641-3.834
				c-1.611-0.931-2.433-2.161-2.461-3.402c-0.029-1.266,0.766-2.543,2.389-3.526l39.136-23.71l21.609,12.476L170.036,447.793z"/>
		</g>
	</g>
</g>
</svg>
