<?xml version="1.0" encoding="utf-8"?>
<!-- Generator: Adobe Illustrator 27.5.0, SVG Export Plug-In . SVG Version: 6.00 Build 0)  -->
<svg version="1.1" xmlns="http://www.w3.org/2000/svg" xmlns:xlink="http://www.w3.org/1999/xlink" x="0px" y="0px"
	 viewBox="0 0 500 500" style="enable-background:new 0 0 500 500;" xml:space="preserve">
<g id="BACKGROUND">
</g>
<g id="OBJECTS">
	<g>
		<path style="fill:#F83C60;" d="M406.574,311.659c5.72,0.151,7.223,7.321,5.496,11.971c2.301-0.656,4.793-0.701,6.971,0.402
			c2.226,1.127,2.974,3.417,2.198,5.708c-1.078,3.181-4.742,5.548-7.402,7.298c-2.425,1.596-5.374,3.137-8.331,2.842
			c-2.687,0.477-5.609-0.235-7.756-2.028c-4.043-3.377-5.199-9.612-3.781-14.503C395.421,318.336,400.804,311.506,406.574,311.659z"
			/>
		<path style="fill:#FF6D83;" d="M388.225,315.749c7.659-0.345,12.503,8.395,12.146,15.533c2.576-0.501,5.458,0.115,7.823,1.095
			c4.351,1.803,7.059,6.138,8.383,10.464c2.512,8.208,0.753,16.962-4.755,23.472c-9.818,11.603-29.819,17.566-43.383,9.378
			c-6.697-4.043-10.321-11.545-10.776-19.178c-0.436-7.323,2.162-14.211,6.098-20.259c3.12-4.795,6.777-9.294,10.933-13.228
			C378.331,319.581,383.009,315.984,388.225,315.749z"/>
		<path style="fill:#EB7E54;" d="M353.062,378.815c3.417-3.146,7.112-6.07,10.802-8.887c0.484-0.37,1.21,0.318,0.772,0.779
			c-3.556,3.742-7.87,6.74-11.636,10.275c-4.363,4.096-7.891,8.958-12.363,12.972c-2.412,2.165-5.06,4.063-7.847,5.717
			c-2.632,1.561-5.148,3.351-7.948,4.611c-0.639,0.288-1.909-0.361-1.951-1.409c-0.051-1.285,0.582-1.969,1.382-2.39
			c2.924-1.536,7.801-2.834,10.51-4.742c3.003-2.115,5.932-3.835,8.5-6.457C346.636,385.861,349.531,382.067,353.062,378.815z"/>
		<path style="fill:#EC9B82;" d="M360.23,356.693c0.858-0.571,1.13-0.51,2.002-0.001c2.079,1.214,2.439,3.877,2.121,6.105
			c2.071-0.335,4.162,0.333,5.547,2.041c1.348,1.661,0.833,3.552-0.409,4.92c2.518,0.572,6.077,1.672,5.328,4.437
			c-0.646,2.384-3.001,2.931-5.359,2.747c-5.326,0.493-10.247-5.5-11.823-10.076c-0.978-2.841-1.011-6.118,0.848-8.604
			C358.955,357.635,359.583,357.123,360.23,356.693z"/>
		<path style="fill:#EB7E54;" d="M348.587,384.808c0,0,8.887-3.646,11.813,1.208c2.926,4.854-4.512,7.279-9.182,4.555
			c-4.67-2.725-4.74-4.173-4.74-4.173L348.587,384.808z"/>
		<path style="fill:#EB7E54;" d="M338.419,394.713c0,0,6.042-0.76,9.119,1.697c3.077,2.456,0.446,7.413-3.399,5.887
			c-3.846-1.525-8.062-5.817-8.062-5.817L338.419,394.713z"/>
		<path style="fill:#EB7E54;" d="M348.275,385.043c0,0,3.299-7.97-0.032-10.112c-3.331-2.142-5.694,0.431-4.978,3.632
			c1.219,5.45,3.683,7.481,3.683,7.481L348.275,385.043z"/>
		<path style="fill:#EB7E54;" d="M338.028,395.007c0,0,0.451-6.71-2.684-8.755c-3.135-2.045-6.401,1.583-4.099,4.96
			c2.302,3.377,5.221,4.973,5.221,4.973L338.028,395.007z"/>
	</g>
	<g>
		<path style="fill:#F83C60;" d="M289.625,49.038c4.016-2.105,7.827,2.274,8.428,6.159c1.339-1.343,3.046-2.337,4.978-2.416
			c1.976-0.08,3.378,1.215,3.726,3.1c0.483,2.617-1.137,5.671-2.302,7.91c-1.061,2.041-2.506,4.247-4.666,5.185
			c-1.675,1.368-3.972,2.005-6.15,1.594c-4.102-0.774-7.311-4.642-8.22-8.573C284.488,57.967,285.573,51.162,289.625,49.038z"/>
		<path style="fill:#FF6D83;" d="M278.51,58.958c5.166-3.199,11.895,0.977,14.406,6.054c1.589-1.342,3.821-2.03,5.836-2.265
			c3.707-0.434,7.256,1.519,9.844,4c4.91,4.708,7.076,11.445,5.78,18.077c-2.309,11.822-13.844,23.676-26.393,23.252
			c-6.196-0.209-11.602-4-14.866-9.105c-3.131-4.898-3.995-10.668-3.609-16.373c0.306-4.523,1.098-9.049,2.453-13.377
			C273.145,65.433,274.992,61.136,278.51,58.958z"/>
		<path style="fill:#EB7E54;" d="M278.55,116.18c1.148-3.497,2.575-6.948,4.039-10.323c0.192-0.443,0.96-0.248,0.835,0.241
			c-1.014,3.963-2.841,7.704-4.08,11.605c-1.436,4.52-1.999,9.247-3.541,13.752c-0.832,2.43-1.931,4.767-3.22,6.988
			c-1.218,2.097-2.267,4.308-3.717,6.261c-0.331,0.446-1.46,0.488-1.895-0.221c-0.532-0.869-0.359-1.587,0.033-2.188
			c1.429-2.192,4.302-4.975,5.439-7.342c1.26-2.624,2.622-4.945,3.386-7.752C276.826,123.538,277.363,119.795,278.55,116.18z"/>
		<path style="fill:#EC9B82;" d="M274.961,98.104c0.373-0.727,0.585-0.79,1.385-0.774c1.907,0.037,3.186,1.74,3.827,3.404
			c1.303-1.032,3.008-1.377,4.627-0.731c1.574,0.628,1.949,2.135,1.618,3.562c1.964-0.577,4.851-1.192,5.401,1.011
			c0.475,1.899-0.944,3.187-2.646,3.972c-3.495,2.399-9.215,0.154-12.073-2.403c-1.775-1.587-3.064-3.843-2.738-6.281
			C274.444,99.249,274.68,98.651,274.961,98.104z"/>
		<path style="fill:#EB7E54;" d="M277.77,122.056c0,0,4.74-5.957,8.641-3.729c3.9,2.228-0.309,6.78-4.593,6.699
			c-4.284-0.081-4.892-1.056-4.892-1.056L277.77,122.056z"/>
		<path style="fill:#EB7E54;" d="M274.562,132.838c0,0,3.887-2.86,6.965-2.35c3.078,0.51,3.173,4.956-0.077,5.387
			c-3.25,0.43-7.826-0.91-7.826-0.91L274.562,132.838z"/>
		<path style="fill:#EB7E54;" d="M277.645,122.339c0,0-0.797-6.789-3.93-6.984c-3.132-0.195-3.773,2.498-2.041,4.436
			c2.949,3.3,5.439,3.753,5.439,3.753L277.645,122.339z"/>
		<path style="fill:#EB7E54;" d="M274.405,133.193c0,0-2.281-4.817-5.24-5.021c-2.959-0.204-3.817,3.568-0.919,5.015
			c2.898,1.447,5.534,1.424,5.534,1.424L274.405,133.193z"/>
	</g>
	<g>
		<path style="fill:#EB7E54;" d="M339.744,110.619c1.025-2.85,1.29-5.91,2.396-8.739c1.332-3.407,4.029-6.259,6.166-9.173
			c1.89-2.576,3.463-5.338,4.088-8.499c0.556-2.814,0.237-5.744,0.032-8.578c-0.14-1.938,0.399-5.35-2.074-5.972
			c-2.453-0.617-4.929,1.358-6.544,2.941c-4.703,4.609-7.489,11.095-12.84,15.057c-2.455,1.817-5.786,1.61-8.355,3.214
			c-2.775,1.733-5.109,4.097-7.158,6.627c-2.819,3.48-5.031,7.415-7.22,11.308c-1.833,3.259-3.815,6.442-5.215,9.922
			c-1.311,3.26-1.692,6.437-1.083,9.892c0.347,1.968,0.944,4.344,2.188,6.109c-0.175,0.129-0.271,0.382-0.091,0.558
			c3.203,3.133,7.422,4.629,11.765,3.085c5.583-1.985,8.274-7.895,11.311-12.492c2.013-3.048,4.634-5.441,7.268-7.933
			C336.639,115.806,338.677,113.587,339.744,110.619z"/>
		<path style="fill:#C86A3C;" d="M303.643,141.525c1.663-3.012,3.342-5.945,5.322-8.763c4.254-6.056,9.057-11.706,13.742-17.427
			c4.7-5.74,9.105-11.673,13.266-17.814c2.048-3.022,4.065-6.079,5.956-9.202c1.871-3.091,3.164-6.493,4.962-9.625
			c0.311-0.542-0.436-1.125-0.802-0.585c-1.945,2.864-3.192,6.126-4.911,9.121c-1.81,3.152-3.926,6.163-5.96,9.174
			c-4.153,6.149-8.564,12.086-13.274,17.819c-4.697,5.717-9.532,11.324-13.833,17.353c-2.007,2.814-3.719,5.743-5.381,8.768
			c-1.667,3.035-3.471,5.916-5.432,8.767c-0.471,0.684,0.485,1.339,1.021,0.745C300.512,147.426,302.071,144.373,303.643,141.525z"
			/>
		<path style="fill:#C86A3C;" d="M338.338,91.449c0.766-2.391,1.02-5.408,0.618-7.892c-0.05-0.308-0.499-0.29-0.538,0.015
			c-0.154,1.215-0.137,2.454-0.223,3.676c-0.096,1.375-0.244,2.739-0.208,4.119C337.992,91.556,338.27,91.663,338.338,91.449z"/>
		<path style="fill:#C86A3C;" d="M330.796,101.113c0.343-1.341,0.192-2.895,0.188-4.272c-0.004-1.324-0.057-2.716-0.501-3.974
			c-0.067-0.189-0.395-0.145-0.394,0.062c0.006,1.407,0.11,2.809,0.096,4.219c-0.013,1.282-0.228,2.737,0.154,3.977
			C330.401,101.325,330.744,101.316,330.796,101.113z"/>
		<path style="fill:#C86A3C;" d="M314.72,118.299c0.418-1.921,0.503-3.925,0.708-5.878c0.186-1.78,0.583-3.727,0.304-5.51
			c-0.033-0.213-0.384-0.279-0.444-0.046c-0.447,1.755-0.474,3.673-0.69,5.471c-0.236,1.963-0.563,4.004-0.227,5.972
			C314.406,118.518,314.679,118.486,314.72,118.299z"/>
		<path style="fill:#C86A3C;" d="M321.692,111.236c0.386-1.541,0.271-3.196,0.309-4.774c0.038-1.584,0.178-3.189,0.093-4.772
			c-0.011-0.201-0.337-0.232-0.391-0.04c-0.427,1.522-0.475,3.156-0.538,4.728c-0.063,1.576-0.236,3.251,0.059,4.811
			C321.264,111.407,321.629,111.488,321.692,111.236z"/>
		<path style="fill:#C86A3C;" d="M320.472,129.681c-1.427,0.187-2.853,0.516-4.266,0.793c-1.288,0.252-2.746,0.52-3.791,1.365
			c-0.165,0.133-0.052,0.446,0.173,0.394c1.379-0.32,2.715-0.727,4.114-0.975c1.317-0.233,2.736-0.411,3.915-1.081
			C320.866,130.035,320.781,129.641,320.472,129.681z"/>
		<path style="fill:#C86A3C;" d="M326.34,122.343c-1.355,0.031-2.69,0.24-4.019,0.492c-1.301,0.247-2.706,0.532-3.837,1.248
			c-0.204,0.129-0.038,0.459,0.183,0.418c1.268-0.237,2.51-0.609,3.782-0.846c1.332-0.248,2.677-0.423,3.958-0.882
			C326.612,122.701,326.567,122.338,326.34,122.343z"/>
		<path style="fill:#C86A3C;" d="M336.909,104.096c-0.816,0.004-1.601,0.352-2.376,0.574c-0.888,0.254-1.779,0.241-2.667,0.429
			c-0.161,0.034-0.231,0.248-0.085,0.351c0.69,0.483,1.67,0.282,2.439,0.131c0.943-0.185,2.034-0.47,2.819-1.041
			C337.207,104.418,337.131,104.095,336.909,104.096z"/>
		<path style="fill:#C86A3C;" d="M342.469,96.332c-0.652-0.004-1.298,0.172-1.942,0.264c-0.775,0.111-1.563,0.094-2.331,0.256
			c-0.141,0.03-0.2,0.267-0.032,0.308c0.743,0.18,1.493,0.16,2.25,0.105c0.738-0.054,1.54-0.156,2.149-0.609
			C342.685,96.566,342.631,96.333,342.469,96.332z"/>
		<path style="fill:#C86A3C;" d="M347.367,86.851c-0.66,0.01-1.273,0.284-1.876,0.53c-0.786,0.321-1.625,0.534-2.394,0.887
			c-0.175,0.08-0.141,0.356,0.059,0.373c0.746,0.064,1.486-0.198,2.18-0.445c0.725-0.258,1.522-0.515,2.134-0.993
			C347.597,87.104,347.548,86.848,347.367,86.851z"/>
		<path style="fill:#C86A3C;" d="M344.697,79.608c0.251-0.53,0.201-1.179,0.219-1.754c0.02-0.639,0.102-1.274,0.124-1.913
			c0.007-0.209-0.263-0.271-0.351-0.083c-0.283,0.605-0.375,1.269-0.437,1.928c-0.056,0.589-0.131,1.267,0.084,1.831
			C344.401,79.79,344.629,79.751,344.697,79.608z"/>
		<path style="fill:#C86A3C;" d="M350.078,80.154c-0.368,0.051-0.706,0.229-1.049,0.365c-0.361,0.144-0.732,0.268-1.063,0.475
			c-0.152,0.095-0.03,0.356,0.139,0.317c0.337-0.078,0.667-0.196,0.995-0.308c0.388-0.133,0.814-0.253,1.109-0.551
			C350.322,80.337,350.259,80.129,350.078,80.154z"/>
	</g>
	<g>
		<path style="fill:#EB7E54;" d="M348.024,351.626c1.025-2.851,1.29-5.91,2.396-8.739c1.332-3.407,4.029-6.259,6.166-9.173
			c1.89-2.576,3.463-5.338,4.088-8.499c0.556-2.814,0.237-5.744,0.032-8.578c-0.14-1.938,0.399-5.35-2.074-5.972
			c-2.453-0.617-4.929,1.358-6.544,2.941c-4.703,4.609-7.489,11.095-12.84,15.057c-2.455,1.817-5.786,1.61-8.355,3.214
			c-2.775,1.733-5.109,4.097-7.158,6.627c-2.819,3.48-5.031,7.415-7.22,11.307c-1.833,3.259-3.815,6.442-5.215,9.922
			c-1.311,3.26-1.692,6.437-1.083,9.892c0.347,1.968,0.944,4.345,2.188,6.109c-0.175,0.129-0.27,0.383-0.091,0.558
			c3.203,3.133,7.422,4.629,11.765,3.085c5.583-1.985,8.274-7.895,11.311-12.492c2.013-3.048,4.634-5.441,7.268-7.933
			C344.919,356.813,346.957,354.594,348.024,351.626z"/>
		<path style="fill:#C86A3C;" d="M311.923,382.531c1.663-3.012,3.342-5.945,5.322-8.763c4.254-6.056,9.057-11.706,13.742-17.427
			c4.7-5.74,9.105-11.673,13.267-17.815c2.048-3.022,4.065-6.079,5.955-9.203c1.871-3.091,3.164-6.493,4.962-9.625
			c0.311-0.542-0.436-1.125-0.802-0.585c-1.945,2.864-3.192,6.126-4.911,9.121c-1.81,3.152-3.926,6.163-5.96,9.174
			c-4.153,6.149-8.564,12.086-13.274,17.819c-4.697,5.718-9.532,11.324-13.833,17.353c-2.007,2.814-3.719,5.742-5.381,8.768
			c-1.667,3.035-3.471,5.916-5.432,8.767c-0.471,0.685,0.485,1.339,1.021,0.745C308.792,388.432,310.35,385.38,311.923,382.531z"/>
		<path style="fill:#C86A3C;" d="M346.618,332.456c0.766-2.391,1.02-5.408,0.618-7.892c-0.05-0.308-0.499-0.29-0.538,0.015
			c-0.154,1.215-0.137,2.454-0.223,3.676c-0.097,1.375-0.244,2.739-0.208,4.119C346.272,332.563,346.549,332.67,346.618,332.456z"/>
		<path style="fill:#C86A3C;" d="M339.076,342.12c0.343-1.341,0.192-2.895,0.188-4.272c-0.004-1.324-0.057-2.716-0.501-3.974
			c-0.067-0.19-0.395-0.145-0.394,0.062c0.006,1.407,0.11,2.809,0.096,4.219c-0.013,1.281-0.228,2.737,0.154,3.977
			C338.68,342.332,339.024,342.323,339.076,342.12z"/>
		<path style="fill:#C86A3C;" d="M323,359.306c0.418-1.921,0.503-3.925,0.707-5.878c0.186-1.78,0.583-3.727,0.304-5.51
			c-0.033-0.213-0.384-0.279-0.444-0.046c-0.447,1.755-0.474,3.673-0.69,5.471c-0.236,1.963-0.563,4.004-0.227,5.972
			C322.686,359.525,322.959,359.493,323,359.306z"/>
		<path style="fill:#C86A3C;" d="M329.972,352.243c0.386-1.541,0.271-3.196,0.309-4.774c0.038-1.584,0.178-3.189,0.093-4.772
			c-0.011-0.201-0.337-0.233-0.391-0.04c-0.427,1.522-0.475,3.156-0.538,4.728c-0.063,1.576-0.236,3.251,0.059,4.811
			C329.544,352.414,329.909,352.495,329.972,352.243z"/>
		<path style="fill:#C86A3C;" d="M328.752,370.688c-1.427,0.187-2.853,0.516-4.266,0.793c-1.288,0.252-2.746,0.52-3.791,1.365
			c-0.165,0.133-0.052,0.446,0.173,0.394c1.379-0.32,2.715-0.727,4.114-0.975c1.317-0.233,2.736-0.411,3.915-1.081
			C329.146,371.042,329.061,370.647,328.752,370.688z"/>
		<path style="fill:#C86A3C;" d="M334.62,363.35c-1.355,0.031-2.69,0.24-4.019,0.492c-1.3,0.247-2.706,0.531-3.837,1.248
			c-0.204,0.129-0.038,0.459,0.183,0.418c1.268-0.237,2.51-0.609,3.782-0.846c1.332-0.248,2.677-0.423,3.958-0.882
			C334.892,363.708,334.847,363.345,334.62,363.35z"/>
		<path style="fill:#C86A3C;" d="M345.189,345.103c-0.816,0.004-1.601,0.352-2.376,0.574c-0.888,0.254-1.779,0.241-2.667,0.429
			c-0.161,0.034-0.231,0.249-0.085,0.351c0.69,0.483,1.67,0.282,2.439,0.131c0.943-0.185,2.034-0.47,2.819-1.04
			C345.486,345.425,345.41,345.102,345.189,345.103z"/>
		<path style="fill:#C86A3C;" d="M350.749,337.339c-0.652-0.004-1.298,0.172-1.942,0.264c-0.775,0.111-1.563,0.094-2.331,0.256
			c-0.141,0.03-0.2,0.267-0.032,0.308c0.743,0.18,1.493,0.16,2.25,0.105c0.738-0.054,1.54-0.156,2.149-0.609
			C350.965,337.573,350.911,337.34,350.749,337.339z"/>
		<path style="fill:#C86A3C;" d="M355.647,327.858c-0.66,0.01-1.273,0.284-1.876,0.53c-0.786,0.321-1.625,0.534-2.394,0.887
			c-0.175,0.08-0.141,0.356,0.059,0.373c0.746,0.063,1.486-0.198,2.18-0.445c0.725-0.258,1.522-0.515,2.134-0.993
			C355.876,328.111,355.828,327.855,355.647,327.858z"/>
		<path style="fill:#C86A3C;" d="M352.977,320.614c0.251-0.53,0.201-1.179,0.219-1.754c0.02-0.639,0.102-1.275,0.124-1.913
			c0.007-0.209-0.263-0.271-0.351-0.082c-0.283,0.605-0.375,1.268-0.437,1.928c-0.056,0.589-0.131,1.268,0.084,1.831
			C352.681,320.797,352.909,320.758,352.977,320.614z"/>
		<path style="fill:#C86A3C;" d="M358.358,321.161c-0.368,0.051-0.706,0.229-1.049,0.365c-0.361,0.144-0.732,0.268-1.063,0.475
			c-0.152,0.095-0.03,0.356,0.139,0.317c0.337-0.078,0.668-0.196,0.995-0.308c0.388-0.133,0.814-0.253,1.108-0.551
			C358.602,321.344,358.538,321.136,358.358,321.161z"/>
	</g>
	<g>
		<path style="fill:#83A4B7;" d="M157.284,370.853c-6.07-2.392-12.56-3.377-18.617-5.837c-5.514-2.239-10.749-5.111-15.735-8.352
			c0.756-1.291,1.17-2.872,1.588-4.274c0.497-1.667,0.888-3.396,1.031-5.131c0.287-3.47-1.705-6.564-2.652-9.774
			c-0.147-0.499-0.963-0.744-1.137-0.105c-0.919,3.366-0.604,6.915-1.202,10.339c-0.414,2.37-0.652,4.96-0.042,7.328
			c-4.821-3.309-9.359-7.019-13.67-10.967c1.044-6.153,2.893-13.086-1.169-18.496c-0.28-0.373-1-0.196-0.996,0.303
			c0.029,3.404-0.684,6.782-0.863,10.178c-0.094,1.799-0.085,3.759,0.395,5.549c-1.762-1.692-3.485-3.425-5.168-5.196
			c-1.304-1.373-2.534-2.832-3.803-4.25c0.047-0.126,0.048-0.272-0.022-0.431c-0.893-2.007-1.626-4.08-2.541-6.077
			c-0.87-1.9-2.053-3.55-3.336-5.187c-2.352-3.003-4.915-6.356-8.504-7.928c-0.392-0.172-0.749,0.217-0.711,0.59
			c0.416,4.083,2.422,7.94,4.6,11.346c1.135,1.775,2.433,3.458,3.912,4.96c1.937,1.967,4.359,3.207,6.691,4.626
			c0.053,0.032,0.106,0.051,0.158,0.062c0.899,1.008,1.823,1.991,2.72,2.969c2.194,2.393,4.471,4.714,6.823,6.952
			c0.074,0.071,0.15,0.139,0.225,0.21c-1.653-0.165-3.436-1.284-4.885-1.836c-1.52-0.58-3.113-0.703-4.715-0.902
			c-1.863-0.232-3.736-0.419-5.615-0.409c-1.264,0.007-2.845,0.051-3.868,0.902c-0.262,0.218-0.259,0.643,0.026,0.841
			c2.968,2.064,6.392,3.098,9.964,3.473c3.216,0.338,7.195,0.294,10.238-1c4.133,3.822,8.509,7.381,13.092,10.648
			c-6.069-0.919-12.785,3.197-17.547,6.216c-0.367,0.232-0.215,0.842,0.161,0.965c3.374,1.106,7.196,1.821,10.695,0.9
			c3.775-0.994,5.925-4.875,9.644-6c0.013-0.004,0.021-0.01,0.033-0.015c4.661,3.1,9.578,5.823,14.701,8.076
			c6.311,2.775,13.122,3.831,19.503,6.367C157.728,372.9,158.328,371.264,157.284,370.853z"/>
		<path style="fill:#83A4B7;" d="M225.938,135.353c-4.571-4.099-9.974-7.095-14.513-11.25c-4.131-3.782-7.809-8.032-11.146-12.524
			c1.09-0.891,1.973-2.15,2.801-3.25c0.984-1.308,1.896-2.705,2.591-4.189c1.39-2.967,0.646-6.349,0.863-9.492
			c0.034-0.489-0.606-0.972-0.969-0.466c-1.914,2.669-2.799,5.903-4.449,8.728c-1.142,1.955-2.2,4.163-2.438,6.451
			c-3.169-4.499-5.957-9.26-8.467-14.155c2.937-5.087,6.84-10.597,5.029-16.701c-0.125-0.421-0.818-0.501-0.978-0.059
			c-1.09,3.013-2.826,5.76-4.096,8.697c-0.673,1.556-1.307,3.289-1.47,5.025c-1-2.07-1.952-4.163-2.857-6.278
			c-0.701-1.639-1.308-3.329-1.963-4.996c0.082-0.095,0.132-0.225,0.121-0.387c-0.13-2.063-0.097-4.133-0.25-6.194
			c-0.145-1.962-0.648-3.805-1.243-5.67c-1.091-3.42-2.254-7.218-4.905-9.782c-0.29-0.28-0.732-0.053-0.821,0.288
			c-0.971,3.739-0.465,7.798,0.34,11.517c0.42,1.938,1.014,3.848,1.826,5.658c1.064,2.37,2.795,4.257,4.388,6.274
			c0.036,0.046,0.077,0.08,0.119,0.107c0.463,1.183,0.957,2.354,1.427,3.51c1.151,2.831,2.4,5.624,3.742,8.37
			c0.042,0.087,0.087,0.172,0.13,0.259c-1.404-0.687-2.611-2.258-3.708-3.221c-1.151-1.01-2.516-1.64-3.864-2.341
			c-1.568-0.815-3.159-1.594-4.82-2.201c-1.118-0.409-2.527-0.887-3.708-0.471c-0.302,0.106-0.439,0.482-0.252,0.751
			c1.942,2.793,4.625,4.828,7.653,6.329c2.727,1.352,6.252,2.617,9.36,2.472c2.394,4.726,5.089,9.3,8.062,13.684
			c-5.053-2.8-12.327-1.369-17.518-0.266c-0.4,0.085-0.465,0.673-0.174,0.905c2.614,2.082,5.752,3.964,9.141,4.298
			c3.657,0.36,6.824-2.359,10.474-2.133c0.013,0.001,0.022-0.002,0.034-0.002c3.097,4.262,6.542,8.276,10.324,11.943
			c4.658,4.517,10.322,7.679,15.12,12.008C225.658,137.305,226.724,136.058,225.938,135.353z"/>
		<path style="fill:#83A4B7;" d="M270.921,303.788c3.346-5.148,5.474-10.948,8.88-16.072c3.1-4.665,6.733-8.953,10.658-12.942
			c1.049,0.939,2.428,1.619,3.643,2.267c1.444,0.771,2.965,1.457,4.538,1.915c3.146,0.917,6.373-0.339,9.512-0.609
			c0.488-0.042,0.867-0.748,0.311-1.029c-2.932-1.48-6.264-1.856-9.309-3.051c-2.108-0.827-4.452-1.533-6.75-1.416
			c3.957-3.825,8.232-7.312,12.682-10.546c5.478,2.118,11.525,5.126,17.276,2.397c0.397-0.188,0.369-0.885-0.093-0.975
			c-3.145-0.613-6.126-1.905-9.224-2.708c-1.641-0.425-3.451-0.785-5.191-0.678c1.891-1.307,3.813-2.57,5.763-3.79
			c1.511-0.945,3.088-1.805,4.634-2.709c0.107,0.067,0.242,0.096,0.402,0.06c2.019-0.446,4.068-0.733,6.082-1.201
			c1.916-0.446,3.659-1.227,5.411-2.102c3.211-1.604,6.785-3.339,8.91-6.353c0.232-0.33-0.06-0.732-0.411-0.767
			c-3.844-0.384-7.777,0.741-11.327,2.11c-1.851,0.713-3.646,1.594-5.309,2.676c-2.178,1.417-3.776,3.417-5.523,5.302
			c-0.04,0.043-0.067,0.088-0.087,0.134c-1.098,0.64-2.178,1.308-3.249,1.951c-2.62,1.574-5.188,3.237-7.693,4.986
			c-0.079,0.055-0.157,0.113-0.236,0.168c0.462-1.493,1.829-2.928,2.611-4.16c0.821-1.293,1.233-2.739,1.717-4.178
			c0.564-1.674,1.088-3.367,1.432-5.101c0.232-1.167,0.488-2.633-0.105-3.737c-0.152-0.282-0.544-0.36-0.781-0.134
			c-2.461,2.35-4.058,5.313-5.075,8.536c-0.916,2.902-1.623,6.58-1.001,9.629c-4.301,3.093-8.405,6.461-12.279,10.073
			c1.988-5.424-0.546-12.391-2.435-17.35c-0.145-0.382-0.736-0.356-0.921-0.033c-1.654,2.904-3.031,6.294-2.839,9.694
			c0.207,3.668,3.382,6.38,3.721,10.021c0.001,0.012,0.006,0.022,0.007,0.034c-3.734,3.716-7.17,7.739-10.21,12.04
			c-3.745,5.298-5.998,11.381-9.536,16.789C268.948,303.813,270.345,304.674,270.921,303.788z"/>
		<path style="fill:#83A4B7;" d="M369.472,106.698c4.72-0.163,9.313-1.381,14.044-1.495c4.307-0.104,8.611,0.293,12.857,1.006
			c-0.129,1.075,0.051,2.244,0.179,3.296c0.151,1.25,0.39,2.51,0.796,3.704c0.811,2.387,3.025,3.866,4.58,5.724
			c0.242,0.289,0.854,0.216,0.785-0.258c-0.361-2.5-1.594-4.766-2.184-7.211c-0.409-1.693-0.998-3.481-2.086-4.877
			c4.156,0.806,8.239,1.961,12.24,3.338c1.082,4.386,1.854,9.523,6.112,11.943c0.294,0.167,0.721-0.158,0.574-0.489
			c-1.001-2.252-1.502-4.7-2.363-7.006c-0.456-1.221-1.028-2.521-1.863-3.57c1.658,0.615,3.302,1.269,4.93,1.959
			c1.262,0.535,2.5,1.15,3.751,1.725c0.005,0.097,0.047,0.195,0.139,0.28c1.172,1.075,2.256,2.24,3.44,3.302
			c1.126,1.01,2.387,1.764,3.711,2.482c2.427,1.315,5.097,2.802,7.934,2.811c0.31,0.001,0.435-0.36,0.302-0.597
			c-1.454-2.591-3.898-4.573-6.327-6.206c-1.266-0.851-2.613-1.594-4.028-2.164c-1.853-0.747-3.819-0.872-5.777-1.141
			c-0.045-0.006-0.085-0.004-0.123,0.004c-0.887-0.41-1.785-0.796-2.662-1.186c-2.147-0.956-4.328-1.84-6.536-2.647
			c-0.07-0.025-0.14-0.049-0.21-0.075c1.145-0.368,2.652-0.139,3.773-0.19c1.177-0.053,2.27-0.431,3.39-0.761
			c1.304-0.384,2.601-0.8,3.846-1.348c0.838-0.369,1.874-0.855,2.308-1.715c0.111-0.22-0.013-0.502-0.26-0.551
			c-2.566-0.514-5.138-0.213-7.617,0.568c-2.233,0.703-4.862,1.88-6.509,3.617c-3.846-1.345-7.779-2.446-11.764-3.293
			c4.295-1.14,7.566-5.811,9.857-9.189c0.176-0.26-0.1-0.621-0.386-0.594c-2.559,0.239-5.303,0.867-7.36,2.488
			c-2.22,1.749-2.527,4.946-4.672,6.765c-0.007,0.006-0.011,0.013-0.018,0.02c-3.989-0.713-8.039-1.103-12.091-1.121
			c-4.991-0.022-9.817,1.242-14.785,1.399C368.587,105.466,368.66,106.726,369.472,106.698z"/>
		<path style="fill:#83A4B7;" d="M378.382,185.487c4.106,2.335,8.656,3.704,12.746,6.085c3.723,2.168,7.181,4.762,10.423,7.593
			c-0.673,0.848-1.132,1.939-1.575,2.901c-0.526,1.144-0.983,2.343-1.263,3.572c-0.56,2.457,0.551,4.878,0.902,7.275
			c0.055,0.373,0.614,0.631,0.804,0.192c1.002-2.319,1.14-4.894,1.918-7.286c0.539-1.656,0.974-3.488,0.779-5.247
			c3.117,2.864,5.99,5.987,8.676,9.257c-1.377,4.303-3.41,9.082-1.052,13.374c0.163,0.296,0.697,0.243,0.745-0.116
			c0.327-2.443,1.183-4.79,1.658-7.206c0.252-1.279,0.445-2.686,0.284-4.017c1.09,1.393,2.147,2.811,3.173,4.252
			c0.794,1.117,1.527,2.289,2.291,3.434c-0.046,0.085-0.062,0.191-0.028,0.311c0.435,1.529,0.748,3.09,1.2,4.615
			c0.43,1.451,1.109,2.754,1.861,4.059c1.378,2.392,2.873,5.057,5.284,6.551c0.264,0.163,0.559-0.079,0.57-0.35
			c0.119-2.969-0.924-5.938-2.137-8.601c-0.632-1.388-1.39-2.727-2.297-3.954c-1.187-1.607-2.796-2.743-4.323-3.999
			c-0.035-0.029-0.071-0.048-0.107-0.061c-0.541-0.814-1.103-1.613-1.646-2.406c-1.328-1.939-2.722-3.835-4.18-5.68
			c-0.046-0.058-0.094-0.115-0.14-0.173c1.168,0.287,2.331,1.271,3.313,1.815c1.03,0.571,2.159,0.822,3.286,1.128
			c1.311,0.356,2.635,0.682,3.982,0.867c0.907,0.124,2.044,0.254,2.864-0.251c0.21-0.129,0.251-0.434,0.067-0.606
			c-1.916-1.782-4.264-2.873-6.786-3.507c-2.27-0.571-5.126-0.946-7.439-0.33c-2.571-3.161-5.344-6.159-8.294-8.969
			c4.255,1.279,9.489-0.985,13.211-2.661c0.286-0.129,0.24-0.581-0.017-0.708c-2.305-1.138-4.971-2.04-7.573-1.738
			c-2.807,0.326-4.744,2.888-7.525,3.314c-0.009,0.001-0.016,0.005-0.025,0.007c-3.024-2.698-6.269-5.152-9.71-7.29
			c-4.239-2.634-9.012-4.086-13.326-6.556C378.273,183.974,377.676,185.085,378.382,185.487z"/>
		<path style="fill:#83A4B7;" d="M219.146,342.114c-4.672-0.693-9.409-0.326-14.083-1.069c-4.255-0.676-8.416-1.845-12.463-3.314
			c0.321-1.034,0.355-2.217,0.42-3.274c0.077-1.257,0.07-2.54-0.113-3.787c-0.366-2.494-2.276-4.349-3.47-6.458
			c-0.186-0.328-0.801-0.367-0.819,0.112c-0.097,2.524,0.706,4.975,0.844,7.487c0.096,1.739,0.353,3.604,1.17,5.174
			c-3.942-1.544-7.748-3.418-11.435-5.496c-0.271-4.509-0.102-9.701-3.852-12.851c-0.259-0.217-0.737,0.025-0.653,0.377
			c0.578,2.396,0.628,4.895,1.058,7.318c0.228,1.284,0.555,2.665,1.187,3.848c-1.52-0.905-3.018-1.845-4.495-2.818
			c-1.145-0.755-2.251-1.582-3.377-2.374c0.012-0.096-0.011-0.2-0.086-0.3c-0.958-1.269-1.814-2.611-2.786-3.87
			c-0.925-1.197-2.029-2.167-3.201-3.112c-2.15-1.732-4.506-3.677-7.295-4.199c-0.305-0.057-0.493,0.276-0.405,0.533
			c0.962,2.811,3.007,5.202,5.1,7.248c1.091,1.066,2.282,2.04,3.571,2.857c1.688,1.07,3.598,1.548,5.476,2.167
			c0.043,0.014,0.083,0.019,0.122,0.018c0.799,0.563,1.612,1.105,2.404,1.648c1.939,1.329,3.924,2.593,5.949,3.786
			c0.064,0.038,0.129,0.074,0.193,0.111c-1.192,0.154-2.633-0.343-3.745-0.495c-1.167-0.16-2.31,0.014-3.472,0.136
			c-1.352,0.142-2.703,0.316-4.027,0.631c-0.891,0.212-1.998,0.502-2.58,1.269c-0.149,0.196-0.077,0.496,0.156,0.589
			c2.431,0.969,5.015,1.138,7.594,0.818c2.323-0.288,5.122-0.97,7.056-2.381c3.539,2.018,7.208,3.812,10.975,5.366
			c-4.43,0.345-8.492,4.347-11.356,7.255c-0.22,0.224-0.013,0.629,0.272,0.654c2.56,0.228,5.372,0.106,7.689-1.116
			c2.5-1.319,3.38-4.407,5.818-5.809c0.008-0.005,0.013-0.011,0.021-0.016c3.794,1.423,7.707,2.538,11.689,3.289
			c4.904,0.924,9.88,0.553,14.795,1.297C219.794,343.485,219.949,342.233,219.146,342.114z"/>
		<path style="fill:#83A4B7;" d="M305.004,412.103c4.72-0.163,9.313-1.381,14.044-1.495c4.307-0.104,8.611,0.293,12.857,1.006
			c-0.129,1.075,0.051,2.244,0.179,3.296c0.151,1.25,0.39,2.511,0.795,3.704c0.811,2.387,3.025,3.866,4.58,5.724
			c0.242,0.289,0.854,0.216,0.785-0.258c-0.361-2.5-1.594-4.766-2.184-7.211c-0.409-1.693-0.998-3.481-2.086-4.877
			c4.156,0.806,8.239,1.961,12.24,3.338c1.082,4.386,1.855,9.523,6.112,11.943c0.294,0.167,0.721-0.158,0.574-0.489
			c-1.001-2.252-1.502-4.7-2.363-7.006c-0.456-1.221-1.028-2.521-1.863-3.57c1.658,0.615,3.302,1.269,4.93,1.959
			c1.262,0.535,2.5,1.149,3.751,1.724c0.005,0.097,0.047,0.195,0.139,0.28c1.172,1.075,2.256,2.24,3.44,3.302
			c1.126,1.01,2.387,1.764,3.711,2.482c2.428,1.315,5.097,2.802,7.934,2.811c0.31,0.001,0.435-0.36,0.302-0.597
			c-1.454-2.591-3.898-4.573-6.327-6.206c-1.266-0.851-2.613-1.594-4.028-2.164c-1.853-0.747-3.819-0.872-5.777-1.141
			c-0.045-0.006-0.085-0.004-0.123,0.004c-0.887-0.41-1.785-0.796-2.662-1.186c-2.147-0.956-4.328-1.84-6.536-2.647
			c-0.07-0.025-0.14-0.049-0.21-0.074c1.145-0.367,2.652-0.139,3.773-0.19c1.177-0.053,2.27-0.431,3.39-0.761
			c1.304-0.384,2.601-0.8,3.846-1.348c0.838-0.369,1.874-0.855,2.308-1.715c0.111-0.22-0.013-0.501-0.26-0.551
			c-2.566-0.514-5.138-0.213-7.617,0.568c-2.233,0.703-4.862,1.88-6.509,3.617c-3.846-1.345-7.779-2.446-11.764-3.293
			c4.295-1.14,7.566-5.811,9.857-9.189c0.176-0.26-0.1-0.621-0.386-0.594c-2.559,0.239-5.303,0.867-7.36,2.488
			c-2.22,1.749-2.527,4.946-4.672,6.765c-0.007,0.006-0.011,0.013-0.018,0.019c-3.989-0.713-8.039-1.103-12.091-1.121
			c-4.991-0.022-9.817,1.242-14.785,1.399C304.118,410.871,304.192,412.131,305.004,412.103z"/>
	</g>
	<g>
		<path style="fill:#FFB0BC;" d="M246.28,86.293c-0.382-0.485-0.958-0.914-1.603-0.852c-0.596,0.057-0.964,0.551-1.217,1.071
			c-1.517-1.305-3.305,0.458-4.243,1.938c-0.752,1.187-0.967,2.367-1.105,3.746c-0.227,2.263-0.209,4.548-0.131,6.819
			c0.117,3.387,0.045,7.335,1.565,10.447c0.371,0.759,0.928,1.914,1.767,2.26c0.252,0.104,0.454,0.092,0.617,0.012l0,0.001
			c-0.095,0.367,0.446,0.511,0.563,0.155c1.07-3.256,2.234-6.482,3.249-9.755c0.996-3.21,1.553-6.483,1.806-9.832
			C247.719,90.049,247.729,88.133,246.28,86.293z"/>
		<path style="fill:#FFB0BC;" d="M246.354,134.654c-0.046-2.008-0.366-4.015-0.706-5.987c-0.329-1.912-0.689-3.815-0.988-5.733
			c-0.381-2.449-0.832-4.954-2.116-7.066c-0.113-0.186-0.28-0.258-0.444-0.239c-0.164-0.291-0.606-0.34-0.722,0.086
			c-0.212,0.775-0.418,1.556-0.617,2.341c-0.168,0.565-0.312,1.141-0.484,1.694c-0.032,0.104-0.025,0.197,0.005,0.276
			c-0.441,1.886-0.831,3.788-1.142,5.687c-0.489,2.979-0.864,6.169-0.731,9.195c0.051,1.163,0.399,5.3,2.301,4.782
			c1.05-0.286,1.743-1.559,2.262-2.746c0.316,1.068,0.886,2.029,1.862,2.545c0.248,0.131,0.474,0.05,0.635-0.179
			C246.37,138.027,246.389,136.188,246.354,134.654z"/>
		<path style="fill:#FFB0BC;" d="M239.156,112.248c-0.03-0.034-0.063-0.063-0.094-0.095c-0.067-0.242-0.275-0.439-0.497-0.444
			c-1.445-1.073-3.608-1.223-5.257-1.442c-1.036-0.137-2.081-0.228-3.108-0.429c-1.586-0.312-3.126-0.847-4.694-1.238
			c-1.381-0.344-2.801-0.554-4.226-0.373c-0.794,0.101-2.341,0.427-2.551,1.469c-0.23,1.144,1.001,1.832,2.211,2.228
			c-1.178,0.569-2.372,1.372-2.184,2.597c0.154,1.003,1.391,1.51,2.151,1.803c1.426,0.549,3.051,0.442,4.546,0.321
			c2.522-0.204,5.07-0.327,7.563-0.85c1.953-0.409,4.146-1.137,5.59-2.714C239.013,113.205,239.495,112.632,239.156,112.248z"/>
		<path style="fill:#FFB0BC;" d="M260.515,113.414c0.506-0.353,0.716-0.916,0.336-1.644c-0.756-1.448-3.48-1.405-4.923-1.349
			c-1.989,0.077-3.981,0.314-5.94,0.619c-2.033,0.317-4.228,0.693-5.959,1.742c-0.06-0.006-0.119-0.014-0.179-0.019
			c-0.75-0.061-0.748,0.984,0,1.039c2.663,0.196,5.168,1.157,7.685,1.886c2.033,0.589,4.207,0.988,6.33,1.212
			c1.409,0.149,3.535-0.042,3.779-1.604C261.772,114.476,261.243,113.825,260.515,113.414z"/>
		<path style="fill:#FFB0BC;" d="M222.506,131.566c0.023,0.603,0.228,1.261,0.762,1.551c0.494,0.268,1.057,0.055,1.546-0.24
			c0.441,1.879,2.82,1.37,4.381,0.644c1.251-0.582,2.083-1.443,2.967-2.508c1.451-1.748,2.724-3.645,3.943-5.56
			c1.818-2.858,4.098-6.079,4.673-9.452c0.14-0.823,0.359-2.071-0.097-2.8c-0.137-0.219-0.3-0.316-0.472-0.336
			c0,0,0.001-0.001,0.001-0.001c0.281-0.253-0.058-0.658-0.348-0.426c-2.663,2.122-5.383,4.169-8.014,6.335
			c-2.58,2.123-4.856,4.53-6.938,7.162C223.507,127.704,222.419,129.282,222.506,131.566z"/>
		<path style="fill:#FFB0BC;" d="M250.535,96.045c-1.124,1.522-2.023,3.218-2.886,4.899c-0.837,1.63-1.644,3.273-2.51,4.889
			c-1.105,2.063-2.186,4.211-2.36,6.595c-0.015,0.21,0.079,0.37,0.224,0.459c-0.035,0.32,0.298,0.637,0.638,0.394
			c0.621-0.442,1.24-0.892,1.856-1.35c0.463-0.314,0.914-0.65,1.374-0.953c0.086-0.057,0.134-0.13,0.155-0.208
			c1.45-1.123,2.868-2.29,4.22-3.505c2.121-1.905,4.271-4.039,5.913-6.374c0.631-0.897,2.739-4.194,0.888-5.014
			c-1.022-0.453-2.322,0.054-3.432,0.608c0.36-0.994,0.451-2.071-0.046-3.073c-0.126-0.254-0.358-0.338-0.621-0.27
			C252.472,93.527,251.393,94.882,250.535,96.045z"/>
		<path style="fill:#FFB0BC;" d="M240.882,114.536c0.011,0.044,0.027,0.087,0.039,0.13c-0.05,0.218,0.043,0.496,0.237,0.646
			c0.788,1.723,2.629,3.256,3.985,4.5c0.852,0.782,1.734,1.536,2.548,2.357c1.258,1.27,2.374,2.669,3.581,3.983
			c1.063,1.158,2.22,2.244,3.56,3.054c0.747,0.452,2.26,1.238,2.918,0.628c0.722-0.669-0.052-1.974-0.94-3.056
			c1.298,0.369,2.716,0.58,3.106-0.423c0.319-0.821-0.543-2-1.081-2.711c-1.009-1.334-2.492-2.329-3.866-3.228
			c-2.319-1.517-4.623-3.108-7.06-4.378c-1.909-0.995-4.174-1.918-6.164-1.74C241.443,113.945,240.758,114.038,240.882,114.536z"/>
		<path style="fill:#FFB0BC;" d="M223.309,98.116c-0.765-0.088-1.387,0.254-1.535,1.221c-0.295,1.925,2.475,4.083,3.967,5.197
			c2.055,1.535,4.231,2.927,6.423,4.23c2.275,1.352,4.756,2.781,7.261,3.226c0.056,0.053,0.11,0.109,0.167,0.162
			c0.71,0.66,1.469-0.29,0.757-0.943c-2.535-2.326-4.354-5.221-6.353-7.913c-1.615-2.174-3.51-4.29-5.482-6.208
			c-1.308-1.272-3.584-2.814-4.968-1.593C222.819,96.137,222.876,97.155,223.309,98.116z"/>
		<path style="fill:#ED256C;" d="M241.772,108.412c-2.238,0.041-4.501,1.659-4.709,3.961c-0.156,1.716-0.074,3.655,1.282,4.899
			c1.31,1.203,3.249,1.32,4.758,0.431c3.046-1.794,4.535-5.974,1.301-8.459C243.632,108.651,242.704,108.395,241.772,108.412z"/>
	</g>
	<g>
		<path style="fill:#FFB0BC;" d="M210.683,267.509c-0.382-0.485-0.958-0.914-1.603-0.852c-0.596,0.057-0.964,0.551-1.217,1.07
			c-1.517-1.305-3.305,0.458-4.243,1.939c-0.752,1.187-0.967,2.367-1.105,3.746c-0.227,2.263-0.209,4.548-0.131,6.819
			c0.116,3.387,0.045,7.335,1.565,10.447c0.371,0.759,0.928,1.914,1.767,2.26c0.252,0.104,0.454,0.092,0.617,0.012
			c0,0,0,0.001,0,0.001c-0.095,0.367,0.446,0.511,0.563,0.155c1.07-3.256,2.234-6.482,3.25-9.755
			c0.996-3.21,1.553-6.483,1.806-9.832C212.121,271.265,212.132,269.348,210.683,267.509z"/>
		<path style="fill:#FFB0BC;" d="M210.757,315.87c-0.046-2.009-0.366-4.016-0.706-5.987c-0.329-1.912-0.689-3.815-0.987-5.733
			c-0.381-2.449-0.832-4.954-2.116-7.066c-0.113-0.186-0.28-0.258-0.444-0.239c-0.164-0.291-0.606-0.34-0.722,0.086
			c-0.212,0.775-0.418,1.556-0.617,2.341c-0.168,0.565-0.312,1.141-0.484,1.694c-0.032,0.104-0.025,0.197,0.006,0.276
			c-0.441,1.886-0.831,3.788-1.143,5.687c-0.489,2.979-0.864,6.169-0.731,9.195c0.051,1.163,0.399,5.3,2.301,4.782
			c1.05-0.286,1.743-1.559,2.262-2.746c0.316,1.068,0.886,2.029,1.862,2.545c0.248,0.131,0.474,0.051,0.635-0.179
			C210.773,319.242,210.791,317.404,210.757,315.87z"/>
		<path style="fill:#FFB0BC;" d="M203.559,293.463c-0.03-0.034-0.063-0.063-0.094-0.095c-0.067-0.242-0.274-0.439-0.497-0.444
			c-1.445-1.073-3.608-1.223-5.257-1.442c-1.036-0.137-2.082-0.228-3.108-0.429c-1.586-0.312-3.126-0.847-4.694-1.238
			c-1.381-0.344-2.801-0.554-4.226-0.373c-0.794,0.101-2.341,0.427-2.551,1.469c-0.23,1.144,1.001,1.832,2.211,2.228
			c-1.179,0.569-2.372,1.372-2.184,2.597c0.154,1.003,1.391,1.51,2.151,1.803c1.426,0.549,3.051,0.442,4.546,0.321
			c2.522-0.204,5.07-0.327,7.563-0.85c1.953-0.409,4.146-1.137,5.59-2.714C203.415,294.42,203.897,293.847,203.559,293.463z"/>
		<path style="fill:#FFB0BC;" d="M224.917,294.63c0.506-0.353,0.716-0.916,0.336-1.644c-0.756-1.448-3.48-1.405-4.923-1.35
			c-1.989,0.077-3.981,0.314-5.94,0.62c-2.033,0.317-4.228,0.693-5.959,1.742c-0.06-0.006-0.119-0.014-0.179-0.019
			c-0.75-0.06-0.748,0.984,0,1.039c2.663,0.196,5.169,1.158,7.685,1.886c2.033,0.589,4.207,0.987,6.33,1.212
			c1.409,0.149,3.535-0.042,3.779-1.604C226.174,295.692,225.646,295.04,224.917,294.63z"/>
		<path style="fill:#FFB0BC;" d="M186.908,312.782c0.023,0.603,0.228,1.261,0.762,1.551c0.494,0.268,1.057,0.055,1.546-0.24
			c0.441,1.879,2.82,1.37,4.381,0.644c1.251-0.582,2.083-1.443,2.967-2.508c1.451-1.748,2.724-3.645,3.943-5.56
			c1.818-2.858,4.098-6.079,4.673-9.452c0.14-0.823,0.359-2.071-0.097-2.8c-0.137-0.219-0.3-0.316-0.472-0.336
			c0,0,0.001-0.001,0.001-0.001c0.28-0.252-0.058-0.658-0.349-0.426c-2.663,2.122-5.383,4.17-8.014,6.335
			c-2.58,2.124-4.856,4.531-6.939,7.162C187.91,308.92,186.822,310.497,186.908,312.782z"/>
		<path style="fill:#FFB0BC;" d="M214.938,277.26c-1.124,1.522-2.023,3.218-2.886,4.899c-0.837,1.63-1.644,3.273-2.509,4.889
			c-1.105,2.063-2.186,4.211-2.36,6.596c-0.015,0.21,0.079,0.37,0.224,0.459c-0.035,0.32,0.297,0.637,0.638,0.394
			c0.621-0.442,1.24-0.892,1.856-1.35c0.464-0.314,0.914-0.65,1.374-0.953c0.086-0.057,0.134-0.13,0.155-0.208
			c1.45-1.123,2.868-2.29,4.22-3.505c2.121-1.905,4.271-4.04,5.913-6.374c0.631-0.897,2.739-4.194,0.888-5.014
			c-1.021-0.453-2.322,0.054-3.432,0.608c0.36-0.994,0.451-2.071-0.046-3.073c-0.126-0.254-0.358-0.338-0.621-0.27
			C216.874,274.742,215.796,276.097,214.938,277.26z"/>
		<path style="fill:#FFB0BC;" d="M205.285,295.752c0.011,0.044,0.027,0.087,0.039,0.13c-0.05,0.218,0.043,0.496,0.237,0.646
			c0.788,1.723,2.629,3.256,3.985,4.5c0.852,0.782,1.734,1.536,2.548,2.357c1.259,1.27,2.374,2.668,3.581,3.983
			c1.063,1.158,2.221,2.244,3.56,3.054c0.747,0.452,2.26,1.238,2.918,0.628c0.722-0.669-0.053-1.974-0.941-3.056
			c1.298,0.369,2.716,0.58,3.106-0.422c0.319-0.821-0.543-2-1.081-2.711c-1.009-1.334-2.492-2.329-3.866-3.228
			c-2.319-1.517-4.623-3.108-7.06-4.378c-1.909-0.995-4.174-1.918-6.164-1.74C205.845,295.16,205.16,295.253,205.285,295.752z"/>
		<path style="fill:#FFB0BC;" d="M187.712,279.331c-0.765-0.088-1.387,0.254-1.535,1.221c-0.295,1.925,2.475,4.083,3.967,5.197
			c2.056,1.535,4.232,2.927,6.424,4.23c2.275,1.352,4.756,2.781,7.261,3.226c0.056,0.053,0.109,0.109,0.167,0.162
			c0.71,0.66,1.469-0.29,0.757-0.944c-2.535-2.326-4.354-5.221-6.353-7.913c-1.615-2.174-3.51-4.29-5.482-6.208
			c-1.308-1.272-3.584-2.814-4.968-1.593C187.221,277.352,187.278,278.37,187.712,279.331z"/>
		<path style="fill:#ED256C;" d="M206.175,289.628c-2.238,0.041-4.501,1.659-4.71,3.961c-0.155,1.716-0.074,3.654,1.282,4.899
			c1.31,1.203,3.249,1.32,4.758,0.431c3.046-1.794,4.535-5.974,1.302-8.459C208.034,289.866,207.107,289.61,206.175,289.628z"/>
	</g>
	<g>
		<path style="fill:#FFB0BC;" d="M340.676,131.234c-0.382-0.485-0.958-0.914-1.603-0.852c-0.596,0.057-0.964,0.551-1.216,1.07
			c-1.517-1.305-3.305,0.458-4.243,1.939c-0.752,1.187-0.967,2.367-1.105,3.746c-0.227,2.263-0.209,4.548-0.131,6.819
			c0.116,3.387,0.045,7.335,1.565,10.447c0.371,0.759,0.928,1.914,1.767,2.259c0.252,0.104,0.454,0.093,0.617,0.012l0,0.001
			c-0.095,0.367,0.446,0.511,0.563,0.155c1.07-3.256,2.234-6.482,3.25-9.755c0.996-3.21,1.553-6.483,1.806-9.832
			C342.115,134.99,342.125,133.074,340.676,131.234z"/>
		<path style="fill:#FFB0BC;" d="M340.75,179.596c-0.046-2.008-0.366-4.015-0.706-5.987c-0.329-1.912-0.689-3.815-0.987-5.733
			c-0.381-2.449-0.832-4.954-2.116-7.066c-0.113-0.186-0.28-0.258-0.444-0.239c-0.163-0.291-0.606-0.34-0.722,0.086
			c-0.212,0.775-0.418,1.556-0.616,2.341c-0.168,0.565-0.312,1.141-0.484,1.694c-0.032,0.104-0.025,0.197,0.006,0.276
			c-0.441,1.886-0.831,3.788-1.143,5.687c-0.489,2.979-0.864,6.169-0.731,9.195c0.051,1.163,0.399,5.3,2.301,4.782
			c1.05-0.286,1.743-1.559,2.262-2.746c0.316,1.068,0.886,2.029,1.862,2.545c0.248,0.131,0.474,0.05,0.635-0.179
			C340.766,182.968,340.785,181.13,340.75,179.596z"/>
		<path style="fill:#FFB0BC;" d="M333.552,157.189c-0.03-0.034-0.063-0.063-0.093-0.095c-0.067-0.242-0.275-0.439-0.497-0.444
			c-1.445-1.073-3.608-1.223-5.257-1.442c-1.036-0.137-2.081-0.228-3.108-0.429c-1.586-0.312-3.126-0.847-4.694-1.238
			c-1.381-0.344-2.801-0.554-4.226-0.373c-0.794,0.101-2.341,0.427-2.551,1.469c-0.23,1.144,1.001,1.832,2.211,2.228
			c-1.179,0.568-2.372,1.372-2.184,2.597c0.154,1.003,1.391,1.51,2.151,1.803c1.426,0.549,3.051,0.442,4.546,0.321
			c2.522-0.204,5.07-0.327,7.563-0.85c1.953-0.409,4.146-1.137,5.59-2.714C333.409,158.146,333.89,157.573,333.552,157.189z"/>
		<path style="fill:#FFB0BC;" d="M354.91,158.355c0.506-0.353,0.716-0.916,0.336-1.644c-0.756-1.448-3.48-1.405-4.923-1.35
			c-1.989,0.077-3.981,0.314-5.94,0.619c-2.033,0.317-4.228,0.693-5.959,1.742c-0.06-0.006-0.119-0.014-0.179-0.019
			c-0.75-0.061-0.748,0.984,0,1.039c2.663,0.195,5.168,1.157,7.685,1.886c2.033,0.589,4.207,0.988,6.33,1.212
			c1.409,0.149,3.535-0.042,3.779-1.604C356.168,159.417,355.639,158.766,354.91,158.355z"/>
		<path style="fill:#FFB0BC;" d="M316.901,176.508c0.023,0.603,0.228,1.261,0.762,1.551c0.494,0.268,1.057,0.055,1.546-0.24
			c0.441,1.879,2.82,1.37,4.381,0.644c1.251-0.582,2.083-1.443,2.967-2.508c1.451-1.748,2.724-3.645,3.943-5.56
			c1.818-2.858,4.098-6.079,4.673-9.452c0.14-0.823,0.359-2.071-0.097-2.8c-0.137-0.219-0.3-0.316-0.472-0.336
			c0,0,0.001-0.001,0.001-0.001c0.28-0.252-0.058-0.658-0.349-0.426c-2.664,2.122-5.383,4.17-8.014,6.335
			c-2.58,2.123-4.856,4.53-6.938,7.162C317.903,172.646,316.815,174.223,316.901,176.508z"/>
		<path style="fill:#FFB0BC;" d="M344.931,140.986c-1.124,1.522-2.023,3.218-2.886,4.899c-0.837,1.63-1.644,3.273-2.509,4.889
			c-1.105,2.063-2.186,4.211-2.36,6.595c-0.015,0.21,0.079,0.37,0.224,0.459c-0.035,0.32,0.298,0.637,0.638,0.394
			c0.621-0.442,1.24-0.892,1.856-1.35c0.464-0.314,0.914-0.65,1.374-0.953c0.086-0.057,0.134-0.13,0.155-0.208
			c1.45-1.123,2.868-2.29,4.22-3.505c2.121-1.905,4.271-4.04,5.913-6.374c0.631-0.897,2.739-4.194,0.889-5.014
			c-1.022-0.453-2.322,0.054-3.432,0.608c0.36-0.994,0.451-2.071-0.046-3.073c-0.126-0.255-0.358-0.338-0.621-0.27
			C346.867,138.468,345.789,139.823,344.931,140.986z"/>
		<path style="fill:#FFB0BC;" d="M335.278,159.478c0.011,0.044,0.027,0.087,0.039,0.13c-0.05,0.218,0.043,0.496,0.237,0.646
			c0.788,1.723,2.629,3.256,3.985,4.5c0.852,0.782,1.734,1.536,2.548,2.357c1.259,1.27,2.374,2.668,3.581,3.983
			c1.063,1.158,2.221,2.244,3.56,3.054c0.747,0.452,2.26,1.238,2.918,0.628c0.722-0.669-0.053-1.974-0.941-3.056
			c1.298,0.369,2.716,0.58,3.106-0.423c0.319-0.821-0.542-2-1.081-2.711c-1.009-1.334-2.492-2.329-3.866-3.228
			c-2.319-1.517-4.623-3.108-7.06-4.378c-1.909-0.995-4.174-1.918-6.164-1.74C335.839,158.886,335.153,158.979,335.278,159.478z"/>
		<path style="fill:#FFB0BC;" d="M317.705,143.057c-0.765-0.088-1.387,0.254-1.535,1.221c-0.295,1.925,2.475,4.083,3.967,5.197
			c2.056,1.535,4.232,2.927,6.424,4.23c2.275,1.352,4.756,2.781,7.261,3.226c0.056,0.053,0.109,0.109,0.167,0.162
			c0.71,0.66,1.469-0.29,0.757-0.943c-2.535-2.326-4.354-5.221-6.353-7.913c-1.615-2.174-3.51-4.29-5.482-6.208
			c-1.308-1.272-3.584-2.814-4.968-1.593C317.215,141.078,317.272,142.096,317.705,143.057z"/>
		<path style="fill:#ED256C;" d="M336.168,153.353c-2.238,0.041-4.501,1.659-4.71,3.961c-0.155,1.716-0.074,3.654,1.282,4.899
			c1.31,1.203,3.249,1.32,4.758,0.431c3.046-1.794,4.535-5.974,1.302-8.459C338.027,153.592,337.1,153.336,336.168,153.353z"/>
	</g>
	<g>
		<path style="fill:#FFB0BC;" d="M94.313,174.02c-0.382-0.485-0.958-0.914-1.603-0.852c-0.596,0.057-0.964,0.551-1.216,1.07
			c-1.517-1.305-3.305,0.458-4.243,1.939c-0.752,1.187-0.967,2.367-1.105,3.746c-0.227,2.263-0.209,4.548-0.131,6.819
			c0.116,3.387,0.045,7.335,1.565,10.447c0.371,0.759,0.928,1.914,1.767,2.26c0.252,0.104,0.454,0.092,0.617,0.012
			c0,0,0,0.001,0,0.001c-0.095,0.367,0.446,0.511,0.563,0.155c1.07-3.256,2.234-6.482,3.249-9.755
			c0.996-3.21,1.553-6.483,1.806-9.832C95.751,177.777,95.762,175.86,94.313,174.02z"/>
		<path style="fill:#FFB0BC;" d="M94.387,222.382c-0.046-2.008-0.366-4.015-0.706-5.987c-0.329-1.912-0.689-3.815-0.987-5.733
			c-0.381-2.449-0.832-4.954-2.116-7.066c-0.113-0.186-0.28-0.258-0.444-0.239c-0.164-0.291-0.606-0.34-0.722,0.086
			c-0.212,0.775-0.418,1.556-0.617,2.341c-0.168,0.565-0.312,1.141-0.484,1.694c-0.032,0.104-0.025,0.197,0.006,0.276
			c-0.441,1.886-0.831,3.788-1.143,5.687c-0.489,2.979-0.864,6.169-0.731,9.195c0.051,1.163,0.399,5.3,2.301,4.782
			c1.05-0.286,1.743-1.559,2.262-2.746c0.316,1.068,0.886,2.029,1.862,2.545c0.248,0.131,0.474,0.05,0.635-0.179
			C94.403,225.754,94.421,223.916,94.387,222.382z"/>
		<path style="fill:#FFB0BC;" d="M87.189,199.975c-0.03-0.034-0.063-0.063-0.094-0.096c-0.067-0.242-0.274-0.439-0.497-0.444
			c-1.445-1.073-3.608-1.223-5.257-1.441c-1.036-0.137-2.081-0.228-3.108-0.429c-1.586-0.312-3.125-0.847-4.694-1.238
			c-1.381-0.344-2.801-0.554-4.226-0.373c-0.794,0.101-2.341,0.427-2.551,1.469c-0.23,1.144,1.001,1.832,2.211,2.228
			c-1.179,0.569-2.372,1.372-2.184,2.597c0.154,1.003,1.391,1.51,2.151,1.803c1.426,0.549,3.051,0.442,4.546,0.321
			c2.522-0.204,5.07-0.327,7.563-0.85c1.953-0.409,4.146-1.137,5.59-2.714C87.045,200.932,87.527,200.359,87.189,199.975z"/>
		<path style="fill:#FFB0BC;" d="M108.547,201.142c0.506-0.353,0.716-0.916,0.336-1.644c-0.756-1.448-3.48-1.405-4.923-1.349
			c-1.989,0.077-3.981,0.314-5.94,0.619c-2.033,0.317-4.228,0.693-5.959,1.742c-0.06-0.006-0.119-0.014-0.179-0.019
			c-0.75-0.061-0.748,0.984,0,1.039c2.663,0.195,5.169,1.158,7.685,1.886c2.033,0.589,4.207,0.988,6.33,1.212
			c1.409,0.149,3.535-0.042,3.779-1.604C109.804,202.204,109.276,201.552,108.547,201.142z"/>
		<path style="fill:#FFB0BC;" d="M70.538,219.294c0.023,0.603,0.228,1.261,0.762,1.551c0.494,0.268,1.057,0.055,1.546-0.24
			c0.441,1.879,2.82,1.37,4.381,0.644c1.251-0.582,2.083-1.443,2.967-2.508c1.451-1.748,2.724-3.645,3.943-5.56
			c1.818-2.858,4.098-6.079,4.673-9.452c0.14-0.823,0.359-2.071-0.097-2.8c-0.137-0.219-0.3-0.316-0.472-0.336
			c0,0,0.001-0.001,0.001-0.001c0.281-0.253-0.058-0.658-0.349-0.426c-2.663,2.122-5.383,4.169-8.014,6.335
			c-2.58,2.123-4.856,4.531-6.938,7.162C71.539,215.432,70.452,217.009,70.538,219.294z"/>
		<path style="fill:#FFB0BC;" d="M98.567,183.772c-1.124,1.522-2.023,3.218-2.886,4.899c-0.837,1.63-1.644,3.273-2.509,4.889
			c-1.105,2.063-2.186,4.211-2.36,6.596c-0.015,0.21,0.079,0.369,0.224,0.459c-0.035,0.32,0.297,0.637,0.638,0.394
			c0.621-0.442,1.24-0.892,1.856-1.35c0.464-0.314,0.914-0.65,1.374-0.953c0.086-0.057,0.134-0.13,0.155-0.209
			c1.45-1.123,2.868-2.29,4.22-3.505c2.121-1.905,4.271-4.04,5.912-6.374c0.631-0.897,2.739-4.194,0.889-5.014
			c-1.021-0.453-2.322,0.054-3.432,0.608c0.36-0.994,0.451-2.071-0.046-3.073c-0.126-0.255-0.358-0.338-0.621-0.27
			C100.504,181.254,99.426,182.609,98.567,183.772z"/>
		<path style="fill:#FFB0BC;" d="M88.914,202.264c0.011,0.044,0.027,0.087,0.039,0.13c-0.05,0.218,0.043,0.496,0.237,0.646
			c0.788,1.723,2.629,3.256,3.985,4.5c0.852,0.782,1.734,1.536,2.548,2.357c1.259,1.27,2.374,2.669,3.581,3.983
			c1.063,1.158,2.221,2.244,3.56,3.054c0.747,0.451,2.26,1.238,2.918,0.628c0.722-0.669-0.052-1.974-0.94-3.056
			c1.298,0.369,2.716,0.58,3.106-0.422c0.319-0.821-0.543-2-1.081-2.712c-1.009-1.334-2.492-2.329-3.866-3.228
			c-2.319-1.517-4.623-3.108-7.06-4.378c-1.909-0.995-4.174-1.918-6.164-1.74C89.475,201.672,88.79,201.765,88.914,202.264z"/>
		<path style="fill:#FFB0BC;" d="M71.342,185.843c-0.765-0.088-1.387,0.254-1.535,1.221c-0.295,1.925,2.475,4.083,3.967,5.197
			c2.056,1.535,4.232,2.927,6.424,4.23c2.275,1.352,4.756,2.781,7.261,3.226c0.056,0.053,0.11,0.109,0.167,0.162
			c0.71,0.66,1.469-0.29,0.757-0.943c-2.535-2.326-4.354-5.221-6.353-7.913c-1.615-2.174-3.51-4.29-5.482-6.208
			c-1.308-1.272-3.584-2.814-4.968-1.593C70.851,183.864,70.908,184.882,71.342,185.843z"/>
		<path style="fill:#ED256C;" d="M89.805,196.139c-2.238,0.041-4.501,1.659-4.709,3.961c-0.155,1.716-0.074,3.654,1.282,4.899
			c1.31,1.203,3.249,1.32,4.758,0.431c3.046-1.794,4.535-5.974,1.301-8.459C91.664,196.378,90.737,196.122,89.805,196.139z"/>
	</g>
	<g>
		<path style="fill:#E56565;" d="M321.871,247.427c-3.697-1.465-64.069,77.383-63.043,80.588
			c1.026,3.206,31.084,27.459,34.457,26.214s59.026-79.408,59.389-82.162C353.036,269.314,328.527,250.064,321.871,247.427z"/>
		<g>
			<path style="fill:#EFAFAF;" d="M322.161,268.976c-1.699,1.814-4.436,2.011-6.113,0.44c-1.677-1.571-1.66-4.315,0.039-6.129
				c1.699-1.814,4.436-2.01,6.113-0.439C323.878,264.418,323.86,267.162,322.161,268.976z"/>
			<path style="fill:#C77575;" d="M320.512,263.819l-3.246,4.266c-0.231,0.303,0.24,0.661,0.47,0.358l3.245-4.266
				C321.213,263.874,320.742,263.516,320.512,263.819z"/>
		</g>
		<g>
			<path style="fill:#EFAFAF;" d="M314.698,277.564c-0.09,2.484-2.024,4.43-4.321,4.346c-2.297-0.083-4.086-2.164-3.996-4.647
				c0.09-2.484,2.025-4.43,4.321-4.346C312.999,273,314.788,275.081,314.698,277.564z"/>
			<path style="fill:#C77575;" d="M310.068,274.759l0.355,5.348c0.025,0.38,0.615,0.341,0.59-0.039l-0.355-5.348
				C310.632,274.34,310.043,274.379,310.068,274.759z"/>
		</g>
		<g>
			<path style="fill:#EFAFAF;" d="M302.522,292.819c-2.462,0.338-4.711-1.234-5.024-3.51c-0.313-2.277,1.43-4.397,3.892-4.735
				s4.711,1.234,5.024,3.51C306.727,290.362,304.984,292.481,302.522,292.819z"/>
			<path style="fill:#C77575;" d="M304.49,287.776l-5.208,1.268c-0.37,0.09-0.23,0.664,0.14,0.574l5.208-1.268
				C305,288.26,304.861,287.686,304.49,287.776z"/>
		</g>
		<g>
			<path style="fill:#EFAFAF;" d="M295.369,303.631c-2.18,1.193-4.842,0.525-5.945-1.491c-1.103-2.016-0.229-4.618,1.951-5.81
				c2.18-1.193,4.842-0.525,5.945,1.492C298.423,299.837,297.549,302.438,295.369,303.631z"/>
			<path style="fill:#C77575;" d="M295.412,298.217l-4.415,3.039c-0.314,0.216,0.021,0.703,0.335,0.487l4.415-3.039
				C296.061,298.488,295.726,298.001,295.412,298.217z"/>
		</g>
		<g>
			<path style="fill:#EFAFAF;" d="M282.002,314.354c-1.846-1.664-2.095-4.397-0.556-6.104c1.539-1.707,4.282-1.742,6.128-0.078
				c1.846,1.664,2.095,4.397,0.556,6.104C286.592,315.983,283.848,316.018,282.002,314.354z"/>
			<path style="fill:#C77575;" d="M287.126,312.606l-4.327-3.163c-0.308-0.225-0.656,0.252-0.349,0.477l4.327,3.163
				C287.085,313.308,287.434,312.831,287.126,312.606z"/>
		</g>
		<g>
			<path style="fill:#EFAFAF;" d="M279.727,324.761c-1.323,2.104-3.973,2.817-5.918,1.594c-1.945-1.224-2.45-3.921-1.127-6.025
				c1.323-2.104,3.973-2.817,5.918-1.594C280.546,319.961,281.05,322.658,279.727,324.761z"/>
			<path style="fill:#C77575;" d="M277.127,320.013l-2.375,4.805c-0.169,0.342,0.361,0.604,0.53,0.262l2.375-4.805
				C277.826,319.933,277.296,319.671,277.127,320.013z"/>
		</g>
		<g>
			<path style="fill:#EFAFAF;" d="M280.795,339.965c-2.26,1.033-4.867,0.176-5.822-1.914c-0.955-2.09,0.103-4.622,2.363-5.655
				c2.26-1.033,4.867-0.176,5.822,1.914C284.113,336.4,283.055,338.932,280.795,339.965z"/>
			<path style="fill:#C77575;" d="M281.227,334.568l-4.622,2.714c-0.329,0.193-0.029,0.703,0.299,0.51l4.622-2.715
				C281.854,334.885,281.555,334.375,281.227,334.568z"/>
		</g>
		<g>
			<path style="fill:#EFAFAF;" d="M289.763,332.327c1.699-1.814,4.436-2.01,6.113-0.439c1.677,1.571,1.66,4.315-0.039,6.129
				c-1.699,1.814-4.436,2.01-6.113,0.439C288.046,336.884,288.064,334.14,289.763,332.327z"/>
			<path style="fill:#C77575;" d="M291.412,337.483l3.246-4.266c0.231-0.303-0.24-0.661-0.47-0.358l-3.245,4.266
				C290.711,337.429,291.181,337.786,291.412,337.483z"/>
		</g>
		<g>
			<path style="fill:#EFAFAF;" d="M297.225,323.738c0.09-2.484,2.025-4.43,4.321-4.347c2.297,0.083,4.086,2.164,3.996,4.647
				c-0.09,2.484-2.024,4.43-4.321,4.346C298.924,328.302,297.135,326.221,297.225,323.738z"/>
			<path style="fill:#C77575;" d="M301.856,326.543l-0.355-5.348c-0.025-0.38-0.615-0.341-0.59,0.039l0.355,5.348
				C301.291,326.962,301.881,326.923,301.856,326.543z"/>
		</g>
		<g>
			<path style="fill:#EFAFAF;" d="M309.401,308.483c2.462-0.338,4.711,1.234,5.024,3.51c0.313,2.277-1.43,4.397-3.892,4.735
				c-2.462,0.338-4.712-1.234-5.024-3.51C305.197,310.941,306.939,308.821,309.401,308.483z"/>
			<path style="fill:#C77575;" d="M307.433,313.526l5.208-1.268c0.37-0.09,0.23-0.664-0.14-0.574l-5.208,1.268
				C306.923,313.042,307.063,313.616,307.433,313.526z"/>
		</g>
		<g>
			<path style="fill:#EFAFAF;" d="M316.555,297.672c2.18-1.193,4.842-0.525,5.945,1.491c1.103,2.016,0.229,4.618-1.951,5.81
				c-2.18,1.193-4.842,0.525-5.945-1.491C313.501,301.465,314.374,298.864,316.555,297.672z"/>
			<path style="fill:#C77575;" d="M316.511,303.085l4.415-3.039c0.314-0.216-0.021-0.703-0.335-0.487l-4.415,3.039
				C315.862,302.815,316.197,303.301,316.511,303.085z"/>
		</g>
		<g>
			<path style="fill:#EFAFAF;" d="M329.921,286.948c1.846,1.664,2.095,4.397,0.556,6.104c-1.539,1.707-4.283,1.742-6.129,0.078
				c-1.846-1.664-2.095-4.397-0.556-6.104C325.332,285.319,328.075,285.284,329.921,286.948z"/>
			<path style="fill:#C77575;" d="M324.797,288.696l4.327,3.163c0.308,0.225,0.656-0.252,0.349-0.477l-4.327-3.163
				C324.838,287.994,324.49,288.471,324.797,288.696z"/>
		</g>
		<g>
			<path style="fill:#EFAFAF;" d="M332.197,276.541c1.323-2.104,3.973-2.817,5.918-1.594c1.945,1.223,2.45,3.921,1.127,6.024
				c-1.323,2.104-3.973,2.817-5.918,1.594C331.378,281.342,330.874,278.645,332.197,276.541z"/>
			<path style="fill:#C77575;" d="M334.796,281.29l2.375-4.805c0.169-0.342-0.361-0.603-0.53-0.262l-2.375,4.805
				C334.098,281.37,334.628,281.631,334.796,281.29z"/>
		</g>
		<g>
			<path style="fill:#EFAFAF;" d="M331.464,261.246c2.26-1.033,4.867-0.176,5.822,1.914c0.955,2.09-0.103,4.622-2.363,5.655
				c-2.26,1.033-4.867,0.176-5.822-1.914C328.146,264.811,329.204,262.279,331.464,261.246z"/>
			<path style="fill:#C77575;" d="M331.033,266.643l4.622-2.715c0.329-0.193,0.029-0.703-0.299-0.51l-4.622,2.715
				C330.405,266.326,330.704,266.836,331.033,266.643z"/>
		</g>
		<path style="fill:#F1B4B4;" d="M326.771,272.284l-42.429,55.77c-3.016,3.965-1.871,4.837,1.146,0.872l42.429-55.77
			C330.933,269.191,329.787,268.32,326.771,272.284z"/>
	</g>
	<g>
		<path style="fill:#FF7F40;" d="M406.978,217.732c-0.379-3.274-1.645-5.841-3.415-8.083c-0.092-1.565-0.28-3.128-0.6-4.688
			c-0.974-4.749-3.394-9.582-6.223-13.497c-2.158-2.986-4.929-5.474-8.155-7.252c-6.424-3.539-14.098-3.422-21.115-2.148
			c-1.253,0.227-2.495,0.511-3.731,0.819c-2.56-0.439-4.982-0.125-7.119,1.548c-2.132,1.669-3.249,4.458-4.06,7
			c-8.032-3.185-14.406,9.831-8.712,15.553c-4.341,2.197-6.66,7.136-6.579,11.927c0.092,5.431,3.95,8.984,9.168,8.926
			c-1.316,5.641,0.313,11.711,4.279,15.956c4.12,4.409,9.991,4.727,14.951,1.98c-1.117,5.149,4.908,7.378,9.64,7.11
			c7.021-0.398,13.046-5.206,13.206-12.419c3.071,0.104,6.348-0.011,9.069-1.565c2.135-1.22,3.232-3.471,3.822-5.765
			c0.486-1.892,0.733-3.862,0.918-5.844c1.253-0.33,2.399-0.955,3.314-2.024C407.417,223.184,407.271,220.267,406.978,217.732z"/>
		<path style="fill:#FF7F40;" d="M95.229,217.732c0.379-3.274,1.645-5.841,3.415-8.083c0.092-1.565,0.28-3.128,0.6-4.688
			c0.974-4.749,3.394-9.582,6.223-13.497c2.157-2.986,4.928-5.474,8.155-7.252c6.424-3.539,14.098-3.422,21.115-2.148
			c1.253,0.227,2.495,0.511,3.73,0.819c2.56-0.439,4.982-0.125,7.119,1.548c2.132,1.669,3.248,4.458,4.06,7
			c8.032-3.185,14.406,9.831,8.712,15.553c4.341,2.197,6.66,7.136,6.579,11.927c-0.092,5.431-3.95,8.984-9.168,8.926
			c1.316,5.641-0.313,11.711-4.279,15.956c-4.12,4.409-9.991,4.727-14.95,1.98c1.117,5.149-4.908,7.378-9.64,7.11
			c-7.021-0.398-13.046-5.206-13.206-12.419c-3.071,0.104-6.348-0.011-9.069-1.565c-2.135-1.22-3.232-3.471-3.822-5.765
			c-0.486-1.892-0.733-3.862-0.918-5.844c-1.253-0.33-2.399-0.955-3.314-2.024C94.79,223.184,94.936,220.267,95.229,217.732z"/>
		<path style="fill:#FFAB3D;" d="M386.645,99.177c-26.03-7.099-42.003,7.099-80.456,18.337c-32.642,9.54-77.241,9.623-110.173-0.001
			c-38.449-11.236-54.422-25.434-80.452-18.335c-41.51,11.319-24.847,72.762-20.706,86.368c4.141,13.603-2.366,27.801,5.324,26.618
			c9.816-1.51,6.709-19.077,6.63-19.514c0.182,0.185,12.344,12.999,18.217,11.824c5.857-1.171,0.698-19.731,0.596-20.106
			c0.252,0.106,9.54,4.082,15.377-0.004c5.916-4.141-20.706-13.015-30.763-28.988s3.55-40.228,20.706-40.228
			c17.156,0,39.601,21.889,39.601,21.889s-1.578,50.526,10.089,84.593c14.79,43.186,49.102,61.817,53.243,69.212
			c4.141,7.395-40.82,27.213-52.651,51.468c-11.832,24.251-10.649,73.945-10.649,73.945s9.465,11.828,31.358,18.336
			c31.209,9.281,67.118,9.285,98.342-0.001c21.889-6.507,31.354-18.335,31.354-18.335s1.183-49.694-10.649-73.945
			c-11.832-24.255-56.793-44.073-52.651-51.468c4.141-7.395,38.453-26.026,53.243-69.212c11.666-34.068,10.089-84.593,10.089-84.593
			s22.445-21.889,39.601-21.889c17.156,0,30.763,24.255,20.706,40.228c-10.057,15.973-36.678,24.847-30.763,28.988
			c5.837,4.086,15.125,0.11,15.377,0.004c-0.103,0.375-5.261,18.935,0.595,20.106c5.872,1.175,18.036-11.639,18.217-11.824
			c-0.079,0.438-3.187,18.004,6.63,19.514c7.691,1.183,1.183-13.015,5.324-26.618C411.491,171.938,428.154,110.496,386.645,99.177z"
			/>
		<path style="fill:#FF7F40;" d="M306.149,340.49c-20.114-23.269-44.566-30.368-46.097-48.467
			c-0.45-5.305,14.786-28.984,38.449-59.746c23.664-30.763,23.072-75.128,23.664-88.143c0.592-13.015-14.198-6.507-32.537,0
			c-11.818,4.193-28.296,6.176-38.524,7.055c-10.228-0.879-26.706-2.862-38.524-7.055c-18.339-6.507-33.129-13.015-32.537,0
			c0.591,13.015,0,57.38,23.663,88.143c23.664,30.763,38.899,54.442,38.449,59.746c-1.53,18.099-25.982,25.198-46.097,48.467
			c-17.703,20.477-16.035,67.37-16.032,67.441c0.133,3.722,10.796,10.137,13.183,11.524c10.585,6.154,27.332,8.549,39.307,10.321
			c13.213,1.955,26.673,1.992,39.896,0.102c14.844-2.121,33.895-6.22,45.457-16.749c1.112-1.013,4.248-3.422,4.312-5.198
			C322.181,407.925,323.864,360.981,306.149,340.49z"/>
		<path style="fill:#FFD6C1;" d="M252.822,423.781c-6.412,0-12.875-0.475-19.21-1.413l-0.622-0.092
			c-11.335-1.676-26.858-3.97-36.017-9.295c-4.444-2.584-8.074-5.291-9.491-6.753c-0.04-3.466,0.009-12.802,1.361-23.516
			c2.168-17.179,6.622-30.086,12.88-37.325c7.661-8.863,16.182-15.37,23.7-21.11c12.344-9.426,23.004-17.566,24.193-31.623
			c0.267-3.153-0.367-7.947-11.347-25.009c-6.995-10.871-16.895-24.68-28.629-39.934c-20.27-26.351-21.468-63.981-21.98-80.05
			c-0.042-1.324-0.079-2.487-0.122-3.51c4.005,0.364,11.094,2.92,17.965,5.399c1.494,0.539,3.021,1.09,4.572,1.64
			c12.263,4.351,28.732,6.457,40.387,7.458c0.213,0.018,0.427,0.028,0.641,0.028c0.214,0,0.428-0.009,0.641-0.028
			c11.656-1.001,28.124-3.108,40.387-7.458c1.552-0.551,3.078-1.101,4.573-1.64c6.871-2.479,13.96-5.035,17.965-5.399
			c-0.043,1.023-0.08,2.186-0.122,3.51c-0.512,16.069-1.71,53.698-21.98,80.05c-11.734,15.254-21.633,29.063-28.629,39.934
			c-10.98,17.062-11.614,21.856-11.347,25.011c1.188,14.056,11.849,22.196,24.193,31.622c7.518,5.741,16.039,12.247,23.7,21.11
			c6.256,7.236,10.709,20.135,12.878,37.302c1.313,10.397,1.399,19.515,1.367,23.22c-0.407,0.382-0.879,0.789-1.143,1.018
			c-0.294,0.254-0.554,0.48-0.758,0.666c-7.841,7.14-21.407,12.005-41.474,14.873C265.243,423.339,259.008,423.781,252.822,423.781z
			"/>
		<path style="fill:#FF4F6D;" d="M255.515,332.051c-16.959,42.2,0,29.579,0,29.579S272.474,374.251,255.515,332.051z"/>
		<path style="fill:#FF4F6D;" d="M249.674,235.903c24.228,38.489,5.287,29.103,5.287,29.103S240.53,280.455,249.674,235.903z"/>
		<g>
			<path style="fill:#FF4F6D;" d="M261.418,185.386c19.436-34.966,20.209-16.387,20.209-16.387S299.645,173.594,261.418,185.386z"/>
			<path style="fill:#FF4F6D;" d="M259.632,203.256c34.966,19.436,16.387,20.209,16.387,20.209S271.425,241.483,259.632,203.256z"/>
			<path style="fill:#FF4F6D;" d="M262.854,194.539c38.468-10.981,25.878,2.703,25.878,2.703S298.224,213.231,262.854,194.539z"/>
			
				<ellipse transform="matrix(0.9006 -0.4346 0.4346 0.9006 -59.0478 128.5531)" style="fill:#EB214C;" cx="251.556" cy="193.384" rx="16.153" ry="16.153"/>
		</g>
	</g>
	<g>
		<path style="fill:#EC4571;" d="M328.703,55.482c-4.447,0.265-7.025,7.441-6.036,10.511c0.678,2.104,3.262,4.232,6.145,4.827
			c-0.009,0.676-0.023,1.737-0.035,2.94c-1.241,0.094-2.288,0.194-2.288,0.194c-0.26,0.416-0.26,1.405,0,1.509
			c0.106,0.042,1.102,0.05,2.272,0.016c-0.024,3.013-0.027,6.194,0.061,6.384c0.171,0.364,1.523,0.624,1.732,0
			c0.108-0.324,0.034-3.453-0.085-6.461c1.153-0.073,2.149-0.19,2.315-0.356c0.416-0.416,0.312-1.041,0-1.353
			c-0.126-0.126-1.18-0.108-2.39-0.041c-0.047-1.029-0.096-1.966-0.141-2.673c0.864,0.014,1.731-0.125,2.559-0.46
			c4.111-1.665,4.943-6.608,3.278-10.251C334.426,56.627,332.189,55.274,328.703,55.482z M334.902,66.358
			c-0.353,0.887-1.103,2.078-2.675,2.715c-0.573,0.232-1.198,0.35-1.858,0.35c-0.001,0-0.001,0-0.001,0
			c-2.792,0-5.634-2.101-6.216-3.909c-0.416-1.291,0.131-4.208,1.581-6.328c0.639-0.934,1.688-2.064,3.062-2.146
			c0.198-0.012,0.393-0.018,0.578-0.018c1.263,0,2.229,0.267,3.038,0.841c0.859,0.608,1.598,1.607,2.26,3.055
			C335.461,62.646,335.55,64.73,334.902,66.358z"/>
		<path style="fill:#EC4571;" d="M433.988,251.091c-3.77-8.247-8.837-11.311-16.731-10.84c-10.07,0.601-15.906,16.849-13.667,23.8
			c1.534,4.765,7.387,9.584,13.914,10.931c-0.021,1.53-0.051,3.932-0.079,6.657c-2.81,0.212-5.181,0.439-5.181,0.439
			c-0.589,0.943-0.589,3.181,0,3.417c0.24,0.096,2.494,0.114,5.145,0.037c-0.054,6.823-0.062,14.026,0.139,14.455
			c0.386,0.825,3.45,1.414,3.921,0c0.245-0.734,0.076-7.82-0.191-14.629c2.611-0.166,4.866-0.43,5.243-0.806
			c0.943-0.943,0.707-2.356,0-3.063c-0.286-0.286-2.671-0.244-5.411-0.093c-0.107-2.328-0.218-4.447-0.32-6.046
			c1.956,0.031,3.919-0.288,5.795-1.048C435.873,270.532,437.758,259.339,433.988,251.091z M421.03,271.819
			c-0.001,0-0.001,0-0.001,0c-6.321,0-12.757-4.758-14.075-8.851c-0.941-2.924,0.297-9.528,3.579-14.328
			c1.446-2.115,3.822-4.674,6.934-4.859c0.449-0.027,0.89-0.041,1.309-0.041c2.859,0,5.046,0.606,6.88,1.904
			c1.945,1.377,3.618,3.64,5.117,6.917c1.789,3.912,1.989,8.632,0.522,12.318c-0.799,2.009-2.498,4.706-6.057,6.147
			C423.94,271.551,422.524,271.819,421.03,271.819z"/>
		<path style="fill:#EC4571;" d="M68.51,137.436c-4.209,0.251-6.648,7.042-5.712,9.947c0.641,1.992,3.087,4.006,5.816,4.568
			c-0.009,0.639-0.021,1.644-0.033,2.783c-1.174,0.089-2.165,0.183-2.165,0.183c-0.246,0.394-0.246,1.33,0,1.428
			c0.1,0.04,1.042,0.048,2.15,0.016c-0.023,2.852-0.026,5.862,0.058,6.041c0.161,0.345,1.442,0.591,1.639,0
			c0.102-0.307,0.032-3.268-0.08-6.114c1.091-0.069,2.034-0.179,2.191-0.337c0.394-0.394,0.295-0.985,0-1.28
			c-0.119-0.119-1.116-0.102-2.262-0.039c-0.045-0.974-0.091-1.861-0.134-2.529c0.818,0.013,1.638-0.118,2.422-0.436
			c3.89-1.576,4.678-6.254,3.102-9.701S71.809,137.238,68.51,137.436z M74.377,147.729c-0.334,0.84-1.044,1.967-2.532,2.569
			c-0.542,0.22-1.134,0.331-1.759,0.331c0,0,0,0,0,0c-2.642,0-5.332-1.988-5.883-3.699c-0.393-1.222,0.124-3.982,1.496-5.989
			c0.604-0.884,1.598-1.953,2.898-2.031c0.188-0.011,0.372-0.017,0.547-0.017c1.195,0,2.109,0.253,2.875,0.796
			c0.813,0.576,1.512,1.521,2.139,2.891C74.906,144.215,74.99,146.188,74.377,147.729z"/>
		<path style="fill:#EC4571;" d="M427.112,180.079c-0.009,0.639-0.021,1.644-0.033,2.783c-1.174,0.089-2.165,0.183-2.165,0.183
			c-0.246,0.394-0.246,1.329,0,1.428c0.1,0.04,1.043,0.048,2.151,0.016c-0.023,2.852-0.026,5.862,0.058,6.041
			c0.161,0.345,1.442,0.591,1.639,0c0.102-0.307,0.032-3.268-0.08-6.114c1.091-0.069,2.034-0.179,2.191-0.337
			c0.394-0.394,0.295-0.985,0-1.28c-0.12-0.119-1.116-0.102-2.262-0.039c-0.045-0.974-0.091-1.861-0.134-2.529
			c0.818,0.013,1.638-0.118,2.422-0.436c3.89-1.576,4.678-6.254,3.102-9.701s-3.693-4.727-6.993-4.53
			c-4.209,0.251-6.648,7.042-5.712,9.947C421.938,177.502,424.384,179.516,427.112,180.079z M424.198,169.069
			c0.604-0.884,1.597-1.954,2.898-2.031c0.188-0.011,0.372-0.017,0.547-0.017c1.195,0,2.109,0.253,2.875,0.796
			c0.813,0.576,1.512,1.521,2.139,2.891c0.747,1.635,0.831,3.608,0.218,5.148c-0.334,0.84-1.044,1.967-2.532,2.569
			c-0.542,0.22-1.134,0.332-1.758,0.332c-0.001,0-0.001,0-0.001,0c-2.642,0-5.332-1.989-5.883-3.699
			C422.309,173.835,422.826,171.075,424.198,169.069z"/>
		<path style="fill:#EC4571;" d="M87.632,381.638c-4.209,0.251-6.648,7.042-5.712,9.947c0.641,1.992,3.087,4.006,5.816,4.569
			c-0.009,0.639-0.021,1.644-0.033,2.783c-1.174,0.089-2.165,0.183-2.165,0.183c-0.246,0.394-0.246,1.33,0,1.428
			c0.1,0.04,1.042,0.047,2.15,0.016c-0.022,2.852-0.026,5.862,0.058,6.041c0.161,0.345,1.442,0.591,1.639,0
			c0.102-0.307,0.032-3.268-0.08-6.114c1.091-0.069,2.034-0.179,2.191-0.337c0.394-0.394,0.295-0.985,0-1.28
			c-0.119-0.12-1.116-0.102-2.262-0.039c-0.045-0.974-0.091-1.861-0.134-2.529c0.818,0.013,1.638-0.118,2.422-0.436
			c3.89-1.576,4.678-6.254,3.102-9.701C93.049,382.721,90.931,381.441,87.632,381.638z M93.499,391.931
			c-0.334,0.84-1.044,1.967-2.532,2.569c-0.542,0.22-1.134,0.331-1.758,0.331c0,0,0,0,0,0c-2.642,0-5.332-1.988-5.883-3.699
			c-0.393-1.222,0.124-3.982,1.496-5.989c0.604-0.884,1.598-1.953,2.898-2.031c0.188-0.011,0.372-0.017,0.547-0.017
			c1.195,0,2.109,0.253,2.875,0.796c0.813,0.576,1.512,1.521,2.139,2.891C94.028,388.418,94.112,390.39,93.499,391.931z"/>
	</g>
	<g>
		<path style="fill:#ED5A89;" d="M404.646,398.575c-3.763,0.409-4.464,7.569-2.215,9.221c1.05,0.771,11.786,2.023,11.786,2.023
			l1.565-9.122C415.783,400.697,406.281,398.397,404.646,398.575z"/>
		<path style="fill:#F59AB5;" d="M425.3,401.724c3.397,1.724,1.572,9.285-1.116,10.193c-1.255,0.424-11.787-2.023-11.787-2.023
			l1.693-9.865C414.09,400.028,423.824,400.975,425.3,401.724z"/>
	</g>
	<g>
		<path style="fill:#ED5A89;" d="M396.817,284.399c1.283-3.053-3.899-6.626-6.116-5.605c-1.036,0.476-6.546,8.161-6.546,8.161
			l6.316,5.066C390.471,292.021,396.26,285.725,396.817,284.399z"/>
		<path style="fill:#F59AB5;" d="M385.649,298.867c-2.76,1.868-7.771-2.734-7.326-5.176c0.208-1.14,6.546-8.161,6.546-8.161
			l6.831,5.479C391.7,291.009,386.848,298.056,385.649,298.867z"/>
	</g>
	<g>
		<path style="fill:#ED5A89;" d="M83.285,371.865c3.297,0.313,5.16-5.699,3.524-7.511c-0.764-0.846-9.743-3.811-9.743-3.811
			l-2.949,7.54C74.117,368.084,81.854,371.729,83.285,371.865z"/>
		<path style="fill:#F59AB5;" d="M66.143,365.526c-2.607-2.076,0.29-8.233,2.753-8.537c1.15-0.142,9.743,3.811,9.743,3.811
			l-3.19,8.155C75.449,368.955,67.276,366.428,66.143,365.526z"/>
	</g>
	<g>
		<path style="fill:#FFD4D4;" d="M96.933,263.643c0,0,2.031,25.897,10.871,45.052c8.84,19.154,19.154,32.415,19.365,34.309
			c0.211,1.894-5.052,18.734-7.157,39.782c-2.105,21.049-2.736,54.516-2.736,54.516s-16.208,17.05-16.418,20.628
			c-0.21,3.578,1.684,10.524,4.841,9.472c3.157-1.052,12.84-11.787,15.997-15.997c3.157-4.21,3.789-13.682,3.789-13.682
			s7.367-33.047,14.945-47.57c7.577-14.524,14.313-38.309,14.103-54.727c-0.211-16.418-5.473-50.096-5.473-50.096L96.933,263.643z"
			/>
		<path style="fill:#FFD4D4;" d="M146.955,129.99c0,0-1.263,10.314-4.42,14.734c-3.157,4.42-15.366,2.947-15.366,2.947
			s-11.366,31.573-11.787,35.572c-0.421,3.999-0.665,20.808-8.63,38.73c-6.736,15.155-9.902,35.783-9.893,44.202
			c0.007,6.318,39.677,19.575,39.361,22.417c-0.316,2.842,2.842,56.832,3.789,61.884s-5.052,26.837-2.842,36.309
			c2.21,9.472,15.523,52.201,15.523,52.201s-2.578,5.262,0.263,7.157c2.842,1.894,5.432-0.579,9.537-0.263
			c9.462,0.728,13.038,0.684,16.633,0.263c0.797-0.093,1.141-1.789-1.49-2.842c-2.642-1.057-4.473-0.631-5.104-1.263
			c-0.632-0.632-11.051-4.736-11.051-4.736s-3.157-49.254,0.474-68.987c3.631-19.733,13.926-53.213,15.629-69.461
			c3.789-36.151-5.683-69.619-7.104-83.511c-0.955-9.335-1.894-19.733-1.894-19.733s5.052-5.525,4.42-13.261
			c-0.632-7.735-5.999-26.995-5.999-26.995s-12.629-2.684-12.629-4.736c0-2.052-0.474-15.155-0.474-15.155L146.955,129.99z"/>
		<path style="fill:#E07272;" d="M149.84,287.211c-0.062,0.369-0.156,1.236-0.777,1.143c-0.984-0.148,0.031-1.561,0.259-1.815
			c0.381-0.424-0.223-1.04-0.629-0.629c-1.808,1.834-3.017-0.359-2.416-2.094c0.176-0.507-0.535-0.721-0.809-0.341
			c-0.727,1.006-1.794,2.051-3.145,1.746c-1.302-0.294-0.852-1.79-0.396-2.684c0.07-0.109,0.138-0.224,0.198-0.353
			c0.238-0.507-0.455-0.932-0.759-0.444c-0.058,0.093-0.113,0.189-0.167,0.286c-1.266,1.824-4.54-0.861-3.18-3.001
			c0.305-0.48-0.44-0.901-0.755-0.441c-0.818,1.194-1.991,2.165-3.365,2.646c-2.208,0.775-1.97-1.507-1.525-2.943
			c0.145-0.469-0.554-0.762-0.789-0.333c-0.532,0.975-1.252,1.918-2.457,1.94c-1.473,0.026-1.692-1.951-1.649-2.985
			c0.021-0.502-0.654-0.518-0.815-0.11c-0.588,1.493-1.802,2.651-3.498,2.303c-1.732-0.355-2.278-2.244-2.176-3.772
			c0.03-0.451-0.685-0.542-0.784-0.106c-0.309,1.363-1.372,2.304-2.765,2.465c-1.846,0.213-2.457-1.454-2.313-2.99
			c0.044-0.465-0.595-0.459-0.744-0.101c-0.548,1.318-1.62,2.559-2.807,3.334c-2.342,1.528-2.018-2.528-1.993-3.707
			c0.008-0.352-0.504-0.501-0.672-0.182c-1.114,2.119-5.122,3.798-4.844,0.024c0.03-0.41-0.491-0.445-0.69-0.187
			c-0.706,0.919-1.501,1.791-2.446,2.468c-0.699,0.501-1.517,0.754-2.089-0.09c-0.495-0.731,0.207-1.717,0.577-2.331
			c0.235-0.39-0.348-0.714-0.601-0.351c-0.538,0.771-1.118,1.677-0.871,2.649c0.171,0.673,0.89,1.414,1.621,1.417
			c1.539,0.005,2.809-1.299,3.787-2.526c0.413,2.781,3.688,2.193,5.453,0.309c-0.063,1.562,0.031,3.336,1.861,3.559
			c1.398,0.171,2.861-1.459,3.75-2.871c0.241,1.242,1.045,2.182,2.535,2.365c1.328,0.163,2.577-0.542,3.341-1.584
			c0.295,1.383,1.151,2.538,2.653,2.993c1.574,0.477,2.912-0.359,3.787-1.553c0.196,1,0.713,1.865,1.766,2.307
			c0.995,0.419,1.939-0.042,2.681-0.746c-0.058,1.143,0.295,2.188,1.711,2.355c1.394,0.165,2.84-0.749,3.934-1.82
			c0.22,1.857,2.251,3.416,3.837,3.039c-0.171,0.953,0.057,1.889,1.074,2.465c1.219,0.691,2.51,0.021,3.484-0.877
			c0.118,1.529,1.258,2.667,2.619,2.369c-0.149,0.59-0.061,1.184,0.547,1.575c1.232,0.793,2.119-0.425,2.311-1.553
			C150.797,286.885,149.936,286.644,149.84,287.211z"/>
		<path style="fill:#E07272;" d="M177.953,268.964c-0.479,0.102-0.276,0.863,0.203,0.737c0.925-0.242,1.605,0.247,0.901,1.088
			c-0.718,0.858-1.714-0.191-2.168-0.765c-0.228-0.287-0.71,0.022-0.603,0.351c0.707,2.164-1.783,3.108-2.97,1.532
			c-0.049-0.077-0.099-0.154-0.157-0.233c-0.271-0.371-0.874-0.045-0.629,0.368c0.051,0.086,0.105,0.167,0.161,0.245
			c1.313,2.186-2.104,2.689-3.602,1.771c-0.269-0.164-0.669,0.109-0.554,0.426c0.993,2.742-2.127,2.922-3.954,2.213
			c-0.259-0.1-0.577,0.211-0.472,0.472c0.801,1.998-1.437,3.346-2.831,1.678c-0.247-0.296-0.764,0.019-0.643,0.374
			c0.672,1.98-0.488,4.608-2.68,2.633c-0.25-0.225-0.779-0.01-0.624,0.363c0.73,1.754-0.57,3.147-2.238,1.709
			c-0.281-0.242-0.773,0.075-0.541,0.418c0.872,1.29,0.481,2.438-1.145,2.46c-0.844,0.011-1.582-0.45-2.236-0.929
			c-0.175-0.128-0.428,0.126-0.3,0.3c1.595,2.181,5.391,1.335,4.766-1.125c1.485,0.559,2.833-0.396,2.669-2.046
			c1.956,1.01,3.462-0.758,3.294-2.91c1.672,0.86,3.727-0.477,3.434-2.455c2.166,0.527,4.798-0.202,4.427-2.601
			c1.837,0.566,4.324-0.189,4.292-1.871c1.459,0.661,3.278-0.209,3.38-1.908c0.942,0.689,2.132,0.846,2.801-0.484
			C180.682,269.284,179.143,268.711,177.953,268.964z"/>
		<path style="fill:#847C84;" d="M172.958,96.678c-0.703-1.636-1.78-3.075-2.351-4.771c-0.582-1.727-0.851-3.558-1.439-5.292
			c-1.082-3.19-3.033-5.759-6.027-7.356c-3.501-1.868-6.911-4.077-10.76-5.169c-2.648-0.751-5.559-0.415-8.233,0.025
			c-3.131,0.515-6.104,1.751-8.712,3.545c-4.698,3.232-4.417,9.212-7.356,13.601c-1.424,2.127-2.887,3.789-3.135,6.445
			c-0.233,2.502,0.937,5.068,1.748,7.366c0.905,2.564,2.064,4.944,3.873,6.999c0.814,0.925,1.805,1.691,2.835,2.358
			c0.923,0.597,2.27,0.789,3.107,1.413c0.149,0.111,0.309,0.133,0.457,0.098c2.101,1.014,4.513,0.847,6.91,0.389
			c1.662-0.318,3.293-0.772,4.961-1.062c2.029-0.352,3.989,0.125,6.024,0.118c3.859-0.013,8.154-1.26,11.708-2.708
			c2.627-1.07,4.359-3.013,5.408-5.63C173.223,103.938,174.347,99.913,172.958,96.678z"/>
		<path style="fill:#EB8686;" d="M137.125,117.188c-0.041-0.07-0.093-0.127-0.15-0.18c-0.015-0.099-0.047-0.2-0.103-0.3
			c-0.276-0.494-0.534-1.113-0.598-1.725c0.019-0.332,0.075-0.668,0.118-0.98c0.003-0.019,0.001-0.036,0.002-0.054
			c0.019-0.048,0.039-0.096,0.063-0.143c0.378-0.749-0.415-1.71-1.208-1.208c-2.284,1.446-1.811,5.181,0.871,5.897
			c0.292,0.078,0.66,0.007,0.866-0.229C137.268,117.944,137.352,117.576,137.125,117.188z"/>
		<path style="fill:#EB8686;" d="M167.164,109.539c-0.88-0.183-1.406,0.971-0.616,1.461c1.047,0.649,0.688,2.23,0.391,3.225
			c-0.346,1.158,1.482,1.66,1.805,0.498C169.204,113.067,169.406,110.005,167.164,109.539z"/>
		<path style="fill:#FFD4D4;" d="M146.113,85.577c-4.709,2.222-13.682,10.945-11.577,23.364c2.105,12.419,3.157,17.892,8.209,22.733
			c5.052,4.841,9.893,8.209,14.524,5.894c4.631-2.315,11.787-10.735,10.735-20.838c-1.053-10.103-4.21-24.417-9.262-28.416
			C153.691,84.314,148.837,84.292,146.113,85.577z"/>
		<path style="fill:#FFD4D4;" d="M129.067,147.829c0,0-4.844-1.526-7.581,0c-2.736,1.526-14.524,24.68-18.523,35.625
			c-3.999,10.945-14.103,32.205-17.26,50.307c-3.157,18.102-2.947,30.521-2.947,30.521s-2.526,19.094,0.842,24.146
			s7.162,2.963,7.162,0c0-2.959-1.11-22.251-1.11-22.251s5.841-36.678,10.261-45.308c4.42-8.63,18.628-42.466,18.628-42.466
			L129.067,147.829z"/>
		<path style="fill:#FFD4D4;" d="M167.004,155.354c0,0,4.999,1.368,6.683,5.999c1.684,4.631,4.241,33.047,6.014,41.466
			c1.773,8.419,5.081,18.044,6.144,25.785c1.473,10.735-0.694,21.068-0.694,21.068l-5.449-3.702c0,0,0-19.102-7.962-32.205
			c-4.197-6.907-6.473-14.524-6.051-23.785C166.11,180.718,167.004,155.354,167.004,155.354z"/>
		<path style="fill:#F5A2B5;" d="M178.14,269.974c0,0-5.295,1.673-9.504,4.622c-1.282,0.897-3.552,2.529-6.094,4.367
			c-5.806,4.196-13.014,9.466-13.014,9.466s0.534-1.272-5.86-5.342c-1.051-0.669-2.425-1.332-4.035-1.977
			c-8.187-3.277-22.449-6.037-31.033-6.207c-10.274-0.205-10.274-0.205-10.274-0.205s-9.557-20.024,10.274-57.214
			c0,0,25.726,15.225,36.249,17.119c10.526,1.894,29.29,2.52,29.29,2.52s3.757,9.69,4.389,17.056
			C179.16,261.544,178.14,269.974,178.14,269.974z"/>
		<path style="fill:#F5A2B5;" d="M130.958,147.15c0,0-2.736,23.885,0,25.99s32.444,6.644,33.056,4.53
			c0.613-2.114-0.515-23.147-0.515-23.147l3.505,0.831c0,0,3.589,20.059,4.934,23.259c4.061,9.663,4.982,18.359-1.557,21.55
			c-1.719,0.839-7.802,2.507-13.696,1.034c-5.894-1.473-18.323-1.641-25.264-2.326c-14.945-1.473-16.59-4.182-18.122-8.109
			c-3.368-8.63,8.187-19.727,9.24-24.147c1.052-4.42,4.841-19.465,4.841-19.465H130.958z"/>
		<path style="fill:#EB8686;" d="M170.393,211.329c-0.48-2.733-0.943-5.471-1.444-8.2c-0.043-0.234-0.253-0.496-0.515-0.494
			c1.19-0.01-0.123-0.01-0.16,0.002c-0.05,0.016-0.099,0.031-0.149,0.047c-0.249,0.078-0.372,0.392-0.339,0.628
			c0.381,2.748,0.884,5.481,1.367,8.212c0.445,2.518,0.624,5.269,1.623,7.641c0.12,0.285,0.573,0.215,0.599-0.094
			C171.591,216.507,170.834,213.84,170.393,211.329z"/>
		<path style="fill:#EB8686;" d="M152.408,312.532c-0.145-2.619-0.431-5.23-0.713-7.837c-0.26-2.409-0.525-4.818-0.74-7.232
			c-0.107-1.21-0.192-2.422-0.261-3.635c-0.07-1.238,0.051-2.537-0.385-3.711c-0.071-0.192-0.322-0.195-0.393,0
			c-0.718,1.988-0.162,4.666-0.012,6.741c0.189,2.617,0.484,5.227,0.757,7.837c0.253,2.408,0.48,4.817,0.656,7.232
			c0.178,2.439,0.064,4.944,0.44,7.36c0.04,0.255,0.448,0.241,0.499,0C152.722,317.095,152.531,314.754,152.408,312.532z"/>
		<path style="fill:#EB8686;" d="M153.948,333.427c-0.043-0.467-0.68-0.466-0.725,0c-0.266,2.748-0.219,5.524-0.467,8.278
			c-0.239,2.664-0.659,5.307-1.222,7.922c-1.14,5.297-3.132,10.211-5.104,15.233c-2.123,5.405-2.724,11.201-4.393,16.728
			c-0.818,2.709-1.909,5.331-2.958,7.956c-1.019,2.549-2.198,5.223-2.486,7.978c-0.026,0.252,0.378,0.361,0.483,0.131
			c1.073-2.366,1.866-4.887,2.822-7.305c1.04-2.63,2.113-5.244,2.992-7.933c1.855-5.675,2.448-11.656,4.559-17.273
			c1.962-5.219,4.064-10.236,5.199-15.728C153.704,344.298,154.428,338.64,153.948,333.427z"/>
		<path style="fill:#EB8686;" d="M143.415,349.912c-0.981-0.848-2.428-1.272-3.589-1.828c-0.904-0.433-1.949-1.279-2.975-1.285
			c-0.141-0.001-0.22,0.13-0.196,0.258c0.196,1.047,1.754,1.587,2.589,2.022c1.124,0.586,2.608,1.495,3.922,1.432
			C143.45,350.498,143.662,350.125,143.415,349.912z"/>
		<path style="fill:#EB8686;" d="M160.001,362.11c-1.929-0.588-4.362-0.136-6.258,0.421c-0.633,0.186-0.528,1.198,0.158,1.17
			c1.964-0.079,4.224-0.245,6.099-0.863C160.354,362.721,160.366,362.221,160.001,362.11z"/>
		<path style="fill:#EB8686;" d="M150.661,227.041c-2.042,0.828-4.001,1.84-6.048,2.663c-0.586,0.236-0.374,1.082,0.264,0.956
			c2.233-0.441,4.456-1.495,6.087-3.1C151.172,227.356,150.961,226.919,150.661,227.041z"/>
		<path style="fill:#EB8686;" d="M148.768,170.529c-0.784,0.142-1.509,0.635-2.247,0.927c-0.47,0.186-0.941,0.363-1.406,0.559
			c-0.124-0.439-0.337-0.829-0.687-1.188c-0.344-0.353-1.005,0.128-0.697,0.538c0.306,0.408,0.482,0.838,0.52,1.355
			c0.029,0.393,0.394,0.592,0.745,0.427c1.257-0.59,3.38-0.867,4.12-2.167C149.257,170.73,149.026,170.482,148.768,170.529z"/>
		<path style="fill:#EB8686;" d="M155.118,138.666c-1.804-1.695-4.735-2.497-6.919-3.637c-2.432-1.27-4.503-2.854-6.386-4.843
			c-0.255-0.27-0.668,0.074-0.5,0.386c1.197,2.219,3.384,3.682,5.51,4.922c1.25,0.729,2.557,1.36,3.856,1.994
			c1.302,0.635,2.644,1.504,4.068,1.816C155.103,139.381,155.41,138.941,155.118,138.666z"/>
		<path style="fill:#847C84;" d="M164.981,89.84c-4.152-4.505-10.107-7.992-16.392-7.653c-6.577,0.355-11.752,5.779-15.015,11.05
			c-1.747,2.823-2.664,5.901-2.739,9.212c-0.082,3.622,0.773,7.405-0.356,10.933c-0.227,0.709,0.695,1.165,1.195,0.696
			c1.323-1.241,2.913-1.944,4.519-2.736c1.492-0.736,2.63-1.775,3.917-2.801c1.225-0.977,2.519-1.863,3.741-2.846
			c1.169-0.94,2.163-2.063,3.302-3.036c1.845-1.577,3.981-2.779,5.67-4.541c1.006-1.05,1.664-2.272,2.012-3.596
			c0.31,0.959,0.714,1.878,1.401,2.741c1.301,1.635,3.333,0.804,4.949,1.619c0.798,0.403,0.768,2.09,1.052,2.831
			c0.336,0.877,1.19,1.464,2.002,1.858c2.411,1.169,4.583,3.303,6.385,5.277c0.452,0.495,1.306,0.107,1.298-0.538
			C171.839,101.321,169.755,95.02,164.981,89.84z"/>
		<path style="fill:#847C84;" d="M156.495,57.736c-3.919-3.417-10.081-2.805-14.089,0.049c-4.035,2.873-7.087,8.025-6.339,13.081
			c0.469,3.173,3.086,5.508,6.077,6.312c0.279,0.075,0.525-0.042,0.682-0.233c1.56,0.692,3.64,0.517,5.182-0.074
			c0.943-0.361,0.592-1.776-0.423-1.534c-1.037,0.247-2.843,0.619-4.031,0.125c5.593-0.126,11.708-0.942,14.721-6.226
			C160.402,65.506,159.76,60.582,156.495,57.736z"/>
		<path style="fill:#847C84;" d="M142.114,57.39c-4.454,0.307-7.026,6.674-5.202,10.384c0.079,0.161,0.323,0.077,0.324-0.088
			c0.016-1.924-0.179-3.634,0.468-5.504c0.78-2.252,2.596-3.277,4.507-4.434C142.367,57.654,142.312,57.376,142.114,57.39z"/>
		<path style="fill:#847C84;" d="M159.393,68.205c-0.886,1.474-1.429,3.091-2.536,4.436c-1.111,1.349-2.636,2.026-4.161,2.782
			c-0.322,0.16-0.088,0.624,0.234,0.555c3.529-0.764,6.447-4.09,6.877-7.66C159.834,68.087,159.498,68.03,159.393,68.205z"/>
		<path style="fill:#847C84;" d="M155.867,57.882c-0.144-0.064-0.28,0.096-0.17,0.221c1.323,1.505,2.416,2.709,2.793,4.753
			c0.349,1.895-0.043,3.864-0.599,5.676c-1.128,3.675-3.449,6.392-5.434,9.572c-0.107,0.172,0.114,0.415,0.288,0.288
			c3.11-2.242,5.174-6.817,6.154-10.396C159.824,64.618,159.61,59.536,155.867,57.882z"/>
		<path style="fill:#847C84;" d="M158.79,63.429c-0.067-0.053-0.151,0.028-0.094,0.094c3.188,3.709-0.015,7.855-1.988,11.237
			c-0.094,0.161,0.124,0.328,0.256,0.197C159.719,72.228,162.601,66.435,158.79,63.429z"/>
		<path style="fill:#847C84;" d="M157.933,64.089c-0.027-0.039-0.089-0.004-0.064,0.037c1.299,2.131,1.558,4.239,0.35,6.456
			c-0.976,1.791-2.661,3.081-4.035,4.543c-0.146,0.156,0.053,0.446,0.238,0.308c1.861-1.397,3.638-3.182,4.584-5.338
			C159.93,67.988,159.146,65.876,157.933,64.089z"/>
		<path style="fill:#847C84;" d="M137.886,73.888c-1.038-2.285-2.125-4.135-2.11-6.729c0.014-2.386,1.025-4.673,1.944-6.826
			c0.015-0.035-0.028-0.061-0.051-0.03c-2.926,3.922-3.968,10.074-0.132,13.854C137.727,74.344,137.986,74.109,137.886,73.888z"/>
		<path style="fill:#847C84;" d="M142.172,75.474c-1.623-0.47-3.079-0.653-4.441-1.773c-1.293-1.064-1.952-2.6-2.456-4.15
			c-0.039-0.119-0.215-0.098-0.218,0.03c-0.096,3.397,3.561,7.152,7.115,6.315C142.388,75.844,142.374,75.532,142.172,75.474z"/>
		<path style="fill:#847C84;" d="M148.511,57.021c-2.962-1.792-6.761-0.297-9.035,1.922c-0.151,0.148,0.068,0.347,0.225,0.225
			c1.181-0.912,2.394-1.626,3.823-2.079c1.659-0.526,3.235-0.189,4.862,0.23C148.565,57.364,148.67,57.117,148.511,57.021z"/>
		<path style="fill:#847C84;" d="M152.512,58.07c-2.113-1.003-4.635-1.218-6.936-0.979c-2.379,0.247-4.11,1.228-5.372,3.218
			c-0.013,0.02,0.019,0.038,0.032,0.019c2.645-3.85,8.364-2.637,12.148-1.954C152.557,58.405,152.694,58.156,152.512,58.07z"/>
		<path style="fill:#847C84;" d="M157.39,70.058c-1.063,0.669-1.914,1.668-2.83,2.521c-1.049,0.975-2.202,1.886-3.453,2.586
			c-0.131,0.073-0.016,0.261,0.116,0.198c2.364-1.126,4.982-2.794,6.41-5.061C157.728,70.151,157.54,69.964,157.39,70.058z"/>
		<path style="fill:#847C84;" d="M157.583,71.367c-1.636,1.552-3.115,3.156-5.001,4.432c-0.119,0.081-0.017,0.253,0.112,0.192
			c1.99-0.952,4.05-2.469,5.127-4.439C157.904,71.399,157.709,71.248,157.583,71.367z"/>
		<path style="fill:#A397A3;" d="M152.288,79.16c-0.993-1.725-4.241-1.443-5.785-0.762c-0.273,0.12-0.098,0.48,0.136,0.503
			c1.058,0.106,2.122,0.102,3.178,0.252c0.812,0.115,1.524,0.451,2.349,0.306C152.298,79.435,152.349,79.265,152.288,79.16z"/>
		<path style="fill:#A397A3;" d="M158.136,80.039c-0.236-1.532-2.409-1.608-3.475-1.023c-0.143,0.079-0.077,0.304,0.082,0.303
			c0.558-0.003,1.091-0.068,1.644,0.054c0.59,0.131,0.918,0.62,1.39,0.941C157.975,80.45,158.165,80.229,158.136,80.039z"/>
		<path style="fill:#A397A3;" d="M152.428,79.879c-1.421-0.054-2.687,0.964-3.502,2.042c-0.099,0.13,0.087,0.285,0.213,0.213
			c1.12-0.644,2.082-1.45,3.349-1.811C152.738,80.251,152.681,79.888,152.428,79.879z"/>
		<path style="fill:#A397A3;" d="M155.189,90.459c-0.059-0.228-0.419-0.239-0.471,0c-0.226,1.032-0.3,2.023-0.73,3.006
			c-0.441,1.007-1.202,1.843-1.64,2.844c-0.076,0.173,0.098,0.434,0.294,0.294C154.338,95.39,155.727,92.541,155.189,90.459z"/>
		<path style="fill:#A397A3;" d="M159.455,98.021c-0.243-0.259-0.56-0.322-0.896-0.421c-0.457-0.134-0.871-0.377-1.264-0.64
			c-0.872-0.585-1.311-1.417-1.709-2.35c-0.106-0.248-0.434-0.088-0.455,0.123c-0.109,1.101,0.677,2.102,1.467,2.771
			c0.618,0.523,1.988,1.408,2.804,0.929C159.551,98.345,159.57,98.144,159.455,98.021z"/>
		<path style="fill:#A397A3;" d="M144.619,103.763c-1.482,1.459-3.45,2.466-5.3,3.364c-1.896,0.919-3.226,1.92-4.644,3.473
			c-1.756,1.924-6.091,4.215-5.151,7.439c0.05,0.171,0.291,0.167,0.342,0c0.256-0.828,0.323-1.603,0.724-2.395
			c0.435-0.858,1.19-1.545,1.893-2.181c1.238-1.12,2.442-2.176,3.588-3.397c1.361-1.449,3.158-2.154,4.89-3.045
			c1.612-0.829,2.715-1.729,3.704-3.222C144.684,103.771,144.643,103.74,144.619,103.763z"/>
		<path style="fill:#A397A3;" d="M136.039,97.815c-2.067,2.617-3.055,6.794-2.816,10.074c0.012,0.164,0.276,0.224,0.305,0.041
			c0.261-1.626,0.509-3.249,0.923-4.845c0.458-1.768,1.332-3.401,1.767-5.166C136.242,97.823,136.11,97.725,136.039,97.815z"/>
		<path style="fill:#A397A3;" d="M168.458,107.7c-0.968-1.072-1.465-2.4-2.682-3.264c-0.707-0.501-1.455-0.931-2.092-1.525
			c-0.967-0.901-1-2.22-1.481-3.362c-0.042-0.101-0.177-0.086-0.189,0.026c-0.418,3.833,3.242,4.616,5.011,7.282
			c0.756,1.139,1.475,2.038,2.692,2.711c0.78,0.431,1.539,0.772,2.217,1.369c0.759,0.667,0.934,1.603,1.279,2.499
			c0.108,0.281,0.528,0.251,0.538-0.073C173.85,110.019,170.238,109.67,168.458,107.7z"/>
		<path style="fill:#A397A3;" d="M166.764,94.905c-0.043-0.023-0.094,0.037-0.054,0.07c2.418,1.941,2.324,4.844,3.344,7.485
			c0.064,0.165,0.334,0.156,0.327-0.044C170.284,99.741,169.247,96.269,166.764,94.905z"/>
		<path style="fill:#A397A3;" d="M141.51,81.373c-1.054-0.435-1.91,0.067-2.762,0.724c-1.055,0.813-2.065,1.706-2.997,2.657
			c-1.94,1.978-3.489,4.447-4.322,7.094c-0.058,0.184,0.209,0.288,0.304,0.128c1.235-2.055,2.38-4.11,3.941-5.949
			c1.537-1.809,3.546-3.786,5.835-4.455C141.617,81.541,141.6,81.41,141.51,81.373z"/>
		<path style="fill:#A397A3;" d="M166.723,91.312c-0.719-2.149-2.077-3.994-3.5-5.73c-1.329-1.622-3.06-3.592-5.075-4.35
			c-0.141-0.053-0.224,0.139-0.137,0.235c1.357,1.494,2.988,2.715,4.327,4.25c1.546,1.773,2.734,3.791,4.02,5.749
			C166.478,91.648,166.798,91.536,166.723,91.312z"/>
		<path style="fill:#A397A3;" d="M159.259,67.991c-2.154,2.525-4.805,6.005-8.41,6.123c-0.088,0.003-0.141,0.138-0.049,0.179
			c1.63,0.723,3.525-0.653,4.749-1.598c1.548-1.196,3.105-2.724,3.965-4.507C159.59,68.032,159.386,67.842,159.259,67.991z"/>
		<path style="fill:#A397A3;" d="M158.172,70.439c-1.319,1.753-2.514,3.882-4.804,4.479c-0.032,0.008-0.026,0.062,0.008,0.058
			c2.249-0.272,4.35-2.324,5.114-4.404C158.563,70.373,158.28,70.295,158.172,70.439z"/>
		<path style="fill:#A397A3;" d="M137.423,74.061c-1.884-1.913-3.17-4.257-2.962-7.007c0.003-0.033-0.052-0.041-0.058-0.008
			c-0.472,2.778,0.854,5.318,2.931,7.104C137.395,74.202,137.48,74.119,137.423,74.061z"/>
		<path style="fill:#A397A3;" d="M140.851,74.423c-2.838,0.025-4.92-1.115-6.432-3.529c-0.073-0.117-0.255-0.012-0.185,0.108
			c1.428,2.443,3.667,4.3,6.645,3.624C140.994,74.6,140.967,74.422,140.851,74.423z"/>
		<path style="fill:#A397A3;" d="M139.681,75.104c-1.439-1.888-2.804-3.882-2.703-6.366c0.007-0.163-0.242-0.161-0.252,0
			c-0.147,2.398,1.054,4.874,2.786,6.496C139.598,75.313,139.757,75.204,139.681,75.104z"/>
		<path style="fill:#A397A3;" d="M148.429,74.199c-2.719,0.067-5.873,0.592-8.327,1.778c-0.029,0.014-0.007,0.051,0.02,0.047
			c2.71-0.376,5.785-0.478,8.366-1.39C148.715,74.555,148.691,74.193,148.429,74.199z"/>
		<path style="fill:#A397A3;" d="M152.576,83.304c-0.41,0.501-0.646,1.063-0.867,1.667c-0.482,1.32-1.075,2.582-1.757,3.81
			c-1.373,2.472-3.209,4.677-4.878,6.95c-0.074,0.1,0.085,0.215,0.169,0.13c1.765-1.806,3.311-3.74,4.648-5.883
			c0.723-1.159,1.309-2.384,1.853-3.634c0.41-0.941,0.523-2.011,0.972-2.933C152.757,83.327,152.643,83.221,152.576,83.304z"/>
		<path style="fill:#A397A3;" d="M152.919,87.041c-1.107,3.612-3.502,6.713-5.831,9.614c-0.088,0.11,0.049,0.256,0.157,0.157
			c2.788-2.55,4.88-6.085,5.746-9.751C153.001,87.014,152.933,86.995,152.919,87.041z"/>
		<path style="fill:#A397A3;" d="M152.16,93.016c-0.871,1.588-1.993,3.005-3.234,4.32c-0.036,0.038,0.02,0.094,0.058,0.057
			c1.312-1.273,2.417-2.702,3.291-4.31C152.316,93.007,152.201,92.94,152.16,93.016z"/>
		<path style="fill:#A397A3;" d="M160.716,91.287c-2.11-2.076-4.882-3.351-6.364-6.042c-0.021-0.038-0.074-0.005-0.057,0.034
			c1.168,2.656,3.886,4.678,6.287,6.183C160.689,91.529,160.805,91.375,160.716,91.287z"/>
		<path style="fill:#A397A3;" d="M162.274,88.109c-2.098-1.079-4.07-2.407-6.26-3.294c-0.027-0.011-0.047,0.035-0.02,0.047
			c2.162,0.964,3.902,2.758,6.192,3.456C162.309,88.356,162.39,88.169,162.274,88.109z"/>
		<path style="fill:#847C84;" d="M145.67,107.694c-0.755-0.235-1.446,0.16-2.124,0.472c-0.65,0.299-1.514,0.611-1.978,1.176
			c-0.186,0.228-0.063,0.528,0.23,0.556c0.628,0.06,1.251-0.322,1.805-0.581c0.729-0.341,1.631-0.514,2.204-1.104
			C145.973,108.042,145.893,107.764,145.67,107.694z"/>
		<path style="fill:#847C84;" d="M163.193,108.004c-0.451-1.293-2.699-1.247-3.786-1.053c-0.42,0.075-0.402,0.739,0,0.827
			c0.64,0.141,1.291,0.22,1.93,0.366c0.552,0.126,1.029,0.428,1.605,0.302C163.125,108.406,163.255,108.182,163.193,108.004z"/>
		<path style="fill:#EB8686;" d="M156.199,118.096c-0.764-0.252-1.645,0.054-2.383,0.268c-0.393,0.114-0.775,0.272-1.134,0.466
			c-0.309,0.167-0.299,0.367-0.458,0.621c-0.089,0.142,0.024,0.374,0.204,0.356c0.237-0.024,0.402,0.055,0.662-0.009
			c0.422-0.104,0.835-0.248,1.258-0.353c0.687-0.17,1.492-0.246,1.996-0.8C156.515,118.458,156.44,118.175,156.199,118.096z"/>
		<path style="fill:#706666;" d="M146.884,111.417c-0.861,0.131-1.643,0.675-2.451,0.988c-0.821,0.317-1.708,0.541-2.572,0.695
			c-0.16,0.028-0.151,0.279,0,0.314c1.695,0.39,4.079-0.227,5.286-1.545C147.341,111.656,147.144,111.378,146.884,111.417z"/>
		<path style="fill:#706666;" d="M163.399,112.401c-0.69-0.305-1.501-0.315-2.233-0.484c-0.918-0.211-1.618-0.757-2.469-1.086
			c-0.153-0.059-0.329,0.122-0.273,0.273c0.536,1.46,3.565,2.319,4.914,1.769C163.516,112.801,163.63,112.503,163.399,112.401z"/>
		<path style="fill:#EB8686;" d="M147.158,120.518c-0.413-1.955-3.613-2.7-5.236-2.118c-1.046,0.375-1.458,1.371-1.172,2.414
			c0.296,1.082,1.672,1.597,2.824,1.799C145.2,123.137,147.585,122.544,147.158,120.518z"/>
		<path style="fill:#EB8686;" d="M165.02,115.756c-1.532-0.228-2.642,0.907-3.386,2.088c-0.616,0.977-1.088,2.955,0.456,3.392
			c0.039,0.011,0.078,0.017,0.118,0.024c0.227,0.222,0.557,0.243,0.801,0.056c0.059,0.03,0.121,0.057,0.184,0.079
			c1.343,0.477,2.614-1.246,3.082-2.242C166.863,117.898,166.656,116,165.02,115.756z M163.369,119.215
			c0.111-0.304,0.286-0.569,0.533-0.737C163.763,118.744,163.581,118.994,163.369,119.215z"/>
		<path style="fill:#F15E5E;" d="M158.006,125.864c-0.545-0.068-1.097,0.154-1.624,0.279c-0.699,0.166-1.417,0.23-2.107,0.435
			c-0.411,0.122-0.321,0.718,0.099,0.734c0.674,0.026,1.34-0.072,2.002-0.187c0.637-0.111,1.406-0.246,1.83-0.775
			C158.372,126.145,158.261,125.896,158.006,125.864z"/>
		<path style="fill:#EB8686;" d="M155.591,109.73c-0.01-0.144-0.209-0.142-0.222,0c-0.164,1.747-0.707,3.491-0.358,5.252
			c0.031,0.155,0.273,0.15,0.307,0C155.709,113.255,155.709,111.483,155.591,109.73z"/>
		<path style="fill:#E54E76;" d="M151.509,233.288c-0.439-1.775-2.292-0.726-3.007,0.399c-0.097-0.334-0.552-0.441-0.776-0.188
			c-0.758-0.907-2.083-1.493-3.296-1.554c-0.206-0.01-0.369,0.146-0.431,0.328c-0.761,2.228,0.794,4.73,2.906,3.877
			c-0.37,1.561-1.441,2.803-3.063,3.25c-0.53,0.146-0.302,0.977,0.227,0.823c1.84-0.536,2.976-1.875,3.495-3.579
			c0.143,0.021,0.288-0.03,0.393-0.178c0.096-0.005,0.186-0.041,0.253-0.106c0.228,1.361,0.737,2.607,1.779,3.575
			c0.375,0.348,0.937-0.212,0.562-0.562c-0.917-0.854-1.334-1.92-1.552-3.099C150.583,236.22,151.94,235.031,151.509,233.288z
			 M147.13,235.108c-1.788,1.132-2.731-0.637-2.375-2.229c0.972,0.163,2.13,0.748,2.52,1.611
			C147.209,234.693,147.161,234.898,147.13,235.108z M148.551,235.471c0.096-0.399,0.121-0.793,0.067-1.212
			c0.649-0.588,1.965-2.191,2.301-0.692C151.242,235.008,149.689,235.615,148.551,235.471z"/>
		<path style="fill:#FFD4D4;" d="M92.281,277.268c-0.909-2.964-2.138-5.766-2.65-8.845c-0.13-0.781-1.237-0.602-1.199,0.168
			c0.126,2.536,0.889,4.936,1.651,7.339c0.906,2.855,1.394,5.761,2.151,8.649c0.078,0.299,0.556,0.457,0.673,0.085
			C93.703,282.143,93.032,279.715,92.281,277.268z"/>
		<path style="fill:#EB8686;" d="M87.256,263.61c-0.243-0.124-0.501-0.124-0.765-0.111c-0.601,0.03-0.601,0.901,0,0.932
			c0.068,0.004,0.135,0.008,0.203,0.014c0.009,0.001,0.02,0.004,0.036,0.006c0.078,0.014,0.155,0.026,0.234,0.035
			c-0.037-0.002-0.025,0.003,0.036,0.014c0.037,0.01,0.074,0.023,0.11,0.038c0.097,0.037,0.223,0.054,0.328,0.049
			c0.165-0.007,0.309-0.135,0.307-0.307C87.741,263.962,87.526,263.748,87.256,263.61z"/>
		<g>
			<g>
				<path style="fill:#E54E76;" d="M143.068,248.453c-0.575,0.871,0.245,13.816,0.958,14.314c1.083,0.756,3.509-0.033,3.521-0.452
					c0.043-1.479-0.363-12.979-1.067-13.776C145.776,247.742,143.624,247.611,143.068,248.453z"/>
				<path style="fill:#E54E76;" d="M152.389,248.341c-0.702,0.773-1.87,13.691-1.241,14.293c0.955,0.913,3.473,0.503,3.549,0.092
					c0.269-1.455,1.625-12.882,1.051-13.777C155.174,248.052,153.067,247.594,152.389,248.341z"/>
			</g>
			<path style="fill:#E54E76;" d="M155.889,243.009c-4.161-2.455-13.98-0.718-15.918,1.16c-2.62,2.535-7.236,12.406-2.972,20.417
				c4.264,8.011,17.794,6.388,23.699,1.034C166.6,260.266,160.046,245.464,155.889,243.009z M158.961,263.705
				c-2.525,2.289-6.959,3.83-11.034,3.83c-2.403,0-6.721-0.543-8.647-4.163c-3.662-6.876,0.605-15.502,2.476-17.334
				c0.726-0.587,4.372-1.656,8.207-1.656c2.013,0,3.693,0.313,4.61,0.853c1.695,1,5.236,6.861,5.82,12.582
				C160.589,259.731,160.499,262.31,158.961,263.705z"/>
		</g>
		<path style="fill:#FFD4D4;" d="M180.091,244.428c-5.721,1.748-11.413,3.793-16.746,6.505c-0.915,0.465-1.95,0.9-2.698,1.62
			c-1.078,1.037-0.589,2.151,1.085,2.048c0.246-0.073,0.485-0.124,0.682-0.16c0.188-0.034,0.217,0.24,0.063,0.307
			c-0.215,0.094-0.436,0.147-0.657,0.167c-0.757,0.242-1.739,0.731-1.187,1.445c0.564,0.729,1.7,0.699,2.518,0.607
			c0.094-0.01,0.197,0.09,0.167,0.186c-0.327,1.072,0.428,1.529,1.412,1.392c0.131-0.018,0.232,0.168,0.13,0.262
			c-0.404,0.371-0.92,0.972-0.287,1.397c0.519,0.349,1.198,0.469,1.807,0.552c0.189,0.026,0.389,0.052,0.594,0.077
			c3.149-0.269,7.702-1.325,12.728-4.341c4.492-2.695,5.449-6.822,5.449-6.822L180.091,244.428z"/>
		<path style="fill:#FFD4D4;" d="M180.246,244.203c-1.19-0.332-3.09-0.488-4.247-0.137c-1.588,0.481-9.813,0.793-12.561,1.94
			c-0.923,0.386-0.897,1.862,0.251,1.853c3.241-0.024,6.793-0.646,9.617,1.198c0.387,0.252,0.806-0.023,0.957-0.389
			c0.329-0.803,0.019-1.377-0.663-1.789c2.295-0.195,4.455-0.805,6.646-1.67C180.703,245.029,180.781,244.352,180.246,244.203z"/>
		<path style="fill:#EB8686;" d="M184.355,246.739c-0.065-0.247-0.202-0.416-0.438-0.513c-0.272-0.112-0.529,0.087-0.675,0.293
			c-0.127,0.179-0.069,0.452,0.077,0.598c0.017,0.017,0.036,0.031,0.055,0.045c0.003,0.016,0.004,0.033,0.007,0.049
			c0.003,0.018,0.006,0.037,0.008,0.055c0.003,0.019,0.005,0.038,0.009,0.065c0.01,0.053,0.029,0.103,0.057,0.15
			c0.002,0.002,0.002,0.003,0.003,0.004c0.033,0.124,0.08,0.23,0.18,0.319c0.155,0.137,0.358,0.137,0.513,0
			c0.081-0.071,0.136-0.15,0.166-0.257c0.007-0.026,0.011-0.053,0.016-0.079c0.003-0.011,0.004-0.018,0.005-0.023
			c0.013-0.028,0.027-0.055,0.037-0.085C184.429,247.169,184.405,246.926,184.355,246.739z"/>
		<path style="fill:#EB8686;" d="M166.215,252.988c-0.715-0.051-1.425,0.461-2.046,0.751c-0.456,0.213-0.92,0.405-1.402,0.549
			c-0.27,0.081-0.617,0.05-0.861,0.17c-0.071,0.035-0.087,0.117-0.076,0.187c0.177,1.085,4.09-0.926,4.482-1.422
			C166.386,253.128,166.341,252.997,166.215,252.988z"/>
		<path style="fill:#EB8686;" d="M172.74,250.415c-0.769-0.07-1.571,0.37-2.276,0.648c-0.71,0.28-1.522,0.538-2.083,1.072
			c-0.041,0.039-0.009,0.106,0.045,0.107c0.761,0.016,1.495-0.345,2.197-0.605c0.743-0.274,1.621-0.415,2.249-0.906
			C173.012,250.62,172.88,250.427,172.74,250.415z"/>
		<path style="fill:#EB8686;" d="M161.76,252.509c-0.211-0.114-0.552,0.024-0.523,0.3c0.043,0.417,0.286,0.979,0.697,1.155
			c0.141,0.06,0.348,0.056,0.422-0.111C162.584,253.346,162.214,252.755,161.76,252.509z"/>
		<path style="fill:#EB8686;" d="M166.636,254.89c-0.558,0.039-1.114,0.521-1.601,0.784c-0.539,0.29-1.152,0.468-1.635,0.846
			c-0.08,0.062-0.01,0.19,0.079,0.19c0.566,0,1.095-0.299,1.599-0.533c0.532-0.246,1.387-0.55,1.67-1.092
			C166.79,255.004,166.739,254.883,166.636,254.89z"/>
		<path style="fill:#EB8686;" d="M171.372,252.883c-1.16,0.066-2.269,0.808-3.202,1.428c-0.098,0.065-0.014,0.198,0.09,0.153
			c1.035-0.445,2.328-0.606,3.209-1.348C171.56,253.04,171.487,252.877,171.372,252.883z"/>
		<path style="fill:#EB8686;" d="M162.639,255.622c-0.159-0.176-0.393-0.298-0.634-0.291c-0.311,0.008-0.546,0.359-0.367,0.64
			c0.109,0.171,0.252,0.295,0.42,0.405c0.152,0.1,0.346,0.23,0.537,0.205c0.203-0.026,0.315-0.137,0.341-0.341
			C162.964,256.01,162.783,255.781,162.639,255.622z"/>
		<path style="fill:#EB8686;" d="M173.161,256.266c-1.161,0.152-2.286,0.724-3.4,1.088c-1.26,0.411-2.619,0.675-3.812,1.254
			c-0.098,0.047-0.053,0.216,0.056,0.207c1.157-0.098,2.292-0.51,3.4-0.842c1.252-0.375,2.756-0.7,3.818-1.479
			C173.307,256.431,173.296,256.248,173.161,256.266z"/>
		<path style="fill:#EB8686;" d="M165.362,257.222c-0.096-0.399-0.735-0.415-0.821,0c-0.104,0.505-0.051,1.189,0.413,1.508
			c0.159,0.109,0.421,0.038,0.507-0.133C165.672,258.175,165.466,257.652,165.362,257.222z"/>
		<path style="fill:#EB8686;" d="M166.492,259.668c-0.013-0.013-0.104-0.126-0.031-0.03c-0.063-0.084-0.109-0.133-0.187-0.194
			c-0.144-0.112-0.275-0.211-0.461-0.244c-0.209-0.037-0.413,0.022-0.526,0.214c-0.11,0.187-0.069,0.41,0.073,0.565
			c0.166,0.181,0.296,0.365,0.522,0.479c0.204,0.103,0.443,0.089,0.611-0.079C166.69,260.183,166.682,259.866,166.492,259.668z"/>
		<path style="fill:#EB8686;" d="M164.847,246.206c-0.073-0.419-0.769-0.419-0.842,0c-0.054,0.311-0.054,0.663,0.228,0.868
			c0.1,0.072,0.286,0.072,0.385,0C164.901,246.868,164.901,246.516,164.847,246.206z"/>
	</g>
</g>
</svg>
